<?xml version="1.0" encoding="utf-8"?>
<!-- Generator: Adobe Illustrator 21.0.0, SVG Export Plug-In . SVG Version: 6.00 Build 0)  -->
<svg version="1.1" id="Layer_1" xmlns="http://www.w3.org/2000/svg" xmlns:xlink="http://www.w3.org/1999/xlink" x="0px" y="0px"
	 viewBox="0 0 300 200" enable-background="new 0 0 300 200" xml:space="preserve">
<polygon fill="#E1F5FE" points="323.5,45.3 152.9,143.7 -26.9,22.2 32.4,-151.3 249,-137 "/>
<g>
	<polygon fill="#4DB6AC" points="0.4,33.8 36,68.6 64.6,64.6 	"/>
	<polygon fill="#80CBC4" points="0.4,33.8 0.4,75.4 12.9,46 	"/>
	<polygon fill="#B2DFDB" points="12.9,46 45.6,77.8 0.4,75.4 	"/>
	<polygon fill="#26A69A" points="45.2,77.7 48.7,89.7 26,82.8 1.3,75.4 	"/>
	<path fill="#26A69A" d="M2.1,75.4"/>
	<polygon fill="#B2DFDB" points="0.4,75.4 43,95.8 37,86.2 2.1,75.6 1.5,75.5 	"/>
	<polygon fill="#4DB6AC" points="43,95.8 48.7,89.7 37,86.2 	"/>
	<polygon fill="#80CBC4" points="64.6,64.6 36,68.6 45.6,77.8 45.2,77.7 48.7,89.7 	"/>
	<polygon fill="#26A69A" points="64.6,64.6 75.7,111.5 43,95.8 48.7,89.7 	"/>
	<polygon fill="#B2DFDB" points="64.7,64.9 95.9,79.6 69.9,86.8 	"/>
	<polygon fill="#4DB6AC" points="69.9,86.8 75.7,111.5 86.4,116.6 80.3,91.9 103.9,83.4 95.9,79.6 	"/>
	<polygon fill="#B2DFDB" points="80.3,91.9 86.4,116.6 149.9,106 	"/>
	<polygon fill="#4DB6AC" points="86.4,116.6 149.8,105.4 150.2,147.4 	"/>
	<polygon fill="#26A69A" points="80.3,91.9 148.1,105.6 149.8,105.4 103.9,83.4 	"/>
	<polygon fill="#4DB6AC" points="300,33.8 264.4,68.6 235.7,64.6 	"/>
	<polygon fill="#80CBC4" points="300,33.8 300,75.4 287.5,46 	"/>
	<polygon fill="#B2DFDB" points="287.5,46 254.8,77.8 300,75.4 	"/>
	<polygon fill="#26A69A" points="255.2,77.7 251.7,89.7 274.4,82.8 299.1,75.4 	"/>
	<path fill="#26A69A" d="M298.3,75.4"/>
	<polygon fill="#B2DFDB" points="300,75.4 257.4,95.8 263.3,86.2 298.3,75.6 298.9,75.5 	"/>
	<polygon fill="#4DB6AC" points="257.4,95.8 251.7,89.7 263.3,86.2 	"/>
	<polygon fill="#80CBC4" points="235.7,64.6 264.4,68.6 254.8,77.8 255.2,77.7 251.7,89.7 	"/>
	<polygon fill="#26A69A" points="235.7,64.6 224.6,111.5 257.4,95.8 251.7,89.7 	"/>
	<polygon fill="#B2DFDB" points="235.7,64.9 204.5,79.6 230.5,86.8 	"/>
	<polygon fill="#4DB6AC" points="230.5,86.8 224.6,111.5 214,116.6 220.1,91.9 196.5,83.4 204.5,79.6 	"/>
	<polygon fill="#B2DFDB" points="220.1,91.9 214,116.6 150.5,106 	"/>
	<polygon fill="#4DB6AC" points="214,116.6 150.6,105.4 150.2,147.4 	"/>
	<polygon fill="#26A69A" points="220.1,91.9 152.2,105.6 150.6,105.4 196.5,83.4 	"/>
	<polyline fill="#4DB6AC" points="149.8,105.4 150.6,105.4 150.2,147.4 149.8,105.5 	"/>
</g>
</svg>
