<?xml version="1.0" encoding="utf-8"?>
<!-- Generator: Adobe Illustrator 21.0.0, SVG Export Plug-In . SVG Version: 6.00 Build 0)  -->
<svg version="1.1" id="Layer_1" xmlns="http://www.w3.org/2000/svg" xmlns:xlink="http://www.w3.org/1999/xlink" x="0px" y="0px"
	 viewBox="0 0 160 65" enable-background="new 0 0 160 65" xml:space="preserve">
<path fill="none" stroke="#448AFF" stroke-miterlimit="10" d="M9,30.8C32.3,29,56.3,20.9,67,9.1l7,6.5"/>
<path fill="none" stroke="#448AFF" stroke-miterlimit="10" d="M9,46c10.3,5.5,18.8,12.9,58,10.6l7-7.4"/>
<path fill="none" stroke="#448AFF" stroke-miterlimit="10" d="M13.5,18.1c9.4,19.6-0.1,41.6-0.3,41.6"/>
<polygon fill="#69A2F3" stroke="#69A2F3" stroke-miterlimit="10" points="13.3,19.7 12.7,18.8 13.1,17.8 14.3,17.7 14.9,18.6 
	14.4,19.6 "/>
<polygon fill="#69A2F3" stroke="#69A2F3" stroke-miterlimit="10" points="13.9,59 14.2,59.9 13.6,60.6 12.6,60.5 12.3,59.6 
	12.9,58.9 "/>
<polyline fill="none" stroke="#69A2F3" stroke-miterlimit="10" points="13.3,30.4 12.1,29.4 9.2,30.8 "/>
<polyline fill="#69A2F3" stroke="#69A2F3" stroke-miterlimit="10" points="10.9,47.2 9.3,47.5 9.5,48.1 9,46.3 "/>
<path fill="none" stroke="#448AFF" stroke-miterlimit="10" d="M151,30.8c-23.3-1.8-47.3-9.9-58-21.6l-7,6.5"/>
<path fill="none" stroke="#69A2F3" stroke-miterlimit="10" d="M151,46c-10.3,5.5-18.8,12.9-58,10.6l-7-7.4"/>
<path fill="none" stroke="#448AFF" stroke-miterlimit="10" d="M146.5,18.1c-9.4,19.6,0.1,41.6,0.3,41.6"/>
<polygon fill="none" stroke="#448AFF" stroke-miterlimit="10" points="80,12.1 74,6.8 77.3,2.9 77,2.9 80,2.8 83,2.9 82.7,2.9 
	86,6.8 80,12.1 74,6.8 77.3,2.9 77,2.9 80,2.8 83,2.9 82.7,2.9 86,6.8 "/>
<polygon fill="none" stroke="#448AFF" stroke-miterlimit="10" points="80,59.2 74,57.6 80,52.1 86,57.6 80,59.2 74,57.6 80,52.1 
	86,57.6 "/>
<polygon fill="#69A2F3" stroke="#448AFF" stroke-miterlimit="10" points="146.7,19.7 147.3,18.8 146.9,17.8 145.7,17.7 145.1,18.6 
	145.6,19.6 "/>
<polygon fill="#69A2F3" stroke="#448AFF" stroke-miterlimit="10" points="146.1,59 145.8,59.9 146.4,60.6 147.4,60.5 147.7,59.6 
	147.1,58.9 "/>
<polyline fill="none" stroke="#69A2F3" stroke-miterlimit="10" points="146.8,30.4 147.9,29.4 150.8,30.8 "/>
<polyline fill="none" stroke="#69A2F3" stroke-miterlimit="10" points="149.1,47.2 150.7,47.5 150.5,48.1 151,46.3 "/>
<path id="hide" display="none" fill="#0000FF" stroke="#0000FF" stroke-miterlimit="10" d="M78.7,48.6l7.8,0.1l6.3,6.6v0.4
	c34.3,3.9,50.4-5.6,49.4-6.6h0.2c-1.9-10.1-0.9-17-0.4-18.3h-0.2c-27.3-3.9-40.4-13-49-20.3l-6.2,5.7l-7.3,0.1h1.2l-7.3-0.1L67,10.5
	c-8.6,7.3-21.8,16.3-49,20.3h-0.2c0.6,1.3,1.5,8.2-0.4,18.3h0.2c-1.1,1,15,10.5,49.4,6.6v-0.4l6.3-6.6l7.8-0.1"/>
</svg>
