<?xml version="1.0" encoding="utf-8"?>
<!-- Generator: Adobe Illustrator 21.0.0, SVG Export Plug-In . SVG Version: 6.00 Build 0)  -->
<svg version="1.1" id="Button" xmlns="http://www.w3.org/2000/svg" xmlns:xlink="http://www.w3.org/1999/xlink" x="0px" y="0px"
	 viewBox="0 0 200 100" enable-background="new 0 0 200 100" xml:space="preserve">
<path fill="none" stroke="#F57C00" stroke-miterlimit="10" d="M15.9,25.7c9.7,0,17.5-7.8,17.5-17.5"/>
<path fill="none" stroke="#F57C00" stroke-miterlimit="10" d="M15.9,73.7c9.7,0,17.5,7.8,17.5,17.5"/>
<g id="Sun_Flower">
	<path fill="none" stroke="#689F38" stroke-miterlimit="10" d="M17.1,11c4.8,0,8.8,3.3,8.8,7.3"/>
	<circle fill="#F57C00" cx="17.1" cy="11" r="2.9"/>
	<path fill="#FFC107" d="M17.1,4.3c0,0-1.3,1.8,0,3.9C18.3,6.2,17.1,4.3,17.1,4.3z"/>
	<path fill="#FFC107" d="M15.6,4.4c0,0-1,2,0.7,3.9C17.2,6,15.6,4.4,15.6,4.4z"/>
	<path fill="#FFC107" d="M11.6,7.1c0,0,0.6,2.1,3.1,2.4C13.9,7.2,11.6,7.1,11.6,7.1z"/>
	<path fill="#FFC107" d="M10.8,9c0,0,1.5,1.7,3.8,1C12.9,8.2,10.8,9,10.8,9z"/>
	<path fill="#FFC107" d="M14.2,4.9c0,0-0.6,2.2,1.4,3.7C16,6.2,14.2,4.9,14.2,4.9z"/>
	<path fill="#FFC107" d="M12.7,5.9c0,0,0.1,2.2,2.5,3.1C14.9,6.5,12.7,5.9,12.7,5.9z"/>
	<path fill="#FFC107" d="M18.6,4.4c0,0,1,2-0.7,3.9C17,6,18.6,4.4,18.6,4.4z"/>
	<path fill="#FFC107" d="M22.5,7.1c0,0-0.6,2.1-3.1,2.4C20.3,7.2,22.5,7.1,22.5,7.1z"/>
	<path fill="#FFC107" d="M23.3,9c0,0-1.5,1.7-3.8,1C21.3,8.2,23.3,9,23.3,9z"/>
	<path fill="#FFC107" d="M23.5,9.6c0,0-1.5,1.7-3.8,1C21.5,8.8,23.5,9.6,23.5,9.6z"/>
	<path fill="#FFC107" d="M20,4.9c0,0,0.6,2.2-1.4,3.7C18.1,6.2,20,4.9,20,4.9z"/>
	<path fill="#FFC107" d="M21.4,5.9c0,0-0.1,2.2-2.5,3.1C19.3,6.5,21.4,5.9,21.4,5.9z"/>
	<path fill="#FFC107" d="M10.5,10.7c0,0,1.8,1.4,3.9,0.1C12.4,9.5,10.5,10.7,10.5,10.7z"/>
	<path fill="#FFC107" d="M10.6,12.1c0,0,2,1,3.9-0.5C12.2,10.6,10.6,12.1,10.6,12.1z"/>
	<path fill="#FFC107" d="M13.1,16.2c0,0,2.2-0.6,2.5-3C13.3,14,13.1,16.2,13.1,16.2z"/>
	<path fill="#FFC107" d="M15,17.1c0,0,1.7-1.4,1.1-3.8C14.2,15,15,17.1,15,17.1z"/>
	<path fill="#FFC107" d="M11,13.6c0,0,2.1,0.6,3.7-1.3C12.3,11.8,11,13.6,11,13.6z"/>
	<path fill="#FFC107" d="M11.9,15.1c0,0,2.2-0.1,3.1-2.4C12.6,12.9,11.9,15.1,11.9,15.1z"/>
	<path fill="#FFC107" d="M23.8,11c0,0-1.8,1.4-3.9,0.1C21.9,9.7,23.8,11,23.8,11z"/>
	<path fill="#FFC107" d="M23.6,12.4c0,0-2,1-3.9-0.5C21.9,10.9,23.6,12.4,23.6,12.4z"/>
	<path fill="#FFC107" d="M21.1,16.4c0,0-2.2-0.6-2.5-3C20.9,14.2,21.1,16.4,21.1,16.4z"/>
	<path fill="#FFC107" d="M19.2,17.4c0,0-1.7-1.4-1.1-3.8C19.9,15.2,19.2,17.4,19.2,17.4z"/>
	<path fill="#FFC107" d="M17.9,17.7c0,0-1.5-1.6-0.5-3.9C19,15.7,17.9,17.7,17.9,17.7z"/>
	<path fill="#FFC107" d="M16.4,17.7c0,0-1.2-1.9,0.3-3.9C17.8,16,16.4,17.7,16.4,17.7z"/>
	<path fill="#FFC107" d="M23.1,13.8c0,0-2.1,0.6-3.7-1.3C21.8,12,23.1,13.8,23.1,13.8z"/>
	<path fill="#FFC107" d="M22.2,15.3c0,0-2.2-0.1-3.1-2.4C21.5,13.2,22.2,15.3,22.2,15.3z"/>
</g>
<g id="Leaf">
	<path fill="none" stroke="#689F38" stroke-miterlimit="10" d="M17.8,86.7c1.3-4.7,5.4-7.6,9.3-6.6"/>
	<path fill="#689F38" stroke="#689F38" stroke-miterlimit="10" d="M17.6,91.1c0,0,7.7-5.1,2.4-8.8C13.5,82.8,17.6,91.1,17.6,91.1z"
		/>
</g>
<path fill="none" stroke="#F57C00" stroke-miterlimit="10" d="M183.9,73.6c-9.7,0-17.5,7.8-17.5,17.5"/>
<path fill="none" stroke="#F57C00" stroke-miterlimit="10" d="M183.9,25.6c-9.7,0-17.5-7.8-17.5-17.5"/>
<g id="Sun_Flower_1_">
	<path fill="none" stroke="#689F38" stroke-miterlimit="10" d="M182.8,88.2c-4.8,0-8.8-3.3-8.8-7.3"/>
	<circle fill="#F57C00" cx="182.8" cy="88.2" r="2.9"/>
	<path fill="#FFC107" d="M182.8,94.9c0,0,1.3-1.8,0-3.9C181.5,93.1,182.8,94.9,182.8,94.9z"/>
	<path fill="#FFC107" d="M184.2,94.8c0,0,1-2-0.7-3.9C182.7,93.2,184.2,94.8,184.2,94.8z"/>
	<path fill="#FFC107" d="M188.2,92.1c0,0-0.6-2.1-3.1-2.4C186,92,188.2,92.1,188.2,92.1z"/>
	<path fill="#FFC107" d="M189,90.3c0,0-1.5-1.7-3.8-1C187,91.1,189,90.3,189,90.3z"/>
	<path fill="#FFC107" d="M185.7,94.3c0,0,0.6-2.2-1.4-3.7C183.8,93.1,185.7,94.3,185.7,94.3z"/>
	<path fill="#FFC107" d="M187.1,93.3c0,0-0.1-2.2-2.5-3.1C185,92.7,187.1,93.3,187.1,93.3z"/>
	<path fill="#FFC107" d="M181.3,94.8c0,0-1-2,0.7-3.9C182.9,93.2,181.3,94.8,181.3,94.8z"/>
	<path fill="#FFC107" d="M177.3,92.2c0,0,0.6-2.1,3.1-2.4C179.6,92.1,177.3,92.2,177.3,92.2z"/>
	<path fill="#FFC107" d="M176.5,90.3c0,0,1.5-1.7,3.8-1C178.6,91.1,176.5,90.3,176.5,90.3z"/>
	<path fill="#FFC107" d="M176.3,89.6c0,0,1.5-1.7,3.8-1C178.4,90.5,176.3,89.6,176.3,89.6z"/>
	<path fill="#FFC107" d="M179.9,94.3c0,0-0.6-2.2,1.4-3.7C181.7,93.1,179.9,94.3,179.9,94.3z"/>
	<path fill="#FFC107" d="M178.4,93.4c0,0,0.1-2.2,2.5-3.1C180.5,92.8,178.4,93.4,178.4,93.4z"/>
	<path fill="#FFC107" d="M189.3,88.6c0,0-1.8-1.4-3.9-0.1C187.5,89.8,189.3,88.6,189.3,88.6z"/>
	<path fill="#FFC107" d="M189.3,87.1c0,0-2-1-3.9,0.5C187.6,88.6,189.3,87.1,189.3,87.1z"/>
	<path fill="#FFC107" d="M186.7,83.1c0,0-2.2,0.6-2.5,3C186.6,85.3,186.7,83.1,186.7,83.1z"/>
	<path fill="#FFC107" d="M184.9,82.2c0,0-1.7,1.4-1.1,3.8C185.6,84.3,184.9,82.2,184.9,82.2z"/>
	<path fill="#FFC107" d="M188.8,85.7c0,0-2.1-0.6-3.7,1.3C187.5,87.5,188.8,85.7,188.8,85.7z"/>
	<path fill="#FFC107" d="M187.9,84.2c0,0-2.2,0.1-3.1,2.4C187.2,86.3,187.9,84.2,187.9,84.2z"/>
	<path fill="#FFC107" d="M176,88.3c0,0,1.8-1.4,3.9-0.1C177.9,89.5,176,88.3,176,88.3z"/>
	<path fill="#FFC107" d="M176.3,86.8c0,0,2-1,3.9,0.5C177.9,88.4,176.3,86.8,176.3,86.8z"/>
	<path fill="#FFC107" d="M178.8,82.8c0,0,2.2,0.6,2.5,3C179,85,178.8,82.8,178.8,82.8z"/>
	<path fill="#FFC107" d="M180.6,81.9c0,0,1.7,1.4,1.1,3.8C179.9,84,180.6,81.9,180.6,81.9z"/>
	<path fill="#FFC107" d="M181.9,81.6c0,0,1.5,1.6,0.5,3.9C180.9,83.6,181.9,81.6,181.9,81.6z"/>
	<path fill="#FFC107" d="M183.5,81.6c0,0,1.2,1.9-0.3,3.9C182,83.3,183.5,81.6,183.5,81.6z"/>
	<path fill="#FFC107" d="M176.7,85.4c0,0,2.1-0.6,3.7,1.3C178,87.2,176.7,85.4,176.7,85.4z"/>
	<path fill="#FFC107" d="M177.6,83.9c0,0,2.2,0.1,3.1,2.4C178.3,86,177.6,83.9,177.6,83.9z"/>
</g>
<g id="Leaf_1_">
	<path fill="none" stroke="#689F38" stroke-miterlimit="10" d="M182,12.6c-1.3,4.7-5.4,7.6-9.3,6.6"/>
	<path fill="#689F38" stroke="#689F38" stroke-miterlimit="10" d="M182.2,8.2c0,0-7.7,5.1-2.4,8.8C186.4,16.5,182.2,8.2,182.2,8.2z"
		/>
</g>
<g id="Left_Branches">
	<polygon fill="#FF9800" points="31.2,18.1 62.6,21.5 93.3,15.9 93.3,20.4 62.2,25.4 28.5,20.7 	"/>
	<polygon fill="#FFA726" points="31.2,18.1 71.1,19.9 62.6,21.5 	"/>
	<polygon fill="#FB8C00" points="62.2,25.4 84.6,23 90.4,20.9 	"/>
	<polygon fill="#FF9800" points="32.5,82.5 64,79.1 94.6,84.6 94.6,80.1 63.5,75.1 29.8,79.9 	"/>
	<polygon fill="#FFA726" points="32.5,82.5 72.4,80.6 64,79.1 	"/>
	<polygon fill="#FB8C00" points="63.5,75.1 85.9,77.6 91.7,79.7 	"/>
</g>
<g id="Right_Branches">
	<polygon fill="#FF9800" points="168.9,18.4 137.4,21.8 106.7,16.2 106.7,20.7 137.8,25.7 171.5,21 	"/>
	<polygon fill="#FFA726" points="168.9,18.4 128.9,20.3 137.4,21.8 	"/>
	<polygon fill="#FB8C00" points="137.8,25.7 115.4,23.3 109.6,21.2 	"/>
	<polygon fill="#FF9800" points="167.6,82.8 136.1,79.4 105.4,84.9 105.4,80.5 136.5,75.4 170.2,80.2 	"/>
	<polygon fill="#FFA726" points="167.6,82.8 127.6,80.9 136.1,79.4 	"/>
	<polygon fill="#FB8C00" points="136.5,75.4 114.1,77.9 108.3,80 	"/>
</g>
<g id="Background_x5F_Hover" display="none">
	<polygon display="inline" fill="#FFAB40" points="182.7,45.9 182.7,55.7 179.6,68.4 177.8,71.5 173,73.1 168.9,76.4 168.3,77.1 
		135.5,72.8 113.7,75 108.1,76.9 105.3,77.3 100,76.1 100,75.9 94.7,77.1 91.9,76.7 86.3,74.8 64.5,72.6 31.7,76.9 31.1,76.2 
		27,72.9 22.2,71.3 20.4,68.2 17.3,55.5 17.3,45.7 20.2,33 22.8,28.3 25.8,27 31.7,23.5 63.2,28 85,25.8 93.5,23.5 100,23.7 
		100,23.9 106.5,23.7 115,26 136.8,28.2 168.3,23.7 174.2,27.2 177.2,28.4 179.8,33.2 	"/>
</g>
<g id="Fonts">
	<text transform="matrix(1 0 0 1 28.5372 49.9999)" fill="#F57C00" font-family="'JosefinSlab'" font-size="19px">Flowers&amp;Festivals</text>
	<text transform="matrix(1 0 0 1 50.498 65.1563)" fill="#F57C00" font-family="'JosefinSlab'" font-size="14.0559px">in Our Myanmar</text>
</g>
<g id="Left_Bar">
	<polygon fill="#F57C00" points="18,31 17,30.4 13.7,46.4 13.7,53.9 16.8,70.3 17.7,70.3 13.9,53.8 13.9,46.3 	"/>
	<polygon fill="#FFA726" points="17.7,70.3 13.9,50.1 13.9,53.8 	"/>
	<polygon fill="#FFA726" points="13.9,50.1 15,42.1 13.9,46.3 	"/>
	<polygon fill="#F57C00" points="15,42.1 15,56.1 13.9,50.1 	"/>
	<polygon fill="#FFA726" points="15,45.2 18,31 15,42.1 	"/>
	<polygon fill="#F57C00" points="15,56.1 18.2,70.3 17.7,70.3 	"/>
	<polygon fill="#FF9800" points="16.8,70.3 17.6,70.6 18.2,70.3 	"/>
	<polygon fill="#FF9800" points="17,30.4 17.7,30.5 18,31 	"/>
</g>
<g id="Right_Bar">
	<polygon fill="#F57C00" points="182.5,31 183.4,30.4 186.8,46.4 186.8,53.9 183.6,70.3 182.7,70.3 186.6,53.8 186.6,46.3 	"/>
	<polygon fill="#FFA726" points="182.7,70.3 186.6,50.1 186.6,53.8 	"/>
	<polygon fill="#FFA726" points="186.6,50.1 185.4,42.1 186.6,46.3 	"/>
	<polygon fill="#F57C00" points="185.4,42.1 185.4,56.1 186.6,50.1 	"/>
	<polygon fill="#FFA726" points="185.4,45.2 182.5,31 185.4,42.1 	"/>
	<polygon fill="#F57C00" points="185.4,56.1 182.3,70.3 182.7,70.3 	"/>
	<polygon fill="#FF9800" points="183.6,70.3 182.9,70.6 182.3,70.3 	"/>
	<polygon fill="#FF9800" points="183.4,30.4 182.8,30.5 182.5,31 	"/>
</g>
</svg>
