<?xml version="1.0" encoding="utf-8"?>
<!-- Generator: Adobe Illustrator 21.0.0, SVG Export Plug-In . SVG Version: 6.00 Build 0)  -->
<svg version="1.1" id="Layer_1" xmlns="http://www.w3.org/2000/svg" xmlns:xlink="http://www.w3.org/1999/xlink" x="0px" y="0px"
	 viewBox="0 0 100 100" style="enable-background:new 0 0 100 100;" xml:space="preserve">
<style type="text/css">
	.st0{clip-path:url(#Ground_1_);fill:#009688;}
	.st1{clip-path:url(#Ground_1_);fill:#80CBC4;}
	.st2{clip-path:url(#Ground_1_);fill:#4DB6AC;}
	.st3{fill:#B2DFDB;stroke:#B2DFDB;stroke-width:0.25;stroke-miterlimit:10;}
	.st4{fill:none;stroke:#4DB6AC;stroke-width:0.11;stroke-miterlimit:10;}
	.st5{fill:#4DB6AC;}
	.st6{fill:#4DB6AC;stroke:#4DB6AC;stroke-width:0.18;stroke-miterlimit:10;}
	.st7{clip-path:url(#XMLID_7_);fill:#4DB6AC;}
	.st8{fill:#80CBC4;stroke:#26A69A;stroke-width:0.18;stroke-miterlimit:10;}
	.st9{fill:#80CBC4;stroke:#26A69A;stroke-width:0.18;stroke-linejoin:round;stroke-miterlimit:10;}
	.st10{fill:none;stroke:#26A69A;stroke-width:0.18;stroke-miterlimit:10;}
	.st11{fill:#B2DFDB;stroke:#26A69A;stroke-width:0.18;stroke-miterlimit:10;}
	.st12{clip-path:url(#XMLID_8_);fill:#26A69A;}
	.st13{fill:#B2DFDB;stroke:#80CBC4;stroke-width:0.25;stroke-miterlimit:10;}
	.st14{fill:#4DB6AC;stroke:#26A69A;stroke-width:0.25;stroke-miterlimit:10;}
	.st15{fill:#B2DFDB;stroke:#26A69A;stroke-width:0.25;stroke-miterlimit:10;}
	.st16{clip-path:url(#XMLID_9_);fill:#B2DFDB;stroke:#B2DFDB;stroke-width:0.25;stroke-miterlimit:10;}
	.st17{clip-path:url(#XMLID_10_);fill:#4DB6AC;stroke:#80CBC4;stroke-width:0.25;stroke-miterlimit:10;}
	.st18{fill:#009688;stroke:#80CBC4;stroke-width:0.25;stroke-miterlimit:10;}
	.st19{fill:#80CBC4;}
	.st20{clip-path:url(#XMLID_11_);fill:#80CBC4;}
	.st21{clip-path:url(#XMLID_11_);fill:#4DB6AC;}
	.st22{fill:#4DB6AC;stroke:#80CBC4;stroke-width:0.25;stroke-miterlimit:10;}
	.st23{fill:#4DB6AC;stroke:#B2DFDB;stroke-width:0.25;stroke-linejoin:bevel;stroke-miterlimit:10;}
	.st24{fill:#4DB6AC;stroke:#B2DFDB;stroke-width:0.25;stroke-miterlimit:10;}
	.st25{fill:#4DB6AC;stroke:#B2DFDB;stroke-width:0.25;stroke-linecap:round;stroke-linejoin:round;stroke-miterlimit:10;}
</style>
<g id="Ground_x5F_Group">
	<g>
		<defs>
			<path id="Ground" d="M15.1,79.7c0,0,20.7,0.8,25.5,0c4.9-0.8,53-1.2,50.6-2.4c-1.5-0.8-2.2-13.6-2.2-13.6s-42.1,4.2-45.4,4.4
				c-3.3,0.2-17-0.9-19-0.9s-12.1,3.5-12.1,3.5S15.9,77.5,15.1,79.7z"/>
		</defs>
		<use xlink:href="#Ground"  style="overflow:visible;fill:#00695C;"/>
		<clipPath id="Ground_1_">
			<use xlink:href="#Ground"  style="overflow:visible;"/>
		</clipPath>
		<path class="st0" d="M20.3,79.8c0,0,18.5-12.4,25.7-13c7.2-0.6,24.1-1.2,29.3-4.5s15-8.5,17.7-3.9c2.7,4.7-9.5,31.5-17.1,30.2
			c-7.6-1.2-26.5-5.4-32.5-6.6S20.3,79.8,20.3,79.8"/>
		<path class="st1" d="M33.7,81.8c0,0,14.3-13.7,20.1-13.9s19.3-0.7,23.6-4.9c4.3-4.2,17.5-1,17.5,2.3c0,3.4-0.2,16.3-5.1,18.1
			s-0.6,5.2-17.3,3.4c-16.7-1.8-6.3-0.3-21.5-1.9C36,83.5,33.7,81.8,33.7,81.8z"/>
		<path class="st2" d="M38.6,82.6c0,0,7.7-8.7,13.9-9.4s19-0.3,23-3.2c4-2.9,5.9-7,10.3-8c4.3-1,13.3,3.6,10.2,7.6
			c-3.1,3.9-3.3,16.3-7.9,16.2c-4.5-0.1-19.4,0.9-25.5-1.5c-6.1-2.4-7.4-3.9-14.1-2.4S38.6,82.6,38.6,82.6z"/>
	</g>
	<g>
		<path class="st3" d="M48.1,78.3c0,0-0.1-1.7,1-2s2.1,0,2.4,0.5c0.3,0.5,0.3,0.5,0.3,0.5s0-2.3,3-2.9c2.9-0.6,5.7,1.8,5.9,2.1
			c0,0,2.7-1,4,0.5c0,0-1.4-5.2,1.4-5.8c2.8-0.6,6.4,1.5,6.9,3c0,0-0.4-1.9,0.7-2c1.1,0,2.5,1.4,2.6,1.7c0,0.3,0.9-1.2,1.9-0.6
			c-2-2.2-1.9-3.8-1.1-4.2c0.8-0.4,0.8-0.4,0.8-0.4c5.8-0.3,7.1,2,7.1,2s0.4-1.5,1.4-1.1c1,0.4,1.2,1.6,1.2,1.6s0.9-1,1.3-0.3
			s0.4,1.3,0.4,1.3s1.7-0.9,1.8,0.4"/>
		<path class="st3" d="M75.4,77.2c0,0-0.9-1.9,0.5-2.4s2.2,0.6,2.2,0.6s0.2-2.2,2.1-1.9c1.9,0.3,2.3,1.8,2.3,2.3
			c1-0.4,3.2-1.3,3.6,0.1c0.4,1.3-0.7,1.9-0.7,1.9"/>
		<path class="st3" d="M60,78.3c0,0-0.2-1.1,0.6-1.6c0.9-0.5,2,0,2,0s-0.1-1.4,0.8-1.5c0.9-0.2,2.2,1,2.2,1s-0.1-1.6,0.6-1.7
			c0.6-0.1,1.2,0.2,1.5,0.6c0.3,0.4-0.2-0.1,1-0.1s1,1.8,1,1.8s0.4-0.1,1-0.3c0.5-0.2,0.8,0.5,0.7,1.9"/>
	</g>
</g>
<g id="TaiL">
	<path class="st4" d="M74.5,48.9c0,0,0.9-0.4,1.6,0.4s0.7,4,1.2,5.5c0.5,1.5,3.4,4.9,4.6,5.2c1.3,0.4,1.5,0.3,2.3,0s1.7-2.6,2.5-2.8
		"/>
	<path class="st4" d="M74.7,49.2c0,0,0.9-0.4,1.6,0.4c0.7,0.8,0.7,4,1.2,5.5c0.5,1.5,3.4,4.9,4.6,5.2s1.5,0.3,2.3,0
		c0.7-0.3,1.7-2.6,2.5-2.8"/>
	<path class="st4" d="M75.3,50.1c0,0,1-0.5,1.7,0.4c0.7,0.9,0.8,4.4,1.3,6.1s3.7,5.3,5.1,5.8s1.7,0.3,2.5,0s1.8-2.9,2.7-3.1"/>
	<path class="st4" d="M74.9,49.5c0,0,1-0.5,1.7,0.4c0.7,0.9,0.8,4.4,1.3,6.1s3.7,5.3,5.1,5.8s1.7,0.3,2.5,0s1.8-2.9,2.7-3.1"/>
	<path class="st4" d="M74.7,49.1c0,0,1-0.5,1.7,0.4s0.8,4.4,1.3,6.1s3.7,5.3,5.1,5.8s1.7,0.3,2.5,0c0.8-0.3,1.8-2.9,2.7-3.1"/>
	<path class="st4" d="M74.7,49c0,0,1-0.5,1.7,0.4c0.7,0.9,0.8,4.4,1.3,6.1c0.5,1.6,3.6,5.3,4.9,5.8c1.4,0.4,1.6,0.3,2.4,0
		c0.8-0.3,1.8-2.9,2.6-3.1"/>
	<path class="st4" d="M75.1,49.7c0,0,1-0.5,1.7,0.4c0.7,0.9,0.8,4.4,1.3,6.1c0.5,1.6,3.7,5.3,5.1,5.8s1.7,0.3,2.5,0
		c0.8-0.3,1.8-2.9,2.7-3.1"/>
	<path class="st4" d="M74.4,48.7c0,0,0.9-0.4,1.6,0.4s0.7,4,1.2,5.5c0.5,1.5,3.4,4.9,4.6,5.2c1.3,0.4,1.5,0.3,2.3,0s1.7-2.6,2.5-2.8
		"/>
	<path class="st4" d="M75.1,49.9c0,0,0.9-0.4,1.6,0.4c0.7,0.8,0.7,4,1.2,5.5s3.4,4.9,4.6,5.2s1.5,0.3,2.3,0c0.7-0.3,1.7-2.6,2.5-2.8
		"/>
	<path class="st4" d="M75,49.5c0,0,0.9-0.4,1.6,0.4c0.7,0.8,0.7,4,1.2,5.5c0.5,1.5,3.4,4.9,4.6,5.2s1.5,0.3,2.3,0
		c0.7-0.3,1.7-2.6,2.5-2.8"/>
	<path class="st4" d="M75.1,49.8c0,0,0.9-0.4,1.6,0.4c0.7,0.8,0.7,4,1.2,5.5c0.5,1.5,3.4,4.9,4.6,5.2c1.3,0.4,1.5,0.3,2.3,0
		c0.7-0.3,1.7-2.6,2.5-2.8"/>
	<path class="st4" d="M75.2,49.8c0,0,0.9-0.4,1.6,0.4c0.7,0.8,0.7,4,1.2,5.5c0.5,1.5,3.4,4.9,4.6,5.2c1.3,0.4,1.5,0.3,2.3,0
		c0.7-0.3,1.7-2.6,2.5-2.8"/>
	<path class="st4" d="M74.9,49.4c0,0,0.9-0.4,1.5,0.4c0.6,0.8,0.7,3.9,1.2,5.4s3.3,4.7,4.5,5.1c1.2,0.4,1.5,0.3,2.2,0
		c0.7-0.3,1.6-2.5,2.4-2.7"/>
	<path class="st4" d="M74.8,49.4c0,0,0.9-0.4,1.5,0.4c0.6,0.8,0.7,3.9,1.2,5.4c0.5,1.4,3.3,4.7,4.5,5.1c1.2,0.4,1.5,0.3,2.2,0
		c0.7-0.3,1.6-2.5,2.4-2.7"/>
</g>
<g>
	<path class="st5" d="M32.1,55.7c0,0,1.2,3.5,2,3.8c0,0.9-2.3,1-3.6,0.3c-1.3-0.7-4.3-2.7-5.1-2.6s-0.4,1.2,0,1.6s2.4,2.1,3,2.1
		s0.4,0.3,0.6,0.9c0.1,0.6,0.6,1.2,0.6,1.2h0.7c0,0-0.1-1.1,0.4-1.3c0.4-0.2,3.9,1.8,4,2.2c0.1,0.4,0.5,1.6,0,1.6
		c-0.5,0.1-2.5-0.5-2.9-0.7c-0.4-0.2-0.8-0.5-0.8-0.5s-2.8,0.8-2.9,0.4c-0.1-0.5-2.5-4.2-3-4.7c-0.6-0.5-3.1-1.6-3.3-2.4
		s-0.5-2.4,0.6-2.4c1,0.1,4.5,0.9,5.9,0.9s3.6-1.7,3.7-1.1C32,55.5,32.1,55.7,32.1,55.7z"/>
	<path class="st5" d="M38.1,61.3c0,0,3.1,0.7,3.7,0.2c0.8,0.8-1.5,3.1-2.2,3.2c-0.7,0.1-2.3-0.4-2.3,0.3c0.1,0.7,1.1,0.7,1.2,1
		c0.1,0.4-0.7,0.9-0.1,1c0.6,0.1,1.2,0.2,1.6,0.6c0.4,0.4,2.5,2.1,3.2,1.9c0.7-0.2,1.6-0.8,1.8,0c0.2,0.8,0.2,0.8,0.9,0.8
		s0.2-0.8,1.1-1.2c0.9-0.4,1.5-0.6,2-0.3s4.3,1.8,4.3,2.5c0,0.7-4,1.2-4.3,1.2c-0.3,0-1.8-0.3-2-0.5s-1.3-0.2-1.4,0.5s-0.2,1-0.9,1
		c-0.8,0.1-3-3.1-5.2-3.8c-1.7-1-3.4-1.7-4.1-1.4c-0.8,0.3-1.6-1.2-1.7-1.6s-0.2-1.2,0.4-1.2c0.6,0,1.3-0.2,1.7-0.8
		c0.4-0.6,0.5-1.3,0.8-1.7C36.9,62.6,38.1,61.3,38.1,61.3z"/>
	<path class="st5" d="M62.5,55.1c-1.3,0-5.1,1.7-5.1,3.4s0,2.9,1.2,3.9c1.2,1,3,2.5,6.5,2.4c3.6-0.1,4.6,0.1,4.9,0.5
		c0.3,0.4-2.3,1.8-3.3,1.5s-3-0.3-3.7-0.3s-0.4,0.1-0.6,0.7c-0.2,0.7-1.6,1-2.2,1c-0.6,0-1.5-0.1-2.4-0.3c-0.9-0.2-1.6-0.1-1.5,0.3
		c0,0.4,1.3,2.7,2.9,2.6s1.6-0.8,1.6-0.8s0.4-0.9,0.9-0.1s1,0.9,1,0.9s0.3,0.2,0.4-0.7c0-1-0.4-1.2,0.3-1.2c0.7,0,5.3-1.1,7.5-0.9
		c2.4-0.4,4.2-1.9,4.3-2.7s-1.5-1.9-3.4-1.9c-1.8,0-2.1-0.2-2.4-0.5c-0.2-0.3-0.8-1.3,0.1-1.7c0.9-0.4,2.3-0.5,2.5-1.1
		c0.2-0.6,0.4-1.4,0.4-1.4"/>
	<path class="st5" d="M59.2,62.1c0-0.8-1,1.9-1,2.5c0,0.6-1.2,0.4-1.4,0.3c-0.1-0.2-4.4-2.1-5.4-1.9c-0.9,0.2-1.3,0.7-1.3,0.7
		s0,0.3-0.4,0c-0.4-0.3-0.7-1.2-1.4-0.6c-0.7,0.6-1.4,1-1.6,1c-0.2,0-0.6,0.5,0.1,1s2.3,1.1,3.5,1s1.6,0,1.7-0.3
		c0.1-0.3-0.2-0.9-0.3-0.9c-0.2-0.1-0.3-0.5,0-0.4c0.3,0.1,0.7,0.5,1.1,0.6c0.4,0.1,3,0.5,3.9,1.1c0.9,0.6,2.6,1.2,3.3,1.3
		c0.7,0,1.4,0.1,1.6-0.3c0.2-0.4,0.4-0.8,0-1s-1,0.1-0.7-0.5s0.9-0.8,1-1.2c0.2-0.4,0.2-0.4,0.2-0.4S59.2,62.7,59.2,62.1z"/>
	<path class="st6" d="M75.9,53c0,2.2-1.1,4.2-2.8,5.5c0,0,0,0,0,0c-0.1,0.1-0.2,0.2-0.4,0.3c-0.1,0-0.1,0.1-0.2,0.1
		c-0.6,0.3-1.5,0.7-2.9,1.1c0,0,0,0,0,0c-0.4,0.1-0.8,0.1-1.3,0.1c-1.9,0-3.7-0.7-5.1-1.8c-0.1,0-0.3,0-0.4,0
		c-1.8,0.1-3.2,0.3-3.5,0.5c-1.1,0.8-3.1,2.1-5,2.4c-2,0.3-4.2,0.4-5.5,0.9c-1.4,0.5-3.3,0.9-4.4,0.7c-1.1-0.2-2.5-0.9-2.5-0.9
		c-0.6,0.1-1.3,0.2-1.9,0.2c-4.9,0-8.9-4-8.9-8.9c0-3,1.5-5.6,3.7-7.2c-0.9,0.5-1.6,1.1-2.5,2.3c0,0,0.1-2.4-0.4-3.1
		c-0.5-0.7-2.1-2.1-2.7-2.3c-0.5-0.3-0.7-0.6-1.4-0.6c-0.7,0-1.1,0.5-1.3,0.8c-0.2,0.3-0.3,0.9-1.1,0.9c-0.8,0-3.4,0.4-4,0
		c-0.7-0.4,0.3-0.4-0.7-0.4c-0.9,0-0.7,0.1-1.1,0.5c-0.4,0.4-0.5,0.9-0.9,0.6c-0.4-0.4-1-0.3-0.7-0.9c0.3-0.6,0.3-0.8,0.3-1
		c0-0.2-0.2-0.6-1.1-0.5s-0.5,0.6-1.1,0.6c0,0-0.8-0.8-0.8-1.1c-0.1-0.3-0.2-0.3,0.2-0.9c0.4-0.7-0.2-0.8,1.2-0.9
		c1.4-0.1,0.9,0.1,1.7,0c0.8-0.1,1.3-1.1,1.8-1.6c0.5-0.5,1-1.3,1-1.3s0.5,0.5,0-0.6c-0.6-1.1-0.9-1.2-1.6-1.5
		c-0.7-0.4-0.9-0.9-0.9-0.9s1.2-0.3,2,0.3c0.8,0.5,1.6,0.8,1.6,0.8s0.2,0.1,0.3-0.4c0.1-0.4,0.2,0.1,0.2-0.7c0-0.2,0-0.3,0-0.3
		c-0.1,0-0.2-0.2-0.5-0.7c-0.8-1.3-0.8-1.3-1.5-1.7c-0.7-0.4-0.7-0.8-0.7-1c0-0.3,1.3,0.3,2.4,0.9c1,0.6,1.7,1.7,2.2,2.1
		c0.5,0.4,1.7,0.7,2.3,0.7s1.2,0.3,2.9,0.3c1.7,0,5,1.1,5.7,1.4c1.2,0.5,5.5,4.4,6,5.5c0.5,0.9,2.5,3.4,3.8,4.2
		c0.2,0.1,0.4,0.2,0.5,0.2c0,0,0,0,0,0c0.1,0,0.1,0,0.1,0c2.8,0.6,6.7,1.3,8.6,1.4c3.1,0.1,12-0.9,12.9-1c-0.1,0-0.4,0.1-0.8,0.2
		c0.4-0.1,0.9-0.1,1.3-0.1C72.5,45.9,75.9,49.1,75.9,53z"/>
	<g>
		<defs>
			<polygon id="XMLID_5_" points="31.2,51.1 30.6,51.3 30.6,54 31.2,54 36.5,56.7 45.6,46.5 46.6,46.3 44.4,44.3 42.5,45 35.4,52.2 
							"/>
		</defs>
		<use xlink:href="#XMLID_5_"  style="overflow:visible;fill:#80CBC4;"/>
		<clipPath id="XMLID_7_">
			<use xlink:href="#XMLID_5_"  style="overflow:visible;"/>
		</clipPath>
		<path class="st7" d="M28.1,54.6c0,0,7.8,0,8.6-0.7c0.8-0.7,2.8-3.8,3.1-4.3c0.3-0.5,3.1-5.8,3.1-6.2c0-0.4-0.1-1.3,1.7-0.3
			c1.8,1,2.8,3.8,2,5c-0.9,1.2-7.5,8.9-8.6,9.1c-1.2,0.2-4.4,0.4-5.9,0.2C30.4,57,28.1,54.6,28.1,54.6z"/>
		<use xlink:href="#XMLID_5_"  style="overflow:visible;fill:none;stroke:#26A69A;stroke-width:0.18;stroke-miterlimit:10;"/>
	</g>
	<polygon class="st8" points="30.6,51.3 31.2,51.1 35.4,52.2 35.4,53 31.3,51.9 30.6,52.2 	"/>
	<polygon class="st8" points="35.4,52.2 42.5,45 44.4,44.3 45.2,45 43,45.9 35.4,53 	"/>
	<polygon class="st9" points="30.6,53.5 31.4,53.5 36.5,55.8 36.3,56 36.5,56.7 31.2,54 30.6,54 	"/>
	<polygon class="st9" points="36.5,56.7 36.3,56 36.5,55.8 36.8,55.8 45.2,46.3 46.6,46.3 45.6,46.5 	"/>
	<path class="st10" d="M28.5,33.9c0,0,1.9-1.1,3-0.7c1.1,0.3,2.3,0.1,2.3,0.1s-0.1,2.3-1,2.4c-0.9,0.1-4.9,0.6-5.2,0.5
		C27.3,36,28.5,33.9,28.5,33.9z"/>
	<polygon class="st11" points="18.9,39.8 20.3,41.6 20.8,42.4 20.6,43.7 21.3,44.3 21.9,41.8 21.6,40.8 19.3,38.9 18.7,39.5 	"/>
	<polygon class="st11" points="21.6,40.8 27.1,36 27.9,34 28.3,33.9 27.4,36.1 21.8,41.5 	"/>
	<polygon class="st11" points="26.8,36.6 29.6,40.3 30.1,41.2 33.6,39.8 36.6,36.1 36.9,36.3 34,40.3 30.5,41.8 29.9,43.7 
		29.1,43.1 29.9,41.8 29.2,40.3 26.6,36.8 	"/>
</g>
<g>
	<defs>
		<path id="XMLID_4_" d="M45.3,45.4c0,0-2.7-2-2.7-2.7c0-0.7-0.3-1.4,0.6-1.7s3.6,1.1,3.6,1.1s11.4,2.7,12.6,2.2
			c1.2-0.6,2.6-0.2,2.7,0.7c0.2,0.8-1.4,2.2-1.4,2.2s-12.5,0.8-13.6,0S45.3,45.4,45.3,45.4z"/>
	</defs>
	<use xlink:href="#XMLID_4_"  style="overflow:visible;fill:#009688;"/>
	<clipPath id="XMLID_8_">
		<use xlink:href="#XMLID_4_"  style="overflow:visible;"/>
	</clipPath>
	<path class="st12" d="M42.2,38.9c0,0,5.4,4.7,6.3,5.7s-0.1,0.9,1.6,1.2c1.7,0.3,1.2,4.1-1.1,3.9s-6.4,0.1-7.6-3
		c-1.2-3.1-2-3.6-1.1-5.5C41.2,39.3,42.2,38.9,42.2,38.9z"/>
</g>
<g id="Man_x5F_On_x5F_Horse">
	<path class="st13" d="M37.6,33.1l-2.5-0.8c0,0-1.4-0.1-1.4,0.1c-0.1,0.2,0,0.5-0.2,0.7c0.4,0.3,0.4,0.4,0.6,0.4
		c0,0.4-0.3,0.3,0,0.4c0.3,0.1,0.8,0.3,1,0.2c0.2-0.1,0.7-0.5,0.8-0.4c0.1,0.1,3.1,1.3,3.1,1.3s1,0.5,2.3,1c1.5-0.5,2.2-1.2,2.2-1.2
		s0-1.8-0.4-2.1c-0.4-0.3-2.1,0.6-2.2,1C37.6,33.1,37.6,33.1,37.6,33.1z"/>
	<path class="st14" d="M44.9,31.2c0,0-1.7,1.1-2.2,0.9c1,1.1,0.9,3.8,0.5,3.9c-0.4,0.1,2.5-1.1,2.5-1.1S44.6,31.9,44.9,31.2z"/>
	<g>
		<path class="st15" d="M58.2,37.1c0,0-2.8,3.1-4.4,3.3c-1.6,0.2-3.1-0.2-3.3,0s-2,1.3-2,1.3s4.6,1,6.7-0.6s4.8-4,4.8-4L58.2,37.1z"
			/>
		<path class="st14" d="M43.7,30.9h2.9l0.3-1.2c0,0,2.4-1.3,3.2-0.7c0.9,0.7,2.7,2.5,3,3.2c0.2,0.7,1.4,4.8,2.3,4.8s2.9,0,2.9,0
			s-2.9,3-4,3.2s-3.7,0.1-3.7,0.1l-2,1.3c0,0-1.8-0.1-1.7-0.8c0.1-0.8,0.1-4.4-0.8-4.1c-0.9,0.3-2.9-3.4-2.3-4
			C44.3,32.1,43.7,30.9,43.7,30.9z"/>
	</g>
	<g>
		<defs>
			<path id="XMLID_3_" d="M48.5,41.7c0,0-2-0.2-2,0.8c0,0.9,5.7,3,5.7,3s-3.4,1.5-3.2,4.1c0.3,2.6,4.2,2.5,4.4,2.5
				c0.2,0,2.8,0,2.8,0s1.1-2.4,1.8-3c0.7-0.6,1.1-1,1.1-1l-1.7-0.7c0,0,3.9-2.6,3.8-3.6c-0.1-1-1.9-2.6-2.7-3.8l-0.4-0.6
				c-0.2-0.3-0.6-0.3-0.9-0.1l-2,1.6c0,0-0.6,0.5-1.4,0.6c-0.8,0.2-2.6,0.3-2.8,0.2S48.5,41.7,48.5,41.7z"/>
		</defs>
		<use xlink:href="#XMLID_3_"  style="overflow:visible;fill:#4DB6AC;"/>
		<clipPath id="XMLID_9_">
			<use xlink:href="#XMLID_3_"  style="overflow:visible;"/>
		</clipPath>
		<path class="st16" d="M62.6,41.7c0,0-8.3,4.4-9.1,5.1c-0.8,0.6-3.6,2.2-2.6,4.3c1,2.1,1.7,3,3.7,3.2S65.3,45,64.8,44
			C64.3,43,62.6,41.7,62.6,41.7z"/>
		<use xlink:href="#XMLID_3_"  style="overflow:visible;fill:none;stroke:#26A69A;stroke-width:0.25;stroke-miterlimit:10;"/>
	</g>
	<path class="st15" d="M56.7,51.2c0,0,5.1,1.7,5.9,1.4c0.8-0.2,1.6,1.8,1.6,1.8l-1,2.2c0,0,0.3,0.8,1.2,0.8c0.9,0,2.1-2,2.3-2.5
		c0.2-0.5,0.1-0.7,0.8-1s1.6-1.3,0.5-1.5s-2.3-0.2-2.7-0.3c-0.3-0.1-3-2.6-4.1-2.9c-1.1-0.3-2.3-0.9-2.3-0.9S56.9,50.9,56.7,51.2z"
		/>
	<g id="Face">
		<path class="st13" d="M44.1,30.6c0-0.3-0.3-0.5-0.4-0.6s-1.1,0.4-1.4,0.4c-0.3,0.1-0.3-0.1-0.4-0.2c-0.2-0.1-0.2-0.8-0.2-0.8
			l0.5-0.4c0.2-0.1-0.8-0.5-0.8-1c0-0.5-0.6-0.8-0.6-0.8s0.2-0.1,0.6-0.1c0.4-0.1,0.4-1.3,0.4-1.3l-0.3-1.4c0,0,0.7-1.6,2.4-1.6
			c1.7-0.1,3,1.3,3,2.5c0.1,1.2-0.2,3.6-0.2,3.9c0,0.3-0.2,1.5-0.2,1.5h-2.3L44.1,30.6z"/>
		<g>
			<defs>
				<path id="XMLID_2_" d="M44.8,25.8l0.3,0.6L45,26.6l0.2,0.4v0.5l-0.3,0.3l-0.1,0.2l0.4-0.2L45,28.2l-0.2,0.3l0.5-0.3v0.4l0.3-0.4
					v-0.8v-0.5l0.3-0.3l0.6,0.3l0.1,1.1l-0.2,0.5l0.4-0.2l-0.3,0.5l-0.2,0.3l0.6-0.2l-0.7,0.8l0.9-0.4l0.2,0.4v0.4c0,0,0-1.1,0-1.2
					s0.3,0.1,0.3,0.1s-0.1-0.3-0.2-0.6c-0.1-0.2,0.1-0.4,0.2-0.3c0.1,0.1,0.2,0.3,0.2,0.3s-0.4-0.8-0.5-1c-0.1-0.2,0.1-0.4,0.3,0
					c0.2,0.4-0.2-0.3-0.3-0.6s-0.1-0.7-0.1-0.7l0-0.3L44.8,25.8z"/>
			</defs>
			<use xlink:href="#XMLID_2_"  style="overflow:visible;fill:#B2DFDB;"/>
			<clipPath id="XMLID_10_">
				<use xlink:href="#XMLID_2_"  style="overflow:visible;"/>
			</clipPath>
			<path class="st17" d="M49.7,23.7c0,0-5.1,0-5.8,0.9c-0.7,0.9-0.8,3.8-0.2,4.5s5.6,0.9,5.8,0.6C49.7,29.4,49.7,23.7,49.7,23.7z"/>
			<use xlink:href="#XMLID_2_"  style="overflow:visible;fill:none;stroke:#80CBC4;stroke-width:0.25;stroke-miterlimit:10;"/>
		</g>
		<path class="st18" d="M47.7,25.9c0,0-0.3,0.6,0,1c0.3,0.4-0.7-0.3-0.7-0.3l0-0.7L47.7,25.9z"/>
	</g>
	<g id="Hat">
		<polygon class="st19" points="48.9,24.9 48,25.2 47,24.9 45.8,25.2 44.4,24.9 43.2,25.2 42.1,24.9 40.5,25.2 39.8,24.9 40.8,24.5 
			41.3,24.5 48.2,24.5 		"/>
		<g>
			<defs>
				<polygon id="XMLID_1_" points="40.8,24.5 41.6,22.6 43.7,21.5 44.2,21 44.9,21.6 47.3,22.4 48.2,24.5 				"/>
			</defs>
			<clipPath id="XMLID_11_">
				<use xlink:href="#XMLID_1_"  style="overflow:visible;"/>
			</clipPath>
			<path class="st20" d="M43.2,19.5c0,0-0.2,7.2,0.7,7.3c0.9,0.1,9.1-0.8,7.4-3.1s-1-3.4-3.4-3.6C45.3,19.9,43.2,19.5,43.2,19.5z"/>
			<path class="st21" d="M39.2,20.9c0,0,4.2-1.4,5.1-0.7s1.7,1.8,1.2,3.1c-0.5,1.3-6.6,2.1-7,2.5C38.3,26.1,39.2,20.9,39.2,20.9z"/>
			<use xlink:href="#XMLID_1_"  style="overflow:visible;fill:none;stroke:#80CBC4;stroke-width:0.25;stroke-miterlimit:10;"/>
		</g>
		<polygon class="st13" points="43.2,25.2 44.5,25.7 45.8,25.2 44.4,24.9 		"/>
		<polygon class="st22" points="45.8,25.2 47,24.9 48,25.2 47,25.8 		"/>
		<polygon class="st13" points="42.1,25.7 43.2,25.2 44.5,25.7 45.8,25.2 47,25.8 		"/>
		<path class="st13" d="M47,25.8l1-0.6l0.8-0.4c0,0,0.5,0.5,0.9,0.6c0.4,0.2,0.9,0.4,0.9,0.4H47z"/>
		<polygon class="st22" points="39.8,24.9 40.5,25.2 42.1,24.9 43.2,25.2 42.1,25.7 40.4,25.8 39,25.1 		"/>
		<path class="st13" d="M40.4,25.8l1.4,0.5c0,0,0.1-0.3,0-0.5S40.4,25.8,40.4,25.8z"/>
		<path class="st22" d="M50,25.9l-2.4,0.8c0,0,0-0.6,0.1-0.7C47.9,25.8,50,25.9,50,25.9z"/>
	</g>
	<g>
		<path class="st23" d="M33,29.5c0,0,0.5,0.4,0.6,1.2c0.1,0.8,0,0.8,0.1,1s-0.7-0.8-1.1-0.9s-0.6-0.2-0.7-0.5
			c-0.1-0.2-0.7-1.5-0.7-1.5L33,29.5z"/>
		<path class="st24" d="M30,26.5L50,58.1c0,0,0.2,0.3,0,0.4c-0.1,0.1-0.4-0.2-0.4-0.2L29.6,26.8c0,0-0.2-0.4,0-0.5
			C29.6,26.3,29.8,26.2,30,26.5z"/>
		<path class="st23" d="M30.1,27.3l0.1,1.2l0.1-0.1l0.2,1.1l0.3-0.4l0.5,1c0,0,0.7,0.3,0.9,0.5c0.2,0.3-0.8-1.4-0.8-1.8
			c0.6,0.6,0.9,1.1,0.9,1.1s-0.2-0.6-0.1-0.9c-0.2-0.1-0.4-0.1-0.4-0.1l-0.4-0.5c0,0,1.2,0.2,1.3,0.4c-0.8-0.7-1.1-0.7-1.4-1
			c-0.3-0.3-1.5-1.1-1.5-1.1S30.1,26.9,30.1,27.3z"/>
		<path class="st23" d="M30.6,29.4c0,0,0.4,1.1,0.3,1.1s0.2-0.7,0.2-0.7l-0.3-0.7L30.6,29.4z"/>
		<path class="st25" d="M32.2,29.3l0-0.3l-0.4-0.1l-0.4-0.5c0,0,1.2,0.3,1.3,0.4c0,0,0.5,0.7,0.7,0.8C32.9,29.5,32.4,29.1,32.2,29.3
			z"/>
		<polygon class="st23" points="29.6,26.7 30,26.5 30.1,26.1 30.2,25.9 29.5,25.7 29.1,26 29,26.7 		"/>
		<polygon class="st23" points="30.2,25.9 30.4,26.3 30.2,26.7 30,26.5 		"/>
		<polygon class="st23" points="30,26.5 30.2,26.7 29.8,27 29.6,26.7 		"/>
		<polygon class="st23" points="29.6,26.7 29,26.7 29.2,26.9 29.8,27 		"/>
		<path class="st23" d="M29.5,26.3c0,0-1.1-0.7-1.4-0.4c-0.3,0.3-0.4,0.7-0.4,0.7l-0.1-0.7c0,0-0.4,1.2-0.3,1.3
			c0.1,0.2-0.2-4.7-0.5-5.3c0.4,0.5,4.6,3,4.5,2.9c-0.1-0.2-1.3-0.3-1.3-0.3l0.6,0.4c0,0-0.4-0.1-0.8,0.1S29.6,26.2,29.5,26.3
			L29.5,26.3z"/>
	</g>
	<g>
		<path class="st13" d="M52.4,33.3L51,38.4c0,0-1.2,0.4-1.6,0.1s-2.2-2.2-2.2-2.2l0.6-0.9c0,0,2-2.5,2.1-3"/>
		<path class="st13" d="M47.9,35.4c0,0,2.1,2.4,2.3,2.3c0.2-0.1,1-0.1,1-0.1L51,38.4c0,0-1.1,0.4-1.4,0.2c-0.3-0.2-2.4-2.3-2.4-2.3
			L47.9,35.4z"/>
		<path class="st13" d="M47.9,37c0,0-2.3,0.6-2.5,2.2c0,0-1.6-0.7-3.8,0.7c-2,0.2-1.6,0.1-1.6,0.1s-1-0.7-1.2-1.1s-0.6-0.4-0.8-0.2
			c-0.2,0.1,0.3,0.6,0.1,0.9c-0.2,0.2-0.7,0.2-0.9,0.1c-0.3-0.1-0.7,0.5-0.7,1c0,0.4,0.3,1,0.5,1.1s0.9,0.4,1.9,0.1s2.6-0.4,3.1-0.3
			c0.5,0.1,4.6-0.2,5-0.6c0.4-0.4,1.8-0.5,2.2-0.9c0.4-0.4,0.8-1.2,0.8-1.2l-0.6,0L47.9,37z"/>
	</g>
</g>
</svg>
