<?xml version="1.0" encoding="utf-8"?>
<!-- Generator: Adobe Illustrator 21.0.0, SVG Export Plug-In . SVG Version: 6.00 Build 0)  -->
<svg version="1.1" id="Leaf" xmlns="http://www.w3.org/2000/svg" xmlns:xlink="http://www.w3.org/1999/xlink" x="0px" y="0px"
	 viewBox="0 0 100 40" enable-background="new 0 0 100 40" xml:space="preserve">
<polygon fill="#E0F2F1" points="100,20.1 81.8,8 49.4,0.1 0,14.9 "/>
<polygon fill="#80CBC4" points="84.9,19.3 82.8,12.9 78.8,7.3 80.5,13.3 "/>
<polygon fill="#80CBC4" points="71.4,18.6 70,10.1 66.2,4.2 67.1,10.7 "/>
<polygon fill="#80CBC4" points="49.4,0.1 55.1,9.2 55.7,17.8 51.6,8.9 "/>
<polygon fill="#80CBC4" points="38.4,16.9 37.8,9.7 34.2,4.6 34.9,10.8 "/>
<polygon fill="#80CBC4" points="22.3,16 22.3,11.9 19.8,8.9 20.7,13.3 "/>
<polygon fill="#B2DFDB" points="100,20.2 80.6,30.3 47.6,34.8 0,14.9 "/>
<polygon fill="#80CBC4" points="85.3,20 82.5,26.2 78,31.3 80.3,25.5 "/>
<polygon fill="#80CBC4" points="71.8,19.3 69.5,27.6 65.1,33.1 66.7,26.7 "/>
<polygon fill="#80CBC4" points="47.6,34.6 54.2,26.2 55.7,17.7 50.7,26.1 "/>
<polygon fill="#80CBC4" points="38.8,17.6 37.4,24.6 33.3,29.3 34.7,23.3 "/>
<polygon fill="#80CBC4" points="22.7,16.7 22.3,20.8 19.4,23.5 20.8,19.3 "/>
<polygon fill="#4DB6AC" points="100,20.2 88.4,28.7 80.6,30.3 "/>
<polygon fill="#26A69A" points="47.6,34.8 62.8,34.8 88.4,28.7 "/>
<polygon fill="#B2DFDB" points="88.4,28.7 62.8,34.8 79.9,31.7 "/>
<polygon fill="#26A69A" points="0,14.9 34.8,31.3 47.6,34.8 "/>
</svg>
