<?xml version="1.0" encoding="utf-8"?>
<!-- Generator: Adobe Illustrator 21.0.0, SVG Export Plug-In . SVG Version: 6.00 Build 0)  -->
<svg version="1.1" id="Layer_1" xmlns="http://www.w3.org/2000/svg" xmlns:xlink="http://www.w3.org/1999/xlink" x="0px" y="0px"
	 viewBox="0 0 46 34" style="enable-background:new 0 0 46 34;" xml:space="preserve">
<style type="text/css">
	.st0{fill:none;stroke:#4DB6AC;stroke-miterlimit:10;}
	.st1{fill:none;stroke:#4DB6AC;stroke-linejoin:round;stroke-miterlimit:10;}
</style>
<path class="st0" d="M9.9,24.6c0.3,0.4,0.1,1-0.3,1.3c-0.7,0.4-1.5,0.2-1.9-0.4c-0.6-1-0.3-2.3,0.7-2.9c1.4-0.9,3.3-0.5,4.2,1
	c1.3,2.1,0.7,4.9-1.4,6.2c-3.1,2-7.3,1-9.2-2.1C-1,23.1,0.4,17,5.1,14.1l5.2-3.5"/>
<path class="st0" d="M37.1,12c0.2,0.5,0.7,0.8,1.2,0.6c0.7-0.3,1.1-1.1,0.9-1.8c-0.4-1.1-1.6-1.7-2.6-1.3c-1.6,0.5-2.5,2.3-1.9,3.9
	c0.8,2.4,3.4,3.6,5.8,2.8c3.5-1.2,5.4-5,4.2-8.5c-1.8-5.2-7.4-7.9-12.5-6.1l-6,1.9"/>
<polygon class="st1" points="8.8,17 30.3,7 23.7,19.7 "/>
<path class="st1" d="M16.2,30.2c0,0,1-1,1.1-4c0.1-3-4.8-6.1-4.8-6.1l12.9,2.4l5.3-10.9c0,0,3.8,8.1,8.8,7.2"/>
<path class="st0" d="M31.5,18.5c-0.8,1.5-0.2,3.3,1.3,4c1,0.5,2.2,0.1,2.7-0.9"/>
</svg>
