<?xml version="1.0" encoding="utf-8"?>
<!-- Generator: Adobe Illustrator 21.0.0, SVG Export Plug-In . SVG Version: 6.00 Build 0)  -->
<svg version="1.1" id="Layer_1" xmlns="http://www.w3.org/2000/svg" xmlns:xlink="http://www.w3.org/1999/xlink" x="0px" y="0px"
	 viewBox="0 0 40 32" style="enable-background:new 0 0 40 32;" xml:space="preserve">
<style type="text/css">
	.st0{fill:#009688;stroke:#009688;stroke-miterlimit:10;}
	.st1{fill:#FFFFFF;stroke:#009688;stroke-linecap:round;stroke-linejoin:round;stroke-miterlimit:10;}
	.st2{fill:#009688;}
	.st3{fill:#009688;stroke:#009688;stroke-width:0.15;stroke-miterlimit:10;}
</style>
<path class="st0" d="M1.5,2l-1,27.6c0,0,1,0.9,2,0.9s2-0.9,2-0.9L2.5,2H1.5z"/>
<path class="st1" d="M1,2C1,2,20.6,4.3,24,6.6s13.8,6.9,15,5.8s-4.6,9.2-4.6,11.5s-9.2-2.3-15-3.5S1,21.6,1,21.6S4.4,3.2,1,2z"/>
<g>
	<g id="M_x5F_Left_x5F_Group">
		<polygon class="st2" points="7.1,16.7 9.8,4.9 12,8.5 9.9,17.4 		"/>
	</g>
	<g id="M_x5F_Right_x5F_Group">
		<polygon class="st2" points="17.6,19.1 20.3,7.4 16.8,9.6 14.7,18.5 		"/>
	</g>
	<g id="M_x5F_Middle_x5F_Group">
		<g>
			<defs>
				<polyline id="XMLID_1_" points="12.8,11 18.6,7.4 11.4,5.7 15,11.5 				"/>
			</defs>
			<clipPath id="XMLID_3_">
				<use xlink:href="#XMLID_1_"  style="overflow:visible;"/>
			</clipPath>
			<use xlink:href="#XMLID_1_"  style="overflow:visible;fill:none;stroke:#009688;stroke-width:0.75;stroke-miterlimit:10;"/>
		</g>
	</g>
	<polygon class="st3" points="22.5,16.8 23.2,13.7 24.3,15.5 	"/>
	<polygon class="st3" points="24.5,15.2 23.3,13.3 25,11.9 28.5,12.7 28.2,13.8 25.9,13.4 	"/>
	<polygon class="st3" points="24.4,15.8 22.5,17 23.4,19 26.8,19.8 27.1,18.7 24.8,18.1 	"/>
</g>
</svg>
