<?xml version="1.0" encoding="utf-8"?>
<!-- Generator: Adobe Illustrator 21.0.0, SVG Export Plug-In . SVG Version: 6.00 Build 0)  -->
<svg version="1.1" id="Layer_1" xmlns="http://www.w3.org/2000/svg" xmlns:xlink="http://www.w3.org/1999/xlink" x="0px" y="0px"
	 viewBox="0 0 300 250" style="enable-background:new 0 0 300 250;" xml:space="preserve">
<style type="text/css">
	.st0{fill:none;stroke:#000000;stroke-miterlimit:10;}
</style>
<g id="M_x5F_Left_x5F_Group">
	<polygon class="st0" points="41.5,195.3 41.5,54.7 75.7,88.9 75.7,195.3 	"/>
</g>
<g id="M_x5F_Right_x5F_Group">
	<polygon class="st0" points="167.3,195.3 167.3,54.7 133.1,88.9 133.1,195.3 	"/>
</g>
<g id="C_x5F_Group">
	<polygon class="st0" points="193.3,166.5 193.3,125 213.1,144.8 	"/>
	<polygon class="st0" points="215.2,140.6 194.3,119.6 211.8,96.8 258.5,96.8 258.5,111.9 227.1,112.5 	"/>
	<polygon class="st0" points="215.2,149 194.3,169.9 211.8,192.8 258.5,192.8 258.5,177.6 227.1,177.1 	"/>
</g>
<g id="M_x5F_Middle_x5F_Group">
	<polyline class="st0" points="92.1,115.7 148.1,59.7 61.9,59.7 117.9,115.7 	"/>
	<!-- <polygon class="st0" points="61.9,59.7 148.1,59.7 105,102.8 	"/> -->
</g>
</svg>
