<?xml version="1.0" encoding="utf-8"?>
<!-- Generator: Adobe Illustrator 21.0.0, SVG Export Plug-In . SVG Version: 6.00 Build 0)  -->
<svg version="1.1" xmlns="http://www.w3.org/2000/svg" xmlns:xlink="http://www.w3.org/1999/xlink" x="0px" y="0px"
	 viewBox="0 0 100 100" style="enable-background:new 0 0 100 100;" xml:space="preserve">
<style type="text/css">
	.st0{display:none;}
	.st1{display:inline;}
	.st2{fill:#CCCCCC;}
	.st3{fill:#999999;}
	.st4{display:inline;fill:#666666;}
	.st5{display:inline;fill:#808080;}
	.st6{display:inline;fill:#CCCCCC;}
	.st7{fill:#009688;}
	.st8{fill:#E0F2F1;}
	.st9{fill:#80CBC4;}
	.st10{fill:#4DB6AC;}
	.st11{fill:#FFB74D;}
	.st12{fill:#FFCC80;}
	.st13{fill:#FFA726;}
	.st14{fill:#FFE0B2;}
	.st15{fill:#FFAB40;}
	.st16{fill:#B2DFDB;}
</style>
<g id="Background" class="st0">
	<g id="BgMonk" class="st1">
		<g>
			<path class="st2" d="M41.2,20.7c-0.4,0.4-1,0.4-1.4,0L38.2,19c-0.4-0.4-0.7-0.4-0.7,0.1c0,0.4-0.3,0.4-0.6,0l-0.9-1.3
				c-0.3-0.4-0.5-1.3-0.4-1.8l0.9-4.5c0.1-0.5,0.5-1.3,1-1.6l0.6-0.5c0.4-0.4,1.2-0.7,1.8-0.7h1.5c0.6,0,1.3,0.3,1.7,0.7l2.2,2.3
				c0.4,0.4,0.6,1.2,0.4,1.7L45,15.9c-0.1,0.5-0.3,1.2-0.3,1.5s-0.4,0.8-0.8,1.1l-0.1,0.1c-0.5,0.3-1.2,0.9-1.6,1.2L41.2,20.7z"/>
		</g>
		<polygon class="st3" points="37.5,19.8 35.4,16.9 33.6,16.9 33.6,18.4 29,23.5 26.2,44.4 29.8,58.6 30.9,69.7 28.3,83.7 
			30.9,83.7 34.3,82 36.1,82 37.5,83.7 41.5,84.6 45.9,83.7 48,81.3 43.4,50 43.2,36.8 42.1,33.8 42.4,26.8 40.3,21.2 38,18.7 
			37.5,19 		"/>
		<polygon class="st2" points="34.5,51.9 36.6,52.7 36.6,41.9 37.6,38.4 40.7,35.9 44.2,27.7 40.2,20.8 		"/>
		<polygon class="st3" points="27.3,48.9 27.8,61.4 27.8,70.5 26.2,83.3 28.3,83.7 30.9,69.7 29.8,58.6 		"/>
		<polygon class="st3" points="42.1,33.8 44.5,37.1 43.7,38.5 43.3,41.3 		"/>
		<polygon class="st3" points="40.3,21.2 43.5,29.4 44.2,27.7 		"/>
		<polygon class="st2" points="36.6,52.7 37.1,62.3 33.7,60.8 34.5,51.9 		"/>
		<path class="st2" d="M26.8,83.4l-0.6,5.8l2.8-0.5l4.1,0.5l2.3-0.3l2.4-1l1.6,0.7l2.8,0.2l1.2-0.8c0,0,2.1,0.5,2.3,0.5
			s1.5-0.4,1.5-0.4l0.8-0.7l1.1,0.1l-0.8-2.9l-1.4-2l-1,1.1l-4.4,0.9l-4.1-0.9L36.1,82h-1.8l-3.5,1.7h-2.6L26.8,83.4z"/>
		<polygon class="st2" points="45,88.2 45.8,90.2 50,90.9 50.7,92.6 43.9,93.1 43,92.6 43,90.6 42,88.2 42.9,87.8 		"/>
		<polygon class="st2" points="29.7,87.2 29,89.5 32,92.9 31.4,94.7 25.5,90.5 25.1,89.5 26.4,87.9 27.3,85.2 28.3,85.5 		"/>
	</g>
	<polygon class="st4" points="43.8,37.3 52.9,29.4 52.9,29.8 43.3,38.4 	"/>
	<polygon class="st5" points="44.2,36.7 43.8,35.5 43.8,33.9 44.5,32.7 52.6,26.7 52.6,27.4 52.3,28.3 52.6,29.1 52.9,29.4 
		44.5,36.7 	"/>
	<polygon class="st6" points="43.3,38.4 44.2,38.2 44.9,38.3 52.9,30.2 52.9,29.8 	"/>
</g>
<g id="Nayone">
	<circle class="st7" cx="48.9" cy="23.2" r="12.3"/>
	<g id="Monk">
		<g id="Head_1_">
			<polygon id="Head" class="st8" points="52.9,21.7 53.1,20.3 53.7,18.1 53.5,16.7 52.3,15.4 51.1,14.1 49.8,13.8 48.4,13.8 
				47.1,14.4 46,15.3 45.7,16.4 45,19.7 44.8,20.6 45.1,21.6 46.1,23.1 46.4,23.2 46.6,23.1 46.6,22.8 46.6,22.7 46.7,22.7 
				46.9,22.7 48.5,24.3 48.8,24.5 49,24.6 49.3,24.6 49.7,24.5 50.2,24 51,23.4 51.8,22.7 52.3,22.4 52.8,21.9 			"/>
			<polygon class="st9" points="51.9,20.3 52.1,20.3 52.1,20.5 51.9,20.7 51.7,20.8 51.7,20.6 			"/>
			<polygon class="st10" points="47.5,17.6 46.9,17.8 46.5,18.8 46.6,19.8 46.8,19.8 46.9,19.5 46.7,18.9 47,18 47.4,17.8 			"/>
			<polygon class="st9" points="46.9,19.5 46.7,18.7 46.7,18.9 			"/>
			<polygon class="st9" points="46.7,18.7 47.1,18 47.4,17.8 47,18 			"/>
			<polygon class="st10" points="52.1,20.5 52.1,20.3 52.1,20.3 			"/>
			<polygon class="st10" points="51.9,20.3 51.7,20.6 51.7,20.6 			"/>
			<polygon class="st10" points="52.1,20.5 51.9,20.7 51.7,20.8 51.7,20.8 			"/>
			<polygon class="st10" points="51.9,19.5 52.2,19.5 52.4,19.6 52.4,19.9 52.3,19.9 52.3,19.7 52.2,19.6 51.8,19.6 			"/>
			<polygon class="st9" points="48.8,24.6 49,24.6 49,24.6 48.9,24.6 			"/>
			<polygon class="st9" points="49.1,24.6 49.8,24.5 49.7,24.5 49.3,24.6 			"/>
			<polyline class="st9" points="49,24.6 49,24.6 49.1,24.6 49.1,24.6 			"/>
			<polygon class="st9" points="49.7,24.5 50.2,24 51.9,22.6 52.3,22.4 50.7,23.6 50.2,24 			"/>
			<polygon class="st10" points="49.9,24.4 49.6,24.5 49.8,24.5 			"/>
			<polygon class="st10" points="52.1,22.5 52.9,21.7 52.8,21.9 52.3,22.4 			"/>
			<polygon class="st9" points="52.9,21.7 53.1,20.3 53.7,18.1 53,20.3 			"/>
			<polygon class="st9" points="52.8,21.8 53,20.3 52.9,21.7 			"/>
			<polygon class="st10" points="51.7,20.6 51.7,20.9 51.7,20.8 51.7,20.6 			"/>
			<polygon class="st10" points="51.8,20.3 52.1,20.3 51.9,20.3 			"/>
			<polygon class="st10" points="50.2,24 49.8,24.3 49.9,24.4 			"/>
			<polygon class="st10" points="51.9,22.6 51,23.3 50.4,23.8 			"/>
			<polygon class="st10" points="53.2,19.8 53.6,17.7 53.7,18.1 			"/>
			<polygon class="st9" points="53.6,17.7 53.5,16.7 52.4,15.6 53.5,16.7 			"/>
			<polygon class="st9" points="53.6,18 53.6,17.7 53.5,16.7 			"/>
			<polygon class="st10" points="53.5,16.7 52.4,15.6 51.3,14.3 52.4,15.6 			"/>
			<polygon class="st9" points="47.1,14.4 48.4,13.8 49.8,13.8 			"/>
			<polygon class="st10" points="50.8,14.1 49.8,13.8 48.9,14 			"/>
			<polygon class="st9" points="51.1,14.1 51.9,15 50.8,14.1 			"/>
			<polygon class="st10" points="53.2,16.4 53.5,16.7 53.5,17.4 53.4,16.7 			"/>
			<polygon class="st10" points="47.1,14.4 46,15.3 45.7,16.4 46.2,15.3 47.3,14.4 			"/>
			<polygon class="st9" points="45.8,16.2 45.4,18.4 44.8,20.5 45.7,16.4 			"/>
			<polygon class="st10" points="44.8,20.6 45.1,21.4 45.8,22.5 45.1,21.3 44.9,20.5 45.4,18.5 			"/>
		</g>
		<g id="Foot">
			<polygon class="st8" points="53.4,83.4 54.2,85.1 57.9,85.7 58.5,87.2 52.5,87.7 51.7,87.3 51.7,85.5 50.8,83.4 51.7,83 			"/>
			<polygon class="st8" points="40,82.5 39.4,84.5 42,87.5 41.5,89.1 36.3,85.4 36,84.6 37.2,83.1 37.9,80.8 38.8,81 			"/>
			<polygon class="st7" points="52.4,87.7 51.7,85.5 51.7,87.3 			"/>
			<polygon class="st7" points="39.4,84.5 40.1,86 41.9,87.9 42,87.5 			"/>
			<polygon class="st7" points="36.3,85.4 37,83.4 36,84.6 			"/>
			<polygon class="st7" points="54.2,85.1 54.8,85.7 58.1,86.2 57.9,85.7 			"/>
			<polygon class="st7" points="52.5,87.7 58.3,86.8 58.5,87.2 			"/>
			<polygon class="st7" points="41.5,89.1 37,85.4 36.3,85.4 			"/>
		</g>
		<g id="Thin_Kan">
			<polygon class="st11" points="46.3,23.4 44.5,20.8 42.9,20.8 42.9,22.1 38.9,26.6 36.4,45 39.6,57.4 40.5,67.1 38.3,79.4 
				40.5,79.4 43.6,77.9 45.1,77.9 46.3,79.4 49.9,80.2 53.7,79.4 55.5,77.3 51.5,49.8 51.3,38.2 50.4,35.7 50.6,29.5 48.8,24.6 
				46.8,22.4 46.3,22.7 			"/>
			<polygon class="st12" points="43.7,51.8 45.6,52.6 45.6,43 46.5,39.9 49.2,37.7 52.2,30.4 48.7,24.3 			"/>
			<polygon class="st13" points="37.4,48.9 37.9,59.9 37.9,67.8 36.4,79 38.3,79.4 40.5,67.1 39.6,57.4 			"/>
			<polygon class="st13" points="50.4,35.7 52.5,38.6 51.8,39.8 51.4,42.3 			"/>
			<polygon class="st13" points="48.8,24.6 51.6,31.8 52.2,30.3 			"/>
			<polygon class="st14" points="45.6,52.2 46,60.7 43,59.3 43.7,51.5 			"/>
			<path class="st15" d="M37,79.1l-0.5,5.1l2.4-0.5l3.6,0.5l2-0.3l2.1-0.9l1.4,0.6l2.5,0.2l1.1-0.7c0,0,1.8,0.4,2,0.4
				s1.3-0.3,1.3-0.3l0.7-0.6l1,0.1l-0.7-2.6l-1.2-1.8l-0.9,1l-3.8,0.8l-3.6-0.8l-1.2-1.5h-1.6l-3,1.5h-2.2L37,79.1z"/>
		</g>
	</g>
	<g id="Book">
		<polygon class="st10" points="50.5,38.4 58.5,31.5 58.5,31.8 50.2,39.3 		"/>
		<polygon class="st16" points="50.9,37.8 50.6,36.8 50.6,35.4 51.2,34.4 58.2,29.1 58.2,29.7 57.9,30.6 58.2,31.3 58.5,31.5 
			51.2,37.8 		"/>
		<polygon class="st9" points="50.2,39.3 50.9,39.1 51.6,39.2 58.5,32.2 58.5,31.8 		"/>
		<polygon class="st9" points="57.3,32.1 57,31.7 56.8,31.2 56.8,30.4 56.9,30.4 56.9,31.2 57,31.6 57.4,32.1 		"/>
		<polygon class="st9" points="57.2,32.1 56.9,31.7 56.8,31.2 56.8,30.5 56.9,30.5 56.8,31.2 57,31.7 57.3,32.1 		"/>
		<polygon class="st9" points="56.6,32.6 56.3,32.2 56.2,31.7 56.2,31 56.3,31 56.2,31.7 56.4,32.2 56.8,32.6 		"/>
		<polygon class="st9" points="56.1,33 55.8,32.6 55.7,32.1 55.7,31.4 55.8,31.4 55.8,32.1 55.9,32.6 56.3,33 		"/>
		<polygon class="st9" points="56.1,33 55.8,32.6 55.6,32.1 55.6,31.4 55.7,31.4 55.7,32.1 55.9,32.6 56.2,33 		"/>
		<polygon class="st9" points="55.2,33.8 54.9,33.4 54.7,32.9 54.7,32.2 54.8,32.2 54.8,32.9 55,33.4 55.3,33.8 		"/>
		<polygon class="st9" points="55.3,33.8 55,33.4 54.8,32.9 54.8,32.2 54.9,32.2 54.9,32.9 55,33.4 55.4,33.8 		"/>
		<polygon class="st9" points="54.6,34.4 54.2,34 54.1,33.5 54.1,32.7 54.2,32.7 54.2,33.5 54.3,34 54.7,34.4 		"/>
		<polygon class="st9" points="54.6,34.4 54.3,34 54.2,33.5 54.2,32.7 54.3,32.7 54.3,33.5 54.4,34 54.8,34.4 		"/>
		<polygon class="st9" points="54.1,34.8 53.7,34.4 53.6,33.9 53.6,33.1 53.7,33.1 53.7,33.9 53.8,34.3 54.2,34.8 		"/>
		<polygon class="st9" points="54.2,34.8 53.8,34.4 53.7,33.9 53.7,33.1 53.8,33.1 53.8,33.9 53.9,34.3 54.3,34.8 		"/>
		<polygon class="st9" points="52.9,33.9 52.9,34.3 53.1,34.8 53,34.8 52.8,34.4 52.8,33.8 		"/>
		<polygon class="st9" points="52.9,33.9 52.9,34.3 53.2,34.8 53.1,34.8 52.9,34.4 52.9,33.8 		"/>
		<polygon class="st9" points="52.3,34.1 51.5,34.7 51.1,35.3 51.1,35.9 51.2,36.6 51.4,37.1 52.7,35.9 52.5,35.2 52.5,34.5 
			52.4,33.9 		"/>
	</g>
	<g id="small_x5F_grass">
		<polygon class="st7" points="19.5,87.7 22.5,85.3 23.8,82.3 21.6,85 		"/>
		<polygon class="st7" points="19.5,87.7 20.8,82.7 20.8,79.6 19.5,84.3 		"/>
		<polygon class="st7" points="19.5,87.7 18.1,84 16.4,83.1 15.2,83.1 15.8,83.6 17.7,84.3 		"/>
	</g>
	<g id="small_x5F_grass_1_">
		<polygon class="st7" points="25.1,88.1 23.7,86.9 23.2,85.5 24.1,86.8 		"/>
		<polygon class="st7" points="25.1,88.1 24.5,85.7 24.5,84.2 25.1,86.4 		"/>
		<polygon class="st7" points="25.1,88.1 25.8,86.3 26.5,85.9 27.1,85.9 26.8,86.1 25.9,86.4 		"/>
	</g>
	<g id="small_x5F_grass_2_">
		<polygon class="st7" points="15.8,88 14.8,87.2 14.3,86.1 15.1,87 		"/>
		<polygon class="st7" points="15.8,88 15.4,86.2 15.4,85.1 15.8,86.8 		"/>
		<polygon class="st7" points="15.8,88 16.3,86.7 16.9,86.4 17.3,86.4 17.1,86.5 16.5,86.8 		"/>
	</g>
	<g id="small_x5F_grass_8_">
		<polygon class="st7" points="78.2,87.3 81.2,84.9 82.5,81.9 80.3,84.6 		"/>
		<polygon class="st7" points="78.2,87.3 79.5,82.3 79.5,79.2 78.2,83.9 		"/>
		<polygon class="st7" points="78.2,87.3 76.8,83.6 75.1,82.7 73.9,82.7 74.5,83.2 76.4,83.9 		"/>
	</g>
	<g id="small_x5F_grass_7_">
		<polygon class="st7" points="83.8,87.7 82.4,86.5 81.9,85.1 82.8,86.4 		"/>
		<polygon class="st7" points="83.8,87.7 83.2,85.2 83.2,83.7 83.8,86 		"/>
		<polygon class="st7" points="83.8,87.7 84.5,85.9 85.2,85.4 85.8,85.4 85.5,85.7 84.6,86 		"/>
	</g>
	<g id="small_x5F_grass_3_">
		<polygon class="st7" points="74.5,87.6 73.5,86.7 73,85.6 73.8,86.6 		"/>
		<polygon class="st7" points="74.5,87.6 74.1,85.8 74.1,84.7 74.5,86.4 		"/>
		<polygon class="st7" points="74.5,87.6 75,86.3 75.6,85.9 76,85.9 75.8,86.1 75.2,86.4 		"/>
	</g>
	<g id="small_x5F_grass_4_">
		<polygon class="st7" points="45.1,88.2 44.3,87.6 44,86.7 44.6,87.5 		"/>
		<polygon class="st7" points="45.1,88.2 44.8,86.8 44.8,86 45.1,87.3 		"/>
		<polygon class="st7" points="45.1,88.2 45.5,87.2 45.9,87 46.3,87 46.1,87.1 45.6,87.3 		"/>
	</g>
	<g id="small_x5F_grass_5_">
		<polygon class="st7" points="47.6,88.2 48.4,87.6 48.7,86.7 48.2,87.5 		"/>
		<polygon class="st7" points="47.6,88.2 47.9,86.8 47.9,86 47.6,87.3 		"/>
		<polygon class="st7" points="47.6,88.2 47.2,87.2 46.8,87 46.5,87 46.6,87.1 47.1,87.3 		"/>
	</g>
	<g id="small_x5F_grass_6_">
		<polygon class="st7" points="29.5,87.8 30.7,86.8 31.2,85.6 30.4,86.7 		"/>
		<polygon class="st7" points="29.5,87.8 30,85.7 30,84.5 29.5,86.4 		"/>
		<polygon class="st7" points="29.5,87.8 29,86.3 28.4,85.9 27.9,85.9 28.1,86.1 28.8,86.4 		"/>
	</g>
	<g id="small_x5F_grass_9_">
		<polygon class="st7" points="70.4,87.7 71.6,86.7 72.1,85.5 71.3,86.6 		"/>
		<polygon class="st7" points="70.4,87.7 70.9,85.6 70.9,84.3 70.4,86.3 		"/>
		<polygon class="st7" points="70.4,87.7 69.9,86.2 69.2,85.8 68.7,85.8 69,86 69.7,86.3 		"/>
	</g>
</g>
</svg>
