<?xml version="1.0" encoding="utf-8"?>
<!-- Generator: Adobe Illustrator 21.0.0, SVG Export Plug-In . SVG Version: 6.00 Build 0)  -->
<svg version="1.1" id="Layer_1" xmlns="http://www.w3.org/2000/svg" xmlns:xlink="http://www.w3.org/1999/xlink" x="0px" y="0px"
	 viewBox="0 0 1079.1 337.5" style="enable-background:new 0 0 1079.1 337.5;" xml:space="preserve">
<style type="text/css">
	.st0{fill:#80CBC4;stroke:#26A69A;stroke-width:3;stroke-linecap:round;stroke-linejoin:round;stroke-miterlimit:10;}
	.st1{fill:#80CBC4;stroke:#26A69A;stroke-width:2;stroke-miterlimit:10;}
	.st2{fill:#80CBC4;stroke:#26A69A;stroke-width:2;stroke-linecap:round;stroke-linejoin:round;stroke-miterlimit:10;}
	.st3{fill:none;stroke:#80CBC4;stroke-width:2;stroke-linecap:round;stroke-linejoin:round;stroke-miterlimit:10;}
	.st4{fill:#80CBC4;stroke:#80CBC4;stroke-width:2;stroke-linecap:round;stroke-linejoin:round;stroke-miterlimit:10;}
</style>
<path class="st0" d="M538.8,107.2c-6.1,19-61.1,16.3-71.1,16.3c-10,0-59.7-16.5-59.7-16.5c-7.2-1.8-48.4-18.1-54.3-19.6
	s-17.3-0.5-26.5,0.3c-9.2,0.8-60.2,13.7-72.6,17.3c-12.4,3.6-23.6,19.3-26.8,25.2c-3.3,5.9-2,13.7,0.7,16.8
	c2.6,3.1,14.1,4.3,22.9,3.8c8.8-0.5,29.4-16.5,30.1-19.1s-2.3-6.4-5.9-8.1c-3.6-1.8-8.8,1.3-8.8,1.3s-2.9-3.3,8.5-6.2
	c11.4-2.9,17.7,14.3,17.7,14.3s-9.2,20.9-49.7,21.9c-40.6,1-24.9-45.3,13.1-55.5s62.8-17,91.1-17c28.3,0,67.2,28.2,132.6,28.2
	s59.5-28.2,59.5-28.2h0.3c0,0-5.9,28.2,59.5,28.2s104.2-28.2,132.6-28.2s53.2,6.8,91.1,17s53.6,56.5,13.1,55.5
	c-40.6-1-49.7-21.9-49.7-21.9s6.2-17.2,17.7-14.3c11.4,2.9,8.5,6.2,8.5,6.2s-5.2-3.1-8.8-1.3c-3.6,1.8-6.5,5.6-5.9,8.1
	s21.3,18.6,30.1,19.1s20.3-0.8,22.9-3.8c2.6-3.1,3.9-10.9,0.7-16.8c-3.3-5.9-14.4-21.6-26.8-25.2c-12.4-3.6-63.5-16.5-72.6-17.3
	c-9.2-0.8-20.6-1.8-26.5-0.3s-47.1,17.8-54.3,19.6c0,0-49.7,16.5-59.7,16.5s-65,2.7-71.1-16.3"/>
<path class="st1" d="M777.8,121.8c0,0-3.5,3-3.5,5.7s1.8,5.2,1.8,5.2s-22.9-5.7-30.3-5.5c-7.3,0.2-13.9-4-14.9-5.5
	c-1.1-1.5,7.1,2.3,10,2.8c3,0.5,36.7-6.2,40.5-6C785.1,118.9,777.8,121.8,777.8,121.8z"/>
<path class="st1" d="M794.6,243c0,0-7.2,6.2-7.2,11.5s3.6,10.7,3.6,10.7s-46.6-11.5-61.5-11.1c-14.9,0.4-28.1-8.1-30.3-11.1
	s14.3,4.7,20.4,5.7c6.1,1,74.5-12.6,82.2-12.1S794.6,243,794.6,243z"/>
<path class="st1" d="M570.7,71.7c0,0-4.4,1.6-5.3,4c-0.9,2.4-0.2,5.5-0.2,5.5s-19.4-13.6-26.3-16c-6.9-2.5-11.5-8.7-12-10.5
	c-0.5-1.8,5.7,4.7,8.4,6.2c2.6,1.5,36.4,7.5,39.9,9.1C578.6,71.6,570.7,71.7,570.7,71.7z"/>
<path class="st1" d="M777.2,138.7c0,0,6.6,10.3,11.2,12.2s-29.3-5.9-31.8-9.7C766.7,142.3,772.3,142.6,777.2,138.7z"/>
<path class="st2" d="M833.4,93.7c0,0,15.3,10.1,20.4,15c5.1,4.8,16.7,23.9,17.3,26.1c-3.9-22.7-3.9-32-3.9-32S840,96.5,833.4,93.7z"
	/>
<path class="st2" d="M873.4,141.6c0,0-0.6,6.1-1.7,8.2c-1.1,2.1-8.5,6.8-9.6,7c12.4-1.7,18.1-1.7,18.1-1.7S874.1,144.2,873.4,141.6z
	"/>
<path class="st0" d="M500.1,81c0,0-102.7-20.3-153-15.2c-50.3,5.1-104.8,22-131,21.1c-26.2-0.9-36.7-19.6-31.4-21.9s22-11.8,28.3-8
	c6.3,3.8,13.6,5.1,13.6,5.1s-10.5-2.5-18.9,0.6c-8.4,3.2-9.4,10.4-3.1,13.8s39.8,3,53.4,0c13.6-3,97.5-23.8,125.8-20.3
	c28.3,3.4,74.9,15.1,84.6,15.3S500.1,81,500.1,81z"/>
<path class="st0" d="M522.1,228.2c0,0-51.5,0.7-75.2,8.3c-23.7,7.6-48.2,21.3-60.9,23.5s-19.7-5.7-17.4-7.3
	c2.3-1.7,9.4-7.9,12.8-6.8c3.4,1.2,7.1,1,7.1,1s-5.3-0.1-9,2.2c-3.7,2.4-3.5,6-0.1,6.9c3.4,1,19.5-2.6,25.7-5.5
	c6.3-2.8,44.5-21.4,58.4-22.6c14-1.2,37.6-0.4,42.3-1.3C510.5,225.9,522.1,228.2,522.1,228.2z"/>
<path class="st0" d="M578,81c0,0,102.7-20.3,153-15.2c50.3,5.1,104.8,22,131,21.1c26.2-0.9,36.7-19.6,31.4-21.9
	c-5.2-2.4-22-11.8-28.3-8c-6.3,3.8-13.6,5.1-13.6,5.1s10.5-2.5,18.9,0.6c8.4,3.2,9.4,10.4,3.1,13.8s-39.8,3-53.4,0
	c-13.6-3-97.5-23.8-125.8-20.3c-28.3,3.4-74.9,15.1-84.6,15.3S578,81,578,81z"/>
<path class="st1" d="M480.5,96.4c0,0,4.3,1.8,5.1,4.3c0.8,2.5,0,5.5,0,5.5s20-12.6,27-14.8c7-2.1,11.9-8.2,12.4-9.9
	c0.6-1.8-6,4.4-8.6,5.8c-2.7,1.4-36.7,5.7-40.3,7.1C472.6,95.9,480.5,96.4,480.5,96.4z"/>
<path class="st1" d="M301.8,137.5c0,0-6.6,10.3-11.2,12.2c-4.6,1.9,29.3-5.9,31.8-9.7C312.2,141.1,306.6,141.4,301.8,137.5z"/>
<path class="st2" d="M248.4,88.3c0,0-15.3,10.1-20.4,15c-5.1,4.8-16.7,23.9-17.3,26.1c3.9-22.7,3.9-32,3.9-32S241.8,91.1,248.4,88.3
	z"/>
<path class="st2" d="M205.6,139.6c0,0,0.6,6.1,1.7,8.2c1.1,2.1,8.5,6.8,9.6,7c-12.4-1.7-18.1-1.7-18.1-1.7S204.8,142.3,205.6,139.6z
	"/>
<path class="st0" d="M538.8,214.2c6.1-19,61.1-16.3,71.1-16.3c10,0,59.7,16.5,59.7,16.5c7.2,1.8,48.4,18.1,54.3,19.6
	c5.9,1.5,17.3,0.5,26.5-0.3c9.2-0.8,60.2-13.7,72.6-17.3c12.4-3.6,23.6-19.3,26.8-25.2c3.3-5.9,2-13.7-0.7-16.8
	c-2.6-3.1-14.1-4.3-22.9-3.8c-8.8,0.5-29.4,16.5-30.1,19.1s2.3,6.4,5.9,8.1c3.6,1.8,8.8-1.3,8.8-1.3s2.9,3.3-8.5,6.2
	c-11.4,2.9-17.7-14.3-17.7-14.3s9.2-20.9,49.7-21.9c40.6-1,24.9,45.3-13.1,55.5s-62.8,17-91.1,17s-67.2-28.2-132.6-28.2
	S538.1,239,538.1,239h-0.3c0,0,5.9-28.2-59.5-28.2S374.1,239,345.8,239c-28.3,0-53.2-6.8-91.1-17s-53.6-56.5-13.1-55.5
	c40.6,1,49.7,21.9,49.7,21.9s-6.2,17.2-17.7,14.3c-11.4-2.9-8.5-6.2-8.5-6.2s5.2,3.1,8.8,1.3s6.5-5.6,5.9-8.1
	c-0.7-2.5-21.3-18.6-30.1-19.1c-8.8-0.5-20.3,0.8-22.9,3.8s-3.9,10.9-0.7,16.8c3.3,5.9,14.4,21.6,26.8,25.2s63.5,16.5,72.6,17.3
	c9.2,0.8,20.6,1.8,26.5,0.3c5.9-1.5,47.1-17.8,54.3-19.6c0,0,49.7-16.5,59.7-16.5c10,0,65-2.7,71.1,16.3"/>
<path class="st0" d="M536.8,242.1c-9.4,30.4-93.5,26-108.9,26c-15.4,0-91.5-26.3-91.5-26.3c-11-2.8-74.1-28.9-83.2-31.3
	c-9-2.4-26.6-0.8-40.6,0.4c-14,1.2-92.2,22-111.2,27.7s-36.1,30.9-41.1,40.3c-5,9.4-3,22,1,26.8s21.5,6.9,35.1,6.1
	c13.5-0.8,45.1-26.4,46.1-30.5s-3.5-10.2-9-13c-5.5-2.8-13.5,2-13.5,2s-4.5-5.3,13-9.9c17.5-4.6,27.1,22.9,27.1,22.9
	s-14,33.4-76.2,35s-38.1-72.4,20-88.7s96.2-27.1,139.6-27.1s102.9,45,203.1,45s91.2-45,91.2-45h0.4c0,0-9,45,91.2,45
	s159.7-45,203.1-45s81.5,10.8,139.6,27.1s82.2,90.3,20,88.7s-76.2-35-76.2-35s9.5-27.5,27.1-22.9c17.5,4.6,13,9.9,13,9.9
	s-8-4.9-13.5-2c-5.5,2.8-10,8.9-9,13s32.6,29.7,46.1,30.5c13.5,0.8,31.1-1.2,35.1-6.1s6-17.5,1-26.8c-5-9.4-22-34.6-41.1-40.3
	c-19-5.7-97.2-26.4-111.2-27.7c-14-1.2-31.6-2.8-40.6-0.4s-72.1,28.5-83.2,31.3c0,0-76.2,26.3-91.5,26.3c-15.4,0-99.5,4.3-108.9-26"
	/>
<path class="st1" d="M301.1,206.6c0,0,3.5-3,3.5-5.7s-1.8-5.2-1.8-5.2s22.9,5.7,30.3,5.5c7.3-0.2,13.9,4,14.9,5.5
	c1.1,1.5-7.1-2.3-10-2.8c-3-0.5-36.7,6.2-40.5,6C293.7,209.5,301.1,206.6,301.1,206.6z"/>
<path class="st1" d="M301.6,189.7c0,0-6.6-10.3-11.2-12.2c-4.6-1.9,29.3,5.9,31.8,9.7C312.1,186.1,306.5,185.8,301.6,189.7z"/>
<path class="st2" d="M236.5,223.3c0,0-15.3-10.1-20.4-15s-16.7-23.9-17.3-26.1c3.9,22.7,3.9,32,3.9,32S229.8,220.5,236.5,223.3z"/>
<path class="st2" d="M331.4,250.4c0,0-18.3,0.2-25.3-0.9c-7-1.1-27.2-10.4-29-11.9c16,16.6,21.2,24.3,21.2,24.3
	S324.3,251.9,331.4,250.4z"/>
<path class="st2" d="M186,233.3c0,0-9.2-44.5-9.8-62s12.3-71.2,15.2-76.2c-32.7,46.7-49.1,63.2-49.1,63.2S179.1,216.8,186,233.3z"/>
<path class="st2" d="M866.4,248.3c0,0,22.9-39.3,29-55.7s10.9-71.5,9.7-77.1c16.3,54.7,26.6,75.5,26.6,75.5S878.1,234.8,866.4,248.3
	z"/>
<path class="st1" d="M777.6,206.6c0,0-3.5-3-3.5-5.7s1.8-5.2,1.8-5.2s-22.9,5.7-30.3,5.5c-7.3-0.2-13.9,4-14.9,5.5
	c-1.1,1.5,7.1-2.3,10-2.8c3-0.5,36.7,6.2,40.5,6C785,209.5,777.6,206.6,777.6,206.6z"/>
<path class="st1" d="M777,190.9c0,0,6.6-10.3,11.2-12.2c4.6-1.9-29.3,5.9-31.8,9.7C766.6,187.3,772.2,187,777,190.9z"/>
<path class="st2" d="M839.5,223.3c0,0,15.3-10.1,20.4-15c5.1-4.8,16.7-23.9,17.3-26.1c-3.9,22.7-3.9,32-3.9,32
	S846.2,220.5,839.5,223.3z"/>
<path class="st2" d="M641.6,221.9c0,0,14.4,11.3,20.7,14.6c6.2,3.3,27.9,8.3,30.3,8.1c-22.7,3.5-31.6,6.5-31.6,6.5
	S646.4,227.4,641.6,221.9z"/>
<path class="st3" d="M392.8,148.7c0,0,5.2,2.4,5.2,8.7c0,6.3-3.5,8.7-10.5,8.7c-2.7,0-4.8-0.5-6.5-1.4c-0.2-0.1-0.4-0.2-0.6-0.4
	c-0.4-0.2-0.7-0.5-1-0.8c-1.6-1.5-2.4-3.6-2.4-6.1c0-5.2,4.8-8.7,4.8-8.7"/>
<path class="st3" d="M522.4,150.6c0,0,4.4,2.4,4.4,8.7c0,6.3-3,8.7-8.9,8.7c-2.3,0-4.1-0.5-5.5-1.4c-0.2-0.1-0.3-0.2-0.5-0.4
	c-0.3-0.2-0.6-0.5-0.8-0.8c-1.4-1.5-2-3.6-2-6.1c0-5.2,4.1-8.7,4.1-8.7s-4.1,5.9-3.4,9.5s3.6,8.4,8.2,7.3c4.6-1.1,9.3-4,8.3-8.4
	C525.3,154.6,522.4,150.6,522.4,150.6z"/>
<path class="st4" d="M396.1,162.9c0,0-3.7-3.2-8.1-3.2s-8.1,3.2-8.1,3.2s1.2,1.4,2.1,1.3c0.9-0.1,2.3-1.2,3.1-1.6
	c0.8-0.4,1.9-0.9,3.6-0.6c1.7,0.3,5.2,2.4,6,2.3S396.1,162.9,396.1,162.9z"/>
<path class="st3" d="M460.8,149.4c0,0,5.2,2.4,5.2,8.7c0,6.3-3.5,8.7-10.5,8.7c-2.7,0-4.8-0.5-6.5-1.4c-0.2-0.1-0.4-0.2-0.6-0.4
	c-0.4-0.2-0.7-0.5-1-0.8c-1.6-1.5-2.4-3.6-2.4-6.1c0-5.2,4.8-8.7,4.8-8.7"/>
<path class="st4" d="M464.1,163.6c0,0-3.7-3.2-8.1-3.2s-8.1,3.2-8.1,3.2s1.2,1.4,2.1,1.3c0.9-0.1,2.3-1.2,3.1-1.6
	c0.8-0.4,1.9-0.9,3.6-0.6c1.7,0.3,5.2,2.4,6,2.3C463.5,164.8,464.1,163.6,464.1,163.6z"/>
<path class="st3" d="M711.8,146.3c0,0,5.2,2.4,5.2,8.7c0,6.3-3.5,8.7-10.5,8.7c-2.7,0-4.8-0.5-6.5-1.4c-0.2-0.1-0.4-0.2-0.6-0.4
	c-0.4-0.2-0.7-0.5-1-0.8c-1.6-1.5-2.4-3.6-2.4-6.1c0-5.2,4.8-8.7,4.8-8.7"/>
<path class="st4" d="M715,160.5c0,0-3.7-3.2-8.1-3.2s-8.1,3.2-8.1,3.2s1.2,1.4,2.1,1.3c0.9-0.1,2.3-1.2,3.1-1.6
	c0.8-0.4,1.9-0.9,3.6-0.6c1.7,0.3,5.2,2.4,6,2.3C714.5,161.7,715,160.5,715,160.5z"/>
<path class="st4" d="M387.6,166.1c0,0,2.1,17.5,0,17.5s-21.3,1.3-21.8-2c-0.5-3.3-2.8-50.4,0-50.4s19.2-3.5,20.5,0
	c0,0-7.2,2.3-8.5,1.9s-9.2-1.1-10,0c-0.9,1.1-3.4,44.9-0.3,47c3.1,2.1,8.3,2.9,13.4,1.3c5.1-1.6,6.1-6.3,6.1-7.6
	C386.9,172.5,387.6,166.1,387.6,166.1z"/>
<path class="st3" d="M412.4,151.2c0,0-3.4-3.2-6.3-3.2c-2.9,0-3.4,3.5-3.3,4.7c0.1,1.2,8.1,5.9,8.5,6.9s3.3,4.7,1.9,5.3
	c-1.4,0.5-9.1,2.9-11,2.1c-2-0.9-2.6-3.1-2-3.8c0.7-0.8,4.8-1.3,6.3-0.1c1.5,1.2,0.2,19.9,0.2,19.9"/>
<path class="st3" d="M406.1,148c0,0-10.5-4.6-10.5-8.2s5.3-12.8,10.5-9.3c5.1,3.5,6.1,6.8,7.5,6.8c1.4,0-2.9,0.8-3.7,0.1
	s0.4-2.3,0.4-2.3l0.7,1.4"/>
<path class="st3" d="M559.1,150.8c0,0-10.5-4.6-10.5-8.2c0-3.6,5.3-12.8,10.5-9.3c5.1,3.5,6.1,6.8,7.5,6.8c1.4,0-2.9,0.8-3.7,0.1
	c-0.8-0.7,0.4-2.3,0.4-2.3l0.7,1.4"/>
<path class="st3" d="M466.6,158.1c0,0,6.1-9.6,9.7-9.1c3.6,0.6,11.8,7.2,7.6,11.8c-4.2,4.5-7.6,5-7.8,6.4s-0.3-3,0.5-3.6
	c0.8-0.7,2.3,0.8,2.3,0.8l-1.5,0.5"/>
<path class="st3" d="M483.3,169c0,0-0.2-2.2,1.4-1.5c1.6,0.7,2.5,2.1,1.7,2.4s-0.4,1.5-1.4,1.2S483,170.4,483.3,169z"/>
<path class="st3" d="M658.2,153.2c0,0-0.2-2.3,1.5-1.6c1.7,0.7,2.6,2.2,1.8,2.5c-0.8,0.3-0.4,1.6-1.5,1.3
	C658.9,155,657.8,154.7,658.2,153.2z"/>
<path class="st3" d="M658.6,164.3c0,0-0.2-2.3,1.5-1.6c1.7,0.7,2.6,2.2,1.8,2.5c-0.8,0.3-0.4,1.6-1.5,1.3
	C659.3,166.1,658.2,165.8,658.6,164.3z"/>
<path class="st3" d="M537.4,150.6c0,0,6.1,4,6.1,8.1c0,0,0.2,6.5-4.9,8.7c-1,0.4-2.3,0.7-3.8,0.7c-2.2,0-3.7-0.5-4.8-1.3
	c-3.6-2.5-2.8-7.9-3.1-7.3c0,0,0.1,6.1,4.2,7.4c4.2,1.2,5.7,1,8.1-0.4c2.4-1.5,4.3-8,3.5-9.8S537.9,151.8,537.4,150.6z"/>
<path class="st3" d="M622.8,167.7c0,0,4.4-2.4,4.4-8.7c0-6.3-3-8.7-8.9-8.7c-2.3,0-4.1,0.5-5.5,1.4c-0.2,0.1-0.3,0.2-0.5,0.4
	c-0.3,0.2-0.6,0.5-0.8,0.8c-1.4,1.5-2,3.6-2,6.1c0,5.2,4.1,8.7,4.1,8.7s-4.1-5.9-3.4-9.5c0.7-3.6,3.6-8.4,8.2-7.3
	c4.6,1.1,9.3,4,8.3,8.4C625.6,163.7,622.8,167.7,622.8,167.7z"/>
<path class="st3" d="M637.7,167.7c0,0,6.1-4,6.1-8.1c0,0,0.2-6.5-4.9-8.7c-1-0.4-2.3-0.7-3.8-0.7c-2.2,0-3.7,0.5-4.8,1.3
	c-3.6,2.5-2.8,7.9-3.1,7.3c0,0,0.1-6.1,4.2-7.4c4.2-1.2,5.7-1,8.1,0.4c2.4,1.5,4.3,8,3.5,9.8C642.3,163.5,638.2,166.5,637.7,167.7z"
	/>
<path class="st3" d="M563.1,185.2c-0.7,3.2-12.7,0-12.7,0c-1.8-1.3,0.4-17.4,0.4-17.4s7,1.9,10.1-0.8c0,0,7.2-5.9,1.3-12.8
	c-5.9-6.8-12,0.5-11.7-0.2l-1.2-0.5c-0.3,0.7,5.8-6.7,11.7,0.2c5.9,6.8-1.3,12.8-1.3,12.8c-3.1,2.7-10.1,0.8-10.1,0.8
	s-2.2,16.1-0.4,17.4c0,0,12.1,3.2,12.7,0"/>
<path class="st4" d="M638.1,167.2c0,0-1.9,11,0.3,15.3c0.4,0.9,1,1.5,1.8,1.6c4.8,1,9.5,2.8,10.6,1s2.2-33.6,0.4-34.9
	c-1.7-1.3,0.6,33-1.3,33.3s-9.5,1.6-10.2-0.6s-0.6-14-1.2-14.9C638.1,167.2,638.1,167.2,638.1,167.2z"/>
<path class="st3" d="M607.6,157c0,0-6.3-6.8-10.5-6.8c-3.3,0-7,3.5-7.7,7.7c-0.2,1.1-0.2,2.3,0.1,3.4c1.4,5.6,7.9,6.9,11.2,6.3
	c3.4-0.5,4.5-2.5,3.3-4.1c-1.2-1.6-3.7-5.1-7-3.4c-3.3,1.7-4.9,4-4.9,4s3.5-2.3,4.9-2.6s2.9-0.4,3.8,0.3c0.9,0.8,3.4,1.9,2.4,3.1
	s-5.8,2.4-6.9,1.7s-6.4-4.2-6.3-7.7c0.1-3.5,4.7-7.7,7-8c2.3-0.2,8.3,2.7,9.4,3.2C607.6,154.6,607.6,157,607.6,157z"/>
<path class="st3" d="M704.1,163.8c0,0,1.6,14.9,0,15.3c-1.6,0.4-8,1.2-8,0.5c0,1.1,6.7,1.3,7.9,0.7c1.1-0.6,1.9-3.1,1.9-4.2
	c0-1.1,0-11.2-0.3-11.9C705.1,163.4,704.1,163.8,704.1,163.8z"/>
<path class="st3" d="M709.8,163.8c0,0-1.6,14.9,0,15.3c1.6,0.4,8,1.2,8,0.5c0,1.1-6.7,1.3-7.9,0.7s-1.9-3.1-1.9-4.2
	c0-1.1,0-11.2,0.3-11.9S709.8,163.8,709.8,163.8z"/>
</svg>
