<?xml version="1.0" encoding="utf-8"?>
<!-- Generator: Adobe Illustrator 21.0.0, SVG Export Plug-In . SVG Version: 6.00 Build 0)  -->
<svg version="1.1" id="Layer_1" xmlns="http://www.w3.org/2000/svg" xmlns:xlink="http://www.w3.org/1999/xlink" x="0px" y="0px"
	 viewBox="0 0 300 757" style="enable-background:new 0 0 300 757;" xml:space="preserve">
<style type="text/css">
	.st0{fill:#80CBC4;stroke:#26A69A;stroke-width:3;stroke-linecap:round;stroke-linejoin:round;stroke-miterlimit:10;}
	.st1{fill:#80CBC4;stroke:#26A69A;stroke-width:2;stroke-miterlimit:10;}
	.st2{fill:#80CBC4;stroke:#26A69A;stroke-width:2;stroke-linecap:round;stroke-linejoin:round;stroke-miterlimit:10;}
</style>
<path class="st0" d="M194.4,379.2c23.6,6.7,20.2,66.7,20.2,77.6s-20.4,65.3-20.4,65.3c-2.2,7.9-22.5,52.8-24.4,59.3
	s-0.6,18.9,0.3,28.9c0.9,10,17.1,65.7,21.5,79.3s24,25.7,31.3,29.3s17.1,2.1,20.9-0.7c3.8-2.9,5.4-15.4,4.7-25s-20.6-32.1-23.7-32.8
	c-3.2-0.7-7.9,2.5-10.1,6.4c-2.2,3.9,1.6,9.6,1.6,9.6s-4.1,3.2-7.7-9.3c-3.6-12.5,17.8-19.3,17.8-19.3s25.9,10,27.2,54.3
	s-56.3,27.1-69-14.3s-21.1-68.6-21.1-99.5s35-73.3,35-144.7s-35-65-35-65v-0.3c0,0,35,6.4,35-65s-35-113.8-35-144.7
	s8.4-58.1,21.1-99.5s70.2-58.6,69-14.3c-1.3,44.3-27.2,54.3-27.2,54.3s-21.4-6.8-17.8-19.3s7.7-9.3,7.7-9.3s-3.8,5.7-1.6,9.6
	c2.2,3.9,7,7.1,10.1,6.4c3.2-0.7,23.1-23.2,23.7-32.8s-0.9-22.1-4.7-25s-13.6-4.3-20.9-0.7S196,53.7,191.6,67.3
	s-20.6,69.3-21.5,79.3s-2.2,22.5-0.3,28.9s22.1,51.4,24.4,59.3c0,0,20.5,54.3,20.5,65.2s3.4,70.9-20.2,77.6"/>
<path class="st1" d="M212.6,118.4c0,0,3.8,3.9,7,3.9s6.5-1.9,6.5-1.9s-7,25.1-6.8,33.1s-4.9,15.1-6.8,16.3c-1.8,1.2,2.9-7.7,3.5-11
	s-7.7-40-7.4-44.2C209,110.4,212.6,118.4,212.6,118.4z"/>
<path class="st1" d="M120.3,205c0,0,3.8,3.9,7,3.9s6.5-1.9,6.5-1.9s-7,25.1-6.8,33.1s-4.9,15.1-6.8,16.3c-1.8,1.2,2.9-7.7,3.5-11
	s-7.7-40-7.4-44.2C116.7,197,120.3,205,120.3,205z"/>
<path class="st1" d="M233.6,119c0,0,12.9-7.2,15.2-12.2c2.3-5.1-7.4,32-12,34.8C238.1,130.4,238.5,124.3,233.6,119z"/>
<path class="st1" d="M119.6,497.5c0,0,14.5,2.9,19.5,0.6c5.1-2.4-26.4,19.6-31.7,18.7C115.6,509.1,119.9,504.7,119.6,497.5z"/>
<path class="st1" d="M163.6,336.2c0,0,12.9-7.2,15.2-12.2c2.3-5.1-7.4,32-12,34.8C168.1,347.6,168.5,341.5,163.6,336.2z"/>
<path class="st2" d="M256.2,31.9c0,0,4.3,20.5,4.6,28.7c0.3,8.2-5.8,34.4-7.1,36.9c15.3-24,23-32.8,23-32.8S259.5,39.3,256.2,31.9z"
	/>
<path class="st2" d="M78.6,339.9c0,0-9.9,26.8-10.6,37.6c-0.7,10.8,13.4,45,16.4,48.3c-35.2-31.4-53-42.9-53-42.9
	S71,349.6,78.6,339.9z"/>
<path class="st2" d="M148.3,352.6c0,0-3.4,16.1-3.6,22.6c-0.2,6.5,4.6,27.1,5.6,29c-12-18.9-18.1-25.8-18.1-25.8
	S145.7,358.5,148.3,352.6z"/>
<path class="st2" d="M177.7,57.6c0,0,12.6-16.7,18.6-22.3s29.7-18.2,32.5-18.9c-28.2,4.2-39.8,4.2-39.8,4.2S181.1,50.4,177.7,57.6z"
	/>
<path class="st2" d="M82.8,178.1c0,0,7.3-19.6,11.4-26.7s23.2-26,25.7-27.4C94.1,136.1,83,139.4,83,139.4S84,170.2,82.8,178.1z"/>
<path class="st2" d="M125.2,643c0,0-15.2-14.4-20.1-21S90.3,590.4,90,587.6c1,28.5-0.3,40-0.3,40S118.4,638.8,125.2,643z"/>
<path class="st2" d="M144.1,624c0,0-6.5-14.4-8-20.3c-1.5-5.8-1.1-24.6-0.6-26.5c-7.7,17.5-12,23.9-12,23.9S140.5,618.9,144.1,624z"
	/>
<path class="st2" d="M237.1,14c0,0,7.6,0.7,10.2,1.9c2.6,1.2,8.4,9.3,8.7,10.5c-2.1-13.5-2.1-19.7-2.1-19.7S240.5,13.2,237.1,14z"/>
<path class="st0" d="M173.6,64.7c0,0-20.9,82.7-15.7,123.1c5.2,40.5,22.7,84.3,21.8,105.4s-20.2,29.5-22.6,25.3
	c-2.4-4.2-12.2-17.7-8.3-22.8s5.2-11,5.2-11s-2.6,8.4,0.7,15.2c3.3,6.7,10.7,7.6,14.2,2.5c3.4-5.1,3.1-32.1,0-43
	c-3.1-10.9-24.5-78.4-21-101.2s15.5-60.3,15.7-68.1C163.8,82.4,173.6,64.7,173.6,64.7z"/>
<path class="st0" d="M158.7,398c0,0-14.1,55.6-10.6,82.8s15.3,56.7,14.7,70.9s-13.6,19.8-15.2,17c-1.6-2.8-8.2-11.9-5.6-15.3
	c2.6-3.4,3.5-7.4,3.5-7.4s-1.7,5.6,0.5,10.2c2.2,4.5,7.2,5.1,9.5,1.7c2.3-3.4,2.1-21.6,0-28.9c-2.1-7.3-16.5-52.7-14.1-68
	s10.4-40.5,10.6-45.8C152.1,409.9,158.7,398,158.7,398z"/>
<path class="st1" d="M212.6,638.6c0,0,3.8-3.9,7-3.9s6.5,1.9,6.5,1.9s-7-25.1-6.8-33.1c0.3-8-4.9-15.1-6.8-16.3s2.9,7.7,3.5,11
	s-7.7,40-7.4,44.2C209,646.6,212.6,638.6,212.6,638.6z"/>
<path class="st1" d="M232.1,638c0,0,12.9,7.2,15.2,12.2c2.3,5.1-7.4-32-12-34.8C236.6,626.6,237,632.7,232.1,638z"/>
<path class="st2" d="M263.3,725c0,0,4.3-20.5,4.6-28.7c0.3-8.2-5.8-34.4-7.1-36.9c15.3,24,23,32.8,23,32.8S266.5,717.7,263.3,725z"
	/>
<path class="st2" d="M171,696.2c0,0,12.6,16.7,18.6,22.3s29.7,18.2,32.5,18.9c-28.2-4.3-39.8-4.3-39.8-4.3S174.4,703.4,171,696.2z"
	/>
<path class="st2" d="M234.7,743c0,0,7.6-0.7,10.2-1.9c2.6-1.2,8.4-9.3,8.7-10.5c-2.1,13.5-2.1,19.7-2.1,19.7S238.1,743.8,234.7,743z
	"/>
<path class="st0" d="M103.6,378.8c16,4.5,13.7,45.2,13.7,52.6s-13.8,44.2-13.8,44.2C102,481,88.3,511.4,87,515.8
	c-1.3,4.4-0.4,12.8,0.2,19.6s11.6,44.5,14.6,53.7s16.3,17.4,21.2,19.9c4.9,2.4,11.6,1.4,14.2-0.5c2.6-2,3.7-10.4,3.2-16.9
	s-14-21.8-16.1-22.2c-2.2-0.5-5.4,1.7-6.8,4.3c-1.5,2.6,1.1,6.5,1.1,6.5s-2.8,2.2-5.2-6.3c-2.4-8.5,12.1-13.1,12.1-13.1
	s17.5,6.8,18.4,36.8s-38.1,18.4-46.8-9.7s-14.3-46.5-14.3-67.4c0-20.9,23.7-49.7,23.7-98s-23.7-44-23.7-44v-0.2
	c0,0,23.7,4.3,23.7-44s-23.7-77.1-23.7-98s5.7-39.4,14.3-67.4s47.6-39.7,46.8-9.7c-0.9,30-18.4,36.8-18.4,36.8s-14.5-4.6-12.1-13.1
	s5.2-6.3,5.2-6.3s-2.6,3.9-1.1,6.5s4.7,4.8,6.8,4.3c2.2-0.5,15.7-15.7,16.1-22.2s-0.6-15-3.2-16.9c-2.6-2-9.2-2.9-14.2-0.5
	c-4.9,2.4-18.2,10.6-21.2,19.9c-3,9.2-14,47-14.6,53.7c-0.6,6.8-1.5,15.2-0.2,19.6c1.3,4.3,15,34.8,16.5,40.2
	c0,0,13.9,36.8,13.9,44.2c0,7.4,2.3,48-13.7,52.6"/>
</svg>
