<?xml version="1.0" encoding="utf-8"?>
<!-- Generator: Adobe Illustrator 21.0.0, SVG Export Plug-In . SVG Version: 6.00 Build 0)  -->
<svg version="1.1" id="Layer_1" xmlns="http://www.w3.org/2000/svg" xmlns:xlink="http://www.w3.org/1999/xlink" x="0px" y="0px"
	 viewBox="0 0 300 757" style="enable-background:new 0 0 300 757;" xml:space="preserve">
<style type="text/css">
	.st0{fill:#80CBC4;stroke:#26A69A;stroke-width:3;stroke-linecap:round;stroke-linejoin:round;stroke-miterlimit:10;}
	.st1{fill:#80CBC4;stroke:#26A69A;stroke-width:2;stroke-miterlimit:10;}
	.st2{fill:#80CBC4;stroke:#26A69A;stroke-width:2;stroke-linecap:round;stroke-linejoin:round;stroke-miterlimit:10;}
	.st3{fill:none;stroke:#80CBC4;stroke-width:2;stroke-linecap:round;stroke-linejoin:round;stroke-miterlimit:10;}
	.st4{fill:#80CBC4;stroke:#80CBC4;stroke-width:2;stroke-linecap:round;stroke-linejoin:round;stroke-miterlimit:10;}
</style>
<path class="st0" d="M98.3,379.2C74.7,385.9,78,445.9,78,456.8S98.5,522,98.5,522c2.2,7.9,22.5,52.8,24.4,59.3
	c1.9,6.4,0.6,18.9-0.3,28.9S105.4,676,101,689.5c-4.4,13.6-24,25.7-31.3,29.3s-17.1,2.1-20.9-0.7c-3.8-2.9-5.4-15.4-4.7-25
	s20.6-32.1,23.7-32.8s7.9,2.5,10.1,6.4s-1.6,9.6-1.6,9.6s4.1,3.2,7.7-9.3s-17.8-19.3-17.8-19.3S40.3,657.8,39,702
	c-1.3,44.3,56.3,27.1,69-14.3s21.1-68.6,21.1-99.5s-35-73.3-35-144.7s35-65,35-65v-0.3c0,0-35,6.4-35-65s35-113.8,35-144.7
	S120.6,110.4,108,69S37.8,10.5,39,54.7C40.3,99,66.2,109,66.2,109s21.4-6.8,17.8-19.3s-7.7-9.3-7.7-9.3s3.8,5.7,1.6,9.6
	c-2.2,3.9-7,7.1-10.1,6.4S44.7,73.3,44.1,63.7s0.9-22.1,4.7-25s13.6-4.3,20.9-0.7S96.6,53.7,101,67.2s20.6,69.3,21.5,79.3
	s2.2,22.5,0.3,28.9c-1.9,6.4-22.1,51.4-24.4,59.3c0,0-20.5,54.3-20.5,65.2s-3.4,70.9,20.2,77.6"/>
<path class="st0" d="M279.8,380.1c-9.7,2.8-8.4,27.5-8.4,32c0,4.5,8.5,26.9,8.5,26.9c0.9,3.3,9.3,21.8,10.1,24.5
	c0.8,2.6,0.2,7.8-0.1,11.9s-7.1,27.2-8.9,32.7c-1.8,5.6-9.9,10.6-12.9,12.1c-3,1.5-7.1,0.9-8.6-0.3c-1.6-1.2-2.2-6.4-1.9-10.3
	s8.5-13.3,9.8-13.5c1.3-0.3,3.3,1,4.2,2.6c0.9,1.6-0.7,4-0.7,4s1.7,1.3,3.2-3.8c1.5-5.2-7.3-8-7.3-8s-10.7,4.2-11.2,22.4
	c-0.5,18.3,23.2,11.2,28.5-5.9s8.7-28.3,8.7-41.1S278,436.1,278,406.6s14.4-26.8,14.4-26.8v-0.1c0,0-14.4,2.6-14.4-26.8
	c0-29.5,14.4-47,14.4-59.7c0-12.8-3.5-24-8.7-41.1s-29-24.1-28.5-5.9c0.5,18.3,11.2,22.4,11.2,22.4s8.8-2.8,7.3-8
	c-1.5-5.2-3.2-3.8-3.2-3.8s1.6,2.4,0.7,4s-2.9,2.9-4.2,2.6s-9.5-9.5-9.8-13.5s0.4-9.1,1.9-10.3s5.6-1.8,8.6-0.3s11.1,6.5,12.9,12.1
	c1.8,5.6,8.5,28.6,8.9,32.7c0.4,4.1,0.9,9.3,0.1,11.9s-9.1,21.2-10.1,24.5c0,0-8.5,22.4-8.5,26.9c0,4.5-1.4,29.3,8.3,32"/>
<path class="st0" d="M42.9,372.4c-6.4,1.8-5.5,18.1-5.5,21.1c0,3,5.6,17.7,5.6,17.7c0.6,2.1,6.1,14.4,6.6,16.1
	c0.5,1.7,0.2,5.1-0.1,7.9c-0.2,2.7-4.7,17.9-5.9,21.6c-1.2,3.7-6.5,7-8.5,8s-4.6,0.6-5.7-0.2c-1-0.8-1.5-4.2-1.3-6.8
	c0.2-2.6,5.6-8.7,6.4-8.9c0.8-0.2,2.1,0.7,2.7,1.7c0.6,1.1-0.4,2.6-0.4,2.6s1.1,0.9,2.1-2.5s-4.8-5.2-4.8-5.2s-7,2.7-7.4,14.8
	c-0.4,12,15.3,7.4,18.8-3.9s5.7-18.6,5.7-27s-9.5-19.9-9.5-39.3c0-19.4,9.5-17.7,9.5-17.7v-0.1c0,0-9.5,1.7-9.5-17.7
	s9.5-30.9,9.5-39.3s-2.3-15.8-5.7-27c-3.4-11.3-19.1-15.9-18.8-3.9c0.4,12,7.4,14.8,7.4,14.8s5.8-1.8,4.8-5.2
	c-1-3.4-2.1-2.5-2.1-2.5s1,1.5,0.4,2.6c-0.6,1.1-1.9,1.9-2.7,1.7s-6.3-6.3-6.4-8.9c-0.2-2.6,0.2-6,1.3-6.8c1-0.8,3.7-1.2,5.7-0.2
	s7.3,4.3,8.5,7.9c1.2,3.7,5.6,18.8,5.8,21.6s0.6,6.1,0.1,7.9c-0.5,1.7-6,14-6.6,16.1c0,0-5.6,14.8-5.6,17.7c0,3-0.9,19.3,5.5,21.1"
	/>
<path class="st0" d="M85.5,547.3c2.5-1.8-0.4-8.6-0.8-9.9c-0.4-1.3-5.1-6.8-5.1-6.8c-0.6-0.8-4.8-5.2-5.3-5.9
	c-0.5-0.7-0.8-2.2-1.2-3.4c-0.3-1.2-0.7-8.4-0.7-10.1c0-1.8,1.7-4,2.4-4.7c0.7-0.7,1.9-0.9,2.5-0.8c0.6,0.2,1.3,1.6,1.6,2.7
	c0.3,1.1-1.1,4.6-1.4,4.8s-1,0-1.4-0.3c-0.4-0.4-0.2-1.2-0.2-1.2s-0.6-0.2-0.5,1.4c0.1,1.6,2.9,1.5,2.9,1.5s2.6-2.2,0.9-7.5
	c-1.7-5.2-7.7-0.8-7.5,4.5c0.2,5.4,0.4,8.9,1.6,12.5c1.3,3.6,7.1,7.1,10,15.4s-1.4,9-1.4,9l0,0c0,0,3.8-2.2,6.8,6.1
	s0.6,14.7,1.9,18.3s3.4,6.4,6.6,10.7c3.2,4.3,10.6,3.9,8.6-1.2c-2-5.1-5.4-5.2-5.4-5.2s-2.2,1.7-1.3,3c0.9,1.3,1.3,0.8,1.3,0.8
	s-0.7-0.5-0.6-1.1c0.1-0.5,0.5-1.1,0.9-1.2s3.6,1.7,4.1,2.8c0.5,1.1,0.8,2.6,0.5,3.1c-0.3,0.5-1.4,1.1-2.4,0.9s-3.8-0.7-4.9-2.1
	c-1.1-1.4-5.3-7.2-5.8-8.4c-0.5-1.1-1.2-2.5-1.2-3.4c0-0.8,0.5-6.9,0.4-7.9c0,0,0.2-7.2-0.3-8.5c-0.4-1.3-2.5-8.4-5.6-8.2"/>
<path class="st1" d="M80.1,118.4c0,0-3.8,3.9-7,3.9c-3.3,0-6.5-1.9-6.5-1.9s7,25.1,6.8,33.1c-0.3,8,4.9,15.1,6.8,16.3
	s-2.9-7.7-3.5-11s7.7-40,7.4-44.2C83.7,110.4,80.1,118.4,80.1,118.4z"/>
<path class="st1" d="M34.8,309c0,0-2.9,1.9-4.8,1.5c-2-0.4-3.7-2-3.7-2s0.9,16.3-0.2,21.2c-1.3,4.9,1,9.9,2,10.9s-0.8-5.1-0.7-7.2
	c0.1-2.1,10.1-23.5,10.4-26.1C38.1,304.6,34.8,309,34.8,309z"/>
<path class="st1" d="M59,119c0,0-12.9-7.2-15.2-12.2c-2.3-5.1,7.4,32,12,34.8C54.6,130.4,54.2,124.3,59,119z"/>
<path class="st1" d="M46,269.1c0,0,6.3,10,6,14.4c-0.3,4.5,7-25.3,4.8-29C53.5,262.7,51.4,267.2,46,269.1z"/>
<path class="st2" d="M36.5,31.9c0,0-4.3,20.5-4.6,28.7C31.6,68.8,37.7,95,39,97.5c-15.3-24-23-32.8-23-32.8S33.2,39.3,36.5,31.9z"/>
<path class="st2" d="M58.3,401.4c0,0,4.1-14.5,4.7-20.4c0.6-5.9-2.5-25-3.3-26.8c9.8,18,14.9,24.6,14.9,24.6S61,396.2,58.3,401.4z"
	/>
<path class="st2" d="M115,57.7c0,0-12.6-16.7-18.6-22.3S66.7,17.2,63.9,16.5c28.2,4.2,39.8,4.2,39.8,4.2S111.6,50.4,115,57.7z"/>
<path class="st2" d="M55.5,14c0,0-7.6,0.7-10.2,1.9s-8.4,9.3-8.7,10.5c2.1-13.5,2.1-19.7,2.1-19.7S52.2,13.2,55.5,14z"/>
<path class="st0" d="M119.1,64.7c0,0,20.9,82.7,15.7,123.1s-22.7,84.3-21.8,105.4c0.9,21.1,20.2,29.5,22.6,25.3
	c2.4-4.2,12.2-17.7,8.3-22.8c-3.9-5.1-5.2-11-5.2-11s2.6,8.4-0.7,15.2c-3.3,6.7-10.7,7.6-14.2,2.5c-3.4-5.1-3.1-32.1,0-43
	c3.1-11,24.5-78.4,21-101.2s-15.5-60.2-15.7-68S119.1,64.7,119.1,64.7z"/>
<path class="st0" d="M67.6,338.8c0,0-2.4-52.4,5.7-76.1s24.1-48,26.1-60.8c2.1-12.8-8.5-20.3-10.5-18c-2,2.2-9.5,9.2-7.8,12.7
	c1.7,3.6,1.8,7.3,1.8,7.3s-0.5-5.4,2.3-9.1c2.8-3.6,7.4-3.3,8.9,0.2c1.4,3.5-2.1,19.7-5.3,25.9c-3.2,6.2-24.4,44.2-25.1,58.3
	c-0.7,14.2,1.9,38.2,1.1,42.9C63.9,326.9,67.6,338.8,67.6,338.8z"/>
<path class="st1" d="M80.1,638.6c0,0-3.8-3.9-7-3.9c-3.3,0-6.5,1.9-6.5,1.9s7-25.1,6.8-33.1c-0.3-8,4.9-15.1,6.8-16.3
	s-2.9,7.7-3.5,11s7.7,40,7.4,44.2S80.1,638.6,80.1,638.6z"/>
<path class="st1" d="M67.4,496.6c0,0-2-0.4-3.1,0.2c-1.1,0.7-1.7,2-1.7,2s-3.1-9.5-4.8-12c-1.8-2.5-1.6-5.8-1.3-6.6
	c0.4-0.8,0.7,3.1,1.2,4.2c0.5,1.2,10.9,11.1,11.7,12.5C70.3,498.3,67.4,496.6,67.4,496.6z"/>
<path class="st1" d="M60.5,638c0,0-12.9,7.2-15.2,12.2c-2.3,5.1,7.4-32,12-34.8C56.1,626.6,55.7,632.7,60.5,638z"/>
<path class="st2" d="M29.4,725.1c0,0-4.3-20.5-4.6-28.7s5.8-34.4,7.1-36.9c-15.3,24-23,32.8-23,32.8S26.2,717.7,29.4,725.1z"/>
<path class="st2" d="M121.7,696.2c0,0-12.6,16.7-18.6,22.3s-29.7,18.2-32.5,18.9c28.2-4.2,39.8-4.2,39.8-4.2
	S118.3,703.5,121.7,696.2z"/>
<path class="st2" d="M57.9,743c0,0-7.6-0.7-10.2-1.9c-2.6-1.2-8.4-9.3-8.7-10.5c2.1,13.5,2.1,19.7,2.1,19.7S54.6,743.8,57.9,743z"/>
<path class="st3" d="M213.3,179.8c0,0,7.6,3.5,7.6,12.7s-5.1,12.7-15.2,12.7c-3.9,0-7-0.7-9.4-2.1c-0.3-0.2-0.6-0.4-0.9-0.5
	c-0.5-0.4-1-0.7-1.5-1.2c-2.3-2.2-3.5-5.2-3.5-8.9c0-7.6,7-12.7,7-12.7"/>
<path class="st3" d="M187.4,371.9c0,0,6.4,3.5,6.4,12.7s-4.3,12.7-12.9,12.7c-3.3,0-5.9-0.7-8-2.1c-0.3-0.2-0.5-0.4-0.7-0.5
	c-0.4-0.4-0.9-0.7-1.2-1.2c-2-2.2-2.9-5.2-2.9-8.9c0-7.6,5.9-12.7,5.9-12.7s-5.9,8.6-5,13.7c0.9,5.2,5.2,12.1,11.9,10.5
	s13.5-5.8,12-12.1C191.5,377.7,187.4,371.9,187.4,371.9z"/>
<path class="st4" d="M218,200.4c0,0-5.4-4.7-11.7-4.7s-11.7,4.7-11.7,4.7s1.8,2.1,3.1,1.9c1.3-0.2,3.4-1.8,4.5-2.3s2.7-1.4,5.3-0.9
	s7.6,3.4,8.6,3.3S218,200.4,218,200.4z"/>
<path class="st3" d="M199.6,283.9c0,0,7.6,3.5,7.6,12.7s-5.1,12.7-15.2,12.7c-3.9,0-7-0.7-9.4-2.1c-0.3-0.2-0.6-0.4-0.9-0.5
	c-0.5-0.4-1-0.7-1.5-1.2c-2.3-2.2-3.5-5.2-3.5-8.9c0-7.6,7-12.7,7-12.7"/>
<path class="st4" d="M204.4,304.4c0,0-5.4-4.7-11.7-4.7s-11.7,4.7-11.7,4.7s1.8,2.1,3.1,1.9s3.4-1.8,4.5-2.3s2.7-1.4,5.3-0.9
	c2.5,0.4,7.6,3.4,8.6,3.3C203.5,306.2,204.4,304.4,204.4,304.4z"/>
<path class="st3" d="M211.4,546.6c0,0,7.6,3.5,7.6,12.7s-5.1,12.7-15.2,12.7c-3.9,0-7-0.7-9.4-2.1c-0.3-0.2-0.6-0.4-0.9-0.5
	c-0.5-0.4-1-0.7-1.5-1.2c-2.3-2.2-3.5-5.2-3.5-8.9c0-7.6,7-12.7,7-12.7"/>
<path class="st4" d="M216.1,567.1c0,0-5.4-4.7-11.7-4.7s-11.7,4.7-11.7,4.7s1.8,2.1,3.1,1.9c1.3-0.2,3.4-1.8,4.5-2.3
	s2.7-1.4,5.3-0.9c2.5,0.4,7.6,3.4,8.6,3.3S216.1,567.1,216.1,567.1z"/>
<path class="st4" d="M205.7,205.1c0,0,3,25.3,0,25.3s-30.8,1.9-31.6-2.8s-4.1-73.1,0-73.1s27.8-5.1,29.7,0c0,0-10.4,3.3-12.3,2.7
	c-1.9-0.6-13.3-1.6-14.5,0c-1.3,1.6-4.9,65.2-0.5,68.2s12,4.3,19.5,1.9c7.4-2.4,8.9-9.2,8.9-11.1S205.7,205.1,205.7,205.1z"/>
<path class="st3" d="M241.7,183.5c0,0-4.9-4.6-9.2-4.6s-4.9,5.1-4.7,6.8s11.7,8.6,12.3,10.1s4.7,6.9,2.7,7.7c-2.1,0.8-13.1,4.3-16,3
	c-2.8-1.3-3.8-4.4-2.8-5.5s7-1.9,9.2-0.2s0.3,28.8,0.3,28.8"/>
<path class="st3" d="M232.5,178.9c0,0-15.2-6.6-15.2-11.9s7.7-18.5,15.2-13.4c7.4,5.1,8.9,9.8,10.9,9.8s-4.2,1.1-5.3,0.2
	c-1.1-0.9,0.6-3.4,0.6-3.4l1,2"/>
<path class="st3" d="M240.6,372.2c0,0-15.2-6.6-15.2-11.9s7.7-18.5,15.2-13.4s8.9,9.8,10.9,9.8s-4.2,1.1-5.3,0.2s0.6-3.4,0.6-3.4
	l1,2"/>
<path class="st3" d="M207.9,296.4c0,0,8.9-14,14-13.2s17.1,10.5,11,17.1s-11.1,7.3-11.4,9.2s-0.4-4.3,0.7-5.3
	c1.1-0.9,3.3,1.1,3.3,1.1l-2.1,0.7"/>
<path class="st3" d="M232.2,312.2c0,0-0.3-3.2,2.1-2.2s3.6,3,2.5,3.5s-0.6,2.2-2.1,1.7S231.7,314.3,232.2,312.2z"/>
<path class="st3" d="M250.7,471.6c0,0-0.3-3.3,2.2-2.3c2.5,1,3.8,3.1,2.6,3.6c-1.2,0.5-0.6,2.3-2.2,1.8S250.2,473.8,250.7,471.6z"/>
<path class="st3" d="M251.3,487.7c0,0-0.3-3.3,2.2-2.3s3.8,3.1,2.6,3.6c-1.2,0.5-0.6,2.3-2.2,1.8
	C252.3,490.4,250.8,489.9,251.3,487.7z"/>
<path class="st3" d="M209.1,371.9c0,0,8.8,5.8,8.9,11.7c0,0,0.4,9.4-7.1,12.6c-1.5,0.7-3.3,1.1-5.5,1.1c-3.1,0-5.4-0.7-7-1.9
	c-5.2-3.7-4.1-11.4-4.5-10.6c0,0,0.1,8.9,6.1,10.7c6,1.8,8.3,1.5,11.8-0.6s6.2-11.6,5.1-14.2C215.6,377.9,209.8,373.6,209.1,371.9z"
	/>
<path class="st3" d="M199.3,492.7c0,0,6.4-3.5,6.4-12.7s-4.3-12.7-12.9-12.7c-3.3,0-5.9,0.7-8,2.1c-0.3,0.2-0.5,0.4-0.7,0.5
	c-0.4,0.4-0.9,0.7-1.2,1.2c-2,2.2-2.9,5.2-2.9,8.9c0,7.6,5.9,12.7,5.9,12.7s-5.9-8.6-5-13.7c0.9-5.2,5.2-12.1,11.9-10.5
	s13.5,5.8,12,12.1C203.5,486.8,199.3,492.7,199.3,492.7z"/>
<path class="st3" d="M221,492.7c0,0,8.8-5.8,8.9-11.7c0,0,0.4-9.4-7.1-12.6c-1.5-0.7-3.3-1.1-5.5-1.1c-3.1,0-5.4,0.7-7,1.9
	c-5.2,3.7-4.1,11.4-4.5,10.6c0,0,0.1-8.9,6.1-10.7c6-1.8,8.3-1.5,11.8,0.6s6.2,11.6,5.1,14.2C227.6,486.6,221.7,490.9,221,492.7z"/>
<path class="st3" d="M246.3,422c-0.9,4.6-18.5,0-18.5,0c-2.6-1.9,0.6-25.2,0.6-25.2s10.2,2.7,14.6-1.2c0,0,10.4-8.6,1.8-18.5
	s-17.4,0.8-17-0.3l-1.7-0.8c-0.5,1.1,8.4-9.7,17,0.3c8.6,9.9-1.8,18.5-1.8,18.5c-4.5,3.9-14.6,1.2-14.6,1.2s-3.2,23.3-0.6,25.2
	c0,0,17.5,4.6,18.5,0"/>
<path class="st4" d="M221.5,491.9c0,0-2.7,16,0.4,22.2c0.6,1.3,1.5,2.1,2.7,2.4c7,1.5,13.7,4,15.4,1.5s3.2-48.7,0.6-50.6
	c-2.5-1.9,0.8,47.8-1.9,48.3c-2.7,0.4-13.7,2.3-14.8-0.8c-1.1-3.2-0.9-20.3-1.7-21.6C221.5,491.9,221.5,491.9,221.5,491.9z"/>
<path class="st3" d="M177.4,477.1c0,0-9.2-9.8-15.2-9.8c-4.8,0-10.1,5-11.1,11.1c-0.3,1.6-0.2,3.3,0.2,5c2.1,8.1,11.4,10,16.3,9.2
	s6.5-3.6,4.7-6c-1.7-2.4-5.4-7.4-10.1-4.9c-4.7,2.5-7.1,5.9-7.1,5.9s5.1-3.3,7.1-3.8c2.1-0.5,4.3-0.6,5.5,0.5
	c1.3,1.1,4.9,2.7,3.5,4.4s-8.4,3.5-10,2.5c-1.6-0.9-9.3-6.1-9.2-11.2s6.8-11.2,10.1-11.5s12,4,13.6,4.6
	C177.4,473.7,177.4,477.1,177.4,477.1z"/>
<path class="st3" d="M200.2,571.9c0,0,2.3,21.6,0,22.2c-2.3,0.6-11.6,1.8-11.6,0.7c0,1.7,9.7,1.8,11.4,0.9c1.7-0.9,2.7-4.4,2.7-6.1
	c0-1.7,0-16.3-0.5-17.3S200.2,571.9,200.2,571.9z"/>
<path class="st3" d="M208.5,571.9c0,0-2.3,21.6,0,22.2c2.3,0.6,11.6,1.8,11.6,0.7c0,1.7-9.7,1.8-11.4,0.9c-1.7-0.9-2.7-4.4-2.7-6.1
	c0-1.7,0-16.3,0.5-17.3S208.5,571.9,208.5,571.9z"/>
<path class="st2" d="M119.5,346.5l16.9,30.8L119.5,413c0,0,26.8-28.8,44.7-33.2C151.3,368.3,119.5,346.5,119.5,346.5z"/>
</svg>
