<?xml version="1.0" encoding="utf-8"?>
<!-- Generator: Adobe Illustrator 21.0.0, SVG Export Plug-In . SVG Version: 6.00 Build 0)  -->
<svg version="1.1" id="Layer_1" xmlns="http://www.w3.org/2000/svg" xmlns:xlink="http://www.w3.org/1999/xlink" x="0px" y="0px"
	 viewBox="0 0 1079.1 228" style="enable-background:new 0 0 1079.1 228;" xml:space="preserve">
<style type="text/css">
	.st0{fill:#80CBC4;stroke:#26A69A;stroke-width:2;stroke-miterlimit:10;}
	.st1{fill:#80CBC4;stroke:#26A69A;stroke-width:3;stroke-linecap:round;stroke-linejoin:round;stroke-miterlimit:10;}
	.st2{fill:#80CBC4;stroke:#26A69A;stroke-width:2;stroke-linecap:round;stroke-linejoin:round;stroke-miterlimit:10;}
</style>
<path class="st0" d="M796.1,148.6c0,0-7.2-6.2-7.2-11.5s3.6-10.7,3.6-10.7s-46.6,11.5-61.5,11.1c-14.9-0.4-28.1,8.1-30.3,11.1
	s14.3-4.7,20.4-5.7c6.1-1,74.5,12.6,82.2,12.1C811,154.5,796.1,148.6,796.1,148.6z"/>
<path class="st0" d="M419.4,64.2c0,0-7.2-6.2-7.2-11.5s3.6-10.7,3.6-10.7s-46.6,11.5-61.5,11.1s-28.1,8.1-30.3,11.1
	s14.3-4.7,20.4-5.7c6.1-1,74.5,12.6,82.2,12.1S419.4,64.2,419.4,64.2z"/>
<path class="st0" d="M722.8,66.9c0,0-7.2-6.2-7.2-11.5s3.6-10.7,3.6-10.7s-46.6,11.5-61.5,11.1s-28.1,8.1-30.3,11.1
	c-2.2,3,14.3-4.7,20.4-5.7c6.1-1,74.5,12.6,82.2,12.1S722.8,66.9,722.8,66.9z"/>
<path class="st1" d="M186.8,197c0,0-51.5-0.7-75.2-8.3s-48.2-21.3-60.9-23.5s-19.7,5.7-17.4,7.3s9.4,7.9,12.8,6.8
	c3.4-1.2,7.1-1,7.1-1s-5.3,0.1-9-2.2c-3.7-2.4-3.5-6-0.1-6.9c3.4-0.9,19.5,2.6,25.7,5.5c6.3,2.8,44.5,21.4,58.4,22.6
	s37.6,0.4,42.3,1.3C175.3,199.3,186.8,197,186.8,197z"/>
<path class="st1" d="M1030.3,156.5c0,0-45,25.1-69.3,30.4c-24.3,5.2-52.4,5.6-64.5,10c-12.1,4.4-14.2,14.8-11.4,15
	s12.1,2.2,14.5-0.5c2.3-2.7,5.7-4.4,5.7-4.4s-4.5,2.7-8.9,2.6c-4.4-0.2-6-3.5-3.5-5.9c2.5-2.5,18.2-7.5,25-8.1
	c6.9-0.7,49.2-3.7,61.9-9.6c12.6-5.9,32.8-18.4,37.3-20C1021.5,164.2,1030.3,156.5,1030.3,156.5z"/>
<path class="st1" d="M538.4,149.4c-9.4-30.4-93.5-26-108.9-26S338,149.7,338,149.7c-11,2.8-74.1,28.9-83.2,31.3s-26.6,0.8-40.6-0.4
	c-14-1.2-92.2-22-111.2-27.7S66.9,122,61.9,112.7s-3-22,1-26.8c4-4.8,21.5-6.9,35.1-6.1s45.1,26.4,46.1,30.5s-3.5,10.2-9,13
	s-13.5-2-13.5-2s-4.5,5.3,13,9.9c17.5,4.6,27.1-22.9,27.1-22.9s-14-33.4-76.2-35s-38.1,72.4,20,88.7s96.2,27.1,139.6,27.1
	s102.9-45,203.1-45s91.2,45,91.2,45h0.4c0,0-9-45,91.2-45s159.7,45,203.1,45s81.5-10.8,139.6-27.1s82.2-90.3,20-88.7
	s-76.2,35-76.2,35s9.5,27.5,27.1,22.9c17.6-4.6,13-9.9,13-9.9s-8,4.9-13.5,2c-5.5-2.8-10-8.9-9-13s32.6-29.7,46.1-30.5
	c13.5-0.8,31.1,1.2,35.1,6.1c4,4.9,6,17.5,1,26.8s-22,34.6-41.1,40.3c-19,5.7-97.2,26.4-111.2,27.7c-14,1.2-31.6,2.8-40.6,0.4
	c-9-2.4-72.1-28.5-83.2-31.3c0,0-76.2-26.3-91.5-26.3s-99.5-4.3-108.9,26"/>
<path class="st1" d="M538.8,68.5c-6.3,20.3-62.5,17.4-72.8,17.4s-61.2-17.6-61.2-17.6c-7.4-1.9-49.5-19.3-55.6-20.9
	c-6.1-1.6-17.8-0.5-27.1,0.3c-9.4,0.8-61.6,14.7-74.3,18.5c-12.7,3.8-24.1,20.7-27.5,26.9s-2,14.7,0.7,17.9
	c2.7,3.2,14.4,4.6,23.5,4.1c9.1-0.5,30.1-17.6,30.8-20.4c0.7-2.7-2.3-6.8-6-8.7c-3.7-1.9-9,1.3-9,1.3s-3-3.5,8.7-6.6
	C280.6,77.6,287,96,287,96s-9.4,22.3-50.9,23.4S210.6,71,249.5,60.1S313.7,42,342.8,42s68.8,30.1,135.8,30.1s61-30.1,61-30.1h0.3
	c0,0-6,30.1,61,30.1S707.4,42,736.4,42c29,0,54.5,7.2,93.3,18.1c38.8,10.9,54.9,60.4,13.4,59.3S792.2,96,792.2,96
	s6.3-18.4,18.1-15.3c11.8,3.1,8.7,6.6,8.7,6.6s-5.3-3.3-9-1.3c-3.7,1.9-6.7,5.9-6,8.7c0.7,2.7,21.8,19.9,30.8,20.4
	s20.8-0.8,23.5-4.1c2.7-3.3,4-11.7,0.7-17.9c-3.3-6.2-14.7-23.1-27.5-26.9c-12.7-3.8-65-17.6-74.3-18.5c-9.4-0.8-21.1-1.9-27.1-0.3
	c-6,1.6-48.2,19-55.6,20.9c0,0-50.9,17.6-61.2,17.6c-10.2,0-66.5,2.9-72.8-17.4"/>
<path class="st1" d="M541.1,199.1c1.7-5.3,16.4-4.6,19.2-4.6s16.1,4.6,16.1,4.6c1.9,0.5,13,5.1,14.6,5.5c1.6,0.4,4.7,0.1,7.1-0.1
	c2.5-0.2,16.2-3.9,19.6-4.9c3.3-1,6.3-5.4,7.2-7.1c0.9-1.6,0.5-3.9-0.2-4.7c-0.7-0.8-3.8-1.2-6.2-1.1s-7.9,4.6-8.1,5.4
	c-0.2,0.7,0.6,1.8,1.6,2.3c1,0.5,2.4-0.4,2.4-0.4s0.8,0.9-2.3,1.7c-3.1,0.8-4.8-4-4.8-4s2.5-5.9,13.4-6.2
	c10.9-0.3,6.7,12.7-3.5,15.6c-10.2,2.9-16.9,4.8-24.5,4.8s-18.1-7.9-35.7-7.9s-16,7.9-16,7.9h-0.1c0,0,1.6-7.9-16-7.9
	s-28.1,7.9-35.7,7.9c-7.6,0-14.3-1.9-24.5-4.8c-10.2-2.9-14.5-15.9-3.5-15.6c10.9,0.3,13.4,6.2,13.4,6.2s-1.7,4.8-4.8,4
	c-3.1-0.8-2.3-1.7-2.3-1.7s1.4,0.9,2.4,0.4c1-0.5,1.8-1.6,1.6-2.3c-0.2-0.7-5.7-5.2-8.1-5.4s-5.5,0.2-6.2,1.1
	c-0.7,0.9-1.1,3.1-0.2,4.7c0.9,1.6,3.9,6.1,7.2,7.1c3.3,1,17.1,4.6,19.6,4.9c2.5,0.2,5.6,0.5,7.1,0.1c1.6-0.4,12.7-5,14.6-5.5
	c0,0,13.4-4.6,16.1-4.6s17.5-0.8,19.2,4.6"/>
<path class="st0" d="M302.6,185c0,0,3.5,3,3.5,5.7s-1.8,5.2-1.8,5.2s22.9-5.7,30.3-5.5c7.3,0.2,13.9-4,14.9-5.5
	c1.1-1.5-7.1,2.3-10,2.8s-36.7-6.2-40.5-6C295.3,182,302.6,185,302.6,185z"/>
<path class="st0" d="M969.5,103.3c0,0,3.5,3,3.5,5.7s-1.8,5.2-1.8,5.2s22.9-5.7,30.3-5.5c7.3,0.2,13.9-4,14.9-5.5
	c1.1-1.5-7.1,2.3-10,2.8c-2.9,0.5-36.7-6.2-40.5-6C962.2,100.3,969.5,103.3,969.5,103.3z"/>
<path class="st0" d="M231.6,96.2c0,0,3.5,3,3.5,5.7s-1.8,5.2-1.8,5.2s22.9-5.7,30.3-5.5c7.3,0.2,13.9-4,14.9-5.5
	c1.1-1.5-7.1,2.3-10,2.8s-36.7-6.2-40.5-6C224.3,93.2,231.6,96.2,231.6,96.2z"/>
<path class="st2" d="M332.9,141.1c0,0-18.3-0.2-25.3,0.9c-7,1.1-27.2,10.4-29,11.9c16-16.6,21.2-24.3,21.2-24.3
	S325.9,139.7,332.9,141.1z"/>
<path class="st0" d="M779.2,185c0,0-3.5,3-3.5,5.7s1.8,5.2,1.8,5.2s-22.9-5.7-30.3-5.5c-7.3,0.2-13.9-4-14.9-5.5
	c-1.1-1.5,7.1,2.3,10,2.8c3,0.5,36.7-6.2,40.5-6C786.5,182,779.2,185,779.2,185z"/>
<path class="st2" d="M643.2,169.6c0,0,14.4-11.3,20.7-14.6c6.2-3.3,27.9-8.3,30.3-8.1c-22.7-3.5-31.6-6.5-31.6-6.5
	S647.9,164.2,643.2,169.6z"/>
<path class="st2" d="M514,114.6c0,0,14.4-11.3,20.7-14.6c6.2-3.3,27.9-8.3,30.3-8.1c-22.7-3.5-31.6-6.5-31.6-6.5
	S518.8,109.2,514,114.6z"/>
</svg>
