<?xml version="1.0" encoding="utf-8"?>
<!-- Generator: Adobe Illustrator 21.0.0, SVG Export Plug-In . SVG Version: 6.00 Build 0)  -->
<svg version="1.1" id="Layer_1" xmlns="http://www.w3.org/2000/svg" xmlns:xlink="http://www.w3.org/1999/xlink" x="0px" y="0px"
	 viewBox="0 0 100 100" style="enable-background:new 0 0 100 100;" xml:space="preserve">
<style type="text/css">
	.st0{fill:#B2DFDB;}
	.st1{fill:#4DB6AC;stroke:#4DB6AC;stroke-width:0.22;stroke-miterlimit:10;}
	.st2{fill:#80CBC4;}
	.st3{fill:#B2DFDB;stroke:#4DB6AC;stroke-width:0.21;stroke-miterlimit:10;}
	.st4{fill:#B2DFDB;stroke:#009688;stroke-width:0.21;stroke-miterlimit:10;}
	.st5{fill:#FFFFFF;stroke:#000000;stroke-width:0.21;stroke-miterlimit:10;}
	.st6{clip-path:url(#XMLID_7_);fill:#80CBC4;}
	.st7{clip-path:url(#XMLID_8_);fill:#80CBC4;}
	.st8{clip-path:url(#XMLID_9_);fill:#80CBC4;stroke:#4DB6AC;stroke-width:0.11;stroke-miterlimit:10;}
	.st9{clip-path:url(#XMLID_9_);fill:none;stroke:#4DB6AC;stroke-width:5.000000e-02;stroke-miterlimit:10;}
	.st10{clip-path:url(#XMLID_10_);fill:#80CBC4;stroke:#4DB6AC;stroke-width:0.11;stroke-miterlimit:10;}
	.st11{clip-path:url(#XMLID_10_);fill:none;stroke:#4DB6AC;stroke-width:5.000000e-02;stroke-miterlimit:10;}
	.st12{clip-path:url(#XMLID_11_);fill:#B2DFDB;}
	.st13{fill:#B2DFDB;stroke:#009688;stroke-width:0.1;stroke-miterlimit:10;}
	.st14{fill:#80CBC4;stroke:#009688;stroke-width:0.21;stroke-miterlimit:10;}
	.st15{fill:#B2DFDB;stroke:#B2DFDB;stroke-width:0.21;stroke-miterlimit:10;}
	.st16{fill:#4DB6AC;}
	.st17{fill:#4DB6AC;stroke:#80CBC4;stroke-width:0.11;stroke-miterlimit:10;}
	.st18{fill:#00897B;stroke:#80CBC4;stroke-width:0.11;stroke-miterlimit:10;}
	.st19{fill:none;stroke:#009688;stroke-width:0.21;stroke-miterlimit:10;}
	.st20{fill:none;stroke:#4DB6AC;stroke-width:0.1;stroke-miterlimit:10;}
</style>
<g>
	<path class="st0" d="M55.9,77.9l-0.1,2.6l-2.1,3.2l-1,0.7c0,0,0,0.7,0.4,0.6c0.4-0.1,3.2-0.7,4-0.7c0.8,0,1.8-0.7,1.5-1.3
		s-1.2-1.7-1.2-2.1c0.1-0.4,1-3.5,1-3.5L55.9,77.9z"/>
	<path class="st0" d="M65.1,79l1.6,2.6l0.1,4.4l-0.5,1.3c0,0,0.4,0.7,0.8,0.3c0.3-0.3,2.6-2.7,3.3-3.3c0.8-0.5,1.3-1.8,0.7-2.2
		c-0.6-0.4-2.3-0.8-2.5-1.3c-0.2-0.5-1.3-4.1-1.3-4.1L65.1,79z"/>
	<path class="st1" d="M55.4,52.8l-2.5,25.4c0,0,13.2,3.2,15.3,0s3.4-1.2,3.4-1.2s-5.1-23.9-3.7-27.8C61.6,53,55.4,52.8,55.4,52.8z"
		/>
</g>
<g>
	<path class="st2" d="M58.8,31.8c0,0-0.2,3.4,0,3.4c0.2,0,3.7,0,3.7,0l0-3.4L58.8,31.8z"/>
	<path class="st3" d="M58.2,28.8c0.1,0.8-0.4,1.3,0,2.2c0.4,0.9,1.7,2.1,2.3,2.2s3.2-1.6,3.1-3.6s0.1-2.8-2.1-2.8
		c-2.2,0-3.6-0.2-3.4,0.3C58.3,27.5,58,28,58.2,28.8z"/>
	<path class="st4" d="M61.2,29.2c0,0,0.5-0.3,0.8-0.3c0.3,0,0.5,0.5,0.5,0.5"/>
	<path class="st4" d="M58.8,29.2c0,0,0.5-0.3,0.8-0.3s0.5,0.5,0.5,0.5"/>
	<path class="st5" d="M59.8,31.4"/>
	<path class="st4" d="M59.8,31.4c0.1,0.2,0.1,0.5,0.9,0.5l0,0c0.8,0,0.8-0.2,0.9-0.4"/>
	<g>
		<defs>
			<path id="XMLID_3_" d="M58.7,25.1c0,0,1.9-1.2,2.7-2c0.8-0.8,0.7-0.3,0.7-0.3s-1.2,2.4-1,3c0.3,0.5-0.4,1.4-0.4,1.4l-2.5-1.7
				L58.7,25.1z"/>
		</defs>
		<use xlink:href="#XMLID_3_"  style="overflow:visible;fill:#009688;"/>
		<clipPath id="XMLID_7_">
			<use xlink:href="#XMLID_3_"  style="overflow:visible;"/>
		</clipPath>
		<path class="st6" d="M60.3,23.6c0,0,0.1,0.7,0.9,0.3c0.8-0.4,1.4-1.3,1.4-1.3l-0.1-0.4L60.3,23.6z"/>
		
			<use xlink:href="#XMLID_3_"  style="overflow:visible;fill:none;stroke:#4DB6AC;stroke-width:0.21;stroke-linejoin:round;stroke-miterlimit:10;"/>
	</g>
	<g>
		<defs>
			<path id="XMLID_2_" d="M57.3,26.8c0,0,0.4-1.4,0-1.9c-0.4-0.6-0.6-1-0.6-1s1,0.9,1.3,0.9c0.3,0,0.7-0.6,0.7-0.6s-0.3,0.5,0,0.9
				c0.3,0.4,1-1.7,1-1.7s0,1.9,0.1,1.9c0.1,0,0.9-0.7,1.1-1c0.2-0.3-0.1,0.4,0,0.8s0.5,0.1,0.9-0.4s0.2-2.2,0.2-2.2s0.5,2,0.8,2.2
				c0.3,0.2,1-0.5,1.7-0.6s1.2-0.2,1.2-0.2s-1.5,0.8-1.8,1.2c-0.3,0.4-0.3,0.8-0.3,0.8l0.5,0.7C64.1,26.7,59.2,26.4,57.3,26.8z"/>
		</defs>
		<use xlink:href="#XMLID_2_"  style="overflow:visible;fill:#009688;"/>
		<clipPath id="XMLID_8_">
			<use xlink:href="#XMLID_2_"  style="overflow:visible;"/>
		</clipPath>
		<path class="st7" d="M55.5,26.5c0,0,4.3-0.5,5.1-0.8c0.8-0.2,3.3-1.4,3.5-1.7s1.8,0,1.9,0.5c0.1,0.4-0.2,1.8-0.5,1.9
			C65.1,26.5,55.5,26.5,55.5,26.5z"/>
		<polyline class="st7" points="58,25.6 58.5,25.1 58.5,25.4 58.1,25.9 		"/>
		
			<use xlink:href="#XMLID_2_"  style="overflow:visible;fill:none;stroke:#4DB6AC;stroke-width:0.21;stroke-linejoin:round;stroke-miterlimit:10;"/>
	</g>
	<g>
		<defs>
			<path id="XMLID_4_" d="M58.2,27.4l-0.9-3.9L56.2,24c0,0,0.9,1.5,1,1.9c0.1,0.4-0.2,1.3-0.2,1.3L58.2,27.4z"/>
		</defs>
		<use xlink:href="#XMLID_4_"  style="overflow:visible;fill:#80CBC4;"/>
		<clipPath id="XMLID_9_">
			<use xlink:href="#XMLID_4_"  style="overflow:visible;"/>
		</clipPath>
		<path class="st8" d="M56.9,24.6c0,0,0.1,0.2,0.1,0.3c0.1,0.1,0.3-0.2,0.2-0.3c0-0.1-0.3-0.2-0.5-0.3c-0.1-0.1,0-0.2,0-0.2l0.2-0.1
			"/>
		<path class="st9" d="M56.9,23.9c0,0,0.5,1,0.5,1.1c-0.1,0.1-0.1,0.1-0.1,0.1"/>
		<path class="st9" d="M56.7,23.9c0,0,0.5,1,0.5,1.1c-0.1,0.1-0.1,0.1-0.1,0.1"/>
		<use xlink:href="#XMLID_4_"  style="overflow:visible;fill:none;stroke:#4DB6AC;stroke-width:0.21;stroke-miterlimit:10;"/>
	</g>
	<g>
		<defs>
			<path id="XMLID_5_" d="M62.4,28.1l1-3.9l1.1,0.5c0,0-0.9,1.4-1,1.8s0.2,1.3,0.2,1.3L62.4,28.1z"/>
		</defs>
		<use xlink:href="#XMLID_5_"  style="overflow:visible;fill:#80CBC4;"/>
		<clipPath id="XMLID_10_">
			<use xlink:href="#XMLID_5_"  style="overflow:visible;"/>
		</clipPath>
		<path class="st10" d="M63.7,25.3c0,0-0.1,0.2-0.1,0.3c-0.1,0.1-0.3-0.2-0.2-0.3c0-0.1,0.3-0.1,0.5-0.3s0-0.2,0-0.2l-0.2-0.1"/>
		<path class="st11" d="M63.8,24.6c0,0-0.6,1-0.5,1.1c0.1,0.1,0.1,0.1,0.1,0.1"/>
		<path class="st11" d="M63.9,24.6c0,0-0.6,1-0.5,1.1c0.1,0.1,0.1,0.1,0.1,0.1"/>
		<use xlink:href="#XMLID_5_"  style="overflow:visible;fill:none;stroke:#4DB6AC;stroke-width:0.21;stroke-miterlimit:10;"/>
	</g>
	<g>
		<defs>
			<path id="XMLID_1_" d="M57.4,26.6c0,0,6.5,0,6.6,0.2c0.1,0.2,0.5,1.3,0.2,1.4c-0.3,0.1-6.3,0.4-6.7,0.1s-1.1-1.5-0.7-1.6
				C57.2,26.6,57.4,26.6,57.4,26.6z"/>
		</defs>
		<use xlink:href="#XMLID_1_"  style="overflow:visible;fill:#80CBC4;"/>
		<clipPath id="XMLID_11_">
			<use xlink:href="#XMLID_1_"  style="overflow:visible;"/>
		</clipPath>
		<path class="st12" d="M57.2,28.1l4.3-1c0,0,2.6-0.6,3-0.5c0.5,0.2,1,1.1,0.7,1.2s-8.1,1.2-8.3,0.9S57.2,28.1,57.2,28.1z"/>
		<use xlink:href="#XMLID_1_"  style="overflow:visible;fill:none;stroke:#4DB6AC;stroke-width:0.21;stroke-miterlimit:10;"/>
	</g>
</g>
<g>
	<path class="st13" d="M79.8,40.2c0,0-0.1,2-0.6,1.9c-0.5-0.1,0,0.8,0,0.8s0.7-0.7,1-0.7c0.3,0-0.1,2.2-0.4,2.2
		c-0.3,0.1,0.3,0.6,0.5,0.4c0.2-0.2,0.6-1.4,0.6-1.6c0-0.2-0.2,0.7,0,0.7s1.6,0.1,1.6,0.1s0.4-1.1,0-1.6c-0.4-0.5-1.1-2-0.7-2.7
		c0.4-0.8-1.9,0.2-2,0S79.8,40.2,79.8,40.2z"/>
	<path class="st13" d="M49.4,26.6c0,0,0.7-1.9,1.2-1.7c0.5,0.2,0.2-0.7,0.2-0.7s-0.8,0.4-1.1,0.3s0.8-2,1-2s-0.1-0.7-0.4-0.5
		c-0.3,0.2-1,1.1-1.1,1.3c-0.1,0.2,0.4-0.6,0.2-0.7s-1.6-0.5-1.6-0.5s-0.7,0.9-0.5,1.5c0.2,0.6,0.4,2.2-0.1,2.8s1.8,0.3,1.9,0.6
		S49.4,26.6,49.4,26.6z"/>
	<path class="st14" d="M55.2,44c0,0-0.7,8.7-1.8,9c0,0.9,5.8,2.7,6.8,2.4s1.9-2.3,2.3-2.1c0.4,0.2,4.2,2.1,4.5,1.9
		c0,0,3.1-2.8,4.3-2.8c1.2,0-3.4-8.2-3.4-9.3c0-1.1-0.4-2-0.4-2S56,44.4,55.2,44z"/>
	<path class="st14" d="M46.7,25.4c0,0,2.6,0.9,2.9,0.8c0.3-0.1-1.7,3-1.1,3.7c0.5,0.7,0.7,1.1,2.3,1.3c1.6,0.2,4.7,0.2,4.8,0.6
		c0.1,0.4,1.5-1.2,1.5-1.2s3.7,5.1,3.9,4.6c0.2-0.5,3.1-4.7,3.4-4.3c0,0,1.4,1.6,2.1,1.7c0.7,0.1,8.5-0.3,9.4-0.7
		c0.8-0.4,4.9,6.9,6.2,7.6s1.2,0.7,1.2,0.7s-3.4,1-4.3,1.3s0.1-0.5,0-1c-0.1-0.5-2.2-5.5-4.1-5.4c-1.9,0.1-6.6,1.3-6.7,1.9
		c-0.1,0.7-5.2,6.4-8,5.7c-2.8-0.7-4.9-0.2-4.9-1.2c0-1,1.9-4.4,0.5-5.1c-1.4-0.7-10.2-2.8-10.1-4.1C45.6,30.8,45.6,25.7,46.7,25.4z
		"/>
	<path class="st15" d="M61,36.3c0,0-1.5,4.8-1.5,8c0,3.2,2.1,8.7,2.1,8.7"/>
	<path class="st16" d="M55.6,32.2c0,0,4.2,2.8,4.2,3.8s-1.2,6-1.2,8.7"/>
	<path class="st15" d="M66,32.4c0,0-3.7,2-4.5,5.1"/>
	<path class="st0" d="M54.7,39.4c0,0-0.9,5.1-1.3,5.3c-0.4,0.2,5.2,0,6.5,0.5s9.2-4.2,10.5-4.2s-1.8-2.4-1.8-3.4s-5.4,2.7-6.8,2.5
		C60.3,40,57.6,41.7,54.7,39.4z"/>
	<path class="st2" d="M53.5,41.3c0,0-0.7,0.9-0.7,1.7c-0.1,0.9,2.1,1.9,4.7,1.3c2.6-0.6,3.5-0.7,3.5-0.7l0.5-0.3
		c0,0,7.4-2.4,8.8-2.2c1.4,0.1-1.1-1.6-1.4-1.9c-0.2-0.3-0.5-0.8-0.5-0.8s-6.7,4.7-7.4,4.4S54.1,42.3,53.5,41.3z"/>
	<path class="st17" d="M60,39.4c-0.6,1.3-1.6,1.9-0.5,2.6c1.1,0.7,2.7,0.8,2.8,0c0.1-0.8,0.3-1.6,0-2.6c-0.3-1-0.5-0.9-1.6-0.5
		C59.7,39.2,60,39.4,60,39.4z"/>
	<path class="st18" d="M60.6,42.3c0,0-1.2,0.5-0.7,0.9s1,0.9,1.3,0.7c0.2-0.2,0.7-0.6,0.5-1.1S60.6,42.3,60.6,42.3z"/>
	<path class="st0" d="M60.3,43.6c0,0-9.1,20.5-8.5,24.2c2.8,3.5,3.6,4.7,3.6,4.7l4.9-5.1L60.9,44L60.3,43.6z"/>
	<path class="st0" d="M61.5,43.6c0,0,10,19.4,9.7,20.7c-0.3,1.3-2.5,4.3-2.5,4.3s-4.1-1.7-4.1-2.4c0-0.6-3.3-22.4-3.3-22.4
		L61.5,43.6z"/>
</g>
<g>
	<path class="st2" d="M34.5,69.3c0,0-3.6-11.8-3.2-12.9c0.4-1.2,1.6-2.4,1.8-0.1c0.2,2.3,2.9,13.5,2.3,14.1
		C34.8,70.9,34.5,69.3,34.5,69.3z"/>
	<path class="st2" d="M27.2,77.4c0,0,0.3-17-1.5-17.6c-1.9-0.6,9.3,2.8,13.1,2.2s8.8-2.9,8.8-2.9s-3,15.7-2.4,17.8
		c0.6,2.1,2.4,1.4,2.4,1.4s1.1-17.5,1.9-19.2s-9.7-5.7-12.8-5.4c-3.1,0.4-9.7,1-11.3,2.7c-1.5,1.7-2.4,3.9-1.5,6.1
		c0.8,2.2,2,12.9,1,14.4c-0.9,1.5,1,4.1,1.6,2.3C27.2,77.4,27.2,77.4,27.2,77.4z"/>
	<path class="st2" d="M36.6,61.8c0,0-0.1,13.2,0,15.1s2.1,3.2,2.2,2.4s0.9-17.7,0-17.9C37.9,61.2,36.6,61.8,36.6,61.8z"/>
	<path class="st0" d="M27.1,51.8c0,0,4.2,6.2,7.9,6.7c3.7,0.5,6.5-0.2,8.4-2.2s2.5-3.9,2.2-5c-0.3-1-5.9,3.2-9.8,2.7
		C32,53.3,27.1,51.8,27.1,51.8z"/>
	<path class="st19" d="M45.9,58.9"/>
	<path class="st2" d="M27.1,52.3c0,0,3.4-3.2,8.3-3.3s12.3,2.2,10.2,2.7c-2.1,0.5-6.3,2.7-8,2.7C35.9,54.4,27.1,52.3,27.1,52.3z"/>
	<g>
		<path class="st2" d="M36.4,48.6c0.7-0.2,1.4-0.3,1.4-0.3s0.2,0.1,0.3,0.3c0.1,0.2-0.7,0.9-0.8,0.8c-0.2-0.1-0.8,0.2-0.8-0.2
			C36.4,48.8,36.4,48.6,36.4,48.6z"/>
		<path class="st0" d="M37.2,49c-0.1,0-1.2-0.9-2.4-0.5c-1.2,0.4-1.7,2.3-1.2,3.2c0.5,0.8,1.5,2.6,3.6,2.6c2.1,0,3.3-2.3,3.3-2.8
			c0.1-0.6,0.1-2.4-0.4-2.8c-0.5-0.4-1-0.6-1.6-0.5C38,48.1,37.2,49,37.2,49z"/>
		<path class="st20" d="M37.2,49c0,0,0.5-1.1,0.8-1.7c0.3-0.6,1-1,1.3-1"/>
		<path class="st20" d="M37.1,49c0,0,0.1-0.3-0.2-0.6c-0.3-0.4-1-0.4-1-0.4"/>
	</g>
	<path class="st0" d="M41.2,50.6c-0.5,0.8-0.7,1.7-0.8,2.2c-0.1,0.5-1.1,1.3-1.2,1.4c-0.1,0.1-0.1,1,0.4,0.8s1.8-1.7,1.8-2
		s0.7-2,0.7-2.2c0-0.2-0.5-0.6-0.7-0.4C41.2,50.6,41.2,50.6,41.2,50.6z"/>
	<path class="st0" d="M31.7,49.1c0.5,0.8,0.7,1.7,0.8,2.2s1.1,1.3,1.2,1.4c0.1,0.1,0.1,1-0.4,0.8s-1.8-1.7-1.8-2
		c0-0.4-0.7-2-0.7-2.2s0.5-0.6,0.7-0.4S31.7,49.1,31.7,49.1z"/>
	<path class="st0" d="M29.6,50.8c0.5,0.8,0.7,1.7,0.8,2.2c0.1,0.5,1.1,1.3,1.2,1.4c0.1,0.1,0.1,1-0.4,0.8c-0.6-0.2-1.8-1.7-1.8-2
		c0-0.4-0.7-2-0.7-2.2c0-0.2,0.5-0.6,0.7-0.4C29.6,50.8,29.6,50.8,29.6,50.8z"/>
	<path class="st0" d="M31.4,51.5c0.5,0.8,0.7,1.7,0.8,2.2c0.1,0.5,1.1,1.3,1.2,1.4c0.1,0.1,0.1,1-0.4,0.8s-1.8-1.7-1.8-2
		s-0.7-2-0.7-2.2c0-0.2,0.5-0.6,0.7-0.4C31.4,51.5,31.4,51.5,31.4,51.5z"/>
	<path class="st0" d="M42.7,50.8c-0.5,0.8-0.7,1.7-0.8,2.2c-0.1,0.5-1.1,1.3-1.2,1.4c-0.1,0.1-0.1,1,0.4,0.8s1.8-1.7,1.8-2
		c0-0.4,0.7-2,0.7-2.2c0-0.2-0.5-0.6-0.7-0.4C42.7,50.8,42.7,50.8,42.7,50.8z"/>
	<path class="st0" d="M44,51.5c-0.5,0.8-0.7,1.7-0.8,2.2C43,54.3,42,55.1,42,55.1c-0.1,0.1-0.1,1,0.4,0.8s1.8-1.7,1.8-2
		s0.7-2,0.7-2.2c0-0.2-0.5-0.6-0.7-0.4C44,51.5,44,51.5,44,51.5z"/>
</g>
<path class="st0" d="M28.6,35.3h2.3c0,0-0.3,2.8-0.8,3.2c-0.5,0.3-1.7,1.6-1.5,2s-2.8,0.2-2.8,0.2s1.1-2,1.9-2.2
	C28.6,38.3,28.6,35.3,28.6,35.3z"/>
<path class="st0" d="M37.9,27.4l-1,2.1c0,0-2.4-1.5-2.5-2.1c-0.1-0.6-0.7-2.2-1.1-2.2c-0.4,0,1-2.6,1-2.6s1.3,1.9,1.1,2.7
	C35.2,26.1,37.9,27.4,37.9,27.4z"/>
<path class="st0" d="M77,28L76,30c0,0-2.4-1.5-2.5-2.1c-0.1-0.6-0.7-2.2-1.1-2.2c-0.4,0,1-2.6,1-2.6s1.3,1.9,1.1,2.7
	C74.4,26.6,77,28,77,28z"/>
<path class="st0" d="M77,47.7l-1,2.1c0,0-2.4-1.5-2.5-2.1c-0.1-0.6-0.7-2.2-1.1-2.2c-0.4,0,1-2.6,1-2.6s1.3,1.9,1.1,2.7
	S77,47.7,77,47.7z"/>
<path class="st0" d="M50.8,17.4c0,0,2.6-0.6,3.6,0s3.6,0.2,3.4-0.1c-0.2-0.4-0.6,0.1-0.5,2.1s-1.6,0.5-1.6,0.5s-1-0.8-2.3-0.5
	s-2.6,1-2.6,1V17.4z"/>
<path class="st0" d="M81.4,59.2c0,0,2.6-0.6,3.6,0s3.6,0.2,3.4-0.1c-0.2-0.4-0.6,0.1-0.5,2.1s-1.6,0.5-1.6,0.5s-1-0.8-2.3-0.5
	s-2.6,1-2.6,1V59.2z"/>
</svg>
