<?xml version="1.0" encoding="utf-8"?>
<!-- Generator: Adobe Illustrator 21.0.0, SVG Export Plug-In . SVG Version: 6.00 Build 0)  -->
<svg version="1.1" id="Layer_1" xmlns="http://www.w3.org/2000/svg" xmlns:xlink="http://www.w3.org/1999/xlink" x="0px" y="0px"
	 viewBox="0 0 100 100" style="enable-background:new 0 0 100 100;" xml:space="preserve">
<style type="text/css">
	.st0{fill:#80CBC4;stroke:#4DB6AC;stroke-width:0.5;stroke-linecap:round;stroke-linejoin:round;stroke-miterlimit:10;}
	.st1{fill:#B2DFDB;stroke:#80CBC4;stroke-width:0.5;stroke-linecap:round;stroke-linejoin:round;stroke-miterlimit:10;}
	.st2{fill:#4DB6AC;stroke:#80CBC4;stroke-width:0.5;stroke-linecap:round;stroke-linejoin:round;stroke-miterlimit:10;}
	.st3{fill:none;stroke:#80CBC4;stroke-width:0.25;stroke-linecap:round;stroke-linejoin:round;stroke-miterlimit:10;}
	.st4{fill:#B2DFDB;stroke:#26A69A;stroke-width:0.25;stroke-linecap:round;stroke-linejoin:round;stroke-miterlimit:10;}
	.st5{fill:#80CBC4;stroke:#26A69A;stroke-width:0.25;stroke-linecap:round;stroke-linejoin:round;stroke-miterlimit:10;}
	.st6{fill:#4DB6AC;stroke:#26A69A;stroke-width:0.25;stroke-linecap:round;stroke-linejoin:round;stroke-miterlimit:10;}
	.st7{fill:none;stroke:#26A69A;stroke-width:0.25;stroke-linecap:round;stroke-linejoin:round;stroke-miterlimit:10;}
</style>
<polygon class="st0" points="43.1,38.2 43.1,16.3 28.6,10.8 28.6,32.8 "/>
<polyline class="st0" points="28.4,10.9 17.3,17.6 17.3,17.6 17.3,36.2 17.3,36.1 28.6,32.8 28.6,10.8 "/>
<polygon class="st1" points="17.3,36.1 28.6,32.8 43.1,38.2 32.2,41.4 "/>
<g>
	<polygon class="st2" points="21.6,12.8 17.3,24 22.4,34.6 26.7,22.5 	"/>
	<polygon class="st2" points="21.6,12.8 23.9,12.8 28.6,20.7 28.6,25.2 24.3,34.6 22.4,34.6 26.7,22.5 	"/>
	<polygon class="st2" points="28.6,20.4 26.7,22.5 28.6,25.2 	"/>
</g>
<g>
	<g>
		<polygon class="st1" points="38.6,12.8 31.8,22.6 38.6,34.6 44.6,24.5 		"/>
		<polygon class="st1" points="38.6,12.8 33.9,12.9 28.6,20.4 28.6,25.2 35.2,34.6 38.6,34.6 31.8,22.6 		"/>
		<polygon class="st1" points="31.8,22.6 28.6,20.4 28.6,25.2 		"/>
	</g>
	<polygon class="st1" points="40,37.1 38.6,34.6 35.2,34.6 	"/>
	<polygon class="st1" points="40.3,36.7 45.7,27.5 44.2,25.5 38.9,34.4 	"/>
	<polygon class="st1" points="45.7,27.5 43.1,32 43.1,34.6 	"/>
</g>
<g>
	<polygon class="st2" points="23,9.7 21.5,13 24,13 	"/>
	<polygon class="st2" points="38.6,12.9 37.1,9.5 33.9,12.9 	"/>
	<polygon class="st2" points="37.1,9.5 23,9.7 24.3,13.4 28.6,10.9 33.9,12.9 	"/>
	<polygon class="st2" points="43.1,16.3 37.1,9.5 39.8,15.1 	"/>
</g>
<g>
	<polygon class="st2" points="22.4,34.6 23.8,36.7 24.7,34.6 	"/>
	<polygon class="st2" points="35.2,34.6 40.3,36.7 36.3,39 	"/>
	<polygon class="st2" points="35.2,34.6 24.7,34.6 23.8,36.7 36.3,39 	"/>
	<polygon class="st2" points="40,36.7 41.7,40.3 38.9,43.7 36.3,39 	"/>
</g>
<g>
	<line class="st3" x1="29.8" y1="37.9" x2="29.8" y2="79.1"/>
	<line class="st3" x1="30.4" y1="38" x2="30.4" y2="79.2"/>
	<line class="st3" x1="30.9" y1="38.1" x2="30.9" y2="79.2"/>
	<line class="st3" x1="31.5" y1="38.2" x2="31.5" y2="79.4"/>
	<line class="st3" x1="32.2" y1="38.3" x2="32.2" y2="79.5"/>
	<line class="st3" x1="32.7" y1="38.4" x2="32.7" y2="79.6"/>
	<line class="st3" x1="33.4" y1="38.6" x2="33.4" y2="79.7"/>
	<line class="st3" x1="34.1" y1="38.7" x2="34.1" y2="79.8"/>
	<line class="st3" x1="34.8" y1="38.8" x2="34.8" y2="79.9"/>
	<line class="st3" x1="35.4" y1="38.9" x2="35.4" y2="80"/>
	<line class="st3" x1="36" y1="39" x2="36" y2="80.1"/>
	<line class="st3" x1="36.8" y1="40.2" x2="36.8" y2="81.3"/>
	<line class="st3" x1="37.4" y1="41.2" x2="37.4" y2="82.3"/>
	<line class="st3" x1="38" y1="42" x2="38" y2="83.1"/>
	<line class="st3" x1="38.5" y1="43" x2="38.5" y2="84.1"/>
	<line class="st3" x1="23.8" y1="37" x2="23.8" y2="78.1"/>
	<line class="st3" x1="24.4" y1="37.1" x2="24.4" y2="78.3"/>
	<line class="st3" x1="25" y1="37.2" x2="25" y2="78.4"/>
	<line class="st3" x1="25.5" y1="37.4" x2="25.5" y2="78.5"/>
	<line class="st3" x1="26.3" y1="37.5" x2="26.3" y2="78.6"/>
	<line class="st3" x1="26.9" y1="37.6" x2="26.9" y2="78.7"/>
	<line class="st3" x1="27.6" y1="37.7" x2="27.6" y2="78.8"/>
	<line class="st3" x1="28.3" y1="37.8" x2="28.3" y2="79"/>
	<line class="st3" x1="28.9" y1="37.8" x2="28.9" y2="79"/>
	<line class="st3" x1="29.4" y1="37.9" x2="29.4" y2="79.1"/>
</g>
<g id="Ta_x5F_Din_x5F_Kyut_x5F_Candle">
	<path class="st4" d="M60.2,66.6h9.9c0,0,1.4,0.2,1.4,0.9c0.1,0.7-1.3,0.8-1.3,0.8h-10c0,0-1.7,0.1-1.6-0.8
		C58.6,66.5,60.2,66.6,60.2,66.6z"/>
	<path class="st5" d="M59.3,68.2c0,0,0.9,2.1,2.6,2.1h6.1c1.7,0,2.6-2.1,2.6-2.1H59.3z"/>
	<path class="st6" d="M61.6,71.4c0,0,0.5-1.2,1.4-1.2h3.4c1,0,1.4,1.2,1.4,1.2H61.6z"/>
	<path class="st7" d="M69.8,65.9c0,0.4,0.3,0.7,0.3,0.7s0.9-0.2,0.6-0.5S69.8,65.9,69.8,65.9z"/>
	<path class="st4" d="M70.4,65.8c0,0-2.6-2.9-2.4-6s3.8-6.5,4-7.4s2.3,7.1,2.1,7.8S74.2,64.6,70.4,65.8z"/>
	<g>
		<line class="st7" x1="71.1" y1="48" x2="71" y2="50.4"/>
		<line class="st7" x1="79.3" y1="59.8" x2="76.9" y2="59.7"/>
		<line class="st7" x1="65.5" y1="59.8" x2="63.1" y2="59.7"/>
		<line class="st7" x1="75.2" y1="51.3" x2="74.4" y2="52.3"/>
		<line class="st7" x1="66.8" y1="51.6" x2="67.6" y2="52.6"/>
		<line class="st7" x1="77" y1="55" x2="75.9" y2="55.6"/>
		<line class="st7" x1="77.1" y1="63.7" x2="75.9" y2="63.3"/>
		<line class="st7" x1="64.9" y1="55.7" x2="66.1" y2="56.2"/>
		<line class="st7" x1="64.9" y1="63.4" x2="66.1" y2="62.9"/>
	</g>
</g>
</svg>
