<?xml version="1.0" encoding="utf-8"?>
<!-- Generator: Adobe Illustrator 21.0.0, SVG Export Plug-In . SVG Version: 6.00 Build 0)  -->
<svg version="1.1" id="Layer_1" xmlns="http://www.w3.org/2000/svg" xmlns:xlink="http://www.w3.org/1999/xlink" x="0px" y="0px"
	 viewBox="0 0 100 100" style="enable-background:new 0 0 100 100;" xml:space="preserve">
<style type="text/css">
	.st0{fill:#B2DFDB;stroke:#26A69A;stroke-width:0.5;stroke-miterlimit:10;}
	.st1{fill:#4DB6AC;stroke:#26A69A;stroke-width:0.5;stroke-miterlimit:10;}
	.st2{fill:#80CBC4;stroke:#26A69A;stroke-width:0.5;stroke-miterlimit:10;}
	.st3{fill:#B2DFDB;stroke:#26A69A;stroke-width:0.5;stroke-linejoin:round;stroke-miterlimit:10;}
	.st4{fill:#80CBC4;stroke:#26A69A;stroke-width:0.5;stroke-linejoin:round;stroke-miterlimit:10;}
	.st5{fill:#4DB6AC;stroke:#26A69A;stroke-width:0.5;stroke-linejoin:round;stroke-miterlimit:10;}
	.st6{fill:#E0F2F1;stroke:#26A69A;stroke-width:0.25;stroke-miterlimit:10;}
	.st7{fill:#E0F2F1;stroke:#26A69A;stroke-width:0.5;stroke-miterlimit:10;}
	.st8{fill:#B2DFDB;stroke:#26A69A;stroke-width:0.25;stroke-miterlimit:10;}
</style>
<g>
	<g>
		<path class="st0" d="M50,30.8h4.9c0,0-0.7-2-0.8-2.3C54,28.1,52,21,52,20.5s-2-3.3-2-3.3s-2,2.7-2,3.3s-2,7.7-2.1,8
			c-0.1,0.3-0.8,2.3-0.8,2.3H50z"/>
		<polygon class="st1" points="49.7,32.6 47.4,32.6 47.4,31.1 49.7,31.1 50.3,31.1 52.6,31.1 52.6,32.6 50.3,32.6 		"/>
		<polyline class="st0" points="49.9,32.6 54.8,32.7 55,33.5 49.9,33.6 50,33.6 44.9,33.5 45.1,32.7 50,32.6 		"/>
		<path class="st0" d="M49.9,43.5H38.6c0,0-0.3-2.6,0-3.2c0.3-0.6,1.3-2.4,1.9-4.2s4.4-2.6,4.4-2.6l5,0.1H50l5-0.1
			c0,0,3.7,0.9,4.4,2.6c0.7,1.8,1.6,3.5,1.9,4.2s0,3.2,0,3.2H49.9L49.9,43.5z"/>
		<polygon class="st0" points="61.4,42.2 60.4,42.8 59.7,41.9 58.5,42.8 57.5,41.9 56.5,42.8 55.5,41.4 54.2,42.8 53.1,41.7 
			51.5,42.8 50,41.6 48.4,42.8 46.8,41.7 45.7,42.8 44.4,41.4 43.5,42.8 42.4,41.9 41.5,42.8 40.3,41.9 39.5,42.8 38.5,42.2 
			38.5,43.5 61.4,43.5 		"/>
		<path class="st2" d="M50,43.5h11.4c0,0,0,6.5,0.4,6.7c0.4,0.2,0.4,0.6,0.4,0.6H50H37.8c0,0,0-0.4,0.4-0.6c0.4-0.2,0.4-6.7,0.4-6.7
			H50z"/>
		<path class="st1" d="M61.3,46.9c0,0-1.8-0.6-1.8-1.7c0-1.1,0-0.8,0-0.8l-0.7,0h-0.7c0,0-0.2,2.2-0.7,2.3c-0.5,0-0.5,0-0.7-0.1
			c-0.1-0.1-0.1-1.9-0.2-2c-0.1-0.2-0.2-0.2-0.3-0.2s-0.9-0.1-1,0.1c-0.1,0.2-0.2,2-0.5,2.2c-0.3,0.2-1,0.2-1.2-0.1
			c-0.2-0.3-0.1-1.9-0.2-2.1c-0.2-0.2-1.1-0.2-1.4-0.1c0,0-0.2-0.1-0.3,0.3s-0.4,2.2-0.9,2.3c-0.5,0.1-0.8,0-0.8,0s-0.3,0.1-0.8,0
			c-0.5-0.1-0.8-1.9-0.9-2.3S48,44.2,48,44.2c-0.3-0.1-1.2,0-1.4,0.1c-0.2,0.2,0,1.8-0.2,2.1c-0.2,0.3-0.9,0.2-1.2,0.1
			c-0.3-0.2-0.4-2-0.5-2.2c-0.1-0.2-0.9-0.1-1-0.1c-0.1,0-0.2,0-0.3,0.2c-0.1,0.2-0.1,1.9-0.2,2c-0.1,0.1-0.1,0.1-0.7,0.1
			c-0.5,0-0.7-2.3-0.7-2.3h-0.7l-0.7,0c0,0,0-0.3,0,0.8c0,1.1-1.8,1.7-1.8,1.7l-0.2,0.9c0,0,2.2,0.1,2.5-0.2
			c0.3-0.3,0.4-0.7,0.4-0.7s0.7,0.8,1.4,0.8s1.6-0.7,1.6-0.7s0.1,0.4,0.9,0.5c0.8,0.2,2.1-0.5,2.2-0.6c0.1-0.1,1.5,1,1.9,0.9
			c0.4,0,2,0.1,2.2-0.2c0.2-0.3,2.3,0.7,3,0.2c0.7-0.5,1.3-0.7,1.3-0.7s1.5,0.7,2.2,0.8s0.8-0.8,0.8-0.8s0.9,0.3,1.5,0.3
			s1.1,0.2,1.1,0.2L61.3,46.9z"/>
		<path class="st3" d="M50,57.7l-18.7-0.6c0,0,2.8-1.3,3.1-2c0.3-0.8,2-1.6,2-1.6l1.2-1.4l0.3-1.2H50h0.1h12.2l0.3,1.2l1.2,1.4
			c0,0,1.7,0.9,2,1.6c0.3,0.8,3.1,2,3.1,2l-18.7,0.6H50z"/>
		<path class="st4" d="M49.8,63.1h22c0,0-0.3-0.3-0.5-0.8s0.5-4.7,0.5-4.7S71,56.9,71,57.1c0,0.2-0.9,0.6-0.9,0.6l-1.5-0.6
			l-18.7,0.6h0.2l-18.7-0.6l-1.5,0.6c0,0-0.9-0.4-0.9-0.6c0-0.2-0.8,0.6-0.8,0.6s0.7,4.2,0.5,4.7s-0.5,0.8-0.5,0.8h4.2h17.8H49.8z"
			/>
		<path class="st3" d="M50,63.1H37.4l1,1.3l0.2,4L38,69l-0.1,2.6c0,0-2,3.8-3,4.1h15.2h0.1h15.2c-1-0.3-3-4.1-3-4.1L62.3,69
			l-0.5-0.5l0.2-4l1-1.3H50.3H50z"/>
		<polygon class="st5" points="50.1,81.2 32.1,81.2 32.1,75.7 50.1,75.7 68.2,75.7 68.2,81.2 50.2,81.2 		"/>
	</g>
	<g>
		<path class="st0" d="M60,33c0,0,1.2,7,2.8,8.9c1.5,1.9,3.8,3.3,4.6,5.2c0.8,1.9,1.7,7.9,1.5,8.9c-0.2,1-7.1,3.5-9.8,3.1
			c-2.7-0.5-7.6-1.5-7.8-2.6c-0.2-1.1-0.7-8.5,2.3-10.6c3-2.1,6.1-6.1,6-8.5C59.4,35.1,59,34.2,60,33z"/>
		<g id="Fire">
			<path class="st6" d="M62.1,48.5c0,0-1.5-4.3-1.6-5.5c-1.1,2.5-2.3,4.5-2.4,4.7s2.7,5,3.6,4C62.5,50.7,62.1,48.5,62.1,48.5z"/>
			<path class="st6" d="M59.8,51c0,0-2-3-2.3-3.9c-0.3,2.1-0.9,3.9-1,4.1c0,0.2,3,3.3,3.5,2.4C60.5,52.6,59.8,51,59.8,51z"/>
			<path class="st6" d="M59.7,51.2c0,0,2-2.9,2.4-3.9c0.3,2.2,0.8,3.9,0.9,4.1c0,0.2-3,3.3-3.5,2.3S59.7,51.2,59.7,51.2z"/>
			<path class="st6" d="M60.9,52.4c0,0,2.5-2.6,3-3.4c-0.1,2.2,0.2,4,0.2,4.1c0,0.2-3.5,2.7-3.8,1.7C59.9,53.8,60.9,52.4,60.9,52.4z
				"/>
			<path class="st6" d="M61.6,54.3c0,0,2.9-2.1,3.5-2.8c-0.5,2.1-0.5,3.9-0.6,4.1c-0.1,0.2-3.9,2-4.1,1
				C60.4,55.5,61.6,54.3,61.6,54.3z"/>
			<path class="st6" d="M61.7,56.5c0,0,3-1.9,3.7-2.6c-0.6,2.1-0.8,3.9-0.8,4.1c-0.1,0.2-4.1,1.8-4.1,0.7
				C60.4,57.6,61.7,56.5,61.7,56.5z"/>
			<path class="st6" d="M58.6,52.8c0,0-2.2-2.8-2.5-3.8c-0.2,2.2-0.7,3.9-0.7,4.1s3.2,3.1,3.6,2.1S58.6,52.8,58.6,52.8z"/>
			<path class="st6" d="M57.7,54.9c0,0-2.2-2.8-2.5-3.8c-0.2,2.2-0.7,3.9-0.7,4.1s3.2,3.1,3.6,2.1S57.7,54.9,57.7,54.9z"/>
			<path class="st6" d="M57,57.1c0,0-2.2-2.8-2.5-3.8c-0.2,2.2-0.7,3.9-0.7,4.1s3.2,3.1,3.6,2.1C57.8,58.6,57,57.1,57,57.1z"/>
			<path class="st7" d="M57.4,58c0,0-0.3-3.2,0.2-3.9c0.6-0.8,1.9-1.9,2.3-2.8c0.4-0.9,0.5-0.5,0.5-0.5s0.1,1.9,0.6,2.6
				c0.5,0.6,0.9,3,0.9,3.6c0,0.7-0.3,2.5-2.3,1.9S57.4,58,57.4,58z"/>
		</g>
		<path class="st8" d="M60.4,59.3l-8.5-2.8l-2.2,0.7c0,0,4.9,5.4,7.6,5.6c2.7,0.1,6,0.5,6.9-0.7c0.9-1.1,1.7-2.3,2.7-2.8
			c0.9-0.5,3.6-2.4,3.6-2.4s-0.9-0.5-1.9-0.3C67.6,57,61.2,59.6,60.4,59.3z"/>
		<path class="st0" d="M59.4,59.6c-0.8,0.1-6.3-2.3-7.7-2.5c-1.4-0.2-2.1,0.5-2.7,0.6c-0.6,0.1-0.9,0.1-0.8-0.5c0.1-0.6,1-1,2.6-1.3
			c1.6-0.3,5.8,1.9,6.2,2.1s2.9,0.2,2.9,0.2h-0.2c0,0,2.6,0,2.9-0.2s4.6-2.4,6.2-2.1c1.6,0.3,2.5,0.7,2.6,1.3
			c0.1,0.6-0.2,0.6-0.8,0.5c-0.6-0.1-1.3-0.8-2.7-0.6c-1.4,0.2-6.9,2.6-7.7,2.5H59.4z"/>
		<path class="st0" d="M59.5,64.1h-2.9c0,0-0.8,0.7-0.9,1.1s0,1.6,0.4,1.8c0.4,0.2,1.3,0.7,1.9,0.7c0.7,0,3.3,0,3.3,0
			s1.5-0.6,1.8-1.1c0.2-0.5,0.2-1.2,0.1-1.5c-0.1-0.3-0.5-0.9-1.4-1C60.8,64,59.5,64.1,59.5,64.1z"/>
		<path class="st7" d="M59.5,63c0,0-2.2-0.1-2.6,0.3c-0.4,0.3-0.6,0.9-0.6,0.9h6.2c0,0,0.3-1,0.1-1.1S59.5,63,59.5,63z"/>
		<polygon class="st7" points="59.4,67.9 57.4,67.9 56.8,68.3 57.3,69 59.5,68.9 61.1,69 61.8,68.6 61.8,68 61.3,67.8 		"/>
		<path class="st0" d="M59.2,68.9l-1.8,0.3c0,0,0.1,0.7,0.3,0.7c0.2,0.1,3.1,0.3,3.2,0C61,69.5,61,69,61,69L59.2,68.9z"/>
		<path class="st7" d="M59.1,70c0,0-1.5,0.2-1.5,0.4c0,0.2,0,0.7,0.1,0.7c0.1,0,2.9,0.4,3,0.1c0.1-0.2,0.2-1.1-0.1-1.1
			C60.3,70.1,59.1,70,59.1,70z"/>
		<polygon class="st7" points="59.1,71.2 57.9,71.2 57.9,76.7 60.7,76.7 60.6,71.3 		"/>
		<path class="st0" d="M59.2,76.7c0,0-1.6,0.2-1.7,0.4c-0.1,0.3-0.2,0.9-0.1,0.9s4,0,4,0s0-0.7-0.1-0.9C61.2,77,59.2,76.7,59.2,76.7
			z"/>
		<polygon class="st7" points="59.3,78 57,78.1 56.4,78.8 56.6,79.2 62.3,79.2 62.3,78.7 62,78.5 		"/>
		<polygon class="st0" points="59.4,79.2 56.7,79.2 54.4,81.4 53.4,81.8 52.7,82.7 59.5,82.8 66.6,82.7 64.8,81.4 63.5,81.1 
			61.9,79.2 		"/>
	</g>
</g>
</svg>
