<?xml version="1.0" encoding="utf-8"?>
<!-- Generator: Adobe Illustrator 21.0.0, SVG Export Plug-In . SVG Version: 6.00 Build 0)  -->
<svg version="1.1" id="Layer_2" xmlns="http://www.w3.org/2000/svg" xmlns:xlink="http://www.w3.org/1999/xlink" x="0px" y="0px"
	 viewBox="0 0 100 100" style="enable-background:new 0 0 100 100;" xml:space="preserve">
<style type="text/css">
	.st0{fill:#B2DFDB;stroke:#4DB6AC;stroke-width:0.75;stroke-miterlimit:10;}
	.st1{fill:#80CBC4;stroke:#4DB6AC;stroke-width:0.5;stroke-linecap:round;stroke-linejoin:round;stroke-miterlimit:10;}
	.st2{fill:none;stroke:#4DB6AC;stroke-width:0.25;stroke-linecap:round;stroke-linejoin:round;stroke-miterlimit:10;}
	.st3{fill:#B2DFDB;stroke:#4DB6AC;stroke-width:0.5;stroke-miterlimit:10;}
	.st4{fill:#B2DFDB;stroke:#4DB6AC;stroke-width:0.25;stroke-linecap:round;stroke-linejoin:round;stroke-miterlimit:10;}
</style>
<g id="Ta_x5F_Saung_x5F_Balloon">
	<path class="st0" d="M30.5,29.2c0,0,2.1-2.8,10.6-1.7c9.2,1.5,10.2,3.5,11.5,6.9s-1.8,15.4-3,17.1c-1.1,1.7-3.1,4.7-4.4,5.9
		c-1.3,1.3-3.3,3.5-4.5,4.4c-1.7-0.1-7.1-0.7-7.1-0.7s-5.2-7.3-6-10.4c-0.8-3.1-1.3-8.6-0.9-12c0.4-3.4,0.5-5,1.3-6.8
		C29.1,30.1,30.5,29.2,30.5,29.2z"/>
</g>
<g id="Ta_x5F_Saung_x5F_Mone_x5F_Box">
	<polygon class="st1" points="33.2,67.5 39.3,68.2 40.2,69.2 33.9,68.5 	"/>
	<polygon class="st1" points="33.9,68.5 33.5,72.1 39.8,72.8 40.2,69.2 	"/>
	<polygon class="st1" points="33.1,67.5 32.5,71.4 33.5,72.1 33.9,68.5 	"/>
</g>
<g id="Ta_x5F_Saung_x5F_Mone_x5F_Rope">
	<line class="st2" x1="35.6" y1="61.3" x2="35.7" y2="68.7"/>
	<line class="st2" x1="36.3" y1="61.3" x2="36.2" y2="67.8"/>
	<line class="st2" x1="39" y1="61.8" x2="37.4" y2="69"/>
	<line class="st2" x1="34.9" y1="67.7" x2="34.2" y2="61.1"/>
	<line class="st2" x1="38.3" y1="68.1" x2="40.1" y2="61.7"/>
</g>
<g id="Ta_x5F_Saung_x5F_Balloon_1_">
	<path class="st3" d="M59.7,19c0,0,0.3-1.3,3.4-2.2c3.4-0.9,4-0.3,5,0.7c0.9,1,1.6,5.6,1.5,6.3c-0.1,0.8-0.4,2.1-0.6,2.7
		c-0.3,0.6-0.6,1.7-0.9,2.2c-0.6,0.2-2.5,0.8-2.5,0.8s-2.9-1.8-3.6-2.7c-0.7-1-1.7-2.8-2.1-4c-0.3-1.2-0.6-1.8-0.5-2.5
		C59.3,19.6,59.7,19,59.7,19z"/>
</g>
<g id="Ta_x5F_Saung_x5F_Mone_x5F_Box_1_">
	<polygon class="st4" points="66.2,31.9 68.4,31.2 68.9,31.4 66.6,32.1 	"/>
	<polygon class="st4" points="66.6,32.1 67,33.4 69.3,32.7 68.9,31.4 	"/>
	<polygon class="st4" points="66.2,31.9 66.6,33.3 67,33.4 66.6,32.1 	"/>
</g>
<g id="Ta_x5F_Saung_x5F_Mone_x5F_Rope_1_">
	<line class="st2" x1="66.1" y1="29.4" x2="67.3" y2="31.9"/>
	<line class="st2" x1="66.4" y1="29.3" x2="67.3" y2="31.5"/>
	<line class="st2" x1="67.4" y1="29" x2="67.9" y2="31.7"/>
	<line class="st2" x1="65.7" y1="29.5" x2="66.9" y2="31.7"/>
	<line class="st2" x1="67.8" y1="28.8" x2="68.1" y2="31.3"/>
</g>
<path class="st2" d="M39.6,61.3c0,0,6.9-16,4.8-20.2"/>
<path class="st2" d="M38.7,61.5c0,0,2.2-11,1.8-14"/>
<path class="st2" d="M37.4,61.3c0,0-1.1-4.7-0.7-6.8"/>
<path class="st2" d="M36.8,61.3c0,0-3.6-9.2-2.1-10.4"/>
<path class="st2" d="M39.6,61.5c0,0,4.4-3.7,5.5-5.9c1.2-2.2,3.4-5.4,4.3-9c0.8-3.6,2-9.3,1.4-11.3c-0.6-2.1-1.7-4.1-2.8-4.6"/>
</svg>
