<?xml version="1.0" encoding="utf-8"?>
<!-- Generator: Adobe Illustrator 21.0.0, SVG Export Plug-In . SVG Version: 6.00 Build 0)  -->
<svg version="1.1" id="Layer_1" xmlns="http://www.w3.org/2000/svg" xmlns:xlink="http://www.w3.org/1999/xlink" x="0px" y="0px"
	 viewBox="0 0 100 100" style="enable-background:new 0 0 100 100;" xml:space="preserve">
<style type="text/css">
	.st0{fill:#4DB6AC;stroke:#26A69A;stroke-width:0.5;stroke-linejoin:round;stroke-miterlimit:10;}
	.st1{fill:#B2DFDB;stroke:#26A69A;stroke-width:0.5;stroke-linejoin:round;stroke-miterlimit:10;}
	.st2{fill:#80CBC4;stroke:#26A69A;stroke-width:0.5;stroke-linejoin:round;stroke-miterlimit:10;}
	.st3{fill:#B2DFDB;stroke:#26A69A;stroke-width:0.5;stroke-miterlimit:10;}
	.st4{fill:#80CBC4;stroke:#26A69A;stroke-width:0.5;stroke-miterlimit:10;}
	.st5{fill:#FFFFFF;stroke:#009688;stroke-width:0.5;stroke-miterlimit:10;}
	.st6{fill:#00897B;}
	.st7{fill:#E0F2F1;stroke:#009688;stroke-width:0.5;stroke-miterlimit:10;}
	.st8{fill:#00897B;stroke:#009688;stroke-width:0.5;stroke-miterlimit:10;}
	.st9{fill:#B2DFDB;stroke:#009688;stroke-width:0.5;stroke-miterlimit:10;}
	.st10{fill:#4DB6AC;stroke:#009688;stroke-width:0.5;stroke-miterlimit:10;}
	.st11{fill:#FFFFFF;stroke:#26A69A;stroke-width:0.5;stroke-miterlimit:10;}
	.st12{fill:#00695C;}
	.st13{fill:#4DB6AC;stroke:#26A69A;stroke-width:0.5;stroke-miterlimit:10;}
	.st14{fill:#26A69A;stroke:#26A69A;stroke-width:0.5;stroke-miterlimit:10;}
</style>
<g>
	<g>
		<path class="st0" d="M39.3,75l30.5,2.8c0,0-1.3,1.1-1.3,2.3c0,1.2,0.7,1.6,0.7,1.6l-29.8-5.5L39.3,75z"/>
		<path class="st1" d="M69.8,77.8c0,0,1.5,1.6,1.1,2.3c-0.4,0.6-1.2,2.1-1.7,1.6c-0.5-0.5-0.6-1-0.7-1.9
			C68.5,78.9,69.8,77.8,69.8,77.8z"/>
	</g>
	<g>
		<path class="st0" d="M30.1,73.6L49.6,71l0.2,1.3l-19.3,4.2c0,0,0.8-0.6,0.7-1.1S30.1,73.6,30.1,73.6z"/>
		<path class="st1" d="M30.1,73.4c0,0,0.9,1.3,1,1.7s-0.2,1.5-0.6,1.5c-0.4,0-1.4-0.1-1.4-0.9C29.1,74.8,29.5,73.7,30.1,73.4z"/>
	</g>
	<path class="st2" d="M37.1,58.1c0,0,8,4,14.8,3.4c6.8-0.6,11.1-1.1,11.6-2c0.5-0.9,1.1-2.1,0.8-2.5c-0.2-0.3-4.9-3.9-14.5-3.6
		s-12.6,2.8-12.7,3.5C36.9,57.7,37.1,58.1,37.1,58.1z"/>
	<path class="st3" d="M42,59.7c0,0,0.1-0.1,0.3-0.1c1-0.6,4.8-2.6,6-2.6c1.4-0.1,2.8,0,4.9,0c2.1,0,4.2,0.7,4.7,1.4
		c0.4,0.7,1.1,2.3,0.4,2.3s-5.1,2.9-7.6,2.4s-6.2-1.1-6.6-1.5S42,59.7,42,59.7z"/>
	<path class="st2" d="M37.1,58.1c0,0,3.7,2.1,5.9,2.5c2.2,0.4,7,1,10.2,0.8s9.4-0.9,10.2-1.9c-5.7,4.4-9.2,6.2-11.3,6.2
		s-5.2-0.3-7.4-1.3C42.3,63.5,40,62.6,37.1,58.1z"/>
	<path class="st4" d="M39.8,61.9l-0.4,8.4c0,0,5.4,3.7,7.8,3.7c2.4,0,10,0,10.6-0.9c0.6-0.9,2.5-10.5,2.5-10.5s-3.1,4.4-4.7,5
		c-1.6,0.6-1.8,0.4-1.8,0.4l0.6-2.2c0,0-3.1,0.6-3.3,0.3s0.5,2.4,0.1,2.4c-0.3,0-9.4-2-10.6-4.4C39.3,61.6,39.8,61.9,39.8,61.9z"/>
	<polygon class="st2" points="49.8,74 49.8,80.9 52.5,84 56.4,83.8 53.1,80.4 53.1,74 	"/>
	<polygon class="st2" points="41.5,72.1 36.8,77.3 32.1,77.3 35.9,75.9 39.3,70.3 	"/>
	<polyline class="st2" points="58.5,70.3 59.6,71.7 61.1,71.9 59.3,74 58,73.8 57.8,72.7 	"/>
</g>
<g>
	<path class="st5" d="M64.2,29"/>
	<path class="st6" d="M63.8,24c0,0-1.4-0.9-1.7,0c-0.3,0.9-6.8,26.6-7.2,26.5s-3.7,5.6-3.8,7.3c0,1.7,2.9,3,2.9,3s1.6-0.4,1.5-1.3
		s1.6-7.2,1.4-8.1C56.8,50.4,63.8,24,63.8,24z"/>
	<path class="st7" d="M66.2,33.8c0,0-2.8-4.1-2.9-4.8c-0.1-0.8-0.6-1.5-0.6-1.5s-1.1-0.1-1.1,0c0,0.1,0.4,0.5,0.4,0.5l0.2,1.5
		c0,0,1.6,2.7,1.9,3.5c0.3,0.8,1.1,2.6,1.3,2.6c0.2,0,0.7-0.1,0.7-0.1L66.2,33.8z"/>
	<path class="st7" d="M68.3,64.9c0,0-0.4,1.8-1.2,2.2c-0.7,0.3-3.3,1-3.9,1.4c-0.6,0.4,0,1.5,0.6,1.8c0.6,0.3,4.1,0.2,4.5,0.2
		s1.3,0.1,1.4,0c0.1-0.1,0.1,1.3,0.4-0.5c0.3-1.7-0.3-1.3-0.4-2.5s0.4-1.3,0.4-1.7c0-0.4,0.4-0.7,0.4-0.7L68.3,64.9z"/>
	<path class="st7" d="M73.3,65.7c0,0-0.1,4.3-0.6,4.6c-0.5,0.3-2.5,1.7-2.2,2c0.2,0.3,2.1,1,2.8,1s1.6-0.7,1.5-1.6
		c-0.1-0.9,0.9-0.9,1.1-1.3s0.5-0.7,0-1.4c-0.5-0.7-0.7-1.1-1-2c-0.2-0.9-0.3-1.8-0.3-1.8L73.3,65.7z"/>
	<path class="st8" d="M67.9,45.4L66.2,64c0,0,6.3,3.1,7.3,2.1c1-1,3.6-0.5,4-2.6c0.3-2.1-1.9-15.2-1.8-16.3c0.1-1.1,0.3-2.5,0.3-2.5
		l-1-0.5C75.1,44.1,69.6,42.3,67.9,45.4z"/>
	<path class="st7" d="M69.7,32.5c0,0-1.7,0.8-2.4,0.6c-0.7-0.2-1.1-0.6-1.1-0.6s0.3-0.2-0.3-0.5c-0.5-0.2-0.5,0.6-0.5-0.5
		c0-1-0.4-1.1-0.5-1.5S64.5,29,64.5,29s-0.5-0.9,0.2-0.6c0.7,0.3,2.4,0.1,2.4,0.1s0.1,0.9,0.7,1s1.3,0,1.4,0.3
		c0,0.3,0.7-0.2,0.7-0.4c0-0.2,0.8,0.4,0.8,0.8C70.8,30.5,69.7,32.5,69.7,32.5z"/>
	<path class="st9" d="M64.4,28.4c0,0,2.7,0.4,2.8,0.1c0.1-0.2,0.1,1,0.7,1c0.6,0.1,1.1,0,1.2,0.1c0.1,0.1,0.7,0.2,0.8-0.3
		c0.1-0.5,0.5-1.3,0.8-0.8c0.3,0.5,0.5,0.2,0.5,0.2s0.5-3.3-0.9-3.8c-1.4-0.5-2.1-1.3-3.5-0.9c-1.4,0.5-2.4,1.9-2.9,2s0.2,0.5,0,1.2
		C63.8,27.9,64.4,28.4,64.4,28.4z"/>
	<path class="st10" d="M72.2,44c0,0-1.5,0.6-1.6,1.3c-0.1,0.7,0.4,0.4,0.8,0.6s2.3-0.8,3.2-1s1.4-1.1,1.7-2.1s0.2-7.2,0-7.7
		c-0.2-0.5-1.1-3.6-2.7-4.1s-2.5,1-3.3,1.7c-0.8,0.7-2.4,0.6-2.4,0.6s-1.7,0.2-1.6,0.4c0,0.3,0.1,1.5,0,1.7s0.4,0.4,0.8,0.4
		c0.4,0,0,1.5-0.1,1.8c-0.1,0.4-0.4,2.9-0.4,3.4s0.2,1.7,0.4,1.7c0.2,0.1-0.2,0.3,1.5,0.5c1.7,0.2,2.3,1,2.9,0.3
		C72,42.8,72.2,44,72.2,44z"/>
	<path class="st10" d="M70.5,43.7c0,0,0.9-3.5,0.9-4.3c0-0.9-0.3-2.4-0.4-2.9s-0.1-1.1-0.1-1.1"/>
	<path class="st7" d="M67.6,43c0,0-5.4,1.1-5.9,1.1s-2.5-0.1-3.1,0c-0.6,0.1-1.4-0.1-1.9,0s-0.5,0.2-0.7,0.9c-0.2,0.7-0.8,1.1,0,1.3
		c0.8,0.2,1.2,0.2,2.5,0c1.3-0.2,0.6,0,1.8-0.4c1.2-0.3,1.3-0.6,2.3-0.5c1,0.1,2.7,0,3.7,0s1.8,0.3,2.3-0.2c0.5-0.4,1.2-1.7,1.2-1.7
		L67.6,43z"/>
</g>
<g id="Left_x5F_Man">
	<path class="st11" d="M35.4,27.8"/>
	<path class="st12" d="M35.8,22.8c0,0,1.4-0.9,1.7,0c0.3,0.9,6.8,26.6,7.2,26.5s3.7,5.6,3.8,7.3c0,1.7-2.9,3-2.9,3s-1.6-0.4-1.5-1.3
		c0.1-0.9-1.6-7.2-1.4-8.1C42.8,49.2,35.8,22.8,35.8,22.8z"/>
	<path class="st3" d="M33.4,32.5c0,0,2.8-4.1,2.9-4.8c0.1-0.8,0.6-1.5,0.6-1.5s1.1-0.1,1.1,0c0,0.1-0.4,0.5-0.4,0.5l-0.2,1.5
		c0,0-1.6,2.7-1.9,3.5c-0.3,0.8-1.1,2.6-1.3,2.6s-0.7-0.1-0.7-0.1L33.4,32.5z"/>
	<path class="st3" d="M31.4,63.6c0,0,0.4,1.8,1.2,2.2c0.7,0.3,3.3,1,3.9,1.4c0.6,0.4,0,1.5-0.6,1.8s-4.1,0.2-4.5,0.2s-1.3,0.1-1.4,0
		c-0.1-0.1-0.1,1.3-0.4-0.5c-0.3-1.7,0.3-1.3,0.4-2.5c0.1-1.2-0.4-1.3-0.4-1.7S29.2,64,29.2,64L31.4,63.6z"/>
	<path class="st3" d="M26.3,64.5c0,0,0.1,4.3,0.6,4.6c0.5,0.3,2.5,1.7,2.2,2c-0.2,0.3-2.1,1-2.8,1s-1.6-0.7-1.5-1.6
		c0.1-0.9-0.9-0.9-1.1-1.3c-0.2-0.4-0.5-0.7,0-1.4c0.5-0.7,0.7-1.1,1-2C24.9,64.9,25,64,25,64L26.3,64.5z"/>
	<path class="st13" d="M31.7,44.2l1.7,18.5c0,0-6.3,3.1-7.3,2.1c-1-1-3.6-0.5-4-2.6C21.8,60.1,24,47,23.9,45.9s-0.3-2.5-0.3-2.5
		l1-0.5C24.6,42.9,30,41.1,31.7,44.2z"/>
	<path class="st14" d="M35.1,27.1c0,0,2.5-2.9-0.2-2.2s-4.1,0.1-4.4-0.1s-2.3,0.5-2.1,1.8c0.2,1.3,0.1,2.4,0.6,2.2
		C29.4,28.6,35.1,27.1,35.1,27.1z"/>
	<path class="st3" d="M29.9,31.2c0,0,1.7,0.8,2.4,0.6c0.7-0.2,1.1-0.6,1.1-0.6s-0.3-0.2,0.3-0.5c0.5-0.2,0.5,0.6,0.5-0.5
		c0-1,0.4-1.1,0.5-1.5s0.4-1.1,0.4-1.1s0.5-0.9-0.2-0.6s-2.4,0.1-2.4,0.1s-0.1,0.9-0.7,1s-1.3,0-1.4,0.3c0,0.3-0.7-0.2-0.7-0.4
		c0-0.2-0.8,0.4-0.8,0.8C28.9,29.3,29.9,31.2,29.9,31.2z"/>
	<path class="st4" d="M27.5,42.8c0,0,1.5,0.6,1.6,1.3c0.1,0.7-0.4,0.4-0.8,0.6c-0.4,0.2-2.3-0.8-3.2-1s-1.4-1.1-1.7-2.1
		c-0.2-1-0.2-7.2,0-7.7c0.2-0.5,1.1-3.6,2.7-4.1c1.6-0.5,2.5,1,3.3,1.7c0.8,0.7,2.4,0.6,2.4,0.6s1.7,0.2,1.6,0.4
		c0,0.3-0.1,1.5,0,1.7s-0.4,0.4-0.8,0.4c-0.4,0,0,1.5,0.1,1.8c0.1,0.4,0.4,2.9,0.4,3.4s-0.2,1.7-0.4,1.7s0.2,0.3-1.5,0.5
		c-1.7,0.2-2.3,1-2.9,0.3C27.7,41.6,27.5,42.8,27.5,42.8z"/>
	<path class="st4" d="M29.2,42.4c0,0-0.9-3.5-0.9-4.3c0-0.9,0.3-2.4,0.4-2.9c0.1-0.5,0.1-1.1,0.1-1.1"/>
	<path class="st3" d="M32.1,41.8c0,0,5.4,1.1,5.9,1.1c0.5,0,2.5-0.1,3.1,0s1.4-0.1,1.9,0s0.5,0.2,0.7,0.9c0.2,0.7,0.8,1.1,0,1.3
		c-0.8,0.2-1.2,0.2-2.5,0c-1.3-0.2-0.6,0-1.8-0.4c-1.2-0.3-1.3-0.6-2.3-0.5c-1,0.1-2.7,0-3.7,0s-1.8,0.3-2.3-0.2S30,42.2,30,42.2
		L32.1,41.8z"/>
</g>
</svg>
