<?xml version="1.0" encoding="utf-8"?>
<!-- Generator: Adobe Illustrator 21.0.0, SVG Export Plug-In . SVG Version: 6.00 Build 0)  -->
<svg version="1.1" id="Layer_1" xmlns="http://www.w3.org/2000/svg" xmlns:xlink="http://www.w3.org/1999/xlink" x="0px" y="0px"
	 viewBox="0 0 100 100" style="enable-background:new 0 0 100 100;" xml:space="preserve">
<style type="text/css">
	.st0{fill:#80CBC4;stroke:#B2DFDB;stroke-width:0.25;stroke-miterlimit:10;}
	.st1{fill:#B2DFDB;stroke:#80CBC4;stroke-width:0.25;stroke-miterlimit:10;}
	.st2{fill:none;stroke:#4DB6AC;stroke-width:0.25;stroke-linecap:round;stroke-miterlimit:10;}
	.st3{fill:none;stroke:#B2DFDB;stroke-width:0.25;stroke-linecap:round;stroke-miterlimit:10;}
	.st4{fill:#4DB6AC;stroke:#B2DFDB;stroke-width:0.25;stroke-linecap:round;stroke-miterlimit:10;}
	.st5{fill:#26A69A;stroke:#B2DFDB;stroke-width:0.25;stroke-linecap:round;stroke-miterlimit:10;}
	.st6{fill:#004D40;stroke:#80CBC4;stroke-width:0.25;stroke-linecap:round;stroke-miterlimit:10;}
	.st7{fill:#4DD0E1;stroke:#B2EBF2;stroke-width:0.25;stroke-linecap:round;stroke-miterlimit:10;}
</style>
<g id="Taw_x5F_Ta_x5F_Lin_x5F_Boat_x5F_1">
	<g id="TawTaLin_x5F_Lu_x5F_4">
		<path class="st0" d="M57.1,67.4c-2.5,2.6-4.5,1-4.5,1s-0.8-0.7-0.8,0c0,0.7,2.8,1.4,2.8,1.4s1.5-0.2,1.9-0.7
			C57,68.5,57.1,67.4,57.1,67.4z"/>
		<path class="st0" d="M60.1,73.1c-0.4,1.6-1.7,0.6-2.2,0.2c-0.5-0.4-1.6-2.2-2.1-3.7c-0.4-1.2-0.5-1.6-0.5-2.1
			c-0.2,0.1-0.4,0.2-0.6,0.4c-1,0.8-1.3-0.4-2.1-2.9c0,0,0.9-0.3,1.6-0.5c0.7-0.2,0.8,0,1.9,1.2c0,0,0,0,0,0c0,0,0.1,0,0.1,0
			C60.9,67.8,60.5,71.5,60.1,73.1z"/>
		<path class="st0" d="M57,66.8c1.4,0.8,1.7,1.2,1.9,1.8c0.2,0.5,0.2,1.3-0.7,1.5c-0.9,0.2-1.9,0.6-2.4,0.5s-0.9-0.2-1.1-0.3
			s-0.4-0.2,0.1-0.4c0.5-0.2,1-0.1,1.2,0c0,0,0.1,0.2,0.6,0.1c0,0,0.1-0.7,0.5-0.8c0.4-0.7,1-0.3,1-0.3s-1,0.2-1.2-0.3
			s-0.4-0.7-0.4-0.8C56.7,67.6,57,66.8,57,66.8z"/>
	</g>
	<g id="TawTaLin_x5F_Lu_x5F_3">
		<path class="st0" d="M46.8,68.2c-2.5,2.6-4.5,1-4.5,1s-0.8-0.7-0.8,0c0,0.7,2.8,1.4,2.8,1.4s1.5-0.2,1.9-0.7
			C46.6,69.3,46.8,68.2,46.8,68.2z"/>
		<path class="st0" d="M49.7,73.9c-0.4,1.6-1.7,0.6-2.2,0.2c-0.5-0.4-1.6-2.2-2.1-3.7c-0.4-1.2-0.5-1.6-0.5-2.1
			c-0.2,0.1-0.4,0.2-0.6,0.4c-1,0.8-1.3-0.4-2.1-2.9c0,0,0.9-0.3,1.6-0.5c0.7-0.2,0.8,0,1.9,1.2c0,0,0,0,0,0c0,0,0.1,0,0.1,0
			C50.6,68.6,50.1,72.3,49.7,73.9z"/>
		<path class="st0" d="M46.6,67.6c1.4,0.8,1.7,1.2,1.9,1.8s0.2,1.3-0.7,1.5c-0.9,0.2-1.9,0.6-2.4,0.5c-0.5-0.1-0.9-0.2-1.1-0.3
			s-0.4-0.2,0.1-0.4c0.5-0.2,1-0.1,1.2,0c0,0,0.1,0.2,0.6,0.1c0,0,0.1-0.7,0.5-0.8c0.4-0.7,1-0.3,1-0.3s-1,0.2-1.2-0.3
			c-0.2-0.5-0.4-0.7-0.4-0.8C46.3,68.4,46.6,67.6,46.6,67.6z"/>
	</g>
	<g id="TawTaLin_x5F_Lu_x5F_2">
		<path class="st0" d="M39.9,74.9c-0.4,1.6-1.7,0.6-2.2,0.2c-0.5-0.4-1.6-2.2-2.1-3.7c-0.4-1.2-0.5-1.6-0.5-2.1
			c-0.2,0.1-0.4,0.2-0.6,0.4c-1,0.8-1.3-0.4-2.1-2.9c0,0,0.9-0.3,1.6-0.5c0.7-0.2,0.8,0,1.9,1.2c0,0,0,0,0,0c0,0,0.1,0,0.1,0
			C40.7,69.6,40.2,73.3,39.9,74.9z"/>
		<path class="st0" d="M36.9,69.2c-2.5,2.6-4.5,1-4.5,1s-0.8-0.7-0.8,0c0,0.7,2.8,1.4,2.8,1.4s1.5-0.2,1.9-0.7S36.9,69.2,36.9,69.2z
			"/>
		<path class="st0" d="M36.7,68.6c1.4,0.8,1.7,1.2,1.9,1.8c0.2,0.5,0.2,1.3-0.7,1.5c-0.9,0.2-1.9,0.6-2.4,0.5s-0.9-0.2-1.1-0.3
			s-0.4-0.2,0.1-0.4s1-0.1,1.2,0c0,0,0.1,0.2,0.6,0.1c0,0,0.1-0.7,0.5-0.8c0.4-0.7,1-0.3,1-0.3s-1,0.2-1.2-0.3
			c-0.2-0.5-0.4-0.7-0.4-0.8C36.4,69.4,36.7,68.6,36.7,68.6z"/>
	</g>
	<g id="TawTaLin_x5F_Lu_x5F_1">
		<path class="st0" d="M26.5,70.4c-2.5,2.6-4.5,1-4.5,1s-0.8-0.7-0.8,0c0,0.7,2.8,1.4,2.8,1.4s1.5-0.2,1.9-0.7S26.5,70.4,26.5,70.4z
			"/>
		<path class="st0" d="M29.5,76.1c-0.4,1.6-1.7,0.6-2.2,0.2c-0.5-0.4-1.6-2.2-2.1-3.7c-0.4-1.2-0.5-1.6-0.5-2.1
			c-0.2,0.1-0.4,0.2-0.6,0.4c-1,0.8-1.3-0.4-2.1-2.9c0,0,0.9-0.3,1.6-0.5c0.7-0.2,0.8,0,1.9,1.2c0,0,0,0,0,0c0,0,0.1,0,0.1,0
			C30.4,70.8,29.9,74.5,29.5,76.1z"/>
		<path class="st0" d="M26.4,69.8c1.4,0.8,1.7,1.2,1.9,1.8c0.2,0.5,0.2,1.3-0.7,1.5c-0.9,0.2-1.9,0.6-2.4,0.5s-0.9-0.2-1.1-0.3
			c-0.1-0.1-0.4-0.2,0.1-0.4s1-0.1,1.2,0c0,0,0.1,0.2,0.6,0.1c0,0,0.1-0.7,0.5-0.8c0.4-0.7,1-0.3,1-0.3s-1,0.2-1.2-0.3
			C26.2,71,26,70.8,26,70.7C26.1,70.6,26.4,69.8,26.4,69.8z"/>
	</g>
	<g id="TawTaLin_x5F_Bomb_x5F_Man">
		<path class="st0" d="M69.2,67.7c0.2-0.3-0.1-0.7-0.5-0.5c-0.4,0.2-1.6,1.6-1.6,1.6s-1.2-0.6-1.5-0.5c-0.3,0.1-0.4,0.2-0.3,0.4
			c0.1,0.2,0.7,0.4,0.7,0.3c0.1-0.1,1.3,0.2,1.3,0.2s2-0.5,1.9-0.9S69.2,67.7,69.2,67.7z"/>
		<path class="st0" d="M68.5,73.8c-1.1,0.9-1.5-0.4-1.6-1c-0.1-0.6-0.1-2.4,0.4-3.7c0.3-1,0.4-1.4,0.7-1.7c-0.2,0-0.4,0-0.6,0
			c-1.1,0-0.7-1,0-3.1c0,0,0.8,0.2,1.4,0.4c0.6,0.2,0.6,0.4,0.8,1.8c0,0,0,0,0,0c0,0,0.1,0,0.1,0C71.8,70.5,69.6,72.9,68.5,73.8z"/>
		<path class="st0" d="M68.9,68.8c0.3-0.2,0.4-0.3,0.5-0.1c0.1,0.2,0.2,0.5,0.1,0.6c-0.1,0.1-0.5,0.2-0.6,0.2c0,0-2.2,1.3-2.8,1.1
			c-0.6-0.2-0.4-0.1-0.6-0.2s-0.4-0.6,0-0.6s0.3-0.1,0.5,0.1s0.4,0.3,0.5,0.2s1.4-1.4,1.7-1.3"/>
	</g>
	<g id="Booooom">
		<path class="st1" d="M61.8,70C61.8,70,61.8,70,61.8,70c0.3,1.3,0.4,2,1.1,2.1c0.7,0.1,1.9-0.1,2.1-0.3c0.2-0.2,0.4-0.9,0.5-1.4
			c0.1-0.4,0-0.8,0-0.8s-1.4,1.1-2.1,0.8S61.8,70,61.8,70"/>
		<ellipse class="st1" cx="63.7" cy="69.7" rx="1.8" ry="0.7"/>
	</g>
	<g id="TawTaLin_x5F_Boat">
		<polygon class="st1" points="7.9,73.3 21.1,78.2 63.8,77.4 72,71.6 		"/>
	</g>
	<g id="TawTaLin_x5F_Dick">
		<path class="st0" d="M52.5,68.7C64,79.7,64,79.8,64,79.8s0.3,0.1,0.5-0.2c0.2-0.3,0.4-0.3,0.2-0.5S53,68.3,53,68.3
			s-0.7-0.6-0.7-0.1S52.5,68.7,52.5,68.7z"/>
		<path class="st0" d="M42.2,69.5c11.4,11,11.5,11.1,11.5,11.1s0.3,0.1,0.5-0.2s0.4-0.3,0.2-0.5S42.7,69.1,42.7,69.1
			S41.9,68.5,42,69S42.2,69.5,42.2,69.5z"/>
		<path class="st0" d="M32.3,70.5c11.4,11,11.5,11.1,11.5,11.1s0.3,0.1,0.5-0.2c0.2-0.3,0.4-0.3,0.2-0.5S32.8,70.2,32.8,70.2
			s-0.7-0.6-0.7-0.1C32.2,70.6,32.3,70.5,32.3,70.5z"/>
		<path class="st0" d="M22,71.7c11.4,11,11.5,11.1,11.5,11.1s0.3,0.1,0.5-0.2c0.2-0.3,0.4-0.3,0.2-0.5S22.4,71.3,22.4,71.3
			s-0.7-0.6-0.7-0.1S22,71.7,22,71.7z"/>
	</g>
	<g id="TawTaLin_x5F_Bomb_x5F_Stick">
		<line class="st2" x1="65.6" y1="68.4" x2="63.6" y2="69.1"/>
		<line class="st2" x1="65.6" y1="70.1" x2="62.5" y2="69.7"/>
	</g>
	<g id="TawTaLin_x5F_Flag">
		<line class="st3" x1="14.8" y1="72.9" x2="14.8" y2="59.8"/>
		<polygon class="st4" points="8.5,59.9 14.8,59.9 14.8,63.1 8.5,63 		"/>
	</g>
</g>
<g id="Taw_x5F_Ta_x5F_Lin_x5F_Boat_x5F_2">
	<g id="TawTaLin_x5F_Lu_x5F_4_1_">
		<path class="st0" d="M65.9,44.9c-2.5,2.6-4.5,1-4.5,1s-0.8-0.7-0.8,0c0,0.7,2.8,1.4,2.8,1.4s1.5-0.2,1.9-0.7
			C65.8,46,65.9,44.9,65.9,44.9z"/>
		<path class="st0" d="M68.9,50.6c-0.4,1.6-1.7,0.6-2.2,0.2c-0.5-0.4-1.6-2.2-2.1-3.7c-0.4-1.2-0.5-1.6-0.5-2.1
			c-0.2,0.1-0.4,0.2-0.6,0.4c-1,0.8-1.3-0.4-2.1-2.9c0,0,0.9-0.3,1.6-0.5c0.7-0.2,0.8,0,1.9,1.2c0,0,0,0,0,0c0,0,0.1,0,0.1,0
			C69.8,45.3,69.3,49,68.9,50.6z"/>
		<path class="st0" d="M65.8,44.3c1.4,0.8,1.7,1.2,1.9,1.8c0.2,0.5,0.2,1.3-0.7,1.5c-0.9,0.2-1.9,0.6-2.4,0.5
			c-0.5-0.1-0.9-0.2-1.1-0.3c-0.1-0.1-0.4-0.2,0.1-0.4c0.5-0.2,1-0.1,1.2,0c0,0,0.1,0.2,0.6,0.1c0,0,0.1-0.7,0.5-0.8
			c0.4-0.7,1-0.3,1-0.3s-1,0.2-1.2-0.3s-0.4-0.7-0.4-0.8C65.5,45.1,65.8,44.3,65.8,44.3z"/>
	</g>
	<g id="TawTaLin_x5F_Lu_x5F_3_1_">
		<path class="st0" d="M55.6,45.7c-2.5,2.6-4.5,1-4.5,1s-0.8-0.7-0.8,0c0,0.7,2.8,1.4,2.8,1.4s1.5-0.2,1.9-0.7
			C55.5,46.8,55.6,45.7,55.6,45.7z"/>
		<path class="st0" d="M58.5,51.4c-0.4,1.6-1.7,0.6-2.2,0.2c-0.5-0.4-1.6-2.2-2.1-3.7c-0.4-1.2-0.5-1.6-0.5-2.1
			c-0.2,0.1-0.4,0.2-0.6,0.4c-1,0.8-1.3-0.4-2.1-2.9c0,0,0.9-0.3,1.6-0.5c0.7-0.2,0.8,0,1.9,1.2c0,0,0,0,0,0c0,0,0.1,0,0.1,0
			C59.4,46.1,58.9,49.9,58.5,51.4z"/>
		<path class="st0" d="M55.4,45.2c1.4,0.8,1.7,1.2,1.9,1.8c0.2,0.5,0.2,1.3-0.7,1.5s-1.9,0.6-2.4,0.5s-0.9-0.2-1.1-0.3
			s-0.4-0.2,0.1-0.4c0.5-0.2,1-0.1,1.2,0c0,0,0.1,0.2,0.6,0.1c0,0,0.1-0.7,0.5-0.8c0.4-0.7,1-0.3,1-0.3s-1,0.2-1.2-0.3
			S55,46.1,55.1,46S55.4,45.2,55.4,45.2z"/>
	</g>
	<g id="TawTaLin_x5F_Lu_x5F_2_1_">
		<path class="st0" d="M48.7,52.4C48.3,54,47,53,46.5,52.6c-0.5-0.4-1.6-2.2-2.1-3.7c-0.4-1.2-0.5-1.6-0.5-2.1
			c-0.2,0.1-0.4,0.2-0.6,0.4c-1,0.8-1.3-0.4-2.1-2.9c0,0,0.9-0.3,1.6-0.5c0.7-0.2,0.8,0,1.9,1.2c0,0,0,0,0,0c0,0,0.1,0,0.1,0
			C49.5,47.1,49.1,50.9,48.7,52.4z"/>
		<path class="st0" d="M45.7,46.7c-2.5,2.6-4.5,1-4.5,1s-0.8-0.7-0.8,0c0,0.7,2.8,1.4,2.8,1.4s1.5-0.2,1.9-0.7
			C45.6,47.9,45.7,46.7,45.7,46.7z"/>
		<path class="st0" d="M45.6,46.2c1.4,0.8,1.7,1.2,1.9,1.8s0.2,1.3-0.7,1.5c-0.9,0.2-1.9,0.6-2.4,0.5c-0.5-0.1-0.9-0.2-1.1-0.3
			c-0.1-0.1-0.4-0.2,0.1-0.4c0.5-0.2,1-0.1,1.2,0c0,0,0.1,0.2,0.6,0.1c0,0,0.1-0.7,0.5-0.8c0.4-0.7,1-0.3,1-0.3s-1,0.2-1.2-0.3
			c-0.2-0.5-0.4-0.7-0.4-0.8S45.6,46.2,45.6,46.2z"/>
	</g>
	<g id="TawTaLin_x5F_Lu_x5F_1_1_">
		<path class="st0" d="M35.4,47.9c-2.5,2.6-4.5,1-4.5,1S30,48.2,30,49c0,0.7,2.8,1.4,2.8,1.4s1.5-0.2,1.9-0.7
			C35.2,49,35.4,47.9,35.4,47.9z"/>
		<path class="st0" d="M38.3,53.6c-0.4,1.6-1.7,0.6-2.2,0.2c-0.5-0.4-1.6-2.2-2.1-3.7c-0.4-1.2-0.5-1.6-0.5-2.1
			c-0.2,0.1-0.4,0.2-0.6,0.4c-1,0.8-1.3-0.4-2.1-2.9c0,0,0.9-0.3,1.6-0.5c0.7-0.2,0.8,0,1.9,1.2c0,0,0,0,0,0c0,0,0.1,0,0.1,0
			C39.2,48.3,38.7,52,38.3,53.6z"/>
		<path class="st0" d="M35.2,47.3c1.4,0.8,1.7,1.2,1.9,1.8s0.2,1.3-0.7,1.5s-1.9,0.6-2.4,0.5c-0.5-0.1-0.9-0.2-1.1-0.3
			s-0.4-0.2,0.1-0.4c0.5-0.2,1-0.1,1.2,0c0,0,0.1,0.2,0.6,0.1c0,0,0.1-0.7,0.5-0.8c0.4-0.7,1-0.3,1-0.3s-1,0.2-1.2-0.3
			c-0.2-0.5-0.4-0.7-0.4-0.8C34.9,48.1,35.2,47.3,35.2,47.3z"/>
	</g>
	<g id="TawTaLin_x5F_Bomb_x5F_Man_1_">
		<path class="st0" d="M78,45.3c0.2-0.3-0.1-0.7-0.5-0.5c-0.4,0.2-1.6,1.6-1.6,1.6s-1.2-0.6-1.5-0.5C74,45.8,73.9,46,74,46.2
			c0.1,0.2,0.7,0.4,0.7,0.3c0.1-0.1,1.3,0.2,1.3,0.2s2-0.5,1.9-0.9C77.9,45.4,78,45.3,78,45.3z"/>
		<path class="st0" d="M77.3,51.4c-1.1,0.9-1.5-0.4-1.6-1c-0.1-0.6-0.1-2.4,0.4-3.7c0.3-1,0.4-1.4,0.7-1.7c-0.2,0-0.4,0-0.6,0
			c-1.1,0-0.7-1,0-3.1c0,0,0.8,0.2,1.4,0.4c0.6,0.2,0.6,0.4,0.8,1.8c0,0,0,0,0,0c0,0,0.1,0,0.1,0C80.6,48,78.4,50.5,77.3,51.4z"/>
		<path class="st0" d="M77.7,46.4c0.3-0.2,0.4-0.3,0.5-0.1c0.1,0.2,0.2,0.5,0.1,0.6c-0.1,0.1-0.5,0.2-0.6,0.2c0,0-2.2,1.3-2.8,1.1
			c-0.6-0.2-0.4-0.1-0.6-0.2c-0.2-0.1-0.4-0.6,0-0.6c0.4,0,0.3-0.1,0.5,0.1s0.4,0.3,0.5,0.2s1.4-1.4,1.7-1.3"/>
	</g>
	<g id="Booooom_1_">
		<path class="st1" d="M70.6,47.5C70.7,47.5,70.7,47.6,70.6,47.5c0.3,1.3,0.4,2,1.1,2.1c0.7,0.1,1.9-0.1,2.1-0.3
			c0.2-0.2,0.4-0.9,0.5-1.4c0.1-0.4,0-0.8,0-0.8s-1.4,1.1-2.1,0.8S70.7,47.6,70.6,47.5"/>
		<ellipse class="st1" cx="72.5" cy="47.3" rx="1.8" ry="0.7"/>
	</g>
	<g id="TawTaLin_x5F_Boat_1_">
		<polygon class="st1" points="16.7,50.9 29.9,55.7 72.6,55 80.8,49.1 		"/>
	</g>
	<g id="TawTaLin_x5F_Dick_1_">
		<path class="st0" d="M61.4,46.3c11.4,11,11.5,11.1,11.5,11.1s0.3,0.1,0.5-0.2c0.2-0.3,0.4-0.3,0.2-0.5
			c-0.2-0.2-11.8-10.8-11.8-10.8s-0.7-0.6-0.7-0.1C61.3,46.3,61.4,46.3,61.4,46.3z"/>
		<path class="st0" d="M51,47.1c11.4,11,11.5,11.1,11.5,11.1s0.3,0.1,0.5-0.2c0.2-0.3,0.4-0.3,0.2-0.5C63,57.2,51.5,46.7,51.5,46.7
			s-0.7-0.6-0.7-0.1S51,47.1,51,47.1z"/>
		<path class="st0" d="M41.1,48.1c11.4,11,11.5,11.1,11.5,11.1s0.3,0.1,0.5-0.2c0.2-0.3,0.4-0.3,0.2-0.5S41.6,47.7,41.6,47.7
			s-0.7-0.6-0.7-0.1S41.1,48.1,41.1,48.1z"/>
		<path class="st0" d="M30.8,49.3c11.4,11,11.5,11.1,11.5,11.1s0.3,0.1,0.5-0.2c0.2-0.3,0.4-0.3,0.2-0.5S31.3,48.9,31.3,48.9
			s-0.7-0.6-0.7-0.1C30.7,49.3,30.8,49.3,30.8,49.3z"/>
	</g>
	<g id="TawTaLin_x5F_Bomb_x5F_Stick_1_">
		<line class="st2" x1="74.4" y1="46" x2="72.4" y2="46.7"/>
		<line class="st2" x1="74.4" y1="47.6" x2="71.3" y2="47.2"/>
	</g>
	<g id="TawTaLin_x5F_Flag_1_">
		<line class="st3" x1="23.6" y1="50.5" x2="23.6" y2="37.3"/>
		<polygon class="st5" points="17.5,37.5 19.5,39 17.5,40.6 23.6,40.6 23.6,37.5 		"/>
	</g>
</g>
<g id="Taw_x5F_Ta_x5F_Lin_x5F_Boat_x5F_3">
	<g id="TawTaLin_x5F_Lu_x5F_4_2_">
		<path class="st0" d="M83.6,27.4c-1.8,1.9-3.3,0.7-3.3,0.7s-0.6-0.5-0.6,0s2,1,2,1s1.1-0.1,1.4-0.5C83.5,28.2,83.6,27.4,83.6,27.4z
			"/>
		<path class="st0" d="M85.7,31.5c-0.3,1.1-1.2,0.4-1.6,0.1c-0.3-0.3-1.2-1.6-1.5-2.7c-0.3-0.9-0.4-1.1-0.4-1.5
			c-0.1,0.1-0.3,0.2-0.4,0.3c-0.7,0.5-0.9-0.3-1.5-2.1c0,0,0.7-0.2,1.1-0.4c0.5-0.1,0.6,0,1.4,0.9c0,0,0,0,0,0c0,0,0,0,0,0
			C86.3,27.7,86,30.4,85.7,31.5z"/>
		<path class="st0" d="M83.5,27c1,0.6,1.2,0.9,1.4,1.3c0.1,0.4,0.2,0.9-0.5,1.1s-1.4,0.4-1.7,0.4c-0.3-0.1-0.7-0.2-0.8-0.2
			s-0.3-0.1,0.1-0.3c0.4-0.2,0.7-0.1,0.9,0c0,0,0.1,0.1,0.5,0.1c0,0,0.1-0.5,0.4-0.6c0.3-0.5,0.7-0.2,0.7-0.2s-0.7,0.1-0.9-0.2
			s-0.3-0.5-0.3-0.6S83.5,27,83.5,27z"/>
	</g>
	<g id="TawTaLin_x5F_Lu_x5F_3_2_">
		<path class="st0" d="M76.1,28c-1.8,1.9-3.3,0.7-3.3,0.7s-0.6-0.5-0.6,0s2,1,2,1s1.1-0.1,1.4-0.5C76,28.8,76.1,28,76.1,28z"/>
		<path class="st0" d="M78.3,32.1c-0.3,1.1-1.2,0.4-1.6,0.1c-0.3-0.3-1.2-1.6-1.5-2.7c-0.3-0.9-0.4-1.1-0.4-1.5
			c-0.1,0.1-0.3,0.2-0.4,0.3c-0.7,0.5-0.9-0.3-1.5-2.1c0,0,0.7-0.2,1.1-0.4c0.5-0.1,0.6,0,1.4,0.9c0,0,0,0,0,0c0,0,0,0,0,0
			C78.9,28.3,78.5,31,78.3,32.1z"/>
		<path class="st0" d="M76,27.6c1,0.6,1.2,0.9,1.4,1.3c0.1,0.4,0.2,0.9-0.5,1.1s-1.4,0.4-1.7,0.4c-0.3-0.1-0.7-0.2-0.8-0.2
			s-0.3-0.1,0.1-0.3c0.4-0.2,0.7-0.1,0.9,0c0,0,0.1,0.1,0.5,0.1c0,0,0.1-0.5,0.4-0.6c0.3-0.5,0.7-0.2,0.7-0.2s-0.7,0.1-0.9-0.2
			s-0.3-0.5-0.3-0.6C75.8,28.2,76,27.6,76,27.6z"/>
	</g>
	<g id="TawTaLin_x5F_Lu_x5F_2_2_">
		<path class="st0" d="M71.1,32.8c-0.3,1.1-1.2,0.4-1.6,0.1c-0.3-0.3-1.2-1.6-1.5-2.7c-0.3-0.9-0.4-1.1-0.4-1.5
			c-0.1,0.1-0.3,0.2-0.4,0.3c-0.7,0.5-0.9-0.3-1.5-2.1c0,0,0.7-0.2,1.1-0.4c0.5-0.1,0.6,0,1.4,0.9c0,0,0,0,0,0c0,0,0,0,0,0
			C71.8,29,71.4,31.7,71.1,32.8z"/>
		<path class="st0" d="M69,28.7c-1.8,1.9-3.3,0.7-3.3,0.7s-0.6-0.5-0.6,0s2,1,2,1s1.1-0.1,1.4-0.5C68.9,29.5,69,28.7,69,28.7z"/>
		<path class="st0" d="M68.9,28.3c1,0.6,1.2,0.9,1.4,1.3c0.1,0.4,0.2,0.9-0.5,1.1S68.4,31.1,68,31c-0.3-0.1-0.7-0.2-0.8-0.2
			c-0.1-0.1-0.3-0.1,0.1-0.3c0.4-0.2,0.7-0.1,0.9,0c0,0,0.1,0.1,0.5,0.1c0,0,0.1-0.5,0.4-0.6c0.3-0.5,0.7-0.2,0.7-0.2
			s-0.7,0.1-0.9-0.2s-0.3-0.5-0.3-0.6C68.7,28.9,68.9,28.3,68.9,28.3z"/>
	</g>
	<g id="TawTaLin_x5F_Lu_x5F_1_2_">
		<path class="st0" d="M61.5,29.6c-1.8,1.9-3.3,0.7-3.3,0.7s-0.6-0.5-0.6,0c0,0.5,2,1,2,1s1.1-0.1,1.4-0.5
			C61.4,30.4,61.5,29.6,61.5,29.6z"/>
		<path class="st0" d="M63.7,33.7c-0.3,1.1-1.2,0.4-1.6,0.1c-0.3-0.3-1.2-1.6-1.5-2.7c-0.3-0.9-0.4-1.1-0.4-1.5
			c-0.1,0.1-0.3,0.2-0.4,0.3c-0.7,0.5-0.9-0.3-1.5-2.1c0,0,0.7-0.2,1.1-0.4c0.5-0.1,0.6,0,1.4,0.9c0,0,0,0,0,0c0,0,0,0,0,0
			C64.3,29.9,63.9,32.5,63.7,33.7z"/>
		<path class="st0" d="M61.4,29.2c1,0.6,1.2,0.9,1.4,1.3c0.1,0.4,0.2,0.9-0.5,1.1s-1.4,0.4-1.7,0.4c-0.3-0.1-0.7-0.2-0.8-0.2
			s-0.3-0.1,0.1-0.3c0.4-0.2,0.7-0.1,0.9,0c0,0,0.1,0.1,0.5,0.1c0,0,0.1-0.5,0.4-0.6c0.3-0.5,0.7-0.2,0.7-0.2s-0.7,0.1-0.9-0.2
			c-0.1-0.3-0.3-0.5-0.3-0.6C61.2,29.7,61.4,29.2,61.4,29.2z"/>
	</g>
	<g id="TawTaLin_x5F_Bomb_x5F_Man_2_">
		<path class="st0" d="M92.3,27.7c0.1-0.2-0.1-0.5-0.4-0.4c-0.3,0.2-1.2,1.1-1.2,1.1S89.9,28,89.6,28s-0.3,0.2-0.2,0.3
			c0.1,0.1,0.5,0.3,0.5,0.2c0-0.1,0.9,0.2,0.9,0.2s1.4-0.4,1.4-0.7C92.2,27.8,92.3,27.7,92.3,27.7z"/>
		<path class="st0" d="M91.8,32.1c-0.8,0.7-1.1-0.3-1.2-0.7c-0.1-0.4,0-1.7,0.3-2.7c0.2-0.7,0.3-1,0.5-1.3c-0.1,0-0.3,0-0.4,0
			c-0.8,0-0.5-0.7,0-2.3c0,0,0.6,0.2,1,0.3c0.4,0.1,0.4,0.3,0.6,1.3c0,0,0,0,0,0c0,0,0,0,0,0C94.2,29.7,92.6,31.4,91.8,32.1z"/>
		<path class="st0" d="M92.1,28.5c0.2-0.1,0.3-0.2,0.4-0.1c0.1,0.2,0.2,0.3,0.1,0.4c-0.1,0.1-0.3,0.2-0.5,0.1c0,0-1.6,1-2,0.8
			s-0.3,0-0.4-0.1c-0.1-0.1-0.3-0.4,0-0.4c0.3,0,0.2-0.1,0.4,0.1c0.1,0.1,0.3,0.2,0.4,0.1s1-1,1.2-0.9"/>
	</g>
	<g id="Booooom_2_">
		<path class="st1" d="M87,29.3C87,29.3,87,29.3,87,29.3c0.2,0.9,0.3,1.5,0.8,1.5c0.5,0.1,1.4-0.1,1.5-0.2c0.1-0.1,0.3-0.7,0.3-1
			c0-0.3,0-0.6,0-0.6s-1,0.8-1.5,0.6C87.6,29.4,87,29.3,87,29.3"/>
		<ellipse class="st1" cx="88.3" cy="29.1" rx="1.3" ry="0.5"/>
	</g>
	<g id="TawTaLin_x5F_Boat_2_">
		<polygon class="st1" points="48.1,31.7 57.6,35.2 88.4,34.7 94.3,30.4 		"/>
	</g>
	<g id="TawTaLin_x5F_Dick_2_">
		<path class="st0" d="M80.3,28.4c8.3,7.9,8.3,8,8.3,8s0.2,0.1,0.4-0.1c0.2-0.2,0.3-0.2,0.2-0.4s-8.5-7.8-8.5-7.8s-0.5-0.5-0.5-0.1
			C80.2,28.4,80.3,28.4,80.3,28.4z"/>
		<path class="st0" d="M72.8,29c8.3,7.9,8.3,8,8.3,8s0.2,0.1,0.4-0.1c0.2-0.2,0.3-0.2,0.2-0.4c-0.2-0.2-8.5-7.8-8.5-7.8
			s-0.5-0.5-0.5-0.1C72.7,29,72.8,29,72.8,29z"/>
		<path class="st0" d="M65.7,29.7c8.3,7.9,8.3,8,8.3,8s0.2,0.1,0.4-0.1c0.2-0.2,0.3-0.2,0.2-0.4s-8.5-7.8-8.5-7.8s-0.5-0.5-0.5-0.1
			C65.6,29.7,65.7,29.7,65.7,29.7z"/>
		<path class="st0" d="M58.2,30.5c8.3,7.9,8.3,8,8.3,8s0.2,0.1,0.4-0.1c0.2-0.2,0.3-0.2,0.2-0.4c-0.2-0.2-8.5-7.8-8.5-7.8
			s-0.5-0.5-0.5-0.1C58.2,30.6,58.2,30.5,58.2,30.5z"/>
	</g>
	<g id="TawTaLin_x5F_Bomb_x5F_Stick_2_">
		<line class="st2" x1="89.7" y1="28.2" x2="88.2" y2="28.7"/>
		<line class="st2" x1="89.7" y1="29.4" x2="87.5" y2="29.1"/>
	</g>
	<g id="TawTaLin_x5F_Flag_2_">
		<line class="st3" x1="53" y1="31.4" x2="53" y2="21.9"/>
		<polygon class="st6" points="48.6,22 50.1,23.1 48.6,24.3 53,24.3 53,22 		"/>
	</g>
</g>
<g id="Taw_x5F_Ta_x5F_Lin_x5F_Boat_x5F_3_1_">
	<g id="TawTaLin_x5F_Lu_x5F_4_3_">
		<path class="st0" d="M41.3,11.3c-1.1,1.2-2,0.4-2,0.4s-0.4-0.3-0.4,0c0,0.3,1.3,0.6,1.3,0.6s0.6-0.1,0.8-0.3
			C41.3,11.8,41.3,11.3,41.3,11.3z"/>
		<path class="st0" d="M42.7,13.8c-0.2,0.7-0.8,0.3-1,0.1c-0.2-0.2-0.7-1-0.9-1.6c-0.2-0.5-0.2-0.7-0.2-0.9
			c-0.1,0.1-0.2,0.1-0.3,0.2c-0.5,0.3-0.6-0.2-0.9-1.3c0,0,0.4-0.1,0.7-0.2c0.3-0.1,0.4,0,0.9,0.5c0,0,0,0,0,0c0,0,0,0,0,0
			C43,11.5,42.8,13.1,42.7,13.8z"/>
		<path class="st0" d="M41.3,11c0.6,0.4,0.8,0.5,0.8,0.8c0.1,0.2,0.1,0.6-0.3,0.7c-0.4,0.1-0.9,0.3-1.1,0.2c-0.2,0-0.4-0.1-0.5-0.2
			c-0.1,0-0.2-0.1,0-0.2s0.5,0,0.5,0c0,0,0.1,0.1,0.3,0.1c0,0,0.1-0.3,0.2-0.4c0.2-0.3,0.4-0.1,0.4-0.1s-0.4,0.1-0.5-0.1
			c-0.1-0.2-0.2-0.3-0.2-0.4C41.1,11.4,41.3,11,41.3,11z"/>
	</g>
	<g id="TawTaLin_x5F_Lu_x5F_3_3_">
		<path class="st0" d="M36.7,11.6c-1.1,1.2-2,0.4-2,0.4s-0.4-0.3-0.4,0c0,0.3,1.3,0.6,1.3,0.6s0.6-0.1,0.8-0.3
			C36.7,12.1,36.7,11.6,36.7,11.6z"/>
		<path class="st0" d="M38.1,14.2c-0.2,0.7-0.8,0.3-1,0.1c-0.2-0.2-0.7-1-0.9-1.6c-0.2-0.5-0.2-0.7-0.2-0.9
			c-0.1,0.1-0.2,0.1-0.3,0.2c-0.5,0.3-0.6-0.2-0.9-1.3c0,0,0.4-0.1,0.7-0.2c0.3-0.1,0.4,0,0.9,0.5c0,0,0,0,0,0c0,0,0,0,0,0
			C38.4,11.8,38.2,13.5,38.1,14.2z"/>
		<path class="st0" d="M36.7,11.4c0.6,0.4,0.8,0.5,0.8,0.8c0.1,0.2,0.1,0.6-0.3,0.7c-0.4,0.1-0.9,0.3-1.1,0.2
			c-0.2,0-0.4-0.1-0.5-0.2c-0.1,0-0.2-0.1,0-0.2s0.5,0,0.5,0c0,0,0.1,0.1,0.3,0.1c0,0,0.1-0.3,0.2-0.4c0.2-0.3,0.4-0.1,0.4-0.1
			s-0.4,0.1-0.5-0.1c-0.1-0.2-0.2-0.3-0.2-0.4C36.5,11.8,36.7,11.4,36.7,11.4z"/>
	</g>
	<g id="TawTaLin_x5F_Lu_x5F_2_3_">
		<path class="st0" d="M33.7,14.6c-0.2,0.7-0.8,0.3-1,0.1c-0.2-0.2-0.7-1-0.9-1.6c-0.2-0.5-0.2-0.7-0.2-0.9
			c-0.1,0.1-0.2,0.1-0.3,0.2c-0.5,0.3-0.6-0.2-0.9-1.3c0,0,0.4-0.1,0.7-0.2c0.3-0.1,0.4,0,0.9,0.5c0,0,0,0,0,0c0,0,0,0,0,0
			C34.1,12.3,33.9,13.9,33.7,14.6z"/>
		<path class="st0" d="M32.4,12.1c-1.1,1.2-2,0.4-2,0.4s-0.4-0.3-0.4,0c0,0.3,1.3,0.6,1.3,0.6s0.6-0.1,0.8-0.3
			C32.3,12.6,32.4,12.1,32.4,12.1z"/>
		<path class="st0" d="M32.3,11.9c0.6,0.4,0.8,0.5,0.8,0.8s0.1,0.6-0.3,0.7s-0.9,0.3-1.1,0.2c-0.2,0-0.4-0.1-0.5-0.2s-0.2-0.1,0-0.2
			s0.5,0,0.5,0c0,0,0.1,0.1,0.3,0.1c0,0,0.1-0.3,0.2-0.4c0.2-0.3,0.4-0.1,0.4-0.1s-0.4,0.1-0.5-0.1c-0.1-0.2-0.2-0.3-0.2-0.4
			C32.2,12.2,32.3,11.9,32.3,11.9z"/>
	</g>
	<g id="TawTaLin_x5F_Lu_x5F_1_3_">
		<path class="st0" d="M27.8,12.6c-1.1,1.2-2,0.4-2,0.4s-0.4-0.3-0.4,0c0,0.3,1.3,0.6,1.3,0.6s0.6-0.1,0.8-0.3
			C27.7,13.1,27.8,12.6,27.8,12.6z"/>
		<path class="st0" d="M29.1,15.2c-0.2,0.7-0.8,0.3-1,0.1c-0.2-0.2-0.7-1-0.9-1.6C27,13.1,27,12.9,27,12.7c-0.1,0.1-0.2,0.1-0.3,0.2
			c-0.5,0.3-0.6-0.2-0.9-1.3c0,0,0.4-0.1,0.7-0.2c0.3-0.1,0.4,0,0.9,0.5c0,0,0,0,0,0c0,0,0,0,0,0C29.5,12.8,29.3,14.5,29.1,15.2z"/>
		<path class="st0" d="M27.7,12.4c0.6,0.4,0.8,0.5,0.8,0.8s0.1,0.6-0.3,0.7s-0.9,0.3-1.1,0.2c-0.2,0-0.4-0.1-0.5-0.2s-0.2-0.1,0-0.2
			s0.5,0,0.5,0c0,0,0.1,0.1,0.3,0.1c0,0,0.1-0.3,0.2-0.4c0.2-0.3,0.4-0.1,0.4-0.1s-0.4,0.1-0.5-0.1c-0.1-0.2-0.2-0.3-0.2-0.4
			C27.6,12.7,27.7,12.4,27.7,12.4z"/>
	</g>
	<g id="TawTaLin_x5F_Bomb_x5F_Man_3_">
		<path class="st0" d="M46.7,11.5c0.1-0.1-0.1-0.3-0.2-0.2c-0.2,0.1-0.7,0.7-0.7,0.7s-0.5-0.3-0.7-0.2c-0.2,0-0.2,0.1-0.1,0.2
			s0.3,0.2,0.3,0.1c0,0,0.6,0.1,0.6,0.1s0.9-0.2,0.9-0.4C46.7,11.5,46.7,11.5,46.7,11.5z"/>
		<path class="st0" d="M46.4,14.2c-0.5,0.4-0.7-0.2-0.7-0.4c-0.1-0.2,0-1.1,0.2-1.7c0.2-0.5,0.2-0.6,0.3-0.8c-0.1,0-0.2,0-0.3,0
			c-0.5,0-0.3-0.4,0-1.4c0,0,0.4,0.1,0.6,0.2c0.3,0.1,0.3,0.2,0.3,0.8c0,0,0,0,0,0c0,0,0,0,0,0C47.9,12.7,46.9,13.8,46.4,14.2z"/>
		<path class="st0" d="M46.6,11.9c0.1-0.1,0.2-0.1,0.2,0c0.1,0.1,0.1,0.2,0.1,0.3c0,0.1-0.2,0.1-0.3,0.1c0,0-1,0.6-1.2,0.5
			s-0.2,0-0.3-0.1c-0.1-0.1-0.2-0.3,0-0.3c0.2,0,0.2,0,0.2,0c0.1,0.1,0.2,0.1,0.2,0.1s0.6-0.6,0.7-0.6"/>
	</g>
	<g id="Booooom_3_">
		<path class="st1" d="M43.4,12.4C43.4,12.5,43.4,12.5,43.4,12.4c0.1,0.6,0.2,0.9,0.5,0.9c0.3,0,0.8,0,0.9-0.1
			c0.1-0.1,0.2-0.4,0.2-0.6s0-0.3,0-0.3s-0.6,0.5-0.9,0.3C43.8,12.5,43.4,12.5,43.4,12.4"/>
		<ellipse class="st1" cx="44.2" cy="12.4" rx="0.8" ry="0.3"/>
	</g>
	<g id="TawTaLin_x5F_Boat_3_">
		<polygon class="st1" points="19.5,13.9 25.4,16.1 44.3,15.8 47.9,13.2 		"/>
	</g>
	<g id="TawTaLin_x5F_Dick_3_">
		<path class="st0" d="M39.3,11.9c5.1,4.9,5.1,4.9,5.1,4.9s0.1,0,0.2-0.1c0.1-0.1,0.2-0.1,0.1-0.2c-0.1-0.1-5.2-4.8-5.2-4.8
			s-0.3-0.3-0.3,0S39.3,11.9,39.3,11.9z"/>
		<path class="st0" d="M34.7,12.3c5.1,4.9,5.1,4.9,5.1,4.9s0.1,0,0.2-0.1c0.1-0.1,0.2-0.1,0.1-0.2c-0.1-0.1-5.2-4.8-5.2-4.8
			s-0.3-0.3-0.3,0S34.7,12.3,34.7,12.3z"/>
		<path class="st0" d="M30.3,12.7c5.1,4.9,5.1,4.9,5.1,4.9s0.1,0,0.2-0.1c0.1-0.1,0.2-0.1,0.1-0.2c-0.1-0.1-5.2-4.8-5.2-4.8
			s-0.3-0.3-0.3,0C30.3,12.7,30.3,12.7,30.3,12.7z"/>
		<path class="st0" d="M25.7,13.2c5.1,4.9,5.1,4.9,5.1,4.9s0.1,0,0.2-0.1c0.1-0.1,0.2-0.1,0.1-0.2S26,13.1,26,13.1s-0.3-0.3-0.3,0
			C25.7,13.2,25.7,13.2,25.7,13.2z"/>
	</g>
	<g id="TawTaLin_x5F_Bomb_x5F_Stick_3_">
		<line class="st2" x1="45.1" y1="11.8" x2="44.2" y2="12.1"/>
		<line class="st2" x1="45.1" y1="12.5" x2="43.7" y2="12.3"/>
	</g>
	<g id="TawTaLin_x5F_Flag_3_">
		<line class="st3" x1="22.6" y1="13.8" x2="22.6" y2="7.9"/>
		<polygon class="st6" points="19.8,8 20.8,8.7 19.8,9.4 22.6,9.4 22.6,8 		"/>
	</g>
</g>
<path class="st7" d="M28.5,80.8l1.4-0.8c0,0,3.7-1.8,2.5-2.8c1.7,1.4,2.8,2.8,4.1,2.8h0.1c0,0,3.7-1.8,2.5-2.8
	c1.7,1.4,2.8,2.8,4.1,2.8c0,0,3.7-1.8,2.5-2.8c1.7,1.4,2.8,2.8,4.1,2.8l1.9,0.8"/>
<path class="st7" d="M14.3,83.5l1.4-0.8c0,0,3.7-1.8,2.5-2.8c1.7,1.4,2.8,2.8,4.1,2.8h0.1c0,0,3.7-1.8,2.5-2.8
	c1.7,1.4,2.8,2.8,4.1,2.8c0,0,3.7-1.8,2.5-2.8c1.7,1.4,2.8,2.8,4.1,2.8l1.9,0.8"/>
<path class="st7" d="M51.8,80.8l1.4-0.8c0,0,3.7-1.8,2.5-2.8c1.7,1.4,2.8,2.8,4.1,2.8h0.1c0,0,3.7-1.8,2.5-2.8
	c1.7,1.4,2.8,2.8,4.1,2.8c0,0,3.7-1.8,2.5-2.8c1.7,1.4,2.8,2.8,4.1,2.8l1.9,0.8"/>
<path class="st7" d="M40.2,83.2l1.2-0.7c0,0,3.1-1.5,2.1-2.4c1.4,1.2,2.4,2.3,3.5,2.4h0.1c0,0,3.1-1.5,2.1-2.4
	c1.4,1.2,2.4,2.3,3.5,2.4c0,0,3.1-1.5,2.1-2.4c1.4,1.2,2.4,2.3,3.5,2.4l1.6,0.7"/>
<path class="st7" d="M37,60l1.4-0.8c0,0,3.7-1.8,2.5-2.8c1.7,1.4,2.8,2.8,4.1,2.8h0.1c0,0,3.7-1.8,2.5-2.8c1.7,1.4,2.8,2.8,4.1,2.8
	c0,0,3.7-1.8,2.5-2.8c1.7,1.4,2.8,2.8,4.1,2.8l1.9,0.8"/>
<path class="st7" d="M10.2,79.6l0.5-0.3c0,0,1.3-0.6,0.9-1c0.6,0.5,1,1,1.4,1h0c0,0,1.3-0.6,0.9-1c0.6,0.5,1,1,1.4,1
	c0,0,1.3-0.6,0.9-1c0.6,0.5,1,1,1.4,1l0.7,0.3"/>
<path class="st7" d="M60.6,60l1.3-0.7c0,0,3.2-1.6,2.1-2.5c1.5,1.2,2.5,2.4,3.6,2.5h0.1c0,0,3.2-1.6,2.1-2.5
	c1.5,1.2,2.5,2.4,3.6,2.5c0,0,3.2-1.6,2.1-2.5c1.5,1.2,2.5,2.4,3.6,2.5l1.6,0.7"/>
<path class="st7" d="M57,57.5l1.4-0.8c0,0,3.7-1.8,2.5-2.8c1.7,1.4,2.8,2.8,4.1,2.8h0.1c0,0,3.7-1.8,2.5-2.8
	c1.7,1.4,2.8,2.8,4.1,2.8c0,0,3.7-1.8,2.5-2.8c1.7,1.4,2.8,2.8,4.1,2.8l1.9,0.8"/>
</svg>
