<?xml version="1.0" encoding="utf-8"?>
<!-- Generator: Adobe Illustrator 21.0.0, SVG Export Plug-In . SVG Version: 6.00 Build 0)  -->
<svg version="1.1" id="_x31_2Tree" xmlns="http://www.w3.org/2000/svg" xmlns:xlink="http://www.w3.org/1999/xlink" x="0px" y="0px"
	 viewBox="0 0 100 116" enable-background="new 0 0 100 116" xml:space="preserve">
<g id="Root">
	<path fill="#FF9800" d="M45.4,97.2"/>
	<rect x="46.8" y="84.6" fill="#FFCC80" width="7" height="8.8"/>
	<rect x="46.6" y="66.9" fill="#FF5722" width="7.3" height="18.2"/>
	<polygon fill="#FFB74D" points="57,63.7 54.5,65.1 55.6,68.9 55.8,66.7 	"/>
	<polygon fill="#FF9800" points="54.5,65.1 55.3,72.1 55.6,68.9 	"/>
	<polygon fill="#FF9800" points="56.3,64.1 55.8,66.7 57,63.7 	"/>
	<polygon fill="#FB8C00" points="56,64.2 54.5,65.1 54.5,63.7 	"/>
	<polygon fill="#FFB74D" points="54.7,66.7 53.9,70.6 55.3,72.1 	"/>
	<polygon fill="#FF9800" points="54.5,71.2 55,74.8 55.6,72.4 	"/>
	<polygon fill="#FFB74D" points="54.5,71.2 54.4,80.3 55,74.8 	"/>
	<polygon fill="#FFA726" points="54,70.4 54.5,71.2 54.4,74.7 	"/>
	<polygon fill="#FFB74D" points="55.3,71.5 55.6,72 55.4,72.3 55.3,72.1 	"/>
	<polygon fill="#FFCC80" points="55.9,64.4 56.9,63.9 57.4,62.6 57.4,62.3 54.4,63.9 	"/>
	<polygon fill="#FFA726" points="54.4,80 52.2,76.5 54.4,74.6 	"/>
	<polygon fill="#FFB74D" points="53.9,79.3 53.5,81.1 54.2,81.8 55,80.7 	"/>
	<polygon fill="#FF9800" points="52.6,77.3 51.8,80.7 53.5,81.1 53.9,79.3 	"/>
	<polyline fill="#FFB74D" points="54.4,74.6 54,70.7 52.2,76.5 	"/>
	<polygon fill="#FF9800" points="54.5,64.5 52.2,69.1 53.5,72.1 54.8,67.9 	"/>
	<polygon fill="#FFA726" points="52.9,70.7 51.2,72.2 53,73.9 53.5,72.1 	"/>
	<path fill="#FF9800" d="M54.8,82.4c-0.1-0.1-1.5-1.6-1.5-1.6l0.2,3.5L54.8,82.4z"/>
	<polygon fill="#FFCC80" points="53.4,78.6 53.4,83.6 51.7,79.5 	"/>
	<polygon fill="#FFB74D" points="54.1,83.2 54.3,83.8 54.3,85.5 53.5,86 	"/>
	<polygon fill="#FFA726" points="54,83.7 52.6,84.9 52.8,86.5 53.5,86 	"/>
	<polygon fill="#FF9800" points="53.8,85.5 54.3,86.1 54.1,87.4 	"/>
	<polyline fill="#FF9800" points="54.2,87.7 54.4,88.8 54,90 52.9,88.2 54.1,87.7 	"/>
	<polyline fill="#FF9800" points="53.2,86.1 52.9,88.3 51.9,85.3 53.2,86.1 	"/>
	<polygon fill="#FF9800" points="54.1,83.4 54.2,83.4 54.4,83.8 54.4,85.5 54.2,85.7 54.2,85.6 54.3,85.5 54.3,83.8 	"/>
	<rect x="50.5" y="91.4" fill="#FF9800" width="2.6" height="3.4"/>
	<polygon fill="#FF9800" points="53.2,90.7 52.5,91.3 52.4,92.9 53.2,93.2 53.9,93.2 54.4,92.6 54.4,91.4 54.2,90.9 	"/>
	<polyline fill="#EF6C00" points="53.2,90.7 52.5,91.3 52.4,92.9 53.2,93.2 53.8,93.2 53.9,93.2 53.2,93.3 52.3,92.9 52.4,91.2 
		53.1,90.7 53.2,90.7 	"/>
	<polyline fill="#FFCC80" points="54.2,91.1 53.8,93.1 53.2,90.7 54.2,91.1 	"/>
	<polyline fill="#FFCC80" points="56.8,101.7 58.4,103 58.5,104.3 57.3,103.3 56.8,101.7 	"/>
	<polygon fill="#FFB74D" points="54.1,85.6 53.2,86.1 53.1,87 53.8,87.8 54.3,87.6 54.5,87.1 	"/>
	<polygon fill="#E65100" points="54.5,87.1 54.4,87.4 54.3,87.7 53.8,87.9 53.1,87.1 53.1,87 53.9,87.8 54.3,87.6 54.4,87.3 
		54.4,87.1 	"/>
	<polygon fill="#FFA726" points="52,88.9 54.5,88.3 53.2,87 53.2,87 	"/>
	<polygon fill="#EF6C00" points="54.5,89 54.9,90.5 54.5,91.3 54.1,90 	"/>
	<polygon fill="#FFA726" points="54.3,91 54.9,91.3 55.2,92.9 54.5,93.3 53.9,93.1 	"/>
	<polygon fill="#FFA726" points="54.9,81.1 54.9,81.1 54.9,82 54.3,81.5 	"/>
	<polygon fill="#FF6D00" points="54.9,81.1 54.9,81 54.9,82 54.9,82 	"/>
	<polygon fill="#FF9800" points="52.8,81.4 52.2,81.3 51.5,82 51.5,82.5 52.5,84.6 52.8,84.8 53.8,83.9 53.7,83.4 	"/>
	<polygon fill="#EF6C00" points="54.6,91.1 54.9,91.2 55.2,93 54.5,93.4 53.9,93.2 53.9,93.1 54.5,93.3 55.2,92.9 54.9,91.3 
		54.6,91.2 	"/>
	<polygon fill="#FFB74D" points="55.3,92.9 55.7,93.6 55,95.9 53.4,94.6 	"/>
	<polygon fill="#FF9800" points="55.5,94.7 53.8,95.6 53.2,98.6 53.7,99 55.1,99 56.1,97.9 	"/>
	<polygon fill="#FFA726" points="53.5,88.5 54.2,89.7 54.1,90 54.5,91.1 54.3,91 52.5,90.5 52.5,90.3 	"/>
	<polygon fill="#FF9800" points="53,93.1 53.4,93.2 54,93.2 54.5,93.4 55.1,93.1 53.4,94.6 	"/>
	<polygon fill="#EF6C00" points="54.5,98.1 56.3,99.5 54.9,102.1 	"/>
	<polygon fill="#FF9800" points="56.3,99.5 57.6,103.2 54.5,101.8 	"/>
	<polygon fill="#FFB74D" points="55.3,98.7 56.2,97.9 56.4,99.6 	"/>
	<polygon fill="#FFA726" points="57.6,103.2 61.4,106.3 58.6,109.3 	"/>
	<polygon fill="#EF6C00" points="57.6,103.2 58.6,109.3 54.5,101.8 	"/>
	<polygon fill="#FFCC80" points="61.4,106.3 63.6,113.1 58.6,109.3 	"/>
	<polygon fill="#EF6C00" points="62.4,109.5 64,110.3 66.1,112.3 63.4,112.3 	"/>
	<polygon fill="#FFA726" points="63.6,113.1 63.9,114.7 67.5,115.4 68.1,115.2 68,114.4 67.7,113.8 66.1,112.3 63.4,112.3 	"/>
	<polygon fill="#FF9800" points="58.6,109.3 55.1,114.3 58.4,113.8 63.9,114.7 63.6,113.1 	"/>
	<polygon fill="#FFCC80" points="54.5,101.8 55.1,114.3 58.6,109.3 	"/>
	<polygon fill="#FB8C00" points="53.7,99 54.6,99 54.8,101.4 54.3,102.1 52.6,101.2 	"/>
	<polygon fill="#FB8C00" points="55.1,114.3 50.3,115.5 54.8,107.7 	"/>
	<polygon fill="#FFB74D" points="54.5,101.8 54.3,102.1 50.3,115.5 54.8,107.7 	"/>
	<polygon fill="#FFB74D" points="50.3,115.5 67.5,115.4 63.9,114.7 58.4,113.8 55.1,114.3 	"/>
	<rect x="47.9" y="62.6" transform="matrix(0.37 -0.929 0.929 0.37 -28.6702 87.533)" fill="#FB8C00" width="4.6" height="4.6"/>
	<polygon fill="#FFCC80" points="54.7,63.7 51.7,62.6 51.1,64.5 52.4,69 54.7,64.5 	"/>
	<polygon fill="#FFB74D" points="43.3,63.6 45.8,64.9 44.7,68.7 44.5,66.6 	"/>
	<polygon fill="#FF9800" points="45.8,64.9 45,72 44.7,68.7 	"/>
	<polygon fill="#FF9800" points="44,63.9 44.5,66.6 43.3,63.6 	"/>
	<polygon fill="#FB8C00" points="44.2,64.1 45.8,64.9 45.8,63.6 	"/>
	<polygon fill="#FFB74D" points="45.6,66.6 46.4,70.4 45,72 	"/>
	<polygon fill="#FF9800" points="45.8,71.1 45.3,74.6 44.7,72.3 	"/>
	<polygon fill="#FFB74D" points="45.8,71.1 45.9,80.2 45.3,74.6 	"/>
	<polygon fill="#FFA726" points="46.3,70.3 45.8,71.1 45.8,74.5 	"/>
	<polygon fill="#FFB74D" points="45,71.3 44.7,71.9 44.8,72.1 45,71.9 	"/>
	<polygon fill="#FFCC80" points="44.3,64.2 43.4,63.7 42.9,62.5 42.9,62.2 45.8,63.7 	"/>
	<polygon fill="#FFA726" points="45.9,79.9 48.1,76.4 45.8,74.4 	"/>
	<polygon fill="#FFB74D" points="46.4,79.1 46.8,80.9 46.1,81.6 45.3,80.6 	"/>
	<polygon fill="#FF9800" points="47.6,77.1 48.5,80.5 46.8,80.9 46.4,79.1 	"/>
	<polyline fill="#FFB74D" points="45.8,74.4 46.3,70.5 48.1,76.4 	"/>
	<polygon fill="#FFCC80" points="45.7,64.3 48.1,69 46.7,72 45.5,67.7 	"/>
	<polygon fill="#FFA726" points="47.4,70.6 49.1,72.1 47.3,73.8 46.7,72 	"/>
	<path fill="#FF9800" d="M45.5,82.2c0.1-0.1,1.5-1.6,1.5-1.6l-0.2,3.5L45.5,82.2z"/>
	<polygon fill="#FFCC80" points="46.8,78.4 46.8,83.4 48.6,79.4 	"/>
	<polygon fill="#FFB74D" points="46.2,83.1 46,83.6 46,85.4 46.8,85.8 	"/>
	<polygon fill="#FFA726" points="46.3,83.5 47.7,84.8 47.5,86.4 46.8,85.8 	"/>
	<polygon fill="#FF9800" points="46.3,85.2 45.9,85.8 46.1,87.1 	"/>
	<polyline fill="#FF9800" points="46.1,87.6 45.9,88.6 46.3,89.8 47.4,88.1 46.2,87.6 	"/>
	<polyline fill="#FF9800" points="47.2,86.2 47.6,88.4 48.6,85.4 47.2,86.2 	"/>
	<polygon fill="#FF9800" points="46.1,83.2 46.1,83.2 45.9,83.6 45.9,85.4 46.1,85.5 46.1,85.4 46,85.3 46,83.6 	"/>
	<polygon fill="#FF9800" points="47.2,90.7 48,91.3 48.1,92.9 47.2,93.2 46.6,93.2 46,92.6 46,91.4 46.3,90.9 	"/>
	<polyline fill="#EF6C00" points="47.3,90.7 48,91.3 48.1,92.9 47.2,93.2 46.6,93.2 46.5,93.2 47.2,93.2 48.1,92.9 48,91.2 
		47.3,90.7 47.3,90.7 	"/>
	<polyline fill="#FFCC80" points="46.2,91 46.7,93.1 47.3,90.7 46.2,91 	"/>
	<polyline fill="#FFCC80" points="43.5,101.5 41.9,102.9 41.8,104.1 43,103.2 43.5,101.5 	"/>
	<polygon fill="#FFB74D" points="46.3,85.4 47.2,85.9 47.4,86.8 46.6,87.7 46.1,87.4 46,86.9 	"/>
	<polygon fill="#E65100" points="46,86.9 46,87.2 46.1,87.6 46.6,87.7 47.4,87 47.4,86.8 46.6,87.6 46.1,87.4 46,87.2 	"/>
	<polyline fill="#FFA726" points="48.6,88.9 46,88.3 47.3,87 47.4,87 48.6,88.9 	"/>
	<polygon fill="#EF6C00" points="46,89 45.7,90.5 46,91.3 46.5,90 	"/>
	<polygon fill="#FFA726" points="46.2,91 45.7,91.3 45.4,92.9 46,93.3 46.7,93.1 	"/>
	<polygon fill="#FFA726" points="45.7,81.1 45.7,81.1 45.7,82 46.2,81.5 	"/>
	<polygon fill="#FF6D00" points="45.7,81.1 45.6,81 45.6,82 45.7,82 	"/>
	<polygon fill="#FF9800" points="47.7,81.4 48.3,81.3 49,82 49,82.5 48,84.6 47.7,84.8 46.8,83.9 46.8,83.4 	"/>
	<polygon fill="#EF6C00" points="45.9,91.1 45.6,91.2 45.3,93 46,93.4 46.6,93.2 46.7,93.1 46,93.3 45.4,92.9 45.7,91.3 46,91.2 	
		"/>
	<polygon fill="#FFB74D" points="45.3,92.9 44.8,93.6 45.5,95.9 47.1,94.6 	"/>
	<polygon fill="#FF9800" points="45,94.7 46.8,95.6 47.4,98.6 46.8,99 45.5,99 44.4,97.9 	"/>
	<polygon fill="#FFA726" points="47.1,88.5 46.3,89.7 46.5,90 46.1,91.1 46.2,91 48,90.5 48.1,90.3 	"/>
	<polygon fill="#FF9800" points="47.6,93.1 47.1,93.2 46.6,93.2 46,93.4 45.5,93.1 47.1,94.6 	"/>
	<polygon fill="#EF6C00" points="46.1,98.1 44.2,99.5 45.7,102.1 	"/>
	<polygon fill="#FF9800" points="44.2,99.5 43,103.2 46.1,101.8 	"/>
	<polygon fill="#FFB74D" points="45.2,98.7 44.4,97.9 44.1,99.6 	"/>
	<polygon fill="#FFA726" points="43,103.2 39.1,106.3 41.9,109.3 	"/>
	<polygon fill="#EF6C00" points="43,103.2 41.9,109.3 46.1,101.8 	"/>
	<polygon fill="#FFCC80" points="39.1,106.3 36.9,113.1 41.9,109.3 	"/>
	<polygon fill="#EF6C00" points="38.1,109.5 36.5,110.3 34.5,112.3 37.2,112.3 	"/>
	<polygon fill="#FFCC80" points="36.9,113.1 36.6,114.7 33.1,115.4 32.4,115.2 32.5,114.4 32.9,113.8 34.5,112.3 37.2,112.3 	"/>
	<polygon fill="#FF9800" points="41.9,109.3 45.5,114.3 42.1,113.8 36.6,114.7 36.9,113.1 	"/>
	<polygon fill="#FFCC80" points="46.1,101.8 45.5,114.3 41.9,109.3 	"/>
	<polygon fill="#FB8C00" points="46.8,99 45.9,99 45.7,101.4 46.3,102.1 48,101.2 	"/>
	<polygon fill="#FB8C00" points="45.5,114.3 50.3,115.5 45.8,107.7 	"/>
	<polygon fill="#FFB74D" points="46.1,101.8 46.3,102.1 50.3,115.5 45.8,107.7 	"/>
	<polygon fill="#FFA726" points="50.3,115.5 33.1,115.4 36.6,114.7 42.1,113.8 45.5,114.3 	"/>
	<polygon fill="#FF9800" points="45.8,63.7 48.8,62.6 49.4,64.5 48.1,69 45.8,64.5 	"/>
	<polygon fill="#FB8C00" points="54.3,102.1 49.4,98.7 47.7,106.9 	"/>
	<polygon fill="#FFCC80" points="54.3,102.1 50.3,115.5 47.7,106.9 	"/>
	<polygon fill="#EF6C00" points="46.6,107.2 47.1,111.8 42.1,110.7 	"/>
	<polyline fill="#EF6C00" points="40.5,107.7 39.7,108.8 39.7,109.7 40.5,110.4 41.9,109.3 	"/>
	<polygon fill="#EF6C00" points="38.1,112.2 39,113.1 38,113.8 36.8,113.8 36.9,113.1 	"/>
	<polygon fill="#FF9800" points="46.3,102.1 49,100.6 47.7,106.9 	"/>
	<polygon fill="#EF6C00" points="47.1,94.6 48.3,95.5 48.6,97.9 47.6,98.6 47.3,98.5 46.7,95.6 46.1,95.3 	"/>
	<polygon fill="#FFCC80" points="46.8,99 48.7,97.5 49.3,97.6 49.8,98.2 49,100.6 48,101.2 	"/>
	<polygon fill="#FFD180" points="49.6,98.8 53.2,98.6 53.7,99 52.7,101 	"/>
	<polygon fill="#FF6D00" points="49.6,98.8 53.8,95.6 53.2,98.6 	"/>
	<polygon fill="#FF6D00" points="49.8,98.2 49,100.5 48,101.1 48,101.2 49,100.6 49.8,98.3 	"/>
	<polygon fill="#FF6D00" points="47.9,101.2 47.9,101 46.8,99 46.8,99.1 	"/>
	<polygon fill="#EF6C00" points="49.7,98.4 50.9,97.9 49.6,98.8 	"/>
	<polygon fill="#FFB74D" points="48.1,92.9 48.8,93.5 48.7,95.3 48.2,95.5 47.1,94.6 47.5,93.1 	"/>
	<polygon fill="#FF6D00" points="49.7,98 48.6,98.5 47.9,97.7 48.1,96.5 49.1,96 49.9,96.8 	"/>
	<polygon fill="#EF6C00" points="49.9,98.4 49.6,98.1 49.9,96.8 53.3,94.4 54.2,95.3 50.8,97.9 	"/>
	<polygon fill="#FFB74D" points="52.2,92.8 53.1,93.2 53.4,94.3 53.2,95.9 53.1,96 51.4,95.5 51.3,95.2 51.8,93.2 	"/>
	<polygon fill="#FF9800" points="48.7,95.3 48.3,95.5 48.3,95.5 48.4,96.3 49.1,96 49.9,96.8 49.9,95.9 49.8,95.6 49.2,95.7 	"/>
	<polygon fill="#FFA726" points="49.9,96.8 49.9,95.9 49.8,95.6 49.9,93.2 51.6,94 51.3,95.3 51.4,95.5 51.6,95.6 	"/>
	<polygon fill="#EF6C00" points="50,93.3 49.4,92.9 48.8,93.5 48.7,95.3 49.2,95.7 49.8,95.6 	"/>
	<polygon fill="#FFB74D" points="50,93.3 49.6,92.5 50.7,90.6 51.6,90.5 52.3,91 52.5,91.2 52.4,91.2 52.4,91.5 51.4,93.3 
		50.7,93.6 	"/>
	<polygon fill="#FF6D00" points="45.7,97.9 44.9,98.4 44.9,99.1 45.8,99.5 46.6,99.2 46.6,98.2 	"/>
	<polygon fill="#FF6D00" points="56.6,106.2 58.2,105.6 58.6,105.7 59,106.6 58.9,107 56.9,107 	"/>
	<polygon fill="#FF6D00" points="52.8,112.6 53.6,114.3 57.6,113.6 	"/>
	<polygon fill="#FB8C00" points="45.8,63.7 45.8,63.6 45.6,63.6 44.8,63.2 45.5,62.6 49.4,62.2 49.4,62.5 	"/>
	<polygon fill="#FFB74D" points="49.4,62.2 51.6,62.9 51.1,64.5 50.3,64.4 49.9,63.6 49.4,63.6 49.1,63.1 49.4,62.5 	"/>
	<polygon fill="#FB8C00" points="48.9,69.1 49.8,68.1 51.2,67.8 51.6,68.9 51.6,70.3 49.4,70.5 	"/>
	<polygon fill="#FFB74D" points="48.1,71.7 49.2,70.7 50.5,72.3 49.7,73.8 47.8,72.4 	"/>
	<polygon fill="#FFB74D" points="49.4,76.5 51,73.9 52.1,77.8 50.1,80.4 	"/>
	<polygon fill="#FFA726" points="48.1,81 50.3,79.3 51.2,82 49.9,84.1 48.3,82.7 	"/>
	<polygon fill="#FFB74D" points="47.9,67.4 49.6,69.7 50.4,68.7 50.3,68.1 48,67.4 	"/>
	<polygon fill="#FF9800" points="51.8,72.6 50.8,73 50.8,73.9 51.1,74.3 51.8,74.2 52.4,73.2 52.2,72.4 	"/>
	<polygon fill="#FFCC80" points="48.2,79.2 47.7,77 48.2,76.2 49.3,76.4 50.1,79.7 48.5,79 	"/>
	<polygon fill="#FFB74D" points="48.6,80.4 48.5,80 48.7,79.4 48.8,79.3 48.3,79.1 48.6,79 49.7,79.4 49.7,79.6 48.6,80.5 	"/>
	<polygon fill="#EF6C00" points="49.4,70.8 49.5,70.6 51.8,70.3 52.7,70.7 51.2,72.1 51.1,72.2 51.5,72.6 50.8,72.9 50.8,72.3 
		50.6,72.3 	"/>
	<polygon fill="#FF9800" points="49.6,73.9 49.6,74.6 49,75.4 48.1,75.2 47.9,75.3 48.2,76.3 49.3,76.5 50.8,74.1 50.6,73.9 
		50.7,72.4 50.6,72.4 49.8,73.8 	"/>
	<polygon fill="#FFB74D" points="48.4,71.3 47.5,70.5 48.2,69 48.4,68.4 48.8,68.9 48.7,69.1 49.2,70.4 	"/>
	<polygon fill="#FF9800" points="51,74.9 51.7,74.4 52,73.9 52.7,74 53.2,74.7 53.1,77 52.7,78.5 51.6,78.4 	"/>
	<polygon fill="#FF9800" points="48.7,66.6 48.3,67.6 50,68.2 51.1,68 51.1,67.3 	"/>
	<polygon fill="#FF9800" points="49,75.3 49.5,74.5 49.5,73.6 48.3,72.7 47.2,73.8 47.7,75.2 48.2,75.1 	"/>
	<polygon fill="#FFB74D" points="51,67.6 51.5,67.8 51.9,66.9 52.4,68.8 52.3,69.2 53,70.7 52.9,70.8 51.6,70.3 51.6,68.9 	"/>
	<polygon fill="#EF6C00" points="50.3,80 51.7,78.2 52.6,78.4 51.8,80.9 52.4,80.9 52.6,81.5 52.2,81.4 51.6,82.1 51.6,82.6 
		50.8,82.3 51.1,82 	"/>
	<polygon fill="#FFB74D" points="47.7,85 47.7,84.8 48.1,84.7 48.8,83.2 49.8,84.2 51,82.4 51.5,82.6 52.5,84.6 52.6,84.7 
		52.7,84.8 52.5,84.9 52.6,85 	"/>
	<polygon fill="#FFB74D" points="47.1,88.5 48.1,90.3 48,90.5 47.3,90.7 48,91.3 49.4,90.7 49.4,89.2 48.8,89 	"/>
	<polygon fill="#FFB74D" points="50.5,87.4 52.3,86.2 53.1,87.7 52.6,88.4 	"/>
	<polygon fill="#EF6C00" points="48.6,84.9 49.8,86.4 49.2,87.6 47.8,86.8 47.4,85.6 47.8,84.9 	"/>
	<polygon fill="#FF9800" points="47.8,87.9 49.2,87.6 50.5,87.4 50.5,89 49.4,89.2 48.6,88.9 	"/>
	<polygon fill="#FF9800" points="49.6,86.3 49.8,84.9 51.6,84.9 51.7,85.2 51.4,86.5 50.6,86.7 	"/>
	<polygon fill="#FFCC80" points="49.1,87.7 49.5,86.6 50,86.3 50.8,86.5 51.7,86.2 52.1,86.6 50.9,87.8 	"/>
	<polygon fill="#EF6C00" points="50.5,91.4 49,90 49.2,88.9 49.9,88.4 51.1,88.7 51.9,89.7 51.9,90.6 	"/>
</g>
<g id="Drawing">
	<g id="Tree_Group">
		<polygon fill="#4DB6AC" points="2.2,33.1 0.8,36.9 0.8,49.3 7.3,53.1 2.4,33.1 		"/>
		<polygon fill="#26A69A" points="0.8,41.8 0.8,49.3 7.3,53.1 		"/>
		<polygon fill="#80CBC4" points="2.4,33.1 0.8,41.8 7.1,52.9 4.5,41.8 		"/>
		<polygon fill="#26A69A" points="2.2,33.1 6.1,22.7 3.3,36.7 		"/>
		<polygon fill="#26A69A" points="16.7,58.2 12.3,52.6 4.8,43 7.3,53.1 8.3,53.7 11.1,58.2 		"/>
		<polygon fill="#26A69A" points="16.7,58.2 8.3,53.7 11.1,58.2 		"/>
		<polygon fill="#4DB6AC" points="16.7,58.2 6.1,22.7 7.3,53.1 		"/>
		<polygon fill="#4DB6AC" points="6.8,42.4 7,45.8 4.8,43 3.3,36.7 		"/>
		<polygon fill="#B2DFDB" points="3.3,36.7 6.4,31.7 6.1,22.7 		"/>
		<polygon fill="#80CBC4" points="6.8,42.4 16.7,58.2 7.3,53.1 		"/>
		<polygon fill="#26A69A" points="6.8,42.4 6.4,31.7 3.3,36.7 		"/>
		<polygon fill="#B2DFDB" points="2.3,33.6 5.9,47.3 0.8,41.8 		"/>
		<polygon fill="#26A69A" points="6.1,22.7 6.3,15.7 21.2,8.1 		"/>
		<polygon fill="#4DB6AC" points="6.1,22.7 43.6,0.6 28.7,0.6 		"/>
		<polygon fill="#B2DFDB" points="23.4,12.4 16.7,58.2 6.1,22.7 		"/>
		<polygon fill="#4DB6AC" points="11.4,40 28.9,66.6 16.8,58.2 		"/>
		<polyline fill="#26A69A" points="17.1,58.4 11.4,40 17.9,49.9 16.8,58.2 		"/>
		<polygon fill="#B2DFDB" points="28.9,66.6 37.4,57.7 18.6,44.9 17.9,49.9 		"/>
		<polygon fill="#26A69A" points="28.9,66.6 18.6,44.9 17.9,49.9 37.4,57.7 		"/>
		<polygon fill="#4DB6AC" points="17.9,49.9 18.6,44.9 11.4,40 		"/>
		<polygon fill="#B2DFDB" points="15,58.2 16.7,58.2 20.1,60.5 17.6,60.8 		"/>
		<polygon fill="#E0F2F1" points="11.4,40 23.4,12.4 18.6,44.9 		"/>
		<polygon fill="#E0F2F1" points="25.3,64.1 21.6,64.1 19.8,60.3 		"/>
		<polygon fill="#E0F2F1" points="27.1,62.8 41,66.6 28.9,66.6 		"/>
		<polygon fill="#26A69A" points="31.4,64 28.9,66.6 41,66.6 		"/>
		<polygon fill="#26A69A" points="23.4,12.4 27.1,50.6 18.6,44.9 		"/>
		<polygon fill="#26A69A" points="43.6,0.6 49.2,8.8 61.7,7.6 		"/>
		<polygon fill="#B2DFDB" points="37.4,4.2 43.6,0.6 49.2,8.8 		"/>
		<polygon fill="#B2DFDB" points="23.4,12.4 37.4,4.2 25.3,31.5 		"/>
		<polygon fill="#B2DFDB" points="37.4,4.2 28.7,0.6 23.7,5.5 		"/>
		<polygon fill="#26A69A" points="23.4,12.4 32.9,14.3 39,11.6 37.4,4.2 		"/>
		<polygon fill="#E0F2F1" points="49.2,8.8 37.4,4.2 39,11.6 48.1,11.3 		"/>
		<polygon fill="#4DB6AC" points="32.9,14.3 25.3,31.5 48.1,11.3 39,11.6 		"/>
		<polygon fill="#B2DFDB" points="25.3,31.6 36.3,21.8 37.4,57.8 27.1,50.7 25.3,31.9 		"/>
		<polygon fill="#E0F2F1" points="27.1,50.7 36.7,41.2 37.4,57.8 		"/>
		<polygon fill="#26A69A" points="36.3,21.8 36.8,38.1 48.1,11.3 		"/>
		<polygon fill="#26A69A" points="37.4,57.8 68.1,64.4 37.1,46.3 		"/>
		<polygon fill="#E0F2F1" points="54.4,61.4 45.7,62.4 37.4,57.8 		"/>
		<polygon fill="#B2DFDB" points="45.7,62.4 37.4,57.8 31.4,64 		"/>
		<polygon fill="#E0F2F1" points="45.7,62.4 41,66.6 31.7,64.1 		"/>
		<polygon fill="#E0F2F1" points="61.7,7.6 66.7,6.2 60.2,2.6 55.2,5.1 		"/>
		<polygon fill="#B2DFDB" points="61.7,7.6 69.4,5.1 72.9,11.3 		"/>
		<polygon fill="#4DB6AC" points="72.9,11.3 88.8,13.4 93.4,21.4 		"/>
		<polygon fill="#E0F2F1" points="70.6,7.1 78.6,12.1 72.9,11.3 		"/>
		<polygon fill="#26A69A" points="70.2,6.6 77.5,5.8 82.1,12.5 78.6,12.1 70.6,7.1 		"/>
		<polygon fill="#B2DFDB" points="60.2,2.6 48.4,2.4 55.2,5.1 		"/>
		<polygon fill="#B2DFDB" points="93.4,21.4 87.6,57 97.8,46.7 		"/>
		<polygon fill="#4DB6AC" points="93.8,23.3 97.8,31.3 97.8,46.7 		"/>
		<polygon fill="#E0F2F1" points="92.7,19.9 97.4,22.1 95.8,27.3 93.8,23.3 93.5,21.9 93.4,21.4 92.7,20.2 92.6,20 		"/>
		<polygon fill="#26A69A" points="92.9,24.6 84.1,16.8 93.4,21.4 		"/>
		<polygon fill="#E0F2F1" points="84.1,16.8 91.6,32.9 92.9,24.6 		"/>
		<polygon fill="#E0F2F1" points="87.6,57 79.6,64.4 68.1,64.4 		"/>
		<polygon fill="#4DB6AC" points="54.4,61.4 88.4,52.2 87.6,57 		"/>
		<polygon fill="#4DB6AC" points="27.1,50.7 32.3,45.6 25.9,38.1 		"/>
		<polygon fill="#B2DFDB" points="11.4,40 21.4,26.3 18.6,44.9 11.7,40.4 		"/>
		<polygon fill="#4DB6AC" points="11.4,40 17.4,26.3 16.3,33.3 		"/>
		<polygon fill="#E0F2F1" points="93.8,50.8 96.7,40.4 97.8,46.7 		"/>
		<polygon fill="#26A69A" points="93.8,50.8 93.4,21.4 93.8,23.3 96.7,40.4 		"/>
		<polygon fill="#E0F2F1" points="93.5,26.3 95.1,30.9 93.6,36.1 		"/>
		<polygon fill="#26A69A" points="89.5,55.1 95.4,52.9 95.8,48.8 		"/>
		<polygon fill="#4DB6AC" points="48.1,11.3 49.2,8.8 50.9,8.7 51.8,10.3 		"/>
		<polygon fill="#4DB6AC" points="51.8,10.3 72.9,11.3 61.7,7.6 		"/>
		<polygon fill="#26A69A" points="23.4,12.4 17.4,26.3 18.4,15.4 		"/>
		<polygon fill="#B2DFDB" points="49.6,10.9 45,18.5 48.1,11.3 		"/>
		<polygon fill="#E0F2F1" points="45,18.5 72.9,11.3 51.8,10.3 49.6,10.9 		"/>
		<polygon fill="#4DB6AC" points="88.4,52.2 84.1,17.2 91.6,32.9 85.2,36.5 		"/>
		<polygon fill="#E0F2F1" points="86.4,35.8 91.6,32.9 86.8,39.6 		"/>
		<polygon fill="#26A69A" points="91.6,32.9 86.8,39.6 88.4,52.2 		"/>
		<polygon fill="#4DB6AC" points="93.6,36.1 90.2,41.2 93.8,50.8 		"/>
		<polygon fill="#4DB6AC" points="93.7,45.4 87.6,56.8 93.8,50.8 		"/>
		<polygon fill="#B2DFDB" points="92.9,24.6 90.2,30 91.6,32.9 		"/>
		<polygon fill="#E0F2F1" points="90.9,36.6 93.7,45.4 90.2,41.2 		"/>
		<polygon fill="#26A69A" points="91.7,39 90.2,41.2 93.7,45.4 		"/>
		<polygon fill="#26A69A" points="90.2,30 86.4,35.8 91.6,32.9 		"/>
		<polygon fill="#B2DFDB" points="90.2,30 85,24.3 87.6,19.9 		"/>
		<polygon fill="#B2DFDB" points="84.1,16.8 80.2,54.4 88.4,52.2 86.8,39.6 86.4,35.8 		"/>
		<polygon fill="#26A69A" points="77.2,13.4 82.9,28.7 84.1,16.8 		"/>
		<polygon fill="#26A69A" points="97.8,35 99.3,39 97.8,41 		"/>
		<polygon fill="#B2DFDB" points="96.7,40.4 98.9,42.2 95.4,45.2 		"/>
		<polygon fill="#26A69A" points="97.8,43.1 97.8,41.3 98.9,42.2 		"/>
		<polygon fill="#B2DFDB" points="82.9,28.7 77.2,13.4 72.9,11.3 63.8,13.6 		"/>
		<polygon fill="#26A69A" points="75.6,23 77.2,34.3 74.6,42.8 82.3,34 82.9,28.7 		"/>
		<polygon fill="#E0F2F1" points="74.6,42.8 80.2,54.4 82.3,34 		"/>
		<polygon fill="#4DB6AC" points="74.6,42.8 54.4,46.3 38.1,35 36.8,38.1 37.1,46.3 50.5,54.1 60.3,59.8 		"/>
		<polygon fill="#E0F2FF" points="61.7,7.6 50.9,8.7 51.8,10.3 		"/>
		<polygon fill="#B2DFDB" points="80.2,54.4 74.6,42.8 60.3,59.8 		"/>
		<polygon fill="#B2DFDB" points="54.1,46.1 77.2,34.3 74.6,42.8 54.4,46.3 		"/>
		<polygon fill="#B2DFDB" points="50.9,17 41.9,26 45,18.5 		"/>
		<polygon fill="#B2DFDB" points="40,30.4 45.3,40 38.1,35 		"/>
		<polygon fill="#4DB6AC" points="44.1,23.8 43.4,36.5 40,30.4 41.9,26 		"/>
		<polygon fill="#4DB6AC" points="54.1,46.1 67.9,16.8 75.6,23 77.2,34.3 		"/>
		<polygon fill="#26A69A" points="47.3,20.7 50.3,43.4 45.3,40 43.1,36.1 		"/>
		<polygon fill="#E0F2F1" points="47.3,20.7 43.5,34.9 44.1,23.8 		"/>
		<polygon fill="#B2DFDB" points="47.3,20.7 67.9,16.8 50.9,17 		"/>
		<polygon fill="#4DB6AC" points="67.9,16.8 50.9,17 63.8,13.6 		"/>
		<polygon fill="#B2DFDB" points="54.1,46.1 50.3,43.4 47.3,20.7 67.9,16.8 		"/>
		<polygon fill="#26A69A" points="53.2,43.9 53.2,44.5 55.3,42.7 		"/>
		<polygon fill="#26A69A" points="51.7,43.4 51,43.6 53.2,44.5 53.2,44 		"/>
		<polygon fill="#26A69A" points="51,43.6 51,41.7 51.6,43.4 		"/>
		<polygon fill="#4DB6AC" points="51.7,43.4 51,41.7 49.9,38 55.3,42.7 53.2,43.9 53.2,44 		"/>
		<polygon fill="#4DB6AC" points="48.7,21.4 64.8,18.8 55.7,39.2 53.2,38 		"/>
		<polygon fill="#26A69A" points="49.2,22.2 54.2,21.7 55.6,34.7 54.1,37.7 53.2,37 		"/>
		<polygon fill="#B2DFDB" points="61,20.7 62.4,22.1 57.4,33.6 56.4,36.5 55.6,21.5 		"/>
		<polygon fill="#26A69A" points="61.5,20.6 62.6,21.9 64.3,19.1 61.3,20.4 		"/>
		<polygon fill="#B2DFDB" points="49.1,62 54.7,63.9 57.9,62.2 54.3,61.4 		"/>
		<polygon fill="#26A69A" points="60.6,26.3 55.9,27.2 56.4,36.5 		"/>
		<polygon fill="#26A69A" points="53.2,38 52.9,38.1 55.7,39.5 55.7,39.2 		"/>
		<polygon fill="#26A69A" points="55.7,39.5 64.9,19.1 64.8,18.8 55.7,39.2 		"/>
		<polygon fill="#26A69A" points="52.3,34.5 52.9,38.1 53.2,38 		"/>
		<polygon fill="#4DB6AC" points="26.2,37.7 25.7,31.5 32.7,35.4 31.2,43.9 		"/>
		<polygon fill="#4DB6AC" points="36.1,41.8 29.9,27.5 35.8,22.4 36.3,41.5 		"/>
		<polygon fill="#E0F2F1" points="31.7,44.9 33.3,35.9 35.6,41.1 		"/>
		<polygon fill="#B2DFDB" points="68.1,64.4 61.5,60.5 87.6,57 		"/>
	</g>
</g>
</svg>
