<?xml version="1.0" encoding="utf-8"?>
<!-- Generator: Adobe Illustrator 21.0.0, SVG Export Plug-In . SVG Version: 6.00 Build 0)  -->
<svg version="1.1" id="WarKaung_x5F_Month_x5F_Festival"
	 xmlns="http://www.w3.org/2000/svg" xmlns:xlink="http://www.w3.org/1999/xlink" x="0px" y="0px" viewBox="0 0 100 100"
	 style="enable-background:new 0 0 100 100;" xml:space="preserve">
<style type="text/css">
	.st0{clip-path:url(#XMLID_40_);fill:#26A69A;}
	.st1{clip-path:url(#XMLID_41_);fill:#4DB6AC;}
	.st2{clip-path:url(#XMLID_42_);fill:#4DB6AC;}
	.st3{clip-path:url(#XMLID_43_);fill:#E0F2F1;}
	.st4{clip-path:url(#XMLID_44_);fill:#B2DFDB;}
	.st5{clip-path:url(#XMLID_45_);fill:#B2DFDB;}
	.st6{clip-path:url(#XMLID_46_);fill:#4DB6AC;}
	.st7{clip-path:url(#XMLID_46_);fill:#80CBC4;}
	.st8{clip-path:url(#XMLID_47_);fill:#4DB6AC;}
	.st9{clip-path:url(#XMLID_48_);fill:#4DB6AC;}
	.st10{clip-path:url(#XMLID_49_);fill:#4DB6AC;}
	.st11{clip-path:url(#XMLID_50_);fill:#4DB6AC;}
	.st12{clip-path:url(#XMLID_51_);fill:#4DB6AC;}
	.st13{clip-path:url(#XMLID_52_);fill:#E0F2F1;}
	.st14{clip-path:url(#XMLID_53_);fill:#B2DFDB;}
	.st15{clip-path:url(#XMLID_54_);fill:#B2DFDB;}
	.st16{clip-path:url(#XMLID_55_);fill:#4DB6AC;}
	.st17{clip-path:url(#XMLID_55_);fill:#80CBC4;}
	.st18{clip-path:url(#XMLID_56_);fill:#4DB6AC;}
	.st19{clip-path:url(#XMLID_57_);fill:#4DB6AC;}
	.st20{clip-path:url(#XMLID_58_);fill:#4DB6AC;}
	.st21{clip-path:url(#XMLID_59_);fill:#E0F2F1;}
	.st22{clip-path:url(#XMLID_60_);fill:#795548;}
	.st23{clip-path:url(#XMLID_60_);fill:#6D4C41;}
	.st24{clip-path:url(#XMLID_60_);fill:#FFFDE7;}
	.st25{clip-path:url(#XMLID_60_);fill:#FFF9C4;stroke:#000000;stroke-width:0.11;stroke-linecap:round;stroke-miterlimit:10;}
	.st26{clip-path:url(#XMLID_61_);fill:#FFE0B2;}
	.st27{fill:none;stroke:#000000;stroke-width:0.25;stroke-miterlimit:10;}
	.st28{fill:none;stroke:#000000;stroke-width:0.25;stroke-linecap:round;stroke-miterlimit:10;}
	.st29{clip-path:url(#XMLID_62_);fill:#FFE0B2;}
	.st30{fill:#BF360C;}
	.st31{clip-path:url(#XMLID_63_);fill:#D84315;}
	.st32{clip-path:url(#XMLID_64_);fill:#BF360C;}
	.st33{clip-path:url(#XMLID_64_);fill:#D84315;}
	.st34{clip-path:url(#XMLID_65_);fill:#FFF9C4;}
	.st35{clip-path:url(#XMLID_65_);fill:#FFF59D;}
	.st36{clip-path:url(#XMLID_65_);fill:#D84315;}
	.st37{clip-path:url(#XMLID_66_);fill:#BF360C;}
	.st38{clip-path:url(#XMLID_66_);fill:#D84315;}
	.st39{fill:#D84315;stroke:#000000;stroke-width:0.25;stroke-linecap:round;stroke-miterlimit:10;}
	.st40{fill:#FFF9C4;stroke:#000000;stroke-width:0.25;stroke-linecap:round;stroke-miterlimit:10;}
	.st41{clip-path:url(#XMLID_67_);fill:#BF360C;}
	.st42{clip-path:url(#XMLID_67_);fill:#D84315;}
	.st43{clip-path:url(#XMLID_68_);fill:#BF360C;}
	.st44{clip-path:url(#XMLID_68_);fill:#D84315;}
	.st45{clip-path:url(#XMLID_69_);fill:#BF360C;}
	.st46{clip-path:url(#XMLID_69_);fill:#D84315;}
	.st47{clip-path:url(#XMLID_70_);fill:#D84315;}
	.st48{clip-path:url(#XMLID_70_);fill:#BF360C;}
	.st49{fill:#FFCC80;stroke:#000000;stroke-width:0.25;stroke-linecap:round;stroke-miterlimit:10;}
	.st50{clip-path:url(#XMLID_72_);fill:#D84315;}
	.st51{clip-path:url(#XMLID_73_);fill:#D84315;}
	.st52{clip-path:url(#XMLID_74_);fill:#BF360C;}
	.st53{clip-path:url(#XMLID_75_);fill:#BF360C;}
	.st54{clip-path:url(#XMLID_76_);fill:#BF360C;}
	.st55{clip-path:url(#XMLID_77_);fill:#F4511E;}
	.st56{clip-path:url(#XMLID_77_);fill:#BF360C;}
	.st57{fill:#E64A19;}
	.st58{fill:#666666;}
</style>
<g id="WarKaung_x5F_Out_x5F_Khan">
	<g>
		<defs>
			<path id="XMLID_37_" d="M49.1,85.7c0,0-3.7-0.4-4.3-0.8c-0.6-0.4-1.5-1.5-1.3-2.5s0.7-2,1.3-2.4s0.5-0.1,0.8-0.8
				c0.4-0.7-0.6-0.7-0.6-1.5s-0.8-2.2-0.7-3c0.1-0.8,0.6-3.2,1.1-3.8c0.5-0.7,3.1-4.5,3.6-4c0.5,0.5,2.6,2.7,3,3.2
				c0.4,0.5,1.4,3,1.5,3.6c0.1,0.5,0.2,1.4,0.1,2.2c-0.2,0.8-0.6,2-1,2.7c-0.4,0.7,0,1,0,1s1.5,1,1.7,1.8c0.2,0.8,0.1,2.2-0.2,2.7
				c-0.3,0.5-1.2,1.2-2.1,1.3C51.1,85.5,49.1,85.7,49.1,85.7z"/>
		</defs>
		<use xlink:href="#XMLID_37_"  style="overflow:visible;fill:#4DB6AC;"/>
		<clipPath id="XMLID_40_">
			<use xlink:href="#XMLID_37_"  style="overflow:visible;"/>
		</clipPath>
		<path class="st0" d="M48.8,87.4c-2.4-4-3.1-2.7-3.2-4.2c-0.1-1.5,0-2.3,0.8-3.4c0.8-1.1,0.8-1.1,0.7-2.7s-0.7-0.7-0.7-3.1
			c0-2.4-0.3-2.4,0.2-4c0.5-1.6-1-2.5,1.2-4.4c2.3-1.9,1.3-2.3,3.8-2c2.5,0.3,3.5,2.6,4.1,3c0.6,0.4-5.7,7.7-6.1,8.9
			s-0.2,3.7,0.4,4.6c0.6,0.9,2.8,1.6,2.5,3.1c-0.3,1.5-3.2,4.5-3.2,4.5L48.8,87.4z"/>
		<use xlink:href="#XMLID_37_"  style="overflow:visible;fill:none;stroke:#000000;stroke-width:0.25;stroke-miterlimit:10;"/>
	</g>
	<g id="WarKaung_x5F_KyarPan_x5F_Left">
		<g>
			<defs>
				<path id="XMLID_19_" d="M48.7,85.7c-0.6,0-3.2-0.2-3.9-0.5c-0.7-0.3-0.6-0.7-1.4-0.8c-0.8-0.1-2.5,1.1-2.8,1.1s-1-2.3-1.2-2.3
					c-0.1,0-0.5,0.3-1.5,0.7c-1,0.4-4.3,0-4.9-0.1c-0.6,0-2.7,0.8-3.1,1s-0.1-1.5,0-4.2c-0.6,1.3-4.9,1.1-6.4,0.7
					c-1.5-0.3-3.8-2.3-4-2.4c-0.2-0.1-0.1-0.2-0.7-0.2c-0.3-0.6,1.6-2.9,1.7-3c0.1-0.1,0-0.4-0.2-0.4s-1.2-0.8-1.6-1.4
					c-0.4-0.6-0.5-1.6-0.6-2.1c-0.1-0.5-1-1.8-1-2s0.1-0.2,0.4,0c0.3,0.2,1.4,0.2,1.8,0.2c0.4,0,0.9-0.3,1.3-0.4
					c0.4-0.1,1.2,0.3,1.3,0.4c0,0.1,0.2,0,0.7,0c-0.2-0.1-2.8-8.1-2.8-8.4c0-0.3,0.3-0.2,0.6,0c0.3,0.2,1,0.2,1.5,0.6
					c0.5,0.4,2.3,0.1,2.7,0.2s2.1,0.8,2.1,0.8l0.3-0.4c0,0-0.1-0.6,0-0.9c0.1-0.2,0.9,0.2,0.9,0.2s-0.2,1.2,1.7,1.9
					c2,0.7,8.7,2.6,12.6,2.3c4,0.2,6.7,0.2,6.7,0.2s-3.6,3.5-3.8,4.3c-0.4,0.9-0.9,2.5-0.9,3.4c0,1,0.4,3.4,1.2,4.1
					c0.2,0.2,0,0.7-0.2,0.8c-0.2,0.1-1.8,1.2-1.9,2.6c-0.1,1.4,0.7,2.4,1,2.7c0.4,0.2,1.5,0.5,1.5,0.5L48.7,85.7z"/>
			</defs>
			<use xlink:href="#XMLID_19_"  style="overflow:visible;fill:#26A69A;"/>
			<clipPath id="XMLID_41_">
				<use xlink:href="#XMLID_19_"  style="overflow:visible;"/>
			</clipPath>
			<path class="st1" d="M22.9,60.5c1.4,0.7,4.3,2.4,4.7,3c0.4,0.6,3,1.4,3.8,1.7c0.8,0.3,5.3,1.8,6.8,1.9s5.7,0.9,6.8,0.8
				c1.1-0.1,2.5,0.4,2.8,0c0.4-0.4,1.8,1.1,1.9,1.7c0.1,0.5-0.2,5.1-0.8,6.7c-0.6,1.6-1.5,4.4-2.9,4.9c-1.3,0.6-2.5,1.2-3.8,2
				c-1.3,0.8-1.6,1.3-1.6,1.3s0.7,0.9,0-1.1c-0.7-2-2.4-11.3-3-12.3c-0.5-1-0.9-1.2-1.3-1.6s-0.8-0.6-0.9-1.5
				c-0.1-0.9-0.2-0.7-0.8-1.4c-0.6-0.7-4.7-1.4-5.6-1.6c-0.8-0.2-1.8,0.4-2.3-0.9S22.9,60.5,22.9,60.5z"/>
			
				<use xlink:href="#XMLID_19_"  style="overflow:visible;fill:none;stroke:#000000;stroke-width:0.25;stroke-linecap:round;stroke-miterlimit:10;"/>
		</g>
		<g>
			<defs>
				<path id="XMLID_27_" d="M45.6,78.7c0,0-4,0.5-4.8,0.2S38,77.6,37.7,77s-1.2-2.7-1.2-3.6s0.4-2.6,1-3.5s1.3-2.5,1.6-2.6
					c0.3-0.4,1.4,0.3,1.9,1.1c0.5,0.8,1.3,2.4,1.4,3c0.1,0.6,0.6,3.7,0.8,4.2s0.7,1.8,1.2,1.9C44.9,77.4,45.6,78.7,45.6,78.7z"/>
			</defs>
			<use xlink:href="#XMLID_27_"  style="overflow:visible;fill:#26A69A;"/>
			<clipPath id="XMLID_42_">
				<use xlink:href="#XMLID_27_"  style="overflow:visible;"/>
			</clipPath>
			<path class="st2" d="M46.9,79.8c0,0,2.5,3.3-1.3-0.1s-4.2,0.1-5.6-3.6c-1.4-3.7-1.4-2.6-1.4-4.5c-0.1-1.8,0.1-2.3-0.3-3.2
				c-0.4-0.9-3.1-3-0.7-1.7C39.9,68.1,46.9,79.8,46.9,79.8z"/>
			
				<use xlink:href="#XMLID_27_"  style="overflow:visible;fill:none;stroke:#000000;stroke-width:0.25;stroke-linecap:round;stroke-miterlimit:10;"/>
		</g>
		<g>
			<defs>
				<path id="XMLID_26_" d="M41.1,68.3c0,0,0.3-1.1,0.3-1.3c0.3-0.2,2.1,1,2.3,1.3s1,0.8,1.4,2.6c0,1.3-0.8,3-0.7,3.7
					c0.1,0.7,0.4,3,0.4,3s-1.1-0.8-1.2-1.6s-0.9-2.8-0.9-3.7S41.4,68.3,41.1,68.3z"/>
			</defs>
			<use xlink:href="#XMLID_26_"  style="overflow:visible;fill:#26A69A;"/>
			<clipPath id="XMLID_43_">
				<use xlink:href="#XMLID_26_"  style="overflow:visible;"/>
			</clipPath>
			<path class="st3" d="M45.7,77.6c-1.1-1.3-1.7-1.8-1.9-2.9c-0.2-1.1-0.2-1.6-0.3-2.9c-0.1-1.3-0.2-1-0.5-2.2
				c-0.3-1.2-0.5-0.8-0.5-1.6c0.1-0.9-0.7-2.5,0.5-0.8c1.2,1.7,1.9,3.8,2,4.2s1,4.6,1,4.8S45.7,77.6,45.7,77.6z"/>
			
				<use xlink:href="#XMLID_26_"  style="overflow:visible;fill:none;stroke:#000000;stroke-width:0.25;stroke-linecap:round;stroke-miterlimit:10;"/>
		</g>
		<g>
			<defs>
				<path id="XMLID_25_" d="M36.7,71.8c0,0-0.4,1.9-0.2,2.2c0.1,0.3,0.7,2.6,1.2,3.1c0.5,0.5,2.5,1.7,3.1,1.9
					c-1.4,0.3-3.5,0.3-4.1,0c-0.6-0.3-2.3-1-2.7-1.3s-1.9-1.2-2.2-1.6c-0.3-0.4-2.3-5.1-2.3-6.4c-0.3-1.4-0.5-3.1-0.7-3.2
					c-0.3-0.1,3.1,1,3.7,1.4s2.6,1.6,3.1,2.2C36.1,70.6,36.7,71.8,36.7,71.8z"/>
			</defs>
			<use xlink:href="#XMLID_25_"  style="overflow:visible;fill:#26A69A;"/>
			<clipPath id="XMLID_44_">
				<use xlink:href="#XMLID_25_"  style="overflow:visible;"/>
			</clipPath>
			<path class="st4" d="M39.7,79c-3.7-4.3-3.4-3.8-4.1-5.7s0.2-1.1-0.8-2.9c-1-1.7,0.3-2.1-2.4-3.6c-2.7-1.5-4.3-2.6-5.5-1.5
				c-1.2,1-2,2.9-1.1,5.3s2.4,5.3,3.2,6s2.9,2.2,4.2,2.3c1.3,0.1,6,0.6,6.2,0.5C39.7,79.4,39.7,79,39.7,79"/>
			
				<use xlink:href="#XMLID_25_"  style="overflow:visible;fill:none;stroke:#000000;stroke-width:0.25;stroke-linecap:round;stroke-miterlimit:10;"/>
		</g>
		<g>
			<defs>
				<path id="XMLID_24_" d="M43.8,79c-0.2,0.1-2.2-0.2-3-0.1C40,79,38.1,79.4,37.2,79c-1-0.3-2.6-1-3.2-1.4
					c-0.8,0.4-1.9,0.7-2.3,1.2c-0.5,0.5-1.3,1-1.5,1.7s-0.4,3.3-0.2,3.9c0.2,0.6-0.6,0.9,0.2,0.6s2.6-1.1,3.1-1s4.1,0.5,4.6,0.1
					c0.5-0.4,0.3-0.1,1.8-0.7c1.4-0.7,2.8-1.9,3-2.3c0.2-0.4,0.6-1.1,1.1-1.3s0.9-0.7,0.6-0.7C43.8,79,43.8,79,43.8,79z"/>
			</defs>
			<use xlink:href="#XMLID_24_"  style="overflow:visible;fill:#26A69A;"/>
			<clipPath id="XMLID_45_">
				<use xlink:href="#XMLID_24_"  style="overflow:visible;"/>
			</clipPath>
			<path class="st5" d="M28.8,86.3c2.3-1.1,3.4-1.7,4.3-3c1-1.3,0.3-1.1,1.7-2.5c1.4-1.4,1.4-1.8,2.6-2.1c1.1-0.4,2.8-1.1,4.3-1.1
				c1.5,0,3,0.4,3.4,0.4c0.4,0,1,0.6-0.3,1.1c-1.3,0.6-2.2,0.2-2.6,0.4c-0.4,0.2-0.7,0.5-0.9,0.8s-0.1,0-0.8,1
				c-0.7,1-1.8,1.7-2.2,1.7s-6.4,0.8-7,0.4c-0.6-0.5-1.5-0.7-2.2,0.3S28.8,86.3,28.8,86.3z"/>
			
				<use xlink:href="#XMLID_24_"  style="overflow:visible;fill:none;stroke:#000000;stroke-width:0.25;stroke-linecap:round;stroke-miterlimit:10;"/>
		</g>
		<g>
			<defs>
				<path id="XMLID_23_" d="M34,77.6c0,0-1.9-1.1-2.2-1.6c-0.2-0.4,0-0.7-0.6-0.7c-0.6,0-2.5-0.3-3-0.7c-0.6-0.4-1.3-1-1.9-1.1
					c-0.7,0-2.1,0.2-2.9,0.5c-0.8,0.3-1.7,0.9-2.1,1.2c-0.5,0.3-1.2,1.4-1.6,2.1c-0.4,0.7-1.1,1.4-0.6,1.5c0.5,0.1,1.7,1,2.1,1.2
					c0.4,0.3,2,1.3,2.6,1.4c0.6,0.1,3.4,0.3,3.9,0.2c0.5,0,2.4-0.4,2.5-0.9s1.2-1.7,1.6-2S34,77.6,34,77.6z"/>
			</defs>
			<use xlink:href="#XMLID_23_"  style="overflow:visible;fill:#26A69A;"/>
			<clipPath id="XMLID_46_">
				<use xlink:href="#XMLID_23_"  style="overflow:visible;"/>
			</clipPath>
			<path class="st6" d="M32.5,76.6c-1-0.1-4.8-0.7-6.1-0.5s-4.6,0.9-5.1,1.4c-0.5,0.6-2.3,1-2.5,1.1c-0.2,0,1,1.7,1.5,1.8
				c0.5,0.1,2.9,0.2,4,0c1.1-0.3,4.6-0.8,5.7-1.4C31,78.4,32.5,76.6,32.5,76.6"/>
			<path class="st7" d="M31.9,76.1c-2-0.4-2.6-0.6-3.9-0.7c-1.3-0.1-1.5,0.4-2.9,0c-1.4-0.4-1.2-0.5-2.2-0.7c-1-0.2,0.8-1.1,1.7-1.1
				c0.9,0,2.3-0.1,2.6,0.2C27.6,74.2,31.9,76.1,31.9,76.1"/>
			
				<use xlink:href="#XMLID_23_"  style="overflow:visible;fill:none;stroke:#000000;stroke-width:0.25;stroke-linecap:round;stroke-miterlimit:10;"/>
		</g>
		<g>
			<defs>
				<path id="XMLID_21_" d="M31.5,75.3c-0.4-1-0.7-1.6-1-1.6c-0.4,0-2.4-2.2-4.2-2.4c-1.7-0.3-2.2-0.4-2.8-0.7
					c-0.5-0.3-0.7-0.3-0.7-0.3s-0.5,0.1-0.7,0s-0.7-0.6-1.3-0.4c-0.6,0.2-2.5,0.6-3.1,0.2c-0.6-0.5-0.6-0.3-0.4,0s1,1.6,1,2
					c0.1,0.4,0.3,1.7,0.6,2.1c0.4,0.4,1.2,1.4,1.6,1.4c0.4,0,0.2,0.1,0.6-0.2c0.4-0.3,1.5-1.1,2.1-1.2c0.6-0.2,2.3-0.6,2.9-0.5
					c0.6,0.2,1.3,0.8,1.9,1.1S31.5,75.3,31.5,75.3z"/>
			</defs>
			<use xlink:href="#XMLID_21_"  style="overflow:visible;fill:#26A69A;"/>
			<clipPath id="XMLID_47_">
				<use xlink:href="#XMLID_21_"  style="overflow:visible;"/>
			</clipPath>
			<path class="st8" d="M31.5,75.3c-0.5,0-1.2-0.2-1.7-0.3s-1.1,0-1.6-0.4c-0.5-0.4-1.3-1.2-1.9-1.1c-0.6,0.1,1.1,0.1,1.5,0.1
				c0.4,0,0-0.5-0.4-0.6c-0.4-0.1-0.9-0.2-1.3-0.3c-0.4-0.1-1.5-0.4-0.7-0.5s0.7-0.3,1.4,0s0.8,0,0.8,0s0.2,0-0.6-0.3
				c-0.7-0.3-0.7-0.8-0.7-0.8s0.5,0,1.3,0.2c0.7,0.2,1.5,0.5,1.8,1.1s1.7,1,1.9,1.4S31.5,75.3,31.5,75.3"/>
			<path class="st8" d="M17.3,69.9c1,0.8,2.5,1.5,2.6,2.2s0,1.1,0.4,1.4s0.4,0.4,0.8,0.5c0.4,0.1,0.8,0,1.4,0c0.5,0,1.5-0.4,1.7-0.3
				c0.2,0.1-2,1.4-2.4,1.7c-0.4,0.3,0.3,1.1-1.3,0.5c-1.6-0.6-2.3,0-2.9-1.3C17,73.5,17,70.9,17,70.9L17.3,69.9"/>
			
				<use xlink:href="#XMLID_21_"  style="overflow:visible;fill:none;stroke:#000000;stroke-width:0.25;stroke-linecap:round;stroke-miterlimit:10;"/>
		</g>
		<g>
			<defs>
				<path id="XMLID_20_" d="M29.2,67.3c-0.6-2.4-0.4-1.9-1.2-2.7c-0.8-0.8-1.4-1.2-2-1.5s-0.4-0.5-1.3-0.5s-1.3,0.1-1.9,0
					c-0.5-0.1-2-0.6-2.4-0.8c-0.4-0.2-0.7-0.4-0.6,0c0.1,0.4,2.5,8.3,2.8,8.4c0.3,0.1,0.3,0.2,0.9,0.4c0.5,0.2,2.1,0.3,3.2,0.8
					c1,0.5,2.9,2.1,3.4,2.2c0.5,0.1,0.5-0.1,0.5-0.1s-1.7-4.6-1.3-5.1C29.2,67.4,29.2,67.3,29.2,67.3z"/>
			</defs>
			<use xlink:href="#XMLID_20_"  style="overflow:visible;fill:#26A69A;"/>
			<clipPath id="XMLID_48_">
				<use xlink:href="#XMLID_20_"  style="overflow:visible;"/>
			</clipPath>
			<path class="st9" d="M30.7,73.6c0,0-1.8-0.8-2.1-1c-0.3-0.2-1.3-1-1.8-1.2c-0.6-0.1-2.3-0.4-2.5-0.5c-0.2-0.1-0.8-1.2-0.8-1.5
				c0-0.4,2,0.3,2.3,0.6c0.3,0.3-1.8-2.8-1.5-3.3c0.3-0.6,2.9,0.8,3.4,1.5c0.5,0.7,0-0.3,0-1.2c0-0.8,0.1-1.1,0.7-0.6
				s1.2,1.8,1.3,2.4C29.8,69.5,30.7,73.6,30.7,73.6"/>
			
				<use xlink:href="#XMLID_20_"  style="overflow:visible;fill:none;stroke:#000000;stroke-width:0.25;stroke-linecap:round;stroke-miterlimit:10;"/>
		</g>
		<g>
			<defs>
				<path id="XMLID_22_" d="M35.6,70c-0.2-1.2-1.1-2.5-1.4-2.7c-0.3-0.2-1.9-1.3-2.5-1.5s-1.5-0.5-2.1-0.4s-0.7-0.2-0.8,0
					c-0.1,0.2,0,0.5,0,0.7c0,0.2-0.1,0.4,0.3,0.5c0.5,0.1,3.2,1.2,3.5,1.4S35.6,70,35.6,70z"/>
			</defs>
			<use xlink:href="#XMLID_22_"  style="overflow:visible;fill:#26A69A;"/>
			<clipPath id="XMLID_49_">
				<use xlink:href="#XMLID_22_"  style="overflow:visible;"/>
			</clipPath>
			<path class="st10" d="M35.6,69.7c-0.9-1.2-1.4-1.8-2.2-2.3c-0.7-0.5-1.4-0.9-2.3-1.1s-1-0.3-1.4-0.4c-0.4-0.1-0.4-0.5-0.7-0.2
				c-0.3,0.3-0.4,0.7-0.1,0.8C29.1,66.5,35.6,69.7,35.6,69.7"/>
			
				<use xlink:href="#XMLID_22_"  style="overflow:visible;fill:none;stroke:#000000;stroke-width:0.25;stroke-linecap:round;stroke-miterlimit:10;"/>
		</g>
	</g>
	<g id="WarKaung_x5F_KyarPan_x5F_Right">
		<g>
			<defs>
				<path id="XMLID_36_" d="M49.4,85.7c0.6,0,3.2-0.2,3.9-0.5c0.7-0.3,0.6-0.7,1.4-0.8c0.8-0.1,2.5,1.1,2.8,1.1s1-2.3,1.2-2.3
					c0.1,0,0.5,0.3,1.5,0.7c1,0.4,4.3,0,4.9-0.1c0.6,0,2.7,0.8,3.1,1c0.4,0.2,0.1-1.5,0-4.2c0.6,1.3,4.9,1.1,6.4,0.7
					c1.5-0.3,3.8-2.3,4-2.4s0.1-0.2,0.7-0.2c0.3-0.6-1.6-2.9-1.7-3c-0.1-0.1,0-0.4,0.2-0.4s1.2-0.8,1.6-1.4c0.4-0.6,0.5-1.6,0.6-2.1
					c0.1-0.5,1-1.8,1-2c0.1-0.2-0.1-0.2-0.4,0c-0.3,0.2-1.4,0.2-1.8,0.2s-0.9-0.3-1.3-0.4s-1.2,0.3-1.3,0.4c0,0.1-0.2,0-0.7,0
					c0.2-0.1,2.8-8.1,2.8-8.4c0-0.3-0.3-0.2-0.6,0c-0.3,0.2-1,0.2-1.5,0.6c-0.5,0.4-2.3,0.1-2.7,0.2c-0.4,0.1-2.1,0.8-2.1,0.8L71,63
					c0,0,0.1-0.6,0-0.9c-0.1-0.2-0.9,0.2-0.9,0.2s0.2,1.2-1.7,1.9c-2,0.7-8.7,2.6-12.6,2.3c-4,0.2-6.7,0.2-6.7,0.2s3.6,3.5,3.8,4.3
					c0.4,0.9,0.9,2.5,0.9,3.4c0,1-0.4,3.4-1.2,4.1c-0.2,0.2,0,0.7,0.2,0.8c0.2,0.1,1.8,1.2,1.9,2.6c0.1,1.4-0.7,2.4-1,2.7
					c-0.4,0.2-1.5,0.5-1.5,0.5L49.4,85.7z"/>
			</defs>
			<use xlink:href="#XMLID_36_"  style="overflow:visible;fill:#26A69A;"/>
			<clipPath id="XMLID_50_">
				<use xlink:href="#XMLID_36_"  style="overflow:visible;"/>
			</clipPath>
			<path class="st11" d="M75.2,60.5c-1.4,0.7-4.3,2.4-4.7,3c-0.4,0.6-3,1.4-3.8,1.7c-0.8,0.3-5.3,1.8-6.8,1.9S54.2,68,53.1,68
				c-1.1-0.1-2.5,0.4-2.8,0c-0.4-0.4-1.8,1.1-1.9,1.7c-0.1,0.5,0.2,5.1,0.8,6.7c0.6,1.6,1.5,4.4,2.9,4.9c1.3,0.6,2.5,1.2,3.8,2
				c1.3,0.8,1.6,1.3,1.6,1.3s-0.7,0.9,0-1.1c0.7-2,2.4-11.3,3-12.3c0.5-1,0.9-1.2,1.3-1.6s0.8-0.6,0.9-1.5c0.1-0.9,0.2-0.7,0.8-1.4
				c0.6-0.7,4.7-1.4,5.6-1.6c0.8-0.2,1.8,0.4,2.3-0.9S75.2,60.5,75.2,60.5z"/>
			
				<use xlink:href="#XMLID_36_"  style="overflow:visible;fill:none;stroke:#000000;stroke-width:0.25;stroke-linecap:round;stroke-miterlimit:10;"/>
		</g>
		<g>
			<defs>
				<path id="XMLID_35_" d="M52.5,78.7c0,0,4,0.5,4.8,0.2s2.8-1.3,3.1-1.9s1.2-2.7,1.2-3.6s-0.4-2.6-1-3.5s-1.3-2.5-1.6-2.6
					c-0.3-0.4-1.4,0.3-1.9,1.1c-0.5,0.8-1.3,2.4-1.4,3c-0.1,0.6-0.6,3.7-0.8,4.2s-0.7,1.8-1.2,1.9C53.3,77.4,52.5,78.7,52.5,78.7z"
					/>
			</defs>
			<use xlink:href="#XMLID_35_"  style="overflow:visible;fill:#26A69A;"/>
			<clipPath id="XMLID_51_">
				<use xlink:href="#XMLID_35_"  style="overflow:visible;"/>
			</clipPath>
			<path class="st12" d="M51.2,79.8c0,0-2.5,3.3,1.3-0.1s4.2,0.1,5.6-3.6c1.4-3.7,1.4-2.6,1.4-4.5c0.1-1.8-0.1-2.3,0.3-3.2
				s3.1-3,0.7-1.7C58.2,68.1,51.2,79.8,51.2,79.8z"/>
			
				<use xlink:href="#XMLID_35_"  style="overflow:visible;fill:none;stroke:#000000;stroke-width:0.25;stroke-linecap:round;stroke-miterlimit:10;"/>
		</g>
		<g>
			<defs>
				<path id="XMLID_34_" d="M57.1,68.3c0,0-0.3-1.1-0.3-1.3c-0.3-0.2-2.1,1-2.3,1.3s-1,0.8-1.4,2.6c0,1.3,0.8,3,0.7,3.7
					c-0.1,0.7-0.4,3-0.4,3s1.1-0.8,1.2-1.6c0.2-0.7,0.9-2.8,0.9-3.7C55.4,71.4,56.8,68.3,57.1,68.3z"/>
			</defs>
			<use xlink:href="#XMLID_34_"  style="overflow:visible;fill:#26A69A;"/>
			<clipPath id="XMLID_52_">
				<use xlink:href="#XMLID_34_"  style="overflow:visible;"/>
			</clipPath>
			<path class="st13" d="M52.4,77.6c1.1-1.3,1.7-1.8,1.9-2.9c0.2-1.1,0.2-1.6,0.3-2.9c0.1-1.3,0.2-1,0.5-2.2
				c0.3-1.2,0.5-0.8,0.5-1.6c-0.1-0.9,0.7-2.5-0.5-0.8c-1.2,1.7-1.9,3.8-2,4.2s-1,4.6-1,4.8S52.4,77.6,52.4,77.6z"/>
			
				<use xlink:href="#XMLID_34_"  style="overflow:visible;fill:none;stroke:#000000;stroke-width:0.25;stroke-linecap:round;stroke-miterlimit:10;"/>
		</g>
		<g>
			<defs>
				<path id="XMLID_33_" d="M61.4,71.8c0,0,0.4,1.9,0.2,2.2s-0.7,2.6-1.2,3.1c-0.5,0.5-2.5,1.7-3.1,1.9c1.4,0.3,3.5,0.3,4.1,0
					c0.6-0.3,2.3-1,2.7-1.3c0.5-0.3,1.9-1.2,2.2-1.6c0.3-0.4,2.3-5.1,2.3-6.4c0.3-1.4,0.5-3.1,0.7-3.2c0.3-0.1-3.1,1-3.7,1.4
					c-0.6,0.4-2.6,1.6-3.1,2.2C62,70.6,61.4,71.8,61.4,71.8z"/>
			</defs>
			<use xlink:href="#XMLID_33_"  style="overflow:visible;fill:#26A69A;"/>
			<clipPath id="XMLID_53_">
				<use xlink:href="#XMLID_33_"  style="overflow:visible;"/>
			</clipPath>
			<path class="st14" d="M58.4,79c3.7-4.3,3.4-3.8,4.1-5.7c0.6-1.9-0.2-1.1,0.8-2.9c1-1.7-0.3-2.1,2.4-3.6c2.7-1.5,4.3-2.6,5.5-1.5
				c1.2,1,2,2.9,1.1,5.3s-2.4,5.3-3.2,6s-2.9,2.2-4.2,2.3c-1.3,0.1-6,0.6-6.2,0.5C58.4,79.4,58.4,79,58.4,79"/>
			
				<use xlink:href="#XMLID_33_"  style="overflow:visible;fill:none;stroke:#000000;stroke-width:0.25;stroke-linecap:round;stroke-miterlimit:10;"/>
		</g>
		<g>
			<defs>
				<path id="XMLID_32_" d="M54.3,79c0.2,0.1,2.2-0.2,3-0.1c0.8,0.1,2.7,0.4,3.6,0.1c1-0.3,2.6-1,3.2-1.4c0.8,0.4,1.9,0.7,2.3,1.2
					s1.3,1,1.5,1.7s0.4,3.3,0.2,3.9c-0.2,0.6,0.6,0.9-0.2,0.6s-2.6-1.1-3.1-1c-0.4,0-4.1,0.5-4.6,0.1c-0.5-0.4-0.3-0.1-1.8-0.7
					c-1.4-0.7-2.8-1.9-3-2.3c-0.2-0.4-0.6-1.1-1.1-1.3S53.7,79,54,79C54.3,79,54.3,79,54.3,79z"/>
			</defs>
			<use xlink:href="#XMLID_32_"  style="overflow:visible;fill:#26A69A;"/>
			<clipPath id="XMLID_54_">
				<use xlink:href="#XMLID_32_"  style="overflow:visible;"/>
			</clipPath>
			<path class="st15" d="M69.3,86.3c-2.3-1.1-3.4-1.7-4.3-3c-1-1.3-0.3-1.1-1.7-2.5c-1.4-1.4-1.4-1.8-2.6-2.1
				c-1.1-0.4-2.8-1.1-4.3-1.1c-1.5,0-3,0.4-3.4,0.4s-1,0.6,0.3,1.1c1.3,0.6,2.2,0.2,2.6,0.4c0.4,0.2,0.7,0.5,0.9,0.8
				c0.3,0.3,0.1,0,0.8,1c0.7,1,1.8,1.7,2.2,1.7c0.4,0,6.4,0.8,7,0.4s1.5-0.7,2.2,0.3C69.9,84.7,69.3,86.3,69.3,86.3z"/>
			
				<use xlink:href="#XMLID_32_"  style="overflow:visible;fill:none;stroke:#000000;stroke-width:0.25;stroke-linecap:round;stroke-miterlimit:10;"/>
		</g>
		<g>
			<defs>
				<path id="XMLID_31_" d="M64.1,77.6c0,0,1.9-1.1,2.2-1.6c0.2-0.4,0-0.7,0.6-0.7c0.6,0,2.5-0.3,3-0.7c0.6-0.4,1.3-1,1.9-1.1
					c0.7,0,2.1,0.2,2.9,0.5c0.8,0.3,1.7,0.9,2.1,1.2c0.5,0.3,1.2,1.4,1.6,2.1c0.4,0.7,1.1,1.4,0.6,1.5c-0.5,0.1-1.7,1-2.1,1.2
					c-0.4,0.3-2,1.3-2.6,1.4s-3.4,0.3-3.9,0.2c-0.5,0-2.4-0.4-2.5-0.9s-1.2-1.7-1.6-2S64.1,77.6,64.1,77.6z"/>
			</defs>
			<use xlink:href="#XMLID_31_"  style="overflow:visible;fill:#26A69A;"/>
			<clipPath id="XMLID_55_">
				<use xlink:href="#XMLID_31_"  style="overflow:visible;"/>
			</clipPath>
			<path class="st16" d="M65.6,76.6c1-0.1,4.8-0.7,6.1-0.5c1.3,0.2,4.6,0.9,5.1,1.4s2.3,1,2.5,1.1c0.2,0-1,1.7-1.5,1.8
				c-0.5,0.1-2.9,0.2-4,0c-1.1-0.3-4.6-0.8-5.7-1.4C67.1,78.4,65.6,76.6,65.6,76.6"/>
			<path class="st17" d="M66.2,76.1c2-0.4,2.6-0.6,3.9-0.7c1.3-0.1,1.5,0.4,2.9,0c1.4-0.4,1.2-0.5,2.2-0.7c1-0.2-0.8-1.1-1.7-1.1
				c-0.9,0-2.3-0.1-2.6,0.2C70.6,74.2,66.2,76.1,66.2,76.1"/>
			
				<use xlink:href="#XMLID_31_"  style="overflow:visible;fill:none;stroke:#000000;stroke-width:0.25;stroke-linecap:round;stroke-miterlimit:10;"/>
		</g>
		<g>
			<defs>
				<path id="XMLID_30_" d="M66.7,75.3c0.4-1,0.7-1.6,1-1.6c0.4,0,2.4-2.2,4.2-2.4c1.7-0.3,2.2-0.4,2.8-0.7c0.5-0.3,0.7-0.3,0.7-0.3
					s0.5,0.1,0.7,0c0.2-0.1,0.7-0.6,1.3-0.4s2.5,0.6,3.1,0.2c0.6-0.5,0.6-0.3,0.4,0c-0.1,0.3-1,1.6-1,2c-0.1,0.4-0.3,1.7-0.6,2.1
					c-0.4,0.4-1.2,1.4-1.6,1.4c-0.4,0-0.2,0.1-0.6-0.2c-0.4-0.3-1.5-1.1-2.1-1.2c-0.6-0.2-2.3-0.6-2.9-0.5c-0.6,0.2-1.3,0.8-1.9,1.1
					C69.3,74.9,66.7,75.3,66.7,75.3z"/>
			</defs>
			<use xlink:href="#XMLID_30_"  style="overflow:visible;fill:#26A69A;"/>
			<clipPath id="XMLID_56_">
				<use xlink:href="#XMLID_30_"  style="overflow:visible;"/>
			</clipPath>
			<path class="st18" d="M66.7,75.3c0.5,0,1.2-0.2,1.7-0.3c0.5-0.1,1.1,0,1.6-0.4s1.3-1.2,1.9-1.1c0.6,0.1-1.1,0.1-1.5,0.1
				c-0.4,0,0-0.5,0.4-0.6c0.4-0.1,0.9-0.2,1.3-0.3s1.5-0.4,0.7-0.5s-0.7-0.3-1.4,0c-0.7,0.3-0.8,0-0.8,0s-0.2,0,0.6-0.3
				c0.7-0.3,0.7-0.8,0.7-0.8s-0.5,0-1.3,0.2c-0.7,0.2-1.5,0.5-1.8,1.1c-0.4,0.5-1.7,1-1.9,1.4S66.7,75.3,66.7,75.3"/>
			<path class="st18" d="M80.9,69.9c-1,0.8-2.5,1.5-2.6,2.2c-0.1,0.7,0,1.1-0.4,1.4c-0.4,0.4-0.4,0.4-0.8,0.5c-0.4,0.1-0.8,0-1.4,0
				c-0.5,0-1.5-0.4-1.7-0.3c-0.2,0.1,2,1.4,2.4,1.7c0.4,0.3-0.3,1.1,1.3,0.5c1.6-0.6,2.3,0,2.9-1.3c0.6-1.3,0.6-3.8,0.6-3.8
				L80.9,69.9"/>
			
				<use xlink:href="#XMLID_30_"  style="overflow:visible;fill:none;stroke:#000000;stroke-width:0.25;stroke-linecap:round;stroke-miterlimit:10;"/>
		</g>
		<g>
			<defs>
				<path id="XMLID_29_" d="M69,67.3c0.6-2.4,0.4-1.9,1.2-2.7c0.8-0.8,1.4-1.2,2-1.5c0.6-0.2,0.4-0.5,1.3-0.5s1.3,0.1,1.9,0
					s2-0.6,2.4-0.8c0.4-0.2,0.7-0.4,0.6,0c-0.1,0.4-2.5,8.3-2.8,8.4c-0.3,0.1-0.3,0.2-0.9,0.4c-0.5,0.2-2.1,0.3-3.2,0.8
					c-1,0.5-2.9,2.1-3.4,2.2c-0.5,0.1-0.5-0.1-0.5-0.1s1.7-4.6,1.3-5.1C68.9,67.4,69,67.3,69,67.3z"/>
			</defs>
			<use xlink:href="#XMLID_29_"  style="overflow:visible;fill:#26A69A;"/>
			<clipPath id="XMLID_57_">
				<use xlink:href="#XMLID_29_"  style="overflow:visible;"/>
			</clipPath>
			<path class="st19" d="M67.4,73.6c0,0,1.8-0.8,2.1-1s1.3-1,1.8-1.2c0.6-0.1,2.3-0.4,2.5-0.5c0.2-0.1,0.8-1.2,0.8-1.5
				c0-0.4-2,0.3-2.3,0.6s1.8-2.8,1.5-3.3c-0.3-0.6-2.9,0.8-3.4,1.5c-0.5,0.7,0-0.3,0-1.2c0-0.8-0.1-1.1-0.7-0.6
				c-0.7,0.6-1.2,1.8-1.3,2.4C68.3,69.5,67.4,73.6,67.4,73.6"/>
			
				<use xlink:href="#XMLID_29_"  style="overflow:visible;fill:none;stroke:#000000;stroke-width:0.25;stroke-linecap:round;stroke-miterlimit:10;"/>
		</g>
		<g>
			<defs>
				<path id="XMLID_28_" d="M62.5,70c0.2-1.2,1.1-2.5,1.4-2.7c0.3-0.2,1.9-1.3,2.5-1.5s1.5-0.5,2.1-0.4s0.7-0.2,0.8,0
					c0.1,0.2,0,0.5,0,0.7s0.1,0.4-0.3,0.5c-0.5,0.1-3.2,1.2-3.5,1.4C65.1,68.1,62.5,70,62.5,70z"/>
			</defs>
			<use xlink:href="#XMLID_28_"  style="overflow:visible;fill:#26A69A;"/>
			<clipPath id="XMLID_58_">
				<use xlink:href="#XMLID_28_"  style="overflow:visible;"/>
			</clipPath>
			<path class="st20" d="M62.6,69.7c0.9-1.2,1.4-1.8,2.2-2.3c0.7-0.5,1.4-0.9,2.3-1.1c0.8-0.3,1-0.3,1.4-0.4
				c0.4-0.1,0.4-0.5,0.7-0.2c0.3,0.3,0.4,0.7,0.1,0.8S62.6,69.7,62.6,69.7"/>
			
				<use xlink:href="#XMLID_28_"  style="overflow:visible;fill:none;stroke:#000000;stroke-width:0.25;stroke-linecap:round;stroke-miterlimit:10;"/>
		</g>
	</g>
	<g>
		<defs>
			<ellipse id="XMLID_18_" cx="49.1" cy="62.4" rx="21.1" ry="4.4"/>
		</defs>
		<use xlink:href="#XMLID_18_"  style="overflow:visible;fill:#B2DFDB;"/>
		<clipPath id="XMLID_59_">
			<use xlink:href="#XMLID_18_"  style="overflow:visible;"/>
		</clipPath>
		<path class="st21" d="M26.2,60.5c8.1,4.3,19.3,5.3,21.1,5.2C49,65.6,61,64,62.5,64.8c1.5,0.8,4.2,2.1,6.9,3.5
			c2.7,1.4,13.8-6.1,5.3-9.3s-13.8-5.8-21.6-5.3c-7.8,0.5-14.3,0.5-19.1,1.9S26.2,60.5,26.2,60.5z"/>
		
			<use xlink:href="#XMLID_18_"  style="overflow:visible;fill:none;stroke:#000000;stroke-width:0.25;stroke-linecap:round;stroke-miterlimit:10;"/>
	</g>
</g>
<g id="WarKaung_x5F_Buddha_x5F_All_x5F_Group">
	<g id="WarKaung_x5F_Buddha_x5F_Face">
		<g>
			<defs>
				<path id="XMLID_2_" d="M48.7,9.7l0.8,0.1l0.6,0.3l0.5,0.7l0.3,0.6l-0.2,0.8l-0.5,0.5h-1.6l1.4,0.2l2.3,0.8l1.4,1.4l0.8,2
					l-0.4,1.8l-1,0.2L53,18.1c0-0.5-0.2-1-0.6-1.4l-0.8-1h-1.3c-0.3,0-0.6,0-0.9,0.1l-0.9,0.3l1.3-0.4c0,0,1.6-0.1,1.7,0
					s1.3,1.6,1.3,1.6l0.2,2.9l-0.5,2.5l-0.8,1.8l-1.5,0.9l-1,0.5h-0.5h-0.5l-1-0.5l-1.5-0.9l-0.8-1.8l-0.5-2.5l0.2-2.9
					c0,0,1.1-1.5,1.3-1.6c0.1-0.1,1.7,0,1.7,0l1.3,0.4l-0.9-0.3c-0.3-0.1-0.6-0.1-0.9-0.1h-1.3l-0.8,1c-0.3,0.4-0.5,0.9-0.6,1.4
					l-0.1,1.1l-1-0.2l-0.4-1.8l0.8-2l1.4-1.4l2.3-0.8l1.4-0.2h-1.6l-0.5-0.5l-0.2-0.8l0.3-0.6l0.5-0.7l0.6-0.3L48.7,9.7z"/>
			</defs>
			<use xlink:href="#XMLID_2_"  style="overflow:visible;fill:#FFF9C4;"/>
			<clipPath id="XMLID_60_">
				<use xlink:href="#XMLID_2_"  style="overflow:visible;"/>
			</clipPath>
			<path class="st22" d="M46.5,12.8c0,0,3,0,3.6-0.5c0.5-0.4,0.5-0.8,0.2-1.2c-0.3-0.4-0.9-1.7-1.5-1.7s-2,0.6-2.2,1
				s-0.7,1.2-0.4,1.5C46.5,12.2,46.5,12.8,46.5,12.8z"/>
			<path class="st22" d="M42.3,19.5c2.5-0.6,2.2-1.6,2.2-2.4c0.4-0.9,1.8-1.8,2.3-1.7c0.5,0.1,1.1,0.8,2,0.2s1.2-0.8,1.2-1.3
				c0-0.5,0.4-0.8-0.2-1s-2.3-0.7-3.5-0.6c-1.2,0.2-2.1,1.3-2.3,1.9C43.8,15.4,42.3,19.5,42.3,19.5z"/>
			<path class="st23" d="M52.4,12.9c-1.1,0.5-3.8,0-3.8,0s1.6,0.5,1.6,0.5s0,0.7-0.1,1.1c-0.2,0.4-0.6,0.8-0.9,1
				c-0.3,0.2-0.6,0-0.6,0.5c-0.1,0.5,1-0.4,1.8-0.4c0.9,0,0.9-0.3,1.2,0.1s1.1,0.8,1.2,1.5c0.1,0.7-0.1,1.6,0.2,1.8
				c0.3,0.3,0.4-0.2,0.7-0.2c0.3,0,0.4-0.1,0.4-0.4s0.4-1.3,0.4-1.5c-0.1-0.2-0.5-1.8-0.8-2s-1-1.2-1.4-1.4
				C52,13.6,52.4,12.9,52.4,12.9z"/>
			<path class="st23" d="M48.9,9.4c0.7,0.8,1.7,1.9,1.4,2.4s-0.7,1.1-1.4,0.9c-0.8-0.2-1.3,0.2-0.8,0.3c0.4,0.1,1.5,0.3,1.7,0.4
				c0.2,0.1,0.3,0,0.3,0.3c0,0.3,0,0.5-0.2,0.9c-0.2,0.4-0.7,0.8-1.1,1c-0.4,0.2-0.5,0.2-0.7,0.3S48,16.1,48.3,16
				c0.3,0,0.2,0.2,0.3,0c0.1-0.2,0-0.3,0.3-0.4s0,0.2,0.4-0.2c0.4-0.3,0.8-0.7,0.9-1c0.1-0.3,0.2-0.7,0.1-0.9c0-0.2,0.3,0.1,0-0.2
				s-0.2-0.1-0.7-0.3c-0.5-0.2-0.7-0.1-1-0.3c-0.3-0.1-0.5-0.2,0-0.2c0.5,0.1,0.6,0,1,0c0.4,0,0.7-0.1,0.7-0.1s0.1-0.1,0.4-0.4
				c0.2-0.3,0.3-0.5,0.2-0.8s0-0.3-0.3-0.6c-0.2-0.3-0.2-0.5-0.5-0.7C49.7,9.9,48.9,9.4,48.9,9.4z"/>
			<path class="st23" d="M44.1,14.3c-0.5,1.2-0.9,3.4-1.3,3.5c-0.4,0.1-0.7-0.2-0.7-0.5c0-0.3,0-0.6,0.2-1.1
				c0.3-0.5,0.6-1.6,0.9-1.8c0.3-0.2,0.2,0,0.4-0.2S44.1,14.3,44.1,14.3z"/>
			<path class="st23" d="M46.3,15.5c0,0,0.3-0.1,0.4-0.1s0.3,0,0.4,0.1C47.2,15.7,46.4,15.6,46.3,15.5
				C46.3,15.6,46.3,15.5,46.3,15.5z"/>
			<path class="st23" d="M44.2,18.6c0,0-0.3,0.3-0.4,0.4s0.2,0.2,0.3,0.1s0.1-0.1,0.2-0.2C44.3,18.7,44.2,18.6,44.2,18.6z"/>
			<path class="st24" d="M52.1,16.7c-0.3,0.9,0,1.2-0.1,1.7c-0.1,0.5,0.3,1.3,0.3,1.8s0.1,1.3-0.3,2.1s-1,1.5-1.1,1.8s-1.4,1-1.4,1
				s-0.7-0.1-0.9,0.1c-0.3,0.2-0.4,0.8-0.4,0.8s1.8,1,2.4,0.5s1.3-0.9,1.7-1.4c0.4-0.5,0.9-4.7,0.9-5.3c0-0.6,0-0.9-0.1-1.7
				c-0.1-0.8-0.2-0.9-0.3-1C52.6,16.9,52.1,16.7,52.1,16.7z"/>
			<path class="st25" d="M48.7,17.4c0,0,0.2-0.1,0.2,0c0.1,0.1,0.1,0.2,0,0.3c-0.1,0-0.2,0.1-0.3,0c-0.1-0.1-0.2-0.1-0.2-0.2
				s0-0.3,0.1-0.3c0.1,0,0.2,0,0.2-0.1c0-0.1,0-0.2,0-0.2l0-0.2"/>
			<path class="st25" d="M48.7,17.4c0,0,0,0.1,0,0.1c0.1,0,0.1,0,0.1,0"/>
			
				<use xlink:href="#XMLID_2_"  style="overflow:visible;fill:none;stroke:#000000;stroke-width:0.25;stroke-linecap:round;stroke-miterlimit:10;"/>
		</g>
		<g>
			<defs>
				<path id="XMLID_4_" d="M44.1,19.4l-0.7-0.3L43,19.6l0.2,1.3c0,0.1,0,0.3,0.1,0.4l0.3,0.9c0,0.1,0,0.1,0.1,0.2l0.4,1l-0.1,0.8
					l0.5,0.3l0.4-0.4v-0.6l0.1-0.5l-0.1-0.3l-0.5-2.5l0-0.7L44.1,19.4z"/>
			</defs>
			<clipPath id="XMLID_61_">
				<use xlink:href="#XMLID_4_"  style="overflow:visible;"/>
			</clipPath>
			<path class="st26" d="M43.4,26.1c0.6-0.6,1.7-1.3,1.9-1.7c0.2-0.3-0.2-0.7-0.3-1.2c-0.1-0.5-0.3-1.6-0.3-2.2s-0.1-0.4-0.7-0.8
				c-0.6-0.5-1.5-1.6-1.4-1.7c0-0.1-1,0.5-1.1,1.5c-0.1,1,0,1.7,0.3,2.5c0.3,0.8,0.8-0.4,1.1,0.9c0.3,1.3,0.4,1.6,0.4,2.1
				C43.4,25.9,43.4,26.1,43.4,26.1z"/>
			<use xlink:href="#XMLID_4_"  style="overflow:visible;fill:none;stroke:#000000;stroke-width:0.25;stroke-miterlimit:10;"/>
		</g>
		<polyline class="st27" points="44.1,20.4 43.8,20.4 43.8,21 44.1,21.6 44.4,22 44.4,22.4 44.1,22.4 43.9,22.1 		"/>
		<polyline class="st28" points="47.8,19.1 46.8,18.7 46.1,18.7 45.3,18.9 		"/>
		<polyline class="st28" points="47.8,20.1 47.8,20.4 46.9,20.2 46.1,20.2 45.5,19.9 45,19.7 		"/>
		<polyline class="st28" points="48.7,23.8 48.2,23.7 47.5,23.3 		"/>
		<g>
			<defs>
				<path id="XMLID_3_" d="M53.2,19.4l0.7-0.3l0.4,0.4l-0.2,1.3c0,0.1,0,0.3-0.1,0.4l-0.3,0.9c0,0.1,0,0.1-0.1,0.2l-0.4,1l0.1,0.8
					L53,24.4l-0.4-0.4v-0.6L52.4,23l0.1-0.3l0.5-2.5l0-0.7L53.2,19.4z"/>
			</defs>
			<clipPath id="XMLID_62_">
				<use xlink:href="#XMLID_3_"  style="overflow:visible;"/>
			</clipPath>
			<path class="st29" d="M56,18.4c-1.1,1-1.8,0.9-2.1,1.4c-0.3,0.4-0.7,0.7-0.7,0.9s-0.1,1.4-0.1,2c0,0.6-0.2,1.1-0.2,1.4
				s-1.3,0.7-0.3,1.2c1,0.5,1.4,1.1,2.2,0.3c0.8-0.8,1.4-0.9,1.4-2.6c0-1.7,0.1-1.4,0-2.7S56,18.4,56,18.4z"/>
			<use xlink:href="#XMLID_3_"  style="overflow:visible;fill:none;stroke:#000000;stroke-width:0.25;stroke-miterlimit:10;"/>
		</g>
		<polyline class="st27" points="53.2,20.4 53.6,20.4 53.6,21 53.2,21.6 52.9,22 52.9,22.4 53.2,22.4 53.4,22.1 		"/>
		<polyline class="st28" points="49.5,19.1 50.5,18.7 51.2,18.7 52,18.9 		"/>
		<polyline class="st28" points="49.5,20.1 49.5,20.4 50.4,20.2 51.3,20.2 51.8,19.9 52.3,19.7 		"/>
		<polyline class="st28" points="48.7,23.8 49.1,23.7 49.8,23.3 		"/>
		<polyline class="st28" points="48.7,21.8 48.6,22.2 48.8,22.3 		"/>
	</g>
	<g id="WarKaung_x5F_Buddha_x5F_Body">
		<path class="st30" d="M38.5,51.6c0,0,19.7-1.6,20.1-0.9c0.5,0.7,0.3,2.3,0.4,3.2c0.1,0.9-0.2,4.3-2.3,4.7S41.3,58.4,40,58.3
			c-1.3-0.1-4.5-0.1-4.5-0.8s-1.4-1.1-1-1.9C35,54.9,38.5,51.6,38.5,51.6z"/>
		<g>
			<defs>
				<path id="XMLID_12_" d="M39,51.5c0,0,2.1-1.2,2.6-3.6c0.6-2.4-0.9-7.7-0.9-7.7l1.5,0.4h1.9l1.8-0.4l2.8-2.5l2.2-2.5l1.4-2h0.1
					l-0.2,3l-0.3,1.7l0.5,1.4l0.7,1.4l1.1,0.8L54.2,40l0.2-0.7l0.6-0.3l0.7,0l-0.6,0.8l-0.4,0.4l1,0.6h0.7l0.3-1.1
					c0,0-1.4,5.3-0.9,7.7s2.6,3.6,2.6,3.6"/>
			</defs>
			<use xlink:href="#XMLID_12_"  style="overflow:visible;fill:#BF360C;"/>
			<clipPath id="XMLID_63_">
				<use xlink:href="#XMLID_12_"  style="overflow:visible;"/>
			</clipPath>
			<path class="st31" d="M55.2,32.7c-0.9,1.5-1.3,1.8-1.6,3.5s-0.9,5.4-0.9,6.8s0.3,5.3,0.7,5.8s1.6,1.8,2.3,1.8
				c0.6,0,3.1,0.8,3.8,0.3C60,50.4,55.2,32.7,55.2,32.7z"/>
			<path class="st31" d="M40.9,41.3c0.4,0.5,1.7,3.1,1.8,4.4c0.1,1.4-0.6,3.6-1.1,4c-0.5,0.4,2.3-1.8,2.5-4.7L40.9,41.3z"/>
			
				<use xlink:href="#XMLID_12_"  style="overflow:visible;fill:none;stroke:#000000;stroke-width:0.25;stroke-linecap:round;stroke-miterlimit:10;"/>
		</g>
		<g>
			<defs>
				<path id="XMLID_11_" d="M56.4,51.2h2.3c0,0,6.4,2.1,6.3,2.7s7.8,3.7,3.9,7.8s-18.1-4-19.3-3.8"/>
			</defs>
			<use xlink:href="#XMLID_11_"  style="overflow:visible;fill:#BF360C;"/>
			<clipPath id="XMLID_64_">
				<use xlink:href="#XMLID_11_"  style="overflow:visible;"/>
			</clipPath>
			<path class="st32" d="M71.1,58c0,0-1-2.2-2.4-3.4s-9.9-3.3-11.3-3.2c-1.4,0.1-1.3,0.9-1.5,1.4c-0.2,0.5-0.6,0.3,0.3,1.2
				c0.9,0.9-0.3,2.3,0.2,3.1c0.5,0.9,0.5,0.9,1.1,1.5c0.6,0.6,2.4,1.4,3.4,2s1.5,0.6,2.1,0.7c0.6,0.1,0.9,0,1.6,0.2
				c0.7,0.2,0.3,0.1,1.2,0.6c0.9,0.5,0.5,1.1,1.7,1c1.1-0.1,5.1-2.1,5.2-2.8C72.8,59.9,71.1,58,71.1,58z"/>
			<path class="st33" d="M58,52.9c1.9,0.6,6.7,2.6,7.8,3.8s3.2,5.5,3.9,5.7c0.8,0.3,2.2,0.4,2-2.4c-0.2-2.9-1.3-4.2-2.8-5.1
				s-3.6-3.1-5.3-3.6c-1.7-0.4-3.2-1-3.9-0.7c-0.7,0.3-2.8,0.3-3.5,1C55.6,52.2,58,52.9,58,52.9z"/>
			
				<use xlink:href="#XMLID_11_"  style="overflow:visible;fill:none;stroke:#000000;stroke-width:0.25;stroke-linecap:round;stroke-miterlimit:10;"/>
		</g>
		<g>
			<defs>
				<path id="XMLID_10_" d="M34.4,57.1c0.3-1.1,14.8-1.8,15.2-2.3c0.4-0.5,0.4-2.5,2-2.2c0.8,0.7,5.1,0.8,6,1s1.4,1.9,1.4,1.9
					c-0.2-0.5-2.7,0.5-4.3,0.8c-1.5-0.5-14.1,5.3-18.3,6.5c-4.2,1.2-7.4,0.6-8.4-2.6c-1.1-3.2,5.4-6.1,5.9-6.7
					c0.5-0.6,4.6-1.6,5.1-1.9c0.5-0.3,3.1-0.1,3.1-0.1"/>
			</defs>
			<use xlink:href="#XMLID_10_"  style="overflow:visible;fill:#BF360C;"/>
			<clipPath id="XMLID_65_">
				<use xlink:href="#XMLID_10_"  style="overflow:visible;"/>
			</clipPath>
			<path class="st34" d="M49.6,54.8c0.5-0.6,0.3-1.4,0.7-1.8c0.5-0.4-0.2-0.8,0.9-0.4c1.1,0.4,1.6,0.3,1.9,0.5
				c0.3,0.2,1.7,0.2,2.8,0.3c1,0.1,1-0.3,1.6,0.1c0.7,0.5,0.9,0.5,1.1,1c0.2,0.5,1,1,0.3,0.9c-0.7-0.1-1.6,0.1-2.6,0.4
				c-1,0.3-0.9,0.4-1.6,0.4c-0.7,0-0.5-0.1-1.3,0.1s-2.4,1-3.3,1.1s-3,1-3.2,1.1c-0.2,0.1-0.7,0.7-0.7,0.3c0.1-0.3,0.4-0.9,0.4-1.4
				s0-0.7,0-0.9s0.1-0.9,0.1-1.2C46.9,55.2,49.6,54.8,49.6,54.8"/>
			<path class="st35" d="M50.1,53.4c0.5,0.6,0,0.7,1,0.8c1,0,3.1,0.8,3.7,0.7s0.6-0.4,1.4-0.2c0.7,0.2,1.2,0.2,1.6,0.5
				c0.4,0.3,0.6,0.6,0.9,0.2C59,55,59.4,55,59,54.5c-0.4-0.5-0.6-1-0.8-1.1c-0.2-0.1-0.5-0.5-1-0.4c-0.5,0.1-1.5,0.3-1.7,0.4
				s-0.7,0.1-1.3,0.1s-1,0-1.5,0c-0.5,0-1.1-0.1-1.1-0.3s0.1-0.3-0.4-0.5c-0.6-0.2-1.1,0.1-1.1,0.1L50.1,53.4"/>
			<path class="st35" d="M46.7,57.2c0-0.1,0.3-0.3,1.2-0.4c0.8-0.1,1.4-0.2,2.3-0.3c0.8-0.1,1.2-0.3,1.6-0.3
				c0.5-0.1,1.1-0.2,1.1-0.2s1.4-0.4,1.8-0.2s0.9,0,0.8,0.4c0,0.3,0,0.6-0.6,0.9c-0.6,0.3-2.9,0.7-3.7,0.9c-0.9,0.2-2.6,0.8-2.8,1.1
				c-0.3,0.2-1.3,1.1-2,0.7s-1.1-1.3-0.9-1.6C45.7,57.7,46.7,57.2,46.7,57.2z"/>
			<path class="st36" d="M37.1,51.5c0.6-0.1,1.2,0.9,1.1,1.5s-0.2,1.3-1.1,1.6s-3.8,1-4.1,1.2c-0.3,0.1-2.5,1.6-2.4,2.1
				s1.2,0.3,2,0.2c0.8-0.1,1.6-0.6,1.9-0.7c0.4-0.1,0.7-0.6,1.7-0.6c1-0.1,2.7-0.4,3.5-0.4c0.8,0,1.7-0.3,2.4-0.1s0.1,0.8-0.3,1.2
				c-0.4,0.4-1.6,1.1-2.8,1.5c-1.2,0.4-2.5,0.9-3.2,1.2c-0.7,0.3-1.6,0.4-2.7,0.8c-1.1,0.4-1.2,0.6-2.4,0.5
				c-1.3-0.1-1.6-0.1-2.1-0.9c-0.6-0.8-0.8-1.9-0.8-2.8C27.7,56.7,37.1,51.5,37.1,51.5z"/>
			
				<use xlink:href="#XMLID_10_"  style="overflow:visible;fill:none;stroke:#000000;stroke-width:0.25;stroke-linecap:round;stroke-miterlimit:10;"/>
		</g>
	</g>
	<g id="WarKaung_x5F_Buddha_x5F_Right_x5F_Hand">
		<g>
			<defs>
				<polygon id="XMLID_9_" points="57.7,28.6 60.6,30.5 62.1,32.2 62.4,33.4 63.2,43.4 63.2,44.6 63.5,45.7 64.8,46.6 66,46.9 
					66.6,46.9 67.2,47.6 67.9,48.2 69.1,48.8 69.8,49.3 70.1,49.7 69.1,49.7 68.4,50.6 68.4,52.4 67.9,53.1 66.7,53.6 67.1,53.1 
					66.1,54 65.6,54 64.8,53.8 64.2,53.6 62.2,53.5 61.1,53.5 60.3,53.5 61.1,52.7 61.7,51.7 62.1,50.3 62.4,49.6 62.4,49 
					61.8,48.4 60.1,47 59.4,46 59,44.8 59,43.4 59,42.8 56.4,42 56,28.9 				"/>
			</defs>
			<use xlink:href="#XMLID_9_"  style="overflow:visible;fill:#D84315;"/>
			<clipPath id="XMLID_66_">
				<use xlink:href="#XMLID_9_"  style="overflow:visible;"/>
			</clipPath>
			<path class="st37" d="M63,31.8c0,0-1.5-2.5-2.1-2.8s-2.8-1.2-3.2-1.2s0.2,5.7,0.2,6.4c0.1,0.8,0,5.3-0.5,6.6
				c-0.5,1.4-1,3.1-0.2,5s1.1,2.7,1.8,3.1c0.7,0.4,1.8,0.3,2.1,1c0.3,0.7-0.2,1.9-0.6,2.4c-0.4,0.5-1.5,0.7-0.1,1.7
				c1.4,1,3.6,1.8,4.4,1.7c0.8-0.1,2.5-0.6,3.5-1.2c1-0.5,1.6-0.8,1.2-2.1c-0.3-1.2-0.7-1.1-0.5-1.9s1.3-0.6,1.9-1.1
				c0.7-0.5-1.1-2-1.7-2.2s-3-1.8-3.8-1.7c-0.9,0.1-2,0.1-2-1c0-1.2-0.1-2.8,0-4.6c0.1-1.8,0.5-2.9,0.1-5.1
				C63.2,32.5,63,31.8,63,31.8z"/>
			<path class="st38" d="M59.8,29c0.4,1.7,0.9,3.2,1.4,5.3s0.4,4.3,0.7,5.1s0,5.2,0.4,6c0.4,0.8,1.8,3.1,2.3,3.4s1.6,0.7,2.5,2.1
				s0.4,3.2,1.5,3.5c1.1,0.3,2.5,1.2,2.5-0.5c0-1.7-0.9-2.1-0.9-2.5c0-0.4,0.6-0.9,1.2-1.2c0.6-0.3,2-1.6,1.3-2.3
				c-0.7-0.7-2.5-1.6-4.5-2.4c-2-0.8-1.8,0.6-3-2.9c-1.2-3.5-1-5.4-1.4-7.4c-0.3-2,0.2-2.1-0.5-3.7s-0.4-1.3-1.3-1.8
				S59.8,29,59.8,29z"/>
			
				<use xlink:href="#XMLID_9_"  style="overflow:visible;fill:none;stroke:#000000;stroke-width:0.25;stroke-linecap:round;stroke-miterlimit:10;"/>
		</g>
		<polyline class="st39" points="60.6,44.2 61,44.1 62.2,44.2 63,44.7 62.6,44.1 61.8,43.6 60.6,43.1 		"/>
		<path class="st39" d="M63.1,44.1c0,0-1.8-2.8-2.7-2.6"/>
		<path class="st40" d="M68.2,51.5c-0.3-1.2-0.4-2.2,1.3-2.2c1.3,0.7,2.1,0.2,2.8,0.6c0.8,0.5,2,0.1,2.7,0.5c0.7,0.4,1.9-0.3,2.3,0
			c0.4,0.3,1.4,0.8,0.9,1.1c-1,0.3-1-0.1-0.9,0.2c0.1,0.3,0.2,0.8-0.2,0.8s-0.7-0.1-0.7-0.1s-2.2-0.3-2.5,0.1
			c-0.6-0.2-0.5-0.4-0.9-0.3s-1.6,0.5-2.1,0.2C70.4,52.1,68.2,51.7,68.2,51.5z"/>
		<path class="st40" d="M70.1,49.5c-0.7,1-0.8,1.5,0.4,2.1c1.9,0,2.5,0.1,2.8-0.1c0.3-0.2,1.2-1.3,1.2-1.3s0.2-0.8-0.2-0.4
			c-0.4,0.4-0.9,0.9-0.9,0.9s-0.1,0.3-0.4,0.2c0,0-1.6-1-2.3-0.7s-0.6,0.4-0.6,0.4"/>
		<path class="st40" d="M77.2,50.3c-0.6,0.4-0.8,0.5-1.1,0.6s-0.3,0.1-0.6,0c-0.3-0.1-0.4,0-0.5-0.1"/>
		<path class="st40" d="M77.5,50.7c-0.6,0.4-0.8,0.5-1.1,0.6c-0.3,0-0.3,0.1-0.6,0c-0.3-0.1-0.4,0-0.5-0.1c0,0-0.5,0-0.6-0.1"/>
		<path class="st40" d="M77.2,51.5c-0.9,0.2-2,0.2-2,0.2l-0.9-0.2"/>
		<path class="st40" d="M77.2,52c-0.3,0.5-1.1,0.3-1.1,0.3"/>
		<path class="st40" d="M74.9,50.3c0,0-0.5,1.3-1.3,1.4"/>
	</g>
	<g id="WarKaung_x5F_Buddha_x5F_Pawar">
		<g>
			<defs>
				<polygon id="XMLID_8_" points="40.2,38.7 40.5,39.5 40.5,39.9 40.8,40.2 42.3,40.7 44.2,40.7 46,40.3 47.3,39.2 48.8,37.8 
					49.8,36.6 51,35.3 51.9,34 52.6,32.9 52.6,33.5 52.6,34.9 52.4,36.2 52.3,37.1 52.1,37.8 52.3,38.4 52.6,39.2 53.4,40.7 
					54.5,41.4 54.2,40 54.5,39.3 55.1,38.9 55.8,39 55.2,39.8 54.8,40.3 55.8,40.8 56.8,40.8 57.4,40.8 56.5,41.7 56.3,42.3 
					57.4,42.5 58,42.5 58,43.3 58.5,43.7 59.4,43.4 59.8,42.5 59.1,35.9 58.8,33.4 57.6,28.6 56.4,28.1 55.6,27.9 54.7,27.6 
					53.9,27.2 53,26.6 52.8,26.4 52.3,25.9 52.1,25.9 52.1,26.7 52.3,26.9 51.3,29.1 50,31.5 48.8,34 48,34.9 47.4,35.3 46.9,35.9 
					43.8,38 42.2,39 41.6,39.1 40.9,39 				"/>
			</defs>
			<use xlink:href="#XMLID_8_"  style="overflow:visible;fill:#FFFFFF;"/>
			<clipPath id="XMLID_67_">
				<use xlink:href="#XMLID_8_"  style="overflow:visible;"/>
			</clipPath>
			<path class="st41" d="M50.3,42.7c-3.6,0.1-5.6,1.3-8.5-0.7c-3-2-3.6-4.7-3.6-4.7l2.6-8.8c0,0,8.9-2.9,9.1-3
				c0.2-0.1,1.8-1.1,4.1-0.4c2.3,0.7,3.1,1.3,4,2c1,0.7,2.3,5.9,2.3,5.9s0.1,5.1,0.1,5.9c0,0.8,0.4,5.8-2.6,5.8s-6.1-0.6-7.5-0.9
				C48.9,43.3,50.3,42.7,50.3,42.7z"/>
			<path class="st42" d="M56.2,27.6c-0.6-0.4-0.8-1.1-0.8-0.2c0,0.9,0.3,0.6,0.2,1.3c-0.1,0.7,0.1,1.7,0.2,2.3
				c0.1,0.7,0.3,1.5,0.4,2.3c0,0.8,0.5,3.4,0.5,3.9s0.1,1.9,0.1,2.1c0,0.2-0.3,1.4-0.3,1.8c-0.1,0.4,0.9,0,1-0.2
				c0-0.1,0.6-1.4,0.4-2.1s-1.4-8.8-1.4-9.4C56.4,28.8,56.2,27.6,56.2,27.6z"/>
			<path class="st42" d="M53.1,31.8c-0.6-0.2-0.7-0.3-1.1,0.4c-0.4,0.7-1.8,3.3-2.1,3.5c-0.3,0.2-2.4,2.7-2.7,2.9
				c-0.3,0.2-1.6,1.3-2.1,1.4c-0.5,0.1-1.7,0.3-2,0.3c-0.3,0-1.6,0-2.1-0.3s-0.9-0.4-0.9,0.1c0,0.5-0.6,1.1,0.8,1
				c1.4-0.1,6.2,0.6,7.2-0.5s2.2-2.2,2.6-3.2c0.4-1,1.5-2.7,1.9-3.4C53,33.3,53.1,31.8,53.1,31.8z"/>
			<path class="st42" d="M58,44.5l-0.7-1.1c0,0,1.2-1.4,1.4-1.5c0.3-0.1,0.5-0.2,0.4,0.2c-0.1,0.4-0.2,0.8-0.5,1s-0.3,0.1-0.4,0.4
				C58.2,43.9,58,44.5,58,44.5z"/>
			<path class="st42" d="M53.4,26.2c-0.7-0.5-0.8-0.8-1.3-0.5s-0.7,0.5-0.8,1.4c-0.1,0.9-10.2,11.3-10.2,11.4c0,0.1-0.4,0.2,0.6,0.5
				c1,0.3,2.7,0.6,3.6-0.4c0.9-1.1,4.9-5.6,5.4-6.5c0.5-0.9,0.7-1.8,1.2-3C52.3,28.1,53.4,26.2,53.4,26.2z"/>
			
				<use xlink:href="#XMLID_8_"  style="overflow:visible;fill:none;stroke:#000000;stroke-width:0.25;stroke-linecap:round;stroke-miterlimit:10;"/>
		</g>
		<g>
			<defs>
				<polygon id="XMLID_7_" points="40.8,39.6 41.7,40 43.3,40 45.4,39.4 47.1,38.2 49.8,35.3 51,33.5 52.3,31.2 52.7,30 52.9,29.2 
					53.1,28 53.1,27.2 52.8,26.8 52.5,27.4 51.9,28.6 51.5,29.8 50.5,32 49.8,33.2 48.7,34.6 47.9,35.5 47,36.5 45.6,37.5 
					43.9,38.5 42.9,38.9 42.2,39 41.6,39.1 40.9,39 40.2,38.7 40.5,39.5 				"/>
			</defs>
			<use xlink:href="#XMLID_7_"  style="overflow:visible;fill:#FFFFFF;"/>
			<clipPath id="XMLID_68_">
				<use xlink:href="#XMLID_7_"  style="overflow:visible;"/>
			</clipPath>
			<path class="st43" d="M53.8,26.3c-0.3,0-13.7,12.5-14,12.8c-0.3,0.3,0.6,1.9,0.6,1.9l8.8-1.8c0,0,6.1-11.5,5.8-12.3
				C54.7,26.2,53.8,26.3,53.8,26.3z"/>
			<path class="st44" d="M53,27.2c-0.3,0.5-0.3,1.9-0.5,2.3c-0.2,0.4-0.6,1.9-1,2.5c-0.4,0.6-1.3,2.4-1.8,2.8
				c-0.4,0.5-2.3,2.5-2.5,2.7c-0.2,0.2-1.9,1.5-2.3,1.7s0.1,0.6,0.6,0.5s4.7-4.4,5.3-5s1.3-1.4,1.4-2c0.1-0.6,0.8-3.6,1-4.1
				S53,27.2,53,27.2z"/>
			
				<use xlink:href="#XMLID_7_"  style="overflow:visible;fill:none;stroke:#000000;stroke-width:0.25;stroke-linecap:round;stroke-miterlimit:10;"/>
		</g>
		<g>
			<defs>
				<polygon id="XMLID_6_" points="52.8,26.4 52.8,26.8 53.1,27.2 52.9,29.2 52.8,31.1 52.6,32.9 52.4,36.2 52.1,37.8 52.6,39.2 
					53.4,40.7 54.5,41.4 54.2,40 54.5,39.3 55.1,38.9 55.8,39 56.2,38.8 56.1,36.3 55.9,32.7 55.7,30.8 55.3,29.4 54.9,28.3 
					54.5,27.7 54.4,27.5 53.8,27.1 				"/>
			</defs>
			<use xlink:href="#XMLID_6_"  style="overflow:visible;fill:#FFFFFF;"/>
			<clipPath id="XMLID_69_">
				<use xlink:href="#XMLID_6_"  style="overflow:visible;"/>
			</clipPath>
			<path class="st45" d="M54.5,24c-0.6,0.2-1,0.8-1.4,1.4c-0.4,0.6-1.7,4.7-1.7,5.6c0,0.9,0,5.5,0,6c0,0.5-0.5,1.8-0.3,3
				c0.3,1.2,0,1.7,1.3,2.2s2.3,0.5,2.3,0.5L57,40l1.7-8.4c0,0,0.2-4.5-0.1-4.7c-0.3-0.2-0.2-1.2-1-1.6c-0.8-0.4-3.2-1.5-3.2-1.5
				L54.5,24z"/>
			<path class="st46" d="M54.3,33.4c0,1.2,0,1.6-0.3,2.4s-0.6,2.6-0.5,2.9s0.4,1.1,0.5,1.6s0-0.7,0-1.8c0-1-0.2-1.4,0.3-2.1
				c0.5-0.7,0.5-1.5,0.5-2s0-1.9,0-2.2s-0.4-1.4-0.4-1.8C54.4,30.1,54.3,33.4,54.3,33.4z"/>
			
				<use xlink:href="#XMLID_6_"  style="overflow:visible;fill:none;stroke:#000000;stroke-width:0.25;stroke-linecap:round;stroke-miterlimit:10;"/>
		</g>
		<polyline class="st39" points="53.8,27.1 54,27.9 54.3,29 54.3,30.6 54.3,32 54.3,33.3 		"/>
		<g>
			<defs>
				<polygon id="XMLID_5_" points="55.6,27.9 56.2,28.1 57.1,28.4 57.4,29.2 57.6,30.6 57.8,32.4 57.9,34.3 58.2,36.4 58.5,39.2 
					58.7,41.3 58.7,42.2 58.7,42.6 58.2,42.6 57.1,42.5 56.3,42.3 56.5,41.7 57.4,40.8 57.5,40.1 57.5,39 57,33.8 56.4,29.2 				"/>
			</defs>
			<use xlink:href="#XMLID_5_"  style="overflow:visible;fill:#FFFFFF;"/>
			<clipPath id="XMLID_70_">
				<use xlink:href="#XMLID_5_"  style="overflow:visible;"/>
			</clipPath>
			<path class="st47" d="M56.4,26.3c0.6,1.5,0.8,3.7,1,4.6c0.1,0.9,0.2,2.5,0.2,3.5c0,1,0.1,4.1,0.2,4.4c0.2,0.4,0.5,1.6,0.5,1.8
				c0,0.2-0.1,1-0.3,1.3s-0.9,0.7-0.9,1.2s1,0.9,1.8,0.8c0.8-0.1,1.3-2.3,1.4-3c0.2-0.8-1.2-6.4-1.2-7.8c0-1.4-0.6-3.5-0.5-4.1
				c0.1-0.7-0.3-1.8-1.1-2.3S56.4,26.3,56.4,26.3z"/>
			<path class="st48" d="M54.5,25.6c1,2,1.6,5,1.7,5.9c0,0.9,0.3,7.6-0.2,9.2s-1.5,2.9-1.5,2.9s0.5,0.8,1.7,0.5
				c1.1-0.3,1.5-2.2,1.8-2.4s0.5-0.8,0.5-1.4c0-0.6-0.6-2.2-0.7-3c-0.1-0.8-0.3-2.4-0.3-3.3s-0.4-2.4,0.1-3.2s0.4-1.6,0.1-2.3
				c-0.3-0.7-1.4-2.9-2.2-2.9C54.9,25.7,54.5,25.6,54.5,25.6z"/>
			
				<use xlink:href="#XMLID_5_"  style="overflow:visible;fill:none;stroke:#000000;stroke-width:0.25;stroke-linecap:round;stroke-miterlimit:10;"/>
		</g>
	</g>
	<g id="WarKaung_x5F_Buddha_x5F_Left_x5F_arm">
		<g>
			<defs>
				<path id="XMLID_1_" d="M45.5,24.7v1.3v0.7L45.2,27l-2.1,0.9l-2.2,0.7l-2.1,0.9l-1.2,0.9l-1.5,1.4l-0.9,2.2c0,0-0.3,1.6-0.3,1.7
					s-0.2,2-0.2,2v1.1v1.5l-0.2,2.5v1.4V45v0.6l-0.6,0.7l-1.1,1.6l-0.9,3l-0.4,2.3L31,55.5l-0.4,2.3v2.5v2.2l0.7,1.2h0.3l0-0.4
					l-0.2-0.5l-0.2-0.6l-0.1-1.1l0.2,0.1l0.1,1.1l0.2,0.6l0.2,0.5l0.1,0.4l0.2,0.2h0.3h0.1l0.1-0.2l0-0.2l-0.1-0.2L32.2,63l-0.1-0.5
					L32,62.1l-0.1-0.4l0-0.4l0-0.3l0.2,0.1v0.3l0,0.3l0.1,0.4l0.1,0.4l0.1,0.5l0.2,0.4l0.1,0.2l0,0.2l0.1,0.2l0.2,0.2l0.3,0.1h0.3
					l0.1-0.2l-0.1-0.3l-0.2-0.3l-0.2-0.2L32.9,63l-0.2-0.5L32.7,62l-0.1-0.4l0-0.3l0.2,0.1l0,0.3l0.1,0.5l0.1,0.4l0.2,0.5l0.3,0.4
					l0.1,0.2l0.3,0.3l0.2,0l0.1-0.3l-0.1-0.3l-0.2-0.2l-0.2-0.4l-0.1-0.5l-0.1-0.6l0-0.7l0.1-0.4l0.1-0.6l0.2-0.4l0.2-0.3l0.1,0.5
					l0.3,0.4l0.2,0.7l0.1,0.7v0.4l0,0.4l0.2,0.2c0,0,0.3,0.2,0.3,0.1c0-0.1,0-0.6,0-0.6l0-0.5l0.1-0.8l0-0.7v-0.6
					c0,0-0.1-0.5-0.1-0.6c0-0.1-0.3-0.7-0.3-0.7l-0.4-0.6l-0.5-0.6l-0.2-0.5l0-0.8l0.2-1l0.5-1l0.7-1.1l0.7-0.8l0.5-1.3l0.6-1.4
					l0.3-0.7l0.4-1.1l0.1-0.9l0.5-1.3l0.2-1.5l0.2-1.2l0.2-1.2l0.2-1.1l0.3-1.6l0-0.7l0-0.8l0.1-0.7l0-0.6l-0.1-0.4l0.3,0.1l0,0.6
					l0,0.8l0.1,0.6l0.1,0.6l0.2,0.5l0.3,0.4l0.7,0.3l0.7,0.1l0.5-0.1l0.7-0.5l0.9-0.5l1.1-0.6l1.1-0.7l1.1-0.8l0.4-0.6l0.7-0.4
					l0.7-0.9l0.3-0.7l0.4-0.8l0.7-1l0.2-0.6l0.7-1.4l0.4-0.6l0.3-0.8l0.4-0.7l0.2-0.4L52,26.7v-0.4v-0.6l0-0.7l0-0.3h-0.3l-2.5,1.4
					H48L45.5,24.7z"/>
			</defs>
			<use xlink:href="#XMLID_1_"  style="overflow:visible;fill:#FFF9C4;"/>
			<clipPath id="XMLID_71_">
				<use xlink:href="#XMLID_1_"  style="overflow:visible;"/>
			</clipPath>
			
				<use xlink:href="#XMLID_1_"  style="overflow:visible;fill:none;stroke:#000000;stroke-width:0.25;stroke-linecap:round;stroke-miterlimit:10;"/>
		</g>
		<polyline class="st49" points="35.1,45.1 34.9,45.3 34.6,45.6 		"/>
		<polyline class="st49" points="47.4,26.6 48,26.8 49.1,26.8 49.7,26.4 		"/>
		<polyline class="st49" points="46.9,27.2 48,27.6 49.3,27.6 50.3,27.2 		"/>
	</g>
	<g id="WarKaung_x5F_Right_x5F_Footer">
		<path class="st40" d="M46.7,54.9c0.3-1.2,0.9-0.7,0.2-1.4s-1.8-1.1-3.1-0.4c-1.3,0.7-2.8,0.7-3.1,0.5c-0.8-0.7-0.3-0.8-1.1-0.8
			c-0.8,0-2.4,0.4-2.4,0.7s1.6,1.1,0.9,1.4c-0.7,0.2-1,0.4-0.8,0.6c0.2,0.2,6.5,0.4,6.8,0c0.4-0.4,1-1.3,1.4-1.1
			C45.9,54.6,46.7,54.9,46.7,54.9z"/>
		<path class="st40" d="M47.2,54c2.6,0.1,2.5,0,2.5,0.3s-2.9,1.2-2.8,0.6C47,54.4,47.2,54,47.2,54z"/>
	</g>
	<g id="WarKaung_x5F_Out_x5F_Parwa_x5F_Left">
		<g>
			<defs>
				<path id="XMLID_13_" d="M46.9,54.9c-1-0.2-1-0.6-2,0c-1.1,0.6-5,8.3-5.9,7.9c0.1,1.1,3.2-0.1,3.3,0.4s0.3,0.6,0.7,0.4
					c0.4-0.2,0-0.9,0.5-0.8c0.5,0.1,1.3-0.3,1.7-0.8c0.4-0.5,1.7-3.9,1.4-5.2C46.8,55.4,46.9,54.9,46.9,54.9z"/>
			</defs>
			<use xlink:href="#XMLID_13_"  style="overflow:visible;fill:#BF360C;"/>
			<clipPath id="XMLID_72_">
				<use xlink:href="#XMLID_13_"  style="overflow:visible;"/>
			</clipPath>
			<path class="st50" d="M45.7,54C44,56,44,55.9,43.4,57s-0.3,0.8-0.8,1.8c-0.5,1-1.9,3.7-2.5,4.1c-0.6,0.4-1.8,0.3-0.9,0.6
				c0.9,0.4,4.1-0.1,4.6-0.3c0.5-0.2,2.2-2.9,2.1-3.8c0-0.9,0.3-5.5,0.3-6C46.4,53.1,45.7,54,45.7,54z"/>
			
				<use xlink:href="#XMLID_13_"  style="overflow:visible;fill:none;stroke:#000000;stroke-width:0.25;stroke-linecap:round;stroke-miterlimit:10;"/>
		</g>
		<g>
			<defs>
				<path id="XMLID_14_" d="M45.7,54.6c0,0-2.7,5.3-3.5,6.1c-0.8,0.9-1.4,1.2-1.2,1.6c0.2,0.4,1.4-0.1,1.4,0.4
					c0,0.4-0.2,0.6-0.1,0.8c0.1,0.2,0.5,0.6,0.7,0.2c0.2-0.4-0.2-0.8,0.5-1s2.1-1.6,2.2-3.4c0.1-1.8,0.3-3.9,0.6-3.9
					s0.8-0.2,0.4-0.4C46.4,54.7,45.9,54.4,45.7,54.6z"/>
			</defs>
			<use xlink:href="#XMLID_14_"  style="overflow:visible;fill:#BF360C;"/>
			<clipPath id="XMLID_73_">
				<use xlink:href="#XMLID_14_"  style="overflow:visible;"/>
			</clipPath>
			<path class="st51" d="M46.3,54c-0.6,0.6-1.5,3.9-2.4,5.4c-0.9,1.5-1.7,2.1-1.7,3.1s0,1.5,0.6,1.6c0.7,0.1,1.6-1.6,1.8-2.5
				C44.9,60.7,46.3,54,46.3,54z"/>
			
				<use xlink:href="#XMLID_14_"  style="overflow:visible;fill:none;stroke:#000000;stroke-width:0.25;stroke-linecap:round;stroke-miterlimit:10;"/>
		</g>
	</g>
	<g id="WarKaung_x5F_Out_x5F_Pawa_x5F_Right">
		<path class="st39" d="M46.3,59c0,0,6.8-2.8,7-2.5c0.2,0.3,2,3.7,2.8,4c0.8,0.3,5.5,1.3,5.9,2c0.4,0.6,0.2,0.9-0.7,0.8
			s-1.2,0-1.3,0.1c-0.1,0.1-0.7,0.1-1.2-0.2c-0.5-0.4-0.6-0.4-1.2-0.3c-0.6,0.1-1.1,0.2-1.3,0c-0.2-0.2-0.8-0.2-0.6,0
			c0.2,0.2,0.9,0.6,0.4,0.6c-0.5,0-0.7-0.1-1.1-0.1s-0.5-0.4-0.7-0.5c-0.2-0.2,0-0.2-0.6-0.2c-0.6,0-0.5,0.2-0.8,0.3
			c-0.3,0-0.4,0-0.8,0c-0.4,0-0.7,0.2-0.8-0.1s0.1-0.4-0.3-0.4c-0.4,0-0.8-0.2-0.8,0.1c0,0.2,0.3,0.5-0.1,0.7
			c-0.4,0.2-0.5,0.5-1.1,0.4c-0.6-0.1-0.6,0-1.1-0.2s-0.6-0.8-0.8-0.9s-0.5-0.1-0.7,0.1c-0.2,0.2,0.3,0.4-0.3,0.4
			c-0.5,0-0.6,0.3-0.9,0c-0.3-0.3-0.6-0.4-0.6-0.4s0.9-0.8,0.9-1.1C45.7,61,46.3,59,46.3,59z"/>
		<path class="st39" d="M53.3,56.4c0,0,2.3,3.9,2.8,4.2c0.6,0.3,2.7,1.4,2.5,1.8c-0.3,0.4-1.9,0.7-2.3,0.3c-0.4-0.4-0.4-1.8-1-2
			c-0.7-0.2-2.4-3.3-2.5-3.7c-0.1-0.4-0.2-0.5,0.1-0.6C53.3,56.4,53.3,56.4,53.3,56.4z"/>
		<g>
			<defs>
				<path id="XMLID_17_" d="M52.5,56.7c0,0,2.6,4.8,4.2,5.2c-0.1,0.4-1.5,0.4-1.5,0.4s-1,0-1.4-0.2s-0.6-0.2-0.7-0.2
					c-0.2,0-1.3-2.6-1.4-2.9c0-0.3-0.3-1.9-0.2-2C51.7,56.8,52.5,56.7,52.5,56.7z"/>
			</defs>
			<use xlink:href="#XMLID_17_"  style="overflow:visible;fill:#D84315;"/>
			<clipPath id="XMLID_74_">
				<use xlink:href="#XMLID_17_"  style="overflow:visible;"/>
			</clipPath>
			<path class="st52" d="M54.9,64.4c0.2-2.1,0.8-1.8,0-3.1s-1.2-1.9-1.8-2.7c-0.6-0.8-0.5-0.9-1-1.9s-1-1.1-0.7-0.2s0.2,0.5,0.7,1.9
				s0.6,2,0.8,2.4c0.1,0.5,0.2,0.5,0.2,1.6c0,1.2,0.1,2.4,0.3,2.4S54.9,64.4,54.9,64.4z"/>
			
				<use xlink:href="#XMLID_17_"  style="overflow:visible;fill:none;stroke:#000000;stroke-width:0.25;stroke-linecap:round;stroke-miterlimit:10;"/>
		</g>
		<path class="st39" d="M51.5,57c0,0,0.3,3.4,0.5,3.6c0.2,0.3,1.1,1.6,1.1,1.8c0,0.2,0.1,0.4-0.1,0.5c-0.2,0.1-1.3-0.2-1.5,0
			s-0.5-0.3-0.4-0.5c0.1-0.2,0.4-0.2,0.3-0.6c-0.1-0.4-1.1-1.9-1.2-2.3c-0.1-0.4-0.2-2,0-2.1C50.4,57.3,51.5,57,51.5,57z"/>
		<path class="st39" d="M49.2,58.3c-0.4-0.3-0.5-0.3-0.6-0.2c-0.2,0.1-0.1,0.6-0.2,0.7c0,0-0.2,3.4-0.5,3.5
			c-0.2,0.1-0.2,0.4-0.1,0.6c0.1,0.2,0.6,0.6,0.7,0.6c0.1,0,0.7,0.1,0.8,0.1c0.2,0,0.9-0.4,0.9-0.4s0.3,0.1,0.3-0.3
			c0-0.4-1.2-3.7-1.2-4.1C49.2,58.3,49.2,58.3,49.2,58.3z"/>
		<g>
			<defs>
				<path id="XMLID_15_" d="M49,57.9c0.4-0.3,0.7-0.4,0.8-0.3c0.1,0.1,0.4,1.2,0.4,1.4c0,0.2,0.9,2.7,1.1,2.8
					c0.2,0.1,0.6,0.3,0.3,0.4c-0.3,0-1,0.2-1.4,0.1c-0.3-0.1-0.9,0.4-0.9-0.3v-1.4C49.3,60.6,48.8,58.1,49,57.9z"/>
			</defs>
			<use xlink:href="#XMLID_15_"  style="overflow:visible;fill:#D84315;"/>
			<clipPath id="XMLID_75_">
				<use xlink:href="#XMLID_15_"  style="overflow:visible;"/>
			</clipPath>
			<path class="st53" d="M50.3,63.8c0-1.1,0-1.8-0.3-2.5s-0.5-2.7-0.5-3.2s-0.3-0.7-0.1-1s0.7-0.3,0.7-0.3s1.3,1.3,1.4,1.7
				s0.3,1.4,0.3,2c0,0.7-0.3,1.4,0,2.1c0.3,0.7,0.7,1.4,0.7,1.5c0,0.1-0.6,0.2-1.1,0.2C50.8,64.4,50.3,63.8,50.3,63.8z"/>
			
				<use xlink:href="#XMLID_15_"  style="overflow:visible;fill:none;stroke:#000000;stroke-width:0.25;stroke-linecap:round;stroke-miterlimit:10;"/>
		</g>
		<g>
			<defs>
				<path id="XMLID_16_" d="M48.3,58.2c-0.5,0.2-0.9,0.4-0.9,0.5c0,0.1-0.6,2.7-1,2.8s-0.4,0.4-0.4,0.6s0.2,0.4,0.7,0.4
					c0.5,0,1.1,0.2,1.3,0c0.2-0.2,0.3-0.2,0.3-1L48.3,58.2z"/>
			</defs>
			<use xlink:href="#XMLID_16_"  style="overflow:visible;fill:#D84315;"/>
			<clipPath id="XMLID_76_">
				<use xlink:href="#XMLID_16_"  style="overflow:visible;"/>
			</clipPath>
			<path class="st54" d="M46.7,63.4c-0.1-0.8,0.4-2,0.5-2.5s0.5-2.4,0.4-3.1c0-0.6-1.2-0.9,0.1-0.9c1.3-0.1,0.3,6.4,0.4,6.9
				c0.1,0.4,0.8,0.8-0.2,0.6S46.7,63.4,46.7,63.4z"/>
			
				<use xlink:href="#XMLID_16_"  style="overflow:visible;fill:none;stroke:#000000;stroke-width:0.25;stroke-linecap:round;stroke-miterlimit:10;"/>
		</g>
	</g>
</g>
<g id="WarKaung_x5F_SownOak">
	<g>
		<defs>
			<path id="XMLID_38_" d="M81.8,45.3c0,2.5-2.3,3.9-5,4.1c-1.5,0.1-2,0.1-2.2,0.1c-0.2,0-0.7,0-2.2-0.1c-2.7-0.2-5-1.5-5-4.1
				c0-2.5,2-4,2-4h10.4C79.8,41.3,81.8,42.8,81.8,45.3z"/>
		</defs>
		<use xlink:href="#XMLID_38_"  style="overflow:visible;fill:#BF360C;"/>
		<clipPath id="XMLID_77_">
			<use xlink:href="#XMLID_38_"  style="overflow:visible;"/>
		</clipPath>
		<path class="st55" d="M72.5,39.9c2.1,2,2.7,4.2,2.7,5.3c0,1.1-1.2,9.5-3.3,7.2c-2-2.3,8-0.7,8-0.7l2.5-7c0,0-1.5-5.7-2-5.8
			C80,38.7,75.2,38,75.2,38L72.5,39.9z"/>
		<path class="st56" d="M79.3,42.7c1,2.3,1,1.8,1,2.7s-0.1,1.6-0.5,2.1c-0.4,0.4,1.3-1,1.4-1.7s-0.3-1.5-0.5-1.6
			C80.6,44,79.3,42.7,79.3,42.7z"/>
	</g>
	<path class="st57" d="M77.7,49.3c-1.4,1-1.6,1.1-1.6,1.1l-1.5-0.2l-1.5,0.2c0,0-0.2-0.1-1.6-1.1c0.9-0.3,1.6-0.3,1.6-0.3h3.1
		C76.1,49,76.9,49,77.7,49.3z"/>
	<polygon class="st58" points="76.2,50.5 76.2,50.6 76.1,50.7 74.6,50.6 73.1,50.7 73,50.6 73,50.5 73.1,50.4 74.6,50.2 74.6,50.2 
		74.7,50.2 76.1,50.4 	"/>
	<polygon class="st57" points="76.4,51.2 72.9,51.2 72.9,51.1 73.1,50.7 74.6,50.6 74.6,50.6 74.7,50.6 76.1,50.7 76.3,51.1 	"/>
	<polygon class="st57" points="68.8,42 80.5,42 79.8,41.3 69.4,41.3 	"/>
</g>
</svg>
