<?xml version="1.0" encoding="utf-8"?>
<!-- Generator: Adobe Illustrator 21.0.0, SVG Export Plug-In . SVG Version: 6.00 Build 0)  -->
<svg version="1.1" id="Background" xmlns="http://www.w3.org/2000/svg" xmlns:xlink="http://www.w3.org/1999/xlink" x="0px" y="0px"
	 viewBox="0 0 100 100" style="enable-background:new 0 0 100 100;" xml:space="preserve">
<style type="text/css">
	.st0{fill:#FFF3E0;}
	.st1{fill:#A1887F;}
	.st2{fill:#CCCCCC;}
	.st3{fill:#80CBC4;}
	.st4{fill:#8D6E63;}
	.st5{fill:#5D4037;}
	.st6{fill:#E0F2F1;}
	.st7{fill:#B3B3B3;}
	.st8{fill:#B2DFDB;}
	.st9{fill:#00897B;}
	.st10{fill:#BCAAA4;}
	.st11{fill:#E6E6E6;}
	.st12{fill:#3E2723;}
	.st13{fill:#999999;}
	.st14{fill:#808080;}
	.st15{fill:#4DB6AC;}
</style>
<g id="Htan_x5F_Sin_x5F_Lu">
	<path class="st0" d="M91.8,19.4"/>
	<polyline class="st1" points="91.8,18.2 98.7,18.2 99.4,19.1 99.1,19.6 91.8,19.4 91.8,18.2 	"/>
	<path class="st2" d="M86.8,28.5"/>
	<polyline class="st3" points="94.3,21.8 93.8,23.8 94.2,25.9 95.4,29 94.5,25.8 94.3,21.8 	"/>
	<polyline class="st4" points="43.2,18.3 42.3,17.8 46.7,17.8 43.2,18.3 	"/>
	<polyline class="st1" points="43.2,18.3 46.7,17.8 66.7,18.7 66.9,19.1 55.5,19.1 43.5,20.1 	"/>
	<polygon class="st5" points="43.5,20.1 43.8,18.7 42.3,17.8 41.6,19.1 42.7,20.1 	"/>
	<polygon class="st6" points="48.6,15.9 53.7,13.8 54.1,12.3 55.2,14.1 59.2,17.4 	"/>
	<polygon class="st3" points="51.8,16.4 51.3,18.4 52.5,20.1 53.4,20.1 55.6,18.2 55.6,16.9 	"/>
	<polygon class="st4" points="48.6,15.9 49.7,16.4 58.1,17.7 59.2,17.4 	"/>
	<polygon class="st1" points="55.2,17.2 55.2,18.9 56,18.1 55.8,17.3 	"/>
	<polygon class="st6" points="55.8,19.1 54.7,22.2 53.4,23.5 52.6,21.6 51.9,19.5 52.7,20.5 53.6,20.5 55.4,19.1 55.4,19.5 	"/>
	<path class="st7" d="M55.5,19.1"/>
	<polygon class="st8" points="55.2,19.7 54.5,21.8 53.1,23.2 52.3,21.2 51.7,19.1 50.4,20.1 47.8,23.7 50,26.5 50.7,24 50.9,26.5 
		50.5,30.7 50.8,31.2 51.3,33.2 53.5,32.6 55.6,33.2 57.7,31.4 58.6,31.3 57.5,26.1 56,23.2 58.2,26.1 60.3,25.7 61.4,23.2 
		58.6,20.9 57.4,20.1 	"/>
	<polygon class="st1" points="53.6,33.5 52.8,32.4 53.5,31.8 54.1,31.6 55.2,32.3 55.5,33 54.6,33.5 	"/>
	<polygon class="st4" points="60.3,49.7 56,51 52.9,50.4 52.8,49.3 51.7,49.8 50.4,46.2 51.3,37.5 50.4,35.8 51.6,33 52.9,32.5 
		53.6,33.5 54.6,33.5 55.5,33 55.3,32.6 57.4,31.6 58.1,32 59.4,36 59.1,37.5 60,40.3 59.1,45.8 59.7,45.8 59.4,46.4 60,47.9 	"/>
	<polygon class="st6" points="49.5,25.8 48,23.9 47,24.2 46.6,20.9 44.8,20.4 44.8,20.9 45.3,21.7 45.8,22.3 45.5,24.9 47.6,27.3 
		48.3,26.8 49,25.5 	"/>
	<polygon class="st6" points="59.5,25.9 61.1,29.5 61.4,33.2 62.1,33.2 62.5,28 60.7,24.7 60.3,25.7 	"/>
	<polygon class="st3" points="61.4,33.2 60.8,34.3 61.1,35.9 61.4,36.2 61.4,35.2 62,34.7 62.2,33.3 62.1,33.2 	"/>
	<polygon class="st9" points="56,23.2 57.7,25.4 57.5,26.1 	"/>
	<polygon class="st3" points="57.5,26.1 57.7,25.4 58.2,26.1 	"/>
	<polygon class="st3" points="57.5,26.1 58.6,31.3 58.9,31.1 	"/>
	<polygon class="st9" points="53.3,31.3 52.8,30.3 53.5,31 	"/>
	<polygon class="st9" points="53.5,30.2 53,29.8 53.6,30 	"/>
	<polygon class="st10" points="50.4,35.8 51.3,37.5 52.2,41.3 51.7,36.2 	"/>
	<polygon class="st1" points="51,36 50.4,35.8 51.6,33 	"/>
	<polygon class="st11" points="51.3,37.5 50.4,46.2 50.2,45.5 	"/>
	<polygon class="st1" points="52.9,50.4 52.4,49.9 51.7,49.8 52.8,49.3 	"/>
	<polygon class="st11" points="59.2,45.2 59.5,45.8 59.1,45.8 	"/>
	<polygon class="st11" points="59.6,46.1 60,47.9 59.4,46.4 	"/>
	<polygon class="st1" points="59.1,37.5 60,40.3 59.6,43.1 	"/>
	<polygon class="st12" points="67.2,17.7 66.7,18.7 68,20.6 69.2,20.3 69.5,18.7 68.3,17.3 	"/>
	<polygon class="st1" points="69.5,18.7 68.7,18.8 69.2,20.3 	"/>
	<polygon class="st10" points="68.7,18.8 68.6,18 68.7,17.8 69.5,18.7 	"/>
	<polygon class="st1" points="67.2,17.7 67,18.8 66.7,18.7 	"/>
	<polygon class="st10" points="67,18.8 68,20.6 66.7,18.7 	"/>
	<polygon class="st12" points="61.5,18.5 62.1,18.7 61.5,19.1 66.9,19.1 66.7,18.7 	"/>
	<polygon class="st10" points="63.4,34.7 67.3,35.8 73.9,35.8 79.9,33.5 82,31.6 72.7,31.3 66.7,32.5 	"/>
	<polygon class="st1" points="63.4,34.7 67.3,35.8 73.9,35.8 79.9,33.5 82,31.6 82,32.1 80.2,33.7 73.9,36.6 67.3,36.2 63.4,35.1 	
		"/>
	<polygon class="st6" points="64.5,35.4 64.8,35.8 64.5,37.3 65.3,38.9 66.2,38.9 66.2,37.8 67.1,36.6 72.7,37.1 73.2,37.5 
		73.4,38.1 74.2,38.3 74.6,38 74.3,37.1 80.3,34.1 81.6,34.7 82,35.6 82,36.1 82.4,36.2 83.1,35.6 82.6,35 82.2,34.3 82,32.1 
		80.2,33.7 73.8,36.6 67.3,36.3 	"/>
	<polygon class="st1" points="65.3,38.9 64.9,39.2 64.9,39.4 66.4,39.4 66.4,39 66.2,38.9 	"/>
	<polygon class="st7" points="64.8,35.8 64.5,37.3 64.7,35.9 64.6,35.5 	"/>
	<polygon class="st10" points="64.7,36.6 65.3,38.9 64.5,37.3 	"/>
	<polygon class="st10" points="67.1,36.6 72.7,37.1 73.2,37.5 72.4,37.2 67.2,36.8 66.8,37.1 	"/>
	<polygon class="st6" points="65.3,34.1 68.3,35.2 74,35.2 79.6,33.4 80.8,31.8 78.9,28.5 74,27.4 73.5,26.4 71.9,26.4 71.7,27.2 
		69.7,27.8 66.6,29.1 65.3,30.6 64.5,33.2 	"/>
	<polygon class="st1" points="68,20.6 66.9,27.7 66.9,29 67.2,27.6 68.3,20.9 68.3,20.6 	"/>
	<polygon class="st10" points="66.9,28.1 66.7,29.1 66.9,29 	"/>
	<polygon class="st1" points="68.6,20.4 68.6,20.6 67.6,32.7 66.8,35.7 67.3,35.8 68,35.8 67.9,35.2 67.8,32.6 68.7,20.7 68.8,20.4 
		68.5,20.4 68.5,20.4 68.5,20.6 68.6,20.6 	"/>
	<polygon class="st2" points="67.9,33.4 67.5,35.2 67.8,35.8 67.9,35.8 67.8,35.1 	"/>
	<polygon class="st2" points="68.3,20.6 68.3,20.5 68,20.6 	"/>
	<polygon class="st2" points="68.5,20.6 68.6,20.7 68.6,20.4 68.6,20.6 	"/>
	<polygon class="st10" points="69,20.3 71,26.4 71.2,27.4 71.5,27.3 71.2,26.4 69.2,20.4 69.1,20.3 	"/>
	<polygon class="st1" points="68.9,20.3 69.1,30.7 69.8,32.5 71.2,35.8 71.8,35.8 70.1,32.4 69.2,30.6 69,20.3 68.9,20.2 68.9,20.3 
		68.9,20.3 	"/>
	<polygon class="st10" points="69,22 69.2,30.6 69.4,31 	"/>
	<polygon class="st7" points="69.3,28.9 69.8,31.8 69.4,30.8 	"/>
	<polygon class="st1" points="76,27.9 76.5,28 69.4,19.5 69.3,19.6 74.5,26 75.8,27.8 	"/>
	<polygon class="st10" points="77.1,28.4 78.8,28.8 79.3,30 79.3,30.6 	"/>
	<polygon class="st10" points="66.7,29.3 65.4,30.6 64.7,33.1 65.3,33.9 66.3,33.4 	"/>
	<polygon class="st1" points="79.5,30.2 79.5,30.7 80.6,31.8 	"/>
	<polygon class="st1" points="74,27.5 73,27.8 73.7,27.7 	"/>
	<polygon class="st1" points="73.3,27.7 72.3,27.9 72.9,28 72.9,27.9 	"/>
	<polygon class="st1" points="72.8,27.8 71.8,27.6 71.7,27.3 71.7,27.7 	"/>
	<polygon class="st10" points="77.8,31.9 76.3,32.8 74.7,33.1 72.3,33 74.7,32.8 	"/>
	<polygon class="st10" points="77.9,33 76.9,33.6 75.8,33.8 74.2,33.8 75.8,33.6 	"/>
	<polygon class="st10" points="69.3,33.4 68.7,32.7 68.4,31.7 68.4,30.4 68.6,31.7 	"/>
	<polygon class="st1" points="73.4,38.1 74.2,38.3 74.6,38 74.8,38.2 74.8,38.3 74.2,38.6 73.2,38.4 73.3,38.2 	"/>
	<polygon class="st2" points="73.2,37.5 73.4,38.1 73.3,38.2 73.1,37.6 72.9,37.4 	"/>
	<polygon class="st10" points="74.6,38 74.3,37.1 80.3,34.1 74.5,37.2 74.6,37.9 74.8,38.2 	"/>
	<polygon class="st7" points="80.3,34.1 81.6,34.7 80.3,34.3 78.5,35.1 	"/>
	<polygon class="st1" points="82,36.1 81.9,36.2 82.5,36.3 83.3,35.7 83.1,35.6 82.4,36.2 	"/>
	<polygon class="st10" points="81.3,34.6 82,35.8 82,35.6 81.6,34.7 	"/>
	<polygon class="st10" points="82.2,34.3 82,32.2 82.3,34.3 82.6,35 	"/>
	<polygon class="st3" points="87.4,16 86.9,17.4 87.4,19.1 89,19.2 90.7,18.8 91.2,17.4 90.4,16 89.7,15.6 88.4,15.2 	"/>
	<polygon class="st4" points="83.3,15.1 86.6,16.6 90.3,17 94.4,16.6 89.5,16.3 86.4,16 	"/>
	<polygon class="st6" points="83.3,15.1 86.4,16.1 94.4,16.6 95.3,16.1 95.3,15.9 93.6,15.1 90.1,14.4 88,14.1 85.4,14.1 84.1,14.6 
		83.4,14.8 	"/>
	<polygon class="st4" points="87.5,14.5 88.8,15.1 90.5,15.1 91.4,14.7 90.6,13.7 89.3,13.4 88.2,13.4 86.9,14.1 86.9,14.4 	"/>
	<path class="st5" d="M89,13.5c0,0,0.3,0.1,0.3,0.1h0.1c0,0,0.2-0.1,0.2-0.1c0,0-0.1-0.4-0.1-0.4l0-0.2L89.3,13l-0.2,0.3L89,13.5z"
		/>
	<polygon class="st3" points="87.4,19.1 89,19.2 90.7,18.8 90.2,19.2 89.1,20 87.5,19.5 	"/>
	<polygon class="st8" points="87.7,19.5 86.9,20.7 86.9,26.5 88,27 89.4,27.2 89.4,27.7 88.2,27.8 86.4,28.8 86.4,29.2 87.9,29.3 
		88.4,30.7 88.7,30.8 90.2,30.7 91,30.8 93.1,30.8 94.2,31.6 95.9,30.2 94.2,25.9 93.8,23.8 94.3,21.5 92.9,19.5 92.1,18.7 91,18.8 
		90.5,19.3 89.4,20.1 	"/>
	<polygon class="st3" points="88,27 88.5,27.3 88.5,27.6 88.2,27.8 89.4,27.7 89.4,27.2 	"/>
	<polygon class="st6" points="94.5,22.2 95.4,22.9 95.7,23.7 94.7,24.8 93.3,24.5 93,23.5 93.3,22.7 92.7,22.2 91.8,19.4 91.3,18.8 
		91.5,18.3 92.1,18.2 93,18.5 92.7,19 92.8,19.6 94,21.7 	"/>
	<polygon class="st3" points="86.8,28.6 86.4,28.8 86.4,29.2 86.8,29.2 86.6,29 86.6,28.8 	"/>
	<polygon class="st3" points="95.5,23.4 95.7,23.7 94.7,24.8 94.2,24.5 93.3,24.4 94.3,24.4 94.6,24.5 95,24.3 95.4,23.7 	"/>
	<polygon class="st1" points="69.5,18.7 91.8,18.2 91.3,18.8 91.8,19.4 69.5,18.9 	"/>
	<polygon class="st5" points="98.5,18.2 98.1,18.6 98,19.2 98.3,19.6 98.9,19.6 99.2,19.1 	"/>
	<polygon class="st5" points="98.5,18.2 99,18.4 99.2,19.1 	"/>
	<polygon class="st3" points="55.6,17.3 55.6,18.2 55.5,18.6 56,18.1 55.8,17.3 	"/>
	<polygon class="st10" points="82.3,34.3 82.6,35 83.1,35.6 83.3,35.7 83.1,35.5 82.6,34.9 	"/>
	<polygon class="st4" points="89.4,30.8 88.7,31.6 88,35 89.6,43.1 89.3,46.2 90.3,47.9 91.3,47.9 91.2,46.2 91.8,46.2 91.8,47 
		93.8,46.1 94.5,47 96.5,47.9 98.1,47 97.6,45.2 95.9,40.3 95.9,35.8 95.6,32.5 95,31 94.2,31.6 93.1,30.8 91,30.8 90.2,30.7 	"/>
	<polygon class="st1" points="93.8,46.1 91.8,39.4 91.6,38 91.6,40.3 92.7,44.6 93.5,46.1 	"/>
	<polygon class="st1" points="91.8,47 91.8,48 92.8,47.9 94.5,47 93.8,46.1 	"/>
	<polygon class="st10" points="94.5,47 94.3,46.9 92.8,47.8 91.9,47.9 91.8,48 92.8,47.9 	"/>
	<polygon class="st4" points="91.8,47 91.9,47.9 91.8,48 	"/>
	<polygon class="st4" points="92.8,47.8 94.3,46.8 94.5,47 94.3,46.9 	"/>
	<polygon class="st10" points="91.6,38 90.9,35 91.3,30.8 91.2,34.8 92.3,38.7 	"/>
	<polygon class="st1" points="92.3,38.7 91.2,34.8 91.3,32 92,35.1 	"/>
	<polygon class="st10" points="94.5,29.8 93.3,30.1 93.6,31.8 93.9,33.1 94.4,33.5 95.2,33.9 95.7,33.3 	"/>
	<polygon class="st1" points="96.8,28.1 93.9,27.4 93.5,27.8 94.6,32 94.7,33.7 95.5,32.9 97,33.5 97.8,32.6 97.6,29.7 	"/>
	<polygon class="st13" points="93.9,29.3 93.5,29.3 93.1,29.5 93,29.7 93.1,29.9 93.2,29.9 93.3,29.8 93.7,29.6 94,29.5 94,29.5 
		94,29.3 	"/>
	<polygon class="st13" points="94.1,29.7 93.7,29.7 93.3,29.9 93.2,30.1 93.3,30.3 93.4,30.3 93.5,30.2 93.8,30 94.1,29.9 
		94.2,29.9 94.1,29.7 	"/>
	<polygon class="st14" points="93.2,30.1 93.2,30 93.1,29.9 93.2,29.9 93.3,29.8 93.7,29.6 94,29.5 94,29.5 94.1,29.6 94.1,29.6 
		94.1,29.7 93.7,29.7 93.3,29.9 	"/>
	<polygon class="st3" points="88.1,20.2 87.7,21.7 92.2,29.1 93.3,29.4 92.5,28.8 88.3,21.7 	"/>
	<polygon class="st3" points="88.5,20.9 88.7,21.9 93.4,29.2 89.4,22.2 88.9,20.7 	"/>
	<polygon class="st10" points="96.9,29.6 97.3,30.4 97.5,32.4 97.1,30.4 96.5,29.4 96,29.1 96.8,29.4 	"/>
	<polygon class="st10" points="96.4,30 96.8,30.9 97,33.1 96.6,30.9 95.9,29.8 95.4,29.6 96.2,29.8 	"/>
	<polygon class="st4" points="94.9,33.2 95.4,32.7 96,32.7 97.1,33.2 95.9,33 95.5,33 94.8,33.5 	"/>
	<polygon class="st1" points="91.2,46.2 91.8,46.2 91.8,47 91.8,47.6 91.3,47.6 91.3,46.6 	"/>
	<polygon class="st10" points="91.3,46.6 91.2,46.2 91.3,47.6 	"/>
	<polygon class="st6" points="94.2,47.5 94.8,47.2 95.6,47.5 95.4,49.5 95.8,50.9 94.8,50.8 94.5,49.6 	"/>
	<polygon class="st6" points="94.2,47.5 94.2,47.1 94.5,47 94.8,47.2 	"/>
	<polygon class="st6" points="95.4,49.7 95.1,49.7 94.7,49.8 94.2,51.1 94.2,51.6 94.9,51.7 95.4,51.5 95.1,51.2 95.4,50 	"/>
	<polygon class="st3" points="95.4,51.5 95.1,51.2 95.4,50.3 95.8,50.9 	"/>
	<polygon class="st6" points="95.4,49 95.9,49.5 96.3,50.1 96.8,50.2 97.2,49.7 96.5,48.7 95.5,48.5 95.5,48.6 	"/>
	<polygon class="st3" points="97.2,49.7 96.5,48.7 96.7,48.5 97,48.6 	"/>
	<polygon class="st6" points="96.7,48.5 95.5,48.5 95.5,48.5 95.5,48.6 95.5,48.5 96.5,48.7 	"/>
	<polygon class="st3" points="93.5,47.5 94.3,48.3 94.2,47.5 94.2,47.2 94.2,47.1 	"/>
	<polygon class="st3" points="95.7,48.5 95.5,48 95.5,48.5 95.5,48.6 95.4,49 95.5,48.5 	"/>
	<polygon class="st6" points="93.3,47.6 94.3,48.3 93.5,47.5 	"/>
	<polygon class="st3" points="94.2,51.1 93.4,51.7 93.6,51.8 94.9,51.7 94.4,51.4 	"/>
	<polygon class="st6" points="93.6,51.5 93.9,51.6 93.9,51.8 93.6,51.8 93.4,51.8 93.4,51.7 	"/>
	<polygon class="st12" points="80.3,18.5 69.5,18.7 69.5,18.9 81.3,19.2 77.4,18.8 	"/>
	<polygon class="st6" points="94.3,50.8 92.8,51.6 93.1,52 93.4,51.8 93.4,51.7 94.2,51.1 	"/>
	<polygon class="st3" points="93.9,51.8 93.6,51.8 93.4,51.8 93.1,52 93.5,51.9 	"/>
	<polygon class="st3" points="93,51.6 92.9,51.8 92.8,51.6 	"/>
	<polygon class="st3" points="93.5,51.2 94.6,50 94.3,50.8 	"/>
	<polygon class="st3" points="96.3,50.1 96.4,50.5 96.9,50.5 97.3,50 97.2,49.7 96.8,50.2 	"/>
	<polygon class="st3" points="94.4,48.6 94.3,49.5 94.5,50.1 94.6,50 	"/>
	<polygon class="st3" points="93.4,47.6 94,48.2 94.3,48.3 	"/>
	<polygon class="st3" points="94,48.2 94.4,48.6 94.3,48.3 	"/>
	<polygon class="st6" points="53.5,50.5 54.1,52.2 53,53.3 51.7,54.1 52.2,54.5 53.5,54.2 55.5,54.2 56,53.8 55.3,52.2 55.1,50.8 	
		"/>
	<polygon class="st6" points="56.8,50.7 57.3,53.3 57.1,54.5 56.4,55.5 56,56.5 56.7,56.7 57.9,56.5 59.1,55.5 58.6,55.1 58.4,53.7 
		59.1,50.1 	"/>
	<polygon class="st3" points="56,56.5 56.2,57 57,57 58.2,56.7 58.6,56 57.9,56.5 57,56.5 56.1,56.2 	"/>
	<polygon class="st3" points="58.4,53.7 58.6,55.1 59.1,55.5 58.4,53.4 	"/>
	<polygon class="st2" points="58.2,56.7 58.6,56 59.1,55.5 	"/>
	<polygon class="st3" points="52.2,54.5 53.5,54.2 55.5,54.2 	"/>
	<polygon class="st3" points="51.7,54.1 52,53.9 52.2,54.5 51.9,54.5 	"/>
	<polygon class="st3" points="52,53.9 53,53.3 54.1,52.2 54,51.8 	"/>
	<polygon class="st3" points="56,53.8 55.3,52.2 55.8,53.7 55.5,54.2 	"/>
	<polyline class="st3" points="57.6,50.6 57.4,53.1 57,50.9 	"/>
	<polygon class="st3" points="91.8,19.4 91.8,19.4 91.3,18.8 91.8,18.2 91.8,18.3 92.1,18.2 93,18.5 92.8,19 92.8,19.4 92.7,19.4 
		91.9,19.4 	"/>
	<polygon class="st3" points="45.8,22.3 46,22.5 46.8,22.3 46.6,20.9 44.8,20.4 44.8,20.9 45.4,21.8 	"/>
</g>
<g id="Warso_x5F_second_x5F_man">
	<polygon class="st8" points="35.7,41 32.7,42.6 31.7,45.6 33.7,45.5 34.3,54.3 35.7,55.2 40.2,53.4 42.1,53.1 43.9,51.4 42.9,45.1 
		41.6,40.6 38.8,42.6 	"/>
	<polygon class="st3" points="42.9,45.1 42.1,53.1 43.9,51 	"/>
	<polygon class="st8" points="41.6,40.6 45.1,42.6 46.7,49.7 44.9,49.2 43.3,49.7 43.5,45.6 	"/>
	<polygon class="st15" points="43.6,49.7 43.9,45.6 41.6,40.6 	"/>
	<polygon class="st15" points="33.4,52.4 31.3,52 29.8,52.4 29.8,52.7 30.1,53.4 29.8,54 30.3,54.4 32,54.4 33.2,54 33.6,53.4 	"/>
	<polygon class="st3" points="35.9,49.5 35.9,50.7 34.4,51.6 33.5,51.8 32.9,52.3 31.3,52 29.8,52.4 28.5,52 27.3,50.1 27.5,49.7 
		31.7,49.1 	"/>
	<polygon class="st6" points="32.4,45.6 31.9,49.1 34,49.3 33.7,45.5 	"/>
	<polygon class="st4" points="41.7,53.1 39.8,53.4 35.7,55.2 35.7,56 34.9,57.4 34.6,58.9 37.1,76.9 42.5,75.7 47.1,76 45,56.7 	"/>
	<polygon class="st1" points="35.2,62.8 35.2,68.7 36.8,73.9 	"/>
	<polygon class="st1" points="45.6,62.4 45.6,75.8 47.1,76 	"/>
	<polygon class="st1" points="41.7,53.1 43.3,53.5 44.4,54.6 45,56.7 	"/>
	<polygon class="st1" points="37.8,54.4 38.5,53.4 39.8,53.4 39.8,54.4 39.5,55.7 38.8,55.3 37.9,55.5 37.3,55.2 37.3,54.2 	"/>
	<polygon class="st1" points="45,56.7 44.8,59.9 45.3,61.7 45.1,63.2 45.6,62 	"/>
	<polygon class="st1" points="37.3,76.9 40.5,74.7 40.6,76.2 	"/>
	<polygon class="st1" points="38.7,59.1 38.5,65.7 41.5,72.9 	"/>
	<polygon class="st1" points="40.3,58.6 40.8,66 38.7,57.6 	"/>
	<polygon class="st6" points="39.6,76.8 40.3,79 38.7,80.9 39.3,82 41.9,80 42.6,79.4 41.4,78.2 40.9,76.6 40.8,76.2 39.5,76.4 	"/>
	<polygon class="st15" points="38.7,80.9 38.4,81.5 38.6,81.8 38.8,81.8 39,82.4 39.6,82.9 39.9,82.5 39.3,82 	"/>
	<polygon class="st8" points="42.6,79.4 39.3,82 39.6,82.9 39.9,82 	"/>
	<polygon class="st6" points="39.9,82.5 39.8,82.4 39.9,82 42.6,79.4 	"/>
	<polygon class="st15" points="40.6,76.2 41.2,76.1 41.4,78.2 	"/>
	<polygon class="st8" points="39.5,76.4 40.3,79 39.9,79.4 	"/>
	<polygon class="st6" points="40.3,79 39.2,76.5 39.5,76.4 	"/>
	<polygon class="st6" points="43.8,75.8 45.2,81.3 46.4,81.3 46.3,75.8 	"/>
	<polygon class="st6" points="45.2,81.3 44.6,82 44.3,82.9 45.1,83 45.3,82.9 46,82.9 46.3,83 46.6,82.9 46.9,82.6 46.7,82.3 
		46.4,82.2 46.4,81.7 46.3,81.4 46.4,81.3 	"/>
	<polygon class="st8" points="44.3,82.9 44.5,83.2 45,83.2 45.1,83 	"/>
	<polygon class="st8" points="45.1,83 45.3,83.1 45.5,82.9 45.7,83.1 46,83 46.2,83 46.3,83 46.5,83 46.6,82.9 46.6,82.8 46,82.9 
		45.3,82.9 	"/>
	<polygon class="st15" points="45.2,81.3 44.3,82.9 44.6,82 	"/>
	<polygon class="st15" points="46.4,81.3 46.3,81.4 46.4,81.7 46.4,82.2 46.7,82.3 46.9,82.6 46.6,81.7 	"/>
	<polygon class="st15" points="44,76 45.1,80 44.8,76.1 	"/>
	<polygon class="st8" points="46.1,76.1 46.6,76.1 46.4,80.9 	"/>
	<polygon class="st6" points="46.5,76.1 46.6,75.8 46.3,75.8 46.3,76.1 	"/>
	<polygon class="st6" points="37.8,41.5 39.1,41.5 40.3,39.9 40.6,37.9 40.6,36.8 39.2,36.1 36.6,35.9 35.6,37 35.8,38.7 36.1,39.7 
		36.5,40.9 	"/>
	<polygon class="st1" points="35.3,37.7 37.2,36.5 38.5,36.1 38.8,35.1 38,34.4 36.3,34.4 35.5,35.6 34.7,36.5 34.9,37.5 35.2,38.2 
		35.7,37.9 	"/>
	<polygon class="st1" points="38.1,34.5 38.9,35.3 38.5,36.2 40,36.7 40.7,37.1 41,37.9 41.4,37.1 41.4,35.5 40.4,35.1 39.6,35.1 
		39.1,34.7 38.4,34.5 	"/>
	<polygon class="st4" points="38.3,34.4 39,35.1 38.6,36.1 38.5,36.1 38.8,35.1 38,34.4 	"/>
	<polygon class="st10" points="38.1,34.5 38.9,35.3 38.5,36.2 39.6,36 39.7,35.4 	"/>
	<polygon class="st10" points="39.9,36.2 40.8,36.9 41,37.3 41.2,36.8 40.3,36 40.1,35.7 	"/>
	<polygon class="st4" points="35.2,38.2 35.8,38.6 35.7,37.5 35.3,37.7 35.3,37.7 35.7,37.9 35.2,38.2 	"/>
	<polygon class="st1" points="39.1,36.2 38.9,37.2 39.5,38.5 39.8,38.6 39.8,38 39.6,37 39.4,36.4 39.4,36.3 	"/>
	<polygon class="st10" points="39.4,36.3 39.8,36.4 39.6,37 39.4,36.4 	"/>
	<polygon class="st4" points="39.6,36.9 39.9,38 39.8,38.6 39.8,38.6 39.8,38 39.6,37 	"/>
	<polygon class="st8" points="39.9,37.8 39.9,37.6 40,37.3 40.3,37.3 40.4,37.7 40.4,38.1 40.3,38.5 40.1,38.6 40,38.5 40.1,38.3 
		40.2,38.2 40.2,38.1 40.1,37.8 40,37.7 39.9,37.8 	"/>
	<polygon class="st15" points="37.9,39.7 37.3,40.2 36.8,40.2 36.9,40.3 37.4,40.2 38,39.7 	"/>
	<polygon class="st15" points="37.3,40.4 37.4,40.4 37.5,40.3 37.5,40.4 37.4,40.5 37.3,40.5 	"/>
	<polygon class="st15" points="36.5,38.4 36.3,38.4 36.2,38.4 36.1,38.5 36,38.6 36.1,38.7 36.1,38.6 36.2,38.6 36.2,38.5 
		36.3,38.5 36.4,38.5 36.5,38.5 36.6,38.5 	"/>
	<polygon class="st15" points="37.7,37.9 37.6,37.9 37.4,37.9 37.3,38 37.3,38.1 37.3,38.2 37.4,38.1 37.4,38 37.4,38 37.6,37.9 
		37.6,38 37.7,38 37.8,38 	"/>
	<polygon class="st6" points="37.9,41.5 39.2,40.8 39.9,40.8 40.4,41.5 38.8,42.6 36.8,41.6 37.3,41.2 	"/>
	<polygon class="st3" points="40,41 40.8,41.2 40.4,41.5 	"/>
	<polygon class="st3" points="37.2,41.2 36.6,41.1 36.3,41.3 36.8,41.6 	"/>
	<polygon class="st10" points="36.2,34.9 35.7,35.7 35.1,36.5 35.3,37.1 35.8,37.2 36.9,36.6 37.3,36.1 37.9,35.9 38,35.4 
		37.6,34.8 36.2,34.7 36.5,34.9 36.8,35.2 36.8,35.5 	"/>
	<polygon class="st6" points="46.4,49.6 46.6,50.7 46.6,51.6 45.9,52.2 43.5,52.5 35.9,52.9 33.6,53.4 33.4,52.4 35.3,52 42.7,50.4 
		43.7,50.5 43.6,49.6 44.9,49.2 	"/>
	<polygon class="st3" points="38.5,52.7 35.9,52.9 33.6,53.4 	"/>
	<polygon class="st15" points="37.1,37.9 37,37.8 37.5,37.5 38.2,37.5 37.5,37.6 	"/>
	<polygon class="st15" points="36.5,38 36.5,38.1 36.1,38.2 35.8,38.4 36.1,38.1 	"/>
	<polygon class="st15" points="36.9,38.8 36.9,39.4 37.1,39.6 	"/>
	<polygon class="st8" points="37.8,41.5 39.2,40.9 39.8,40.9 40.1,41.2 37.8,41.5 	"/>
	<polygon class="st10" points="39.2,37.9 39.3,38.7 39.6,39 39.8,38.6 39.5,38.5 	"/>
	<polygon class="st8" points="39.5,39.3 39.5,39.8 39,40.8 38.6,41 39.1,40 39.3,38.9 	"/>
	<polygon class="st1" points="40.5,36.8 40.5,37.9 40.4,39.3 40.1,39.6 40,39.9 40.1,39.9 40,40.1 40.3,40 40.2,40.3 40.5,40 
		40.7,39.9 40.9,39 40.8,38 40.6,36.9 	"/>
	<polygon class="st10" points="40.6,37 40.8,37.2 41.1,38.9 40.7,39.5 40.7,37.8 	"/>
	<polygon class="st10" points="40.2,39.6 40.2,39.7 40.1,39.8 40.1,39.9 40.1,39.9 40.3,39.8 	"/>
	<polygon class="st10" points="40.3,39.7 40.3,39.8 40.3,40.2 40.4,40 40.7,39.9 40.5,39.8 	"/>
	<polygon class="st8" points="37.5,41.1 38,41.1 38.4,40.9 38.4,41 38,41.3 37.6,41.2 37.3,41.2 	"/>
	<polygon class="st4" points="41.1,37.6 41,37.9 40.9,37.5 41,38.3 41.2,37.7 41.2,37.4 	"/>
	<polygon class="st8" points="28.4,50.7 29.1,51.8 31.7,51.8 29.5,50.7 28,50.3 	"/>
	<polyline class="st3" points="35.7,55.2 36.2,55.1 35.3,53.2 34.2,53.3 34.3,54.3 35.7,55.2 	"/>
	<polygon class="st3" points="34.8,52.1 34.6,51.6 34.3,51.8 34.1,51.8 34.1,52.2 34.5,52.1 	"/>
	<polygon class="st3" points="33.7,45.5 34.5,49.2 34.1,49.2 34,49.2 	"/>
	<polygon class="st3" points="34.7,42.9 34,45.1 34.5,46.9 34.3,44.9 	"/>
</g>
<g id="Warso_x5F_first_x5F_man">
	<polygon class="st8" points="12.5,36.8 13.8,38.4 14.6,40 16.7,40.1 17.8,37.8 19.9,36.4 21.5,35.6 24.9,37 25.4,39.8 24.4,43.3 
		22.5,46.6 21.9,50.5 21.9,52.3 22.2,53.3 20.1,53.2 15.5,51.3 13.1,50.7 11.7,51.1 12.1,44.5 11.7,41.5 11.9,37.8 	"/>
	<polyline class="st8" points="16.7,40.4 15.7,40.3 17.6,38.2 17.8,38 	"/>
	<polygon class="st15" points="20.9,38.4 20,40.7 20.7,40.4 21.1,41.5 21.9,42.5 21.1,40.1 21.2,37.8 	"/>
	<polygon class="st6" points="21.9,42.5 21.1,41.5 20.7,40.4 20,40.7 20.3,40.1 19.5,39.7 18,36.7 17.7,34.4 17,34.3 15.9,33.9 
		16.5,37.5 19,43.2 19.7,43.5 	"/>
	<polygon class="st6" points="16.3,33.8 15.7,33.8 16.4,38 18.2,43.1 19.5,43.6 20,43.5 	"/>
	<path class="st6" d="M13.8,31.8l0.8,0.8l0.3,0.8l0.4,0l-0.8,0.9l-1.1,0.7c0,0-0.7,1.6-0.7,1.8c0,0.2,0.5,2.4,0.5,2.4l-0.2,1.5
		l-2.1,1.9l-1.2-0.7L9.6,40l1.8-3.2l0.7-2.8l0.3-2l0.3-0.6L13.8,31.8z"/>
	<polygon class="st6" points="12.3,32.8 11.3,35.9 10,39.4 11.4,36.9 12.1,34.1 	"/>
	<polygon class="st8" points="15.6,35.7 12.5,36.8 13.9,38.6 14.6,40 15.9,40.1 16.5,39.5 16,38.1 	"/>
	<polygon class="st15" points="13.7,38.7 13.8,38.4 14.1,38.4 14.8,40.5 14.7,41.6 14.7,40.5 	"/>
	<polygon class="st15" points="11.7,41.7 10.7,42.6 11.2,42.6 11.5,42.5 11.7,42.1 11.7,42 	"/>
	<polygon class="st8" points="11.7,42 11.7,42.1 11.5,42.5 11.8,42.4 	"/>
	<polygon class="st15" points="14.4,43 14.7,44.9 13.2,50.5 14.3,45 	"/>
	<polygon class="st15" points="22.2,48.5 22.5,49.9 22.2,50.8 22.5,52.3 23.1,53.6 22.2,53.3 21.9,52.3 21.9,50.5 	"/>
	<polygon class="st6" points="22.2,48.5 22.5,46.6 23.4,45.1 22.4,48.5 22.5,49.9 	"/>
	<polygon class="st6" points="17.1,32.2 17.5,34.9 18.6,35.6 21.1,34.9 21.9,32.7 21.6,29.7 20.2,28.7 17.5,30.2 	"/>
	<circle class="st15" cx="17.9" cy="33.6" r="0.3"/>
	<circle class="st1" cx="17.8" cy="33.6" r="0.3"/>
	<polygon class="st1" points="17.8,33.4 13.8,32.8 13.8,33.3 17.9,33.9 	"/>
	<circle class="st4" cx="13.8" cy="33" r="0.3"/>
	<polygon class="st4" points="14.5,29.6 19.4,30.1 20.2,30.2 24.8,32.8 20.1,31.6 19,31.4 	"/>
	<polygon class="st1" points="14.5,29.6 18.6,30.2 21.9,31.2 24.8,32.8 23.3,31.4 20.8,28.1 20.3,28 17,29.1 	"/>
	<polygon class="st4" points="19.7,28.4 20.1,28.5 18,29.1 17.8,29 	"/>
	<polygon class="st4" points="20.8,29.6 21.3,29.6 21.7,30.7 19.6,29.7 20.2,29.1 	"/>
	<polygon class="st4" points="20.3,28 20.7,27.8 20.8,27.9 20.8,28.1 	"/>
	<polygon class="st4" points="17.4,30.8 14.5,29.6 15.1,30.6 	"/>
	<polygon class="st4" points="15.1,30.6 17.3,31.3 17.4,30.8 	"/>
	<path class="st4" d="M24.8,32.8l-0.5,0c0,0-0.3,0.2-0.4,0.2c0,0-1.9-0.3-1.9-0.3l-0.1-0.6L24.8,32.8z"/>
	<polygon class="st15" points="19.3,35 20.1,34.4 20.1,33.5 19.9,34.3 	"/>
	<polygon class="st15" points="21.1,34.9 18.7,35.6 20.2,35.3 	"/>
	<polygon class="st6" points="20.7,35.1 20.8,35.4 21.4,35.7 19.9,36.4 18.3,37.4 18,36.7 17.8,35.1 18.7,35.6 	"/>
	<polygon class="st15" points="17.8,35.1 18,36.7 18.3,37.4 	"/>
	<polygon class="st8" points="18.8,36.9 20,36.1 21.1,35.8 20.8,35.6 20.5,35.6 	"/>
	<polygon class="st8" points="17.7,34.3 17.9,34.5 18.1,35 18.1,34.4 17.5,34.2 17.5,34.2 	"/>
	<polygon class="st6" points="15.5,34 15.8,35 16.4,35.2 17.3,35.3 17.8,35 17.8,34.5 17.4,34 17.5,33.2 17,33.1 16.9,33.3 
		16.4,33.1 16.3,33.3 16,33 15.6,33.3 15.4,33 15.1,33.5 	"/>
	<polygon class="st8" points="15.6,35.7 16,35.6 16.4,38 16.8,39.1 16.5,39.5 16,38.1 	"/>
	<polygon class="st6" points="13.1,36.9 15.5,36 15.8,36 12.9,37.3 	"/>
	<polygon class="st8" points="15.1,33.5 15.2,33.2 15.6,33.4 15.9,33.1 16.2,33.4 16.3,33.2 16.7,33.4 17,33.2 17.2,33.3 17.1,33.8 
		16.9,33.9 16.8,33.8 16.7,33.7 16.5,33.8 16.3,33.8 16.2,33.6 16.1,33.6 16,33.8 15.7,33.8 15.6,33.6 15.5,33.6 15.5,33.8 
		15.3,33.8 	"/>
	<polygon class="st15" points="17.2,33.1 17.4,33.2 17.4,34 17.8,34.5 17.7,35 17.5,35 17.5,34.4 17.3,34.1 17.3,33.4 	"/>
	<polygon class="st8" points="16.2,35.2 15.9,35 15.8,35 15.5,34 15.8,34.2 16.4,35.4 	"/>
	<polygon class="st8" points="16.4,35.6 16.4,37.9 16.1,35.3 	"/>
	<polygon class="st15" points="17.5,35.4 18,37.6 19.3,39.4 18.2,37.5 	"/>
	<polygon class="st8" points="14.5,33.7 14.5,33.6 14.5,33.1 14.4,32.9 14.9,33 14.8,33.6 14.6,33.8 14.3,33.7 	"/>
	<path class="st8" d="M12.8,31.8l0.4-0.1l0.2,0.3l0.3-0.1l0.3,0.3l0.1-0.1l0.2,0.4l0.2,0l0.2,0.2l-0.2,0.6l-0.2,0.1l0-0.4L14,32.6
		L13.9,33l-0.2-0.3l0-0.3h-0.1l-0.1,0.2c0,0-0.3-0.1-0.2-0.2c0-0.1,0.1-0.3,0.1-0.3l-0.3,0l-0.2,0.2l-0.1-0.1c0,0,0-0.2,0-0.2
		s0.1-0.2,0.1-0.2L12.8,31.8z"/>
	<polygon class="st8" points="12.6,32.4 13,33.3 13.4,33.6 13.9,33.5 14.1,33.7 14,34.2 13.2,34.6 12.6,34.5 12.3,34.2 12.2,33.8 	
		"/>
	<polygon class="st8" points="11.5,35.8 10.1,39.6 9.9,40.2 9.7,41.7 10.6,40.5 10.6,39.7 12.1,35 	"/>
	<polygon class="st15" points="18,32.4 18,32.5 17.9,32.6 18.4,32.7 18.1,32.4 	"/>
	<polygon class="st15" points="17.5,31.4 17.9,31.2 18.3,31.4 18.4,31.6 18.2,31.4 17.9,31.3 	"/>
	<polygon class="st15" points="18.8,31.8 19.2,31.7 19.5,31.8 19.6,32 19.5,31.8 19.2,31.8 	"/>
	<polygon class="st8" points="19.8,33.2 19.3,34.1 18.4,34.6 18.3,34.7 19.5,34.3 20.2,32.6 	"/>
	<polygon class="st1" points="20.6,31.7 20.4,32.9 20.1,33.3 20.4,33.3 20.4,33.7 20.6,33 20.8,31.8 	"/>
	<polygon class="st4" points="20.8,31.8 20.9,31.9 20.4,33.7 	"/>
	<polygon class="st4" points="20.2,33.3 20.2,33.5 20.4,33.5 20.4,33.3 	"/>
	<path class="st15" d="M21.1,32.5l0.3-0.1v0.2l-0.1,0.4l-0.3,0.5l-0.1-0.2c0,0-0.1-0.2,0-0.2s0.2,0.1,0.2,0.1l-0.1,0.1l0.2-0.1
		c0,0,0.1-0.2,0.1-0.2c0,0,0.1-0.3,0.1-0.3l-0.1-0.2l-0.2,0l-0.1,0.1l-0.1-0.1l0-0.1H21.1z"/>
	<path class="st1" d="M21.5,31.9c0,0,0.2,0,0.3,0c0.1,0,0.3,0.4,0.3,0.4l-0.2,0.5c0,0-0.2,0.7-0.2,0.7c0,0-0.4,1-0.4,1l-0.2,0.2
		l-0.4,0l-0.2-0.1l0.4-0.1l0.2-0.4c0,0,0.9-1.9,0.5-1.9c-0.3,0-0.3,0.1-0.3,0.1l-0.2,0l-0.1-0.1l0.1-0.2L21.5,31.9z"/>
	<polygon class="st4" points="21.9,32.6 21.1,34.5 21.5,33.8 21.8,32.9 	"/>
	<polygon class="st4" points="21.8,32.6 21.6,33.1 21.6,33.1 21.4,33.3 21.5,33.3 21.3,33.6 21.4,33.6 21.1,33.8 21.3,33.8 20.9,34 
		21.2,34 20.7,34.3 20.9,34.3 20.6,34.6 21,34.5 21.5,33.8 21.9,32.6 	"/>
	<polygon class="st8" points="20.6,34.7 20.8,35.5 20.5,35.5 20.4,35.3 20.5,34.3 	"/>
	<polygon class="st8" points="16.7,38.2 18.3,42.9 19.5,43.5 19.9,43.1 20,42.4 17.2,38.5 	"/>
	<polygon class="st15" points="21,45.2 19.7,49.2 20.8,52.9 21.4,52.9 20.4,49.5 21.8,44.2 	"/>
	<polygon class="st6" points="11.8,42.4 12.1,44.5 11.7,51.1 13.1,50.7 12.5,44.2 	"/>
	<polygon class="st15" points="12.9,50.6 12.4,47.9 12.2,50.8 	"/>
	<polygon class="st8" points="18,32.4 18.2,32.1 18.1,32.4 	"/>
	<path class="st8" d="M18,33.3c0,0,0.3,0.1,0.3,0.2c0,0.1-0.1,0.4-0.3,0.4c-0.2,0-0.3,0-0.3-0.1c0,0,0,0,0,0s0,0,0.1,0
		c0.1,0,0.2-0.1,0.2-0.3C18.1,33.5,18.2,33.5,18,33.3C17.9,33.3,18,33.3,18,33.3z"/>
	<polygon class="st8" points="18.1,35.3 18.1,35.7 18.1,36 18.5,36.1 18.6,36.4 18.7,36.2 18.4,35.6 	"/>
	<polygon class="st6" points="24.3,37.8 24.8,40 24.2,43.1 22.9,45 24,42.2 24.4,40 23.4,36.9 24.2,37.3 	"/>
	<polygon class="st8" points="21.2,32.6 21.3,32.7 21.2,33 21.1,33.2 20.9,33.3 21,33.2 21,33.2 21.1,32.6 	"/>
	<polygon class="st8" points="18.2,32.4 18.4,32.6 18.4,32.5 18.3,32.4 	"/>
	<polygon class="st6" points="21.8,44.2 20.4,49.5 21.4,52.9 21,49.2 	"/>
	<polygon class="st4" points="20.6,53.4 22.1,53.5 22.7,54.1 23.6,54.6 22.4,55.6 23,55.4 23.6,60.1 22.1,69.6 23,73.6 19.3,73 
		16,75.1 12.6,76 11.2,75.1 11.7,77.7 8.8,77.7 9.4,68.8 8.8,67.2 12.2,51.3 13.6,50.9 16,51.5 	"/>
	<polygon class="st1" points="12.6,52.5 11.7,51.6 11.9,50.8 13.8,50.1 14.7,50.8 14.3,52.5 13.5,53.3 12.6,53.1 12.2,52.9 	"/>
	<polygon class="st1" points="12.9,56.1 12.1,60.5 13.9,64.9 13,60.5 	"/>
	<polygon class="st1" points="14.4,54.2 15.6,60.5 15.6,65.2 16.4,59.7 	"/>
	<polygon class="st1" points="16.2,53.6 18.3,53.9 19.4,55 17.8,54.2 15.4,53.6 	"/>
	<polygon class="st1" points="11.8,67.4 11.2,75.1 11.7,77.7 11.5,74.8 	"/>
	<polygon class="st1" points="12.7,76 12.1,71 12.7,64.7 12.4,70.8 	"/>
	<polygon class="st1" points="22.7,65.8 21.1,67.1 21.9,66.7 	"/>
	<polygon class="st1" points="22.5,67.1 22.7,67.4 21.1,68.6 19.4,68.6 21.1,68.1 	"/>
	<polygon class="st1" points="13.8,75.7 13.3,76.4 14.6,75.7 15.8,75.3 15.8,76 19.3,73 16,75.1 	"/>
	<polygon class="st1" points="19.3,73 22.9,73 23,73.6 	"/>
	<polygon class="st1" points="23,55.4 23.6,54.6 22.4,55.6 	"/>
	<polygon class="st1" points="22.9,60.3 22.1,65.8 22.5,56.7 	"/>
	<polygon class="st8" points="18.2,73.9 18.2,75 19.3,79.6 18.8,81.9 19.1,82.4 19.8,82.1 21.1,81.9 21.6,81.6 21.9,80.5 21.3,79.6 
		21.4,78.7 20.3,73.2 19.3,73 	"/>
	<path class="st6" d="M18.9,81.7l0.3,0.5l0.7-0.4l0.3-0.2h0.2v0.2l0.2-0.2h0.2v0.1l0.2-0.1l0.2,0.1l0.1-0.3l0.1,0.1V82l-0.1,0.2
		L21.2,82l-0.1,0.3l-0.3-0.1L20.8,82l-0.1,0.1l-0.1,0.2l-0.2,0.1c0,0-0.1,0-0.2-0.1s0-0.1,0-0.1l-0.1,0L20,82.3l-0.2,0.1l-0.1-0.1
		l-0.1,0.1l0,0.1l-0.1,0.3h-0.1h-0.1c0,0,0.1,0-0.1,0s-0.6-0.2-0.6-0.2l-0.1-0.3L18.9,81.7z"/>
	<polygon class="st15" points="21.4,79 21.3,79.6 21.9,80.5 21.4,78.7 	"/>
	<polygon class="st15" points="17.7,74.6 19.3,79.6 18.5,75.4 18.5,73.9 	"/>
	<polygon class="st6" points="21,79.3 21.1,78 20.2,73.3 20.7,79.3 	"/>
	<polygon class="st15" points="20.4,73.3 21,79.2 21.3,79.6 21.4,78.7 20.3,73.2 	"/>
	<polygon class="st15" points="19.7,82.8 19.8,82.4 19.8,82.3 19.9,82.4 20.1,82.2 20.1,82.1 20.3,82.1 20.3,82.3 20.4,82.4 
		20.4,82.4 20.6,82.3 20.7,82.1 20.8,82 20.8,82.2 21.1,82.3 21.2,82 21.3,82.1 21.4,82 21.4,82.1 21.4,82.2 21.2,82.3 21.2,82.2 
		21.2,82.3 21,82.3 20.9,82.3 20.8,82.2 20.8,82.2 20.7,82.2 20.7,82.3 20.6,82.3 20.3,82.4 20.2,82.4 20.2,82.3 20.2,82.3 
		20.1,82.3 20,82.4 19.9,82.4 19.9,82.5 19.8,82.5 19.8,82.6 19.8,82.7 19.7,82.8 19.7,82.8 19.4,82.8 19.1,82.8 18.8,82.8 
		18.6,82.6 18.5,82.5 18.6,82.4 18.7,82.4 18.7,82.5 18.8,82.6 18.9,82.7 19.1,82.8 19.3,82.8 19.4,82.8 19.5,82.8 	"/>
	<polygon class="st15" points="18.7,82.4 19.3,79.6 18.5,82.5 	"/>
	<polygon class="st8" points="14,76.4 13.3,80.4 13.4,81.5 13.3,81.7 12.7,81.7 12.5,81.5 11.1,82.1 10.9,81.6 11.8,81.1 12.4,80.6 
		12.5,76.1 12.9,76.1 14.1,75.8 13.6,76.6 	"/>
	<polygon class="st8" points="12.5,76.1 12,75.7 12.2,81.1 12.4,80.6 	"/>
	<polygon class="st6" points="12.2,80.8 11.9,81.3 10.7,81.9 10.6,81.5 11.4,81.1 12.2,80.2 12.3,80.6 	"/>
	<polygon class="st15" points="10.7,81.9 10.7,82.3 11,82.4 12.3,81.9 12.7,81.7 13.3,81.7 13.4,81.5 13.3,81.1 12.5,81.5 
		11.1,82.1 11,81.7 	"/>
	<polygon class="st15" points="12.1,79.6 11.3,80.8 10.3,81.6 10.3,81.9 10.4,82.1 10.7,82.1 10.7,81.9 10.6,81.5 11.4,81.1 
		12.2,80.2 	"/>
	<polygon class="st6" points="13.6,76.7 14.1,76.5 13.3,80.4 13.5,77 	"/>
	<polygon class="st15" points="12,75.7 11.9,75.6 12.2,79.6 	"/>
	<polygon class="st15" points="10.4,81.6 10.2,81.7 10.2,81.8 10.3,81.8 10.3,82 10.3,82.1 10.4,82.1 10.4,82.2 10.5,82.3 
		10.6,82.2 10.6,82.4 10.7,82.6 10.9,82.7 10.9,82.6 11,82.4 11,82.2 10.8,82.1 10.7,82.1 10.6,82 10.5,82 10.4,81.8 10.4,81.7 
		10.4,81.7 	"/>
	<polygon class="st6" points="10.4,81.5 10.2,81.6 10.2,81.7 10.3,81.7 10.3,81.9 10.3,82 10.4,82 10.4,82.1 10.5,82.2 10.6,82.1 
		10.6,82.3 10.7,82.5 10.9,82.6 10.9,82.5 11,82.3 11,82.1 10.8,82 10.7,82 10.6,81.9 10.5,81.9 10.4,81.7 10.4,81.7 10.4,81.6 	"/>
	<polygon class="st6" points="12.1,79.6 11.5,75.8 11.5,75.3 11.9,75.6 12,77.8 12.2,78.8 	"/>
</g>
</svg>
