<?xml version="1.0" encoding="utf-8"?>
<!-- Generator: Adobe Illustrator 21.0.0, SVG Export Plug-In . SVG Version: 6.00 Build 0)  -->
<svg version="1.1" xmlns="http://www.w3.org/2000/svg" xmlns:xlink="http://www.w3.org/1999/xlink" x="0px" y="0px"
	 viewBox="0 0 100 100" style="enable-background:new 0 0 100 100;" xml:space="preserve">
<style type="text/css">
	.st0{fill:#4DB6AC;}
	.st1{fill:#B2DFDB;}
	.st2{fill:#E0F2F1;}
	.st3{fill:#80CBC4;}
</style>
<g id="Bowl">
	<g id="Bowl_1_">
		<polygon class="st0" points="12.3,37.1 13.4,53.1 24.2,52.5 		"/>
		<polygon class="st1" points="24.2,52.5 27.7,61.8 13.4,53.1 		"/>
		<polygon class="st0" points="24.2,52.5 40,51.8 27.7,61.8 		"/>
		<polygon class="st2" points="24.2,52.5 40,51.8 20.2,33.2 		"/>
		<polygon class="st1" points="20.2,33.2 12.3,37.1 24.2,52.5 		"/>
		<polygon class="st0" points="12.3,37.1 19.1,26.8 20.2,33.2 		"/>
		<polygon class="st1" points="19.1,26.8 40,51.8 20.2,33.2 		"/>
		<polygon class="st3" points="40,51.8 44.6,46.2 19.1,26.8 		"/>
		<polygon class="st0" points="44.6,46.2 45.9,44.7 19.1,26.8 		"/>
		<polygon class="st3" points="40,51.8 45.5,70.2 27.7,61.8 		"/>
		<polygon class="st2" points="40,51.8 59.9,57 57.3,69.2 45.5,70.2 		"/>
		<polygon class="st0" points="40,51.8 45.9,44.7 59.9,57 		"/>
		<polygon class="st1" points="27.7,61.8 48.6,78.3 45.5,70.2 		"/>
		<line class="st1" x1="59.9" y1="57" x2="13.3" y2="35.5"/>
		<polygon class="st3" points="57.3,69.2 59.9,57 67.2,75.1 45.5,70.2 		"/>
		<polygon class="st3" points="59.9,57 77.6,65.7 46.3,45 		"/>
		<polygon class="st2" points="64.5,68.1 73.1,63.5 77.6,65.7 		"/>
		<polygon class="st0" points="64.5,68.1 73.1,63.5 59.9,57 		"/>
		<polygon class="st1" points="67.2,75.1 71.2,74.7 77.6,65.7 64.5,68.1 		"/>
		<polygon class="st0" points="71.2,74.7 55.6,80.1 56.6,72.7 67.2,75.1 		"/>
		<polygon class="st2" points="55.6,80.1 48.6,78.3 45.5,70.2 56.6,72.7 		"/>
		<polygon class="st2" points="48.6,78.3 27.7,63.4 13.4,53.1 27.7,61.8 		"/>
	</g>
	<g id="Bar">
		<polygon class="st2" points="19.1,26.8 19.4,26.2 78,65 77.6,65.7 46.3,45 45.9,44.7 		"/>
		<polygon class="st2" points="78,65 78.3,64.4 50.2,46.1 45.3,43.3 		"/>
	</g>
</g>
<g id="Water">
	<g id="W_x5F_1_1_">
		<polygon class="st1" points="86.9,63 87.9,64.3 88.9,66.1 87.5,64.9 		"/>
		<polygon class="st3" points="87.5,64.9 86.8,63.1 86.8,62.9 86.9,63 		"/>
		<polygon class="st0" points="87.5,64.9 88.9,66.1 88.1,68.3 88,66.6 		"/>
		<polygon class="st3" points="88.9,66.1 88.1,68.3 89.7,71.9 		"/>
		<polygon class="st0" points="88.9,66.1 89.9,69 89.7,71.9 		"/>
		<polygon class="st3" points="89.9,69 89.5,73.5 90.1,74 90.4,73.8 90.4,71.3 		"/>
		<polygon class="st0" points="88.1,68.3 89.5,73.5 89.7,71.9 		"/>
		<polygon class="st1" points="88.1,68.3 87.8,71.1 89.7,71.9 		"/>
		<polygon class="st3" points="89,71.6 88.6,76.6 87.8,71.1 		"/>
		<polygon class="st1" points="89,71.6 89.5,73.5 90.1,74 88.6,76.6 		"/>
		<polygon class="st1" points="88.2,74.1 86.5,81 88.3,77.3 		"/>
		<polygon class="st0" points="88.2,74.1 88.6,76.6 88.3,77.3 		"/>
		<polygon class="st0" points="87.8,71.1 87.3,72.1 86.6,72.2 88.2,74.1 		"/>
		<polygon class="st3" points="86.5,81 86.6,72.2 88.2,74.1 		"/>
		<polygon class="st0" points="86.6,72.2 85.6,72.1 84.7,72.5 84.3,73.5 86.5,81 		"/>
		<polygon class="st1" points="84.3,73.5 83.7,78.8 85.9,78.8 		"/>
		<polygon class="st3" points="83.7,78.8 85.9,78.8 86.5,81 84.9,83 		"/>
		<polygon class="st0" points="84.3,73.5 83.1,79.3 84.9,83 83.7,78.8 		"/>
		<polygon class="st1" points="85.8,78.8 84.5,84.4 86.5,81 		"/>
		<polygon class="st3" points="83.1,79.3 84.5,84.4 84.9,83 		"/>
		<polygon class="st0" points="83.7,81.3 83.4,82 82.9,82.4 84,82.7 		"/>
		<polygon class="st1" points="82.9,82.4 83.3,84.1 84,82.7 		"/>
		<polygon class="st1" points="82.9,82.4 83.7,81.3 83.4,82 		"/>
		<polygon class="st3" points="83.3,84.1 82.7,84.8 82.9,82.4 		"/>
		<polygon class="st0" points="82.7,84.8 82.9,85.3 83.1,85.5 83.5,85.1 83.3,84.1 		"/>
		<polygon class="st1" points="83.1,85.5 83.6,85.4 83.5,85.1 		"/>
		<polygon class="st0" points="84,82.7 83.9,84.2 83.3,84.1 		"/>
		<polygon class="st3" points="83.3,84.1 84.5,84.4 83.6,85.4 83.5,85.1 		"/>
		<polygon class="st1" points="84.5,84.4 84,82.7 83.9,84.2 83.5,84.1 		"/>
		<polygon class="st1" points="83.7,81.3 83.1,79.3 82.8,80.6 		"/>
		<polygon class="st0" points="83.7,81.3 82.8,81.1 82.8,80.6 		"/>
		<polygon class="st3" points="83.7,81.3 82.9,82.4 82.6,82.6 82.8,81.1 		"/>
		<polygon class="st0" points="82.9,82.4 82.6,82.6 82.6,83.6 82.6,84.5 82.7,84.8 		"/>
	</g>
	<g id="W_x5F_2_1_">
		<polygon class="st1" points="91.2,53.7 91.4,54.1 91.5,54.6 91.2,54.2 		"/>
		<polygon class="st3" points="91.2,54.2 91.1,53.7 91.1,53.6 91.2,53.7 		"/>
		<polygon class="st0" points="91.2,54.2 91.5,54.6 91.2,55.1 91.3,54.7 		"/>
		<polygon class="st3" points="91.5,54.6 91.2,55.1 91.5,56.1 		"/>
		<polygon class="st0" points="91.5,54.6 91.7,55.4 91.5,56.1 		"/>
		<polygon class="st3" points="91.7,55.4 91.4,56.5 91.5,56.7 91.6,56.6 91.7,56 		"/>
		<polygon class="st0" points="91.2,55.1 91.4,56.5 91.5,56.1 		"/>
		<polygon class="st1" points="91.2,55.1 91,55.8 91.5,56.1 		"/>
		<polygon class="st3" points="91.3,56 91,57.3 91,55.8 		"/>
		<polygon class="st1" points="91.3,56 91.4,56.5 91.5,56.7 91,57.3 		"/>
		<polygon class="st1" points="91,56.6 90.2,58.3 90.9,57.5 		"/>
		<polygon class="st0" points="91,56.6 91,57.3 90.9,57.5 		"/>
		<polygon class="st0" points="91,55.8 90.8,56.1 90.6,56.1 91,56.6 		"/>
		<polygon class="st3" points="90.2,58.3 90.6,56.1 91,56.6 		"/>
		<polygon class="st0" points="90.6,56.1 90.4,56 90.1,56 90,56.3 90.2,58.3 		"/>
		<polygon class="st1" points="90,56.3 89.6,57.6 90.2,57.7 		"/>
		<polygon class="st3" points="89.6,57.6 90.2,57.7 90.2,58.3 89.7,58.8 		"/>
		<polygon class="st0" points="90,56.3 89.4,57.8 89.7,58.8 89.6,57.6 		"/>
		<polygon class="st1" points="90.1,57.7 89.6,59.1 90.2,58.3 		"/>
		<polygon class="st3" points="89.4,57.8 89.6,59.1 89.7,58.8 		"/>
		<polygon class="st0" points="89.5,58.3 89.4,58.5 89.2,58.5 89.5,58.7 		"/>
		<polygon class="st1" points="89.2,58.5 89.3,59 89.5,58.7 		"/>
		<polygon class="st1" points="89.2,58.5 89.5,58.3 89.4,58.5 		"/>
		<polygon class="st3" points="89.3,59 89.1,59.2 89.2,58.5 		"/>
		<polygon class="st0" points="89.1,59.2 89.1,59.3 89.1,59.4 89.3,59.3 89.3,59 		"/>
		<polygon class="st1" points="89.1,59.4 89.3,59.4 89.3,59.3 		"/>
		<polygon class="st0" points="89.5,58.7 89.4,59.1 89.3,59 		"/>
		<polygon class="st3" points="89.3,59 89.6,59.1 89.3,59.4 89.3,59.3 		"/>
		<polygon class="st1" points="89.6,59.1 89.5,58.7 89.4,59.1 89.3,59 		"/>
		<polygon class="st1" points="89.5,58.3 89.4,57.8 89.3,58.1 		"/>
		<polygon class="st0" points="89.5,58.3 89.3,58.2 89.3,58.1 		"/>
		<polygon class="st3" points="89.5,58.3 89.2,58.5 89.1,58.6 89.3,58.2 		"/>
		<polygon class="st0" points="89.2,58.5 89.1,58.6 89.1,58.9 89.1,59.1 89.1,59.2 		"/>
	</g>
	<g id="W_x5F_3_1_">
		<polygon class="st1" points="77.8,49.2 78.7,49.7 79.8,50.5 78.6,50.1 		"/>
		<polygon class="st3" points="78.6,50.1 77.7,49.3 77.6,49.2 77.8,49.2 		"/>
		<polygon class="st0" points="78.6,50.1 79.8,50.5 80,51.9 79.4,51 		"/>
		<polygon class="st3" points="79.8,50.5 80,51.9 82,53.5 		"/>
		<polygon class="st0" points="79.8,50.5 81.3,51.8 82,53.5 		"/>
		<polygon class="st3" points="81.3,51.8 82.4,54.5 82.9,54.5 82.9,54.4 82.2,52.9 		"/>
		<polygon class="st0" points="80,51.9 82.4,54.5 82,53.5 		"/>
		<polygon class="st1" points="80,51.9 80.7,53.6 82,53.5 		"/>
		<polygon class="st3" points="81.5,53.5 82.8,56.5 80.7,53.6 		"/>
		<polygon class="st1" points="81.5,53.5 82.4,54.5 82.9,54.5 82.8,56.5 		"/>
		<polygon class="st1" points="81.8,55.2 82.9,59.6 82.8,57 		"/>
		<polygon class="st0" points="81.8,55.2 82.8,56.5 82.8,57 		"/>
		<polygon class="st0" points="80.7,53.6 80.7,54.3 80.3,54.6 81.8,55.2 		"/>
		<polygon class="st3" points="82.9,59.6 80.3,54.6 81.8,55.2 		"/>
		<polygon class="st0" points="80.3,54.6 79.7,54.8 79.3,55.3 79.4,56 82.9,59.6 		"/>
		<polygon class="st1" points="79.4,56 80.6,59.2 81.9,58.6 		"/>
		<polygon class="st3" points="80.6,59.2 81.9,58.6 82.9,59.6 82.5,61.2 		"/>
		<polygon class="st0" points="79.4,56 80.4,59.7 82.5,61.2 80.6,59.2 		"/>
		<polygon class="st1" points="81.8,58.6 82.8,62.1 82.9,59.6 		"/>
		<polygon class="st3" points="80.4,59.7 82.8,62.1 82.5,61.2 		"/>
		<polygon class="st0" points="81.4,60.7 81.4,61.1 81.2,61.5 82,61.3 		"/>
		<polygon class="st1" points="81.2,61.5 82,62.3 82,61.3 		"/>
		<polygon class="st1" points="81.2,61.5 81.4,60.7 81.4,61.1 		"/>
		<polygon class="st3" points="82,62.3 81.8,62.9 81.2,61.5 		"/>
		<polygon class="st0" points="81.8,62.9 82.1,63.2 82.3,63.2 82.4,62.9 82,62.3 		"/>
		<polygon class="st1" points="82.3,63.2 82.5,63 82.4,62.9 		"/>
		<polygon class="st0" points="82,61.3 82.4,62.2 82,62.3 		"/>
		<polygon class="st3" points="82,62.3 82.8,62.1 82.5,63 82.4,62.9 		"/>
		<polygon class="st1" points="82.8,62.1 82,61.3 82.4,62.2 82.1,62.3 		"/>
		<polygon class="st1" points="81.4,60.7 80.4,59.7 80.7,60.5 		"/>
		<polygon class="st0" points="81.4,60.7 80.8,60.8 80.7,60.5 		"/>
		<polygon class="st3" points="81.4,60.7 81.2,61.5 81.1,61.7 80.8,60.8 		"/>
		<polygon class="st0" points="81.2,61.5 81.1,61.7 81.4,62.3 81.7,62.8 81.8,62.9 		"/>
	</g>
	<g id="W_x5F_4_1_">
		<polygon class="st1" points="34.4,21.9 34.3,21.1 34.4,20 34.7,20.9 		"/>
		<polygon class="st3" points="34.7,20.9 34.5,21.9 34.5,22 34.4,21.9 		"/>
		<polygon class="st0" points="34.7,20.9 34.4,20 35.3,19.3 34.9,20.1 		"/>
		<polygon class="st3" points="34.4,20 35.3,19.3 35.6,17.3 		"/>
		<polygon class="st0" points="34.4,20 34.7,18.5 35.6,17.3 		"/>
		<polygon class="st3" points="34.7,18.5 36,16.7 35.9,16.3 35.8,16.3 35.1,17.4 		"/>
		<polygon class="st0" points="35.3,19.3 36,16.7 35.6,17.3 		"/>
		<polygon class="st1" points="35.3,19.3 36.2,18.2 35.6,17.3 		"/>
		<polygon class="st3" points="35.8,17.6 37.3,15.6 36.2,18.2 		"/>
		<polygon class="st1" points="35.8,17.6 36,16.7 35.9,16.3 37.3,15.6 		"/>
		<polygon class="st1" points="36.8,16.8 39.3,14.3 37.6,15.4 		"/>
		<polygon class="st0" points="36.8,16.8 37.3,15.6 37.6,15.4 		"/>
		<polygon class="st0" points="36.2,18.2 36.6,17.9 37,18 36.8,16.8 		"/>
		<polygon class="st3" points="39.3,14.3 37,18 36.8,16.8 		"/>
		<polygon class="st0" points="37,18 37.3,18.3 37.9,18.4 38.3,18.1 39.3,14.3 		"/>
		<polygon class="st1" points="38.3,18.1 39.9,15.9 39,15.4 		"/>
		<polygon class="st3" points="39.9,15.9 39,15.4 39.3,14.3 40.5,13.8 		"/>
		<polygon class="st0" points="38.3,18.1 40.3,15.9 40.5,13.8 39.9,15.9 		"/>
		<polygon class="st1" points="39,15.4 41,13.3 39.3,14.3 		"/>
		<polygon class="st3" points="40.3,15.9 41,13.3 40.5,13.8 		"/>
		<polygon class="st0" points="40.6,14.9 40.9,14.6 41.2,14.6 40.8,14.2 		"/>
		<polygon class="st1" points="41.2,14.6 41.5,13.8 40.8,14.2 		"/>
		<polygon class="st1" points="41.2,14.6 40.6,14.9 40.9,14.6 		"/>
		<polygon class="st3" points="41.5,13.8 41.9,13.6 41.2,14.6 		"/>
		<polygon class="st0" points="41.9,13.6 42,13.4 41.9,13.2 41.6,13.3 41.5,13.8 		"/>
		<polygon class="st1" points="41.9,13.2 41.7,13.1 41.6,13.3 		"/>
		<polygon class="st0" points="40.8,14.2 41.2,13.6 41.5,13.8 		"/>
		<polygon class="st3" points="41.5,13.8 41,13.3 41.7,13.1 41.6,13.3 		"/>
		<polygon class="st1" points="41,13.3 40.8,14.2 41.2,13.6 41.4,13.7 		"/>
		<polygon class="st1" points="40.6,14.9 40.3,15.9 40.8,15.4 		"/>
		<polygon class="st0" points="40.6,14.9 40.9,15.2 40.8,15.4 		"/>
		<polygon class="st3" points="40.6,14.9 41.2,14.6 41.4,14.6 40.9,15.2 		"/>
		<polygon class="st0" points="41.2,14.6 41.4,14.6 41.7,14.2 41.9,13.8 41.9,13.6 		"/>
	</g>
	<g id="Pwat_1_">
		<g id="Pwat_x5F_1_1_">
			<polygon class="st0" points="55.2,49 57.7,49 59.9,49.9 60.9,49.3 			"/>
			<polygon class="st3" points="59.9,49.9 58.1,49.1 55.2,49 57.8,50.6 			"/>
			<polygon class="st1" points="57.8,50.6 58.1,49.1 59.9,49.9 62.2,53.4 62.9,51.4 			"/>
			<polygon class="st3" points="60.7,51 59.9,49.9 60.9,49.3 			"/>
			<polygon class="st0" points="60.9,49.3 62.9,51.4 60.7,51 			"/>
			<polygon class="st3" points="60.7,51 62.2,53.4 57.8,50.6 			"/>
			<polygon class="st3" points="60.9,49.3 61.4,48.5 60.3,49.2 			"/>
			<polygon class="st1" points="61.4,48.6 62.9,51.4 60.9,49.3 61.4,48.5 			"/>
			<polygon class="st3" points="62.9,51.4 63.4,49.8 62.1,50 			"/>
			<polygon class="st0" points="62.1,50 62.7,48.1 62.7,49.9 			"/>
			<polygon class="st3" points="62.1,50 61.4,48.6 61.4,48.5 62.2,48.5 62.7,48.1 			"/>
			<polygon class="st1" points="62.7,49.9 63.7,48 62.7,48.1 			"/>
			<polygon class="st3" points="62.7,48.1 63.6,47.2 63.5,48 			"/>
			<polygon class="st0" points="62.7,49.9 64.4,46.5 66.4,47.1 			"/>
			<polygon class="st2" points="63.5,48 63.6,47.2 64.4,46.5 63.7,48 			"/>
			<polygon class="st1" points="63,51 63.6,50.8 65.2,50.8 63.4,49.8 			"/>
			<polygon class="st2" points="63.4,49.8 62.7,49.9 64.4,48.6 64,50.1 			"/>
			<polygon class="st3" points="66.4,47.1 64,50.1 64.4,48.6 			"/>
			<polygon class="st0" points="65.1,48.8 65.2,50.8 64,50.1 			"/>
			<polygon class="st2" points="64.7,50.8 66.4,50.8 66.5,51 			"/>
			<polygon class="st0" points="63.5,50.8 63.6,50.8 64.8,50.8 65.8,50.9 63.3,50.9 			"/>
			<polygon class="st1" points="65.1,48.8 66,50.8 65.2,50.8 			"/>
			<polygon class="st0" points="66.4,47.1 66,50.8 65.1,48.8 			"/>
			<polygon class="st1" points="66.4,47.1 67.2,44.2 64.4,46.5 			"/>
			<polygon class="st3" points="67.2,44.2 69.8,45.3 66.2,48.4 66.4,47.1 			"/>
			<polygon class="st2" points="67.3,47.4 67.9,47.6 66.2,48.4 			"/>
			<polygon class="st1" points="66.2,48.4 67.1,51 66.4,50.8 66,50.8 			"/>
			<polygon class="st3" points="67.9,47.6 67.1,51 66.2,48.4 			"/>
			<polygon class="st0" points="66.4,50.8 68.1,51.5 66.5,51 			"/>
			<polygon class="st0" points="67.3,47.4 67.9,47.6 69.8,46.8 71,46.2 69.8,45.3 			"/>
			<polygon class="st2" points="67.9,47.6 71,46.2 68.1,51.5 			"/>
			<polygon class="st0" points="67.9,47.6 67.1,51 68.1,51.5 			"/>
			<polygon class="st2" points="67.2,44.2 69.8,45.3 71,46.2 71.7,42.8 			"/>
			<polygon class="st1" points="69.8,45.3 71.3,44.5 71,46.2 			"/>
			<polygon class="st0" points="67.2,44.2 71.7,42.8 71.7,41.6 70.1,42.3 			"/>
			<polygon class="st3" points="69.8,48.4 69.7,51.4 69.3,53.2 68.1,51.5 			"/>
			<polygon class="st0" points="71,46.2 71.2,48.9 69.7,51.4 69.8,48.4 			"/>
			<polygon class="st1" points="71,46.2 72.8,48.9 72.5,49.5 72.4,49.9 71.2,48.9 			"/>
			<polygon class="st2" points="71.3,44.5 72.9,45 72.1,47.9 71,46.2 			"/>
			<polygon class="st1" points="71.7,42.8 72.9,45 71.3,44.5 			"/>
			<polygon class="st2" points="71.2,48.9 71.3,51.4 69.3,53.2 69.7,51.4 			"/>
			<polygon class="st0" points="71.3,51.4 72.4,50.1 72.4,49.9 71.2,48.9 			"/>
			<polygon class="st3" points="71.8,50.8 72.7,52 72.5,52.6 			"/>
			<polygon class="st0" points="71.3,51.4 72.5,52.6 71.8,50.8 			"/>
			<polygon class="st0" points="71.3,51.4 70.5,53.6 70.2,53.5 69.6,53.5 69.3,53.4 69.3,53.3 69.3,53.2 69.3,53.2 			"/>
			<polygon class="st3" points="70.5,53.6 71.1,54.1 71.4,54.1 71.8,54 71,52.1 			"/>
			<polygon class="st2" points="71.3,51.4 71,52.1 71.5,53.4 71.8,51.9 			"/>
			<polygon class="st0" points="71.7,52.6 71.8,54 71.5,53.4 			"/>
			<polygon class="st2" points="72.4,50.1 72.5,50.9 72.7,52 71.8,50.8 			"/>
			<polygon class="st1" points="71.8,54 72,53.9 72.5,54 72.7,54 71.8,51.9 			"/>
			<polygon class="st3" points="71.8,51.9 71.7,52.6 71.8,54 			"/>
			<polygon class="st2" points="71.8,51.9 72.9,53 72.7,54 			"/>
			<polygon class="st0" points="72.7,53.9 73,53.8 72.9,53 			"/>
			<polygon class="st0" points="72.8,48.9 74,48.2 76.1,48.2 72.9,45 72.1,47.9 			"/>
			<polygon class="st2" points="71.7,41.6 72.9,45 71.7,42.8 			"/>
			<polygon class="st1" points="72.9,45 75.1,42.4 76.1,48.2 			"/>
			<polygon class="st2" points="72.9,45 71.7,41.6 75.1,42.4 			"/>
			<polygon class="st3" points="75.1,42.4 75.6,40.4 73.9,40.9 71.7,41.6 			"/>
			<polygon class="st2" points="75.1,42.4 79.5,41 75.6,40.4 			"/>
			<polygon class="st1" points="75.1,42.4 79.5,43.9 79.5,41 			"/>
			<polygon class="st2" points="79.5,43.9 75.9,47.1 75.1,42.4 			"/>
			<polygon class="st0" points="79.5,43.9 78.3,46.8 75.9,47.1 			"/>
			<polygon class="st3" points="75.9,47.1 76.1,48.2 78.3,46.8 			"/>
			<polygon class="st3" points="79.5,41 82.1,42.9 79.5,43.9 			"/>
			<polygon class="st1" points="82.1,42.9 78.3,46.8 79.5,43.9 			"/>
			<polygon class="st2" points="82.1,42.9 83.8,45.6 81.1,45.8 78.3,46.8 			"/>
			<polygon class="st3" points="78.3,46.8 80.8,47.4 83.8,45.6 81.1,45.8 			"/>
			<polygon class="st0" points="76.1,48.2 77.3,48.1 79.5,48.4 80.5,48.2 81.3,48.5 80.8,47.4 78.3,46.8 			"/>
			<polygon class="st1" points="81.3,48.5 82.7,48.4 84.2,48 80.8,47.4 			"/>
			<polygon class="st0" points="83.8,45.6 83.2,46.8 84.2,48 80.8,47.4 			"/>
			<polygon class="st2" points="83.8,45.6 85.3,46.1 84.2,48 83.2,46.8 			"/>
			<polygon class="st1" points="82.1,42.9 84.6,44.6 85.3,46.1 83.8,45.6 			"/>
			<polygon class="st3" points="82.1,42.9 83.7,42.5 85,44.1 			"/>
			<polygon class="st2" points="79.5,41 81.5,40.8 83.7,42.5 82.1,42.9 			"/>
			<polygon class="st1" points="75.6,40.4 78.9,39.7 79.8,39.7 81.5,40.8 79.5,41 			"/>
			<polygon class="st0" points="85,44.1 85.7,45.2 84.6,44.6 82.1,42.9 			"/>
			<polygon class="st3" points="84.6,44.6 85.7,45.2 85.9,46 85.9,46.4 85.3,46.1 			"/>
			<polygon class="st0" points="85.3,46.1 85.9,46.4 84.2,48 			"/>
			<polygon class="st1" points="64.4,46.5 61.4,48.5 62.2,48.5 			"/>
			<polygon class="st3" points="67.2,44.2 57.7,49 58.1,49.1 60.3,49.2 61.4,48.5 64.4,46.5 			"/>
		</g>
		<polygon class="st3" points="55.2,49 54.3,47.9 54.2,46.9 54.2,48.2 		"/>
		<polygon class="st2" points="54.2,48.2 54.1,48.1 53.3,46.5 54.2,46.9 		"/>
		<polygon class="st0" points="53.3,46.5 54.4,46.1 54.2,46.9 		"/>
		<polygon class="st1" points="53.3,46.5 54.6,45.4 54.4,46.1 		"/>
		<polygon class="st3" points="54.2,48.2 51.4,46.6 53.3,46.5 		"/>
		<polygon class="st0" points="51.5,46.6 53.8,46.1 53.3,46.5 		"/>
		<polygon class="st2" points="51.5,46.6 52.9,45.5 54.6,45.4 53.8,46.1 		"/>
		<polygon class="st0" points="52.9,45.5 53.6,45 54.6,45.4 		"/>
		<polygon class="st1" points="51.4,46.6 52,45.3 53.3,45 53.6,45 51.5,46.6 		"/>
		<polygon class="st3" points="54.6,45.4 53.6,45 53.3,45 54,44.7 		"/>
		<polygon class="st2" points="54,44.7 54.9,44.3 55,44.5 54.6,45.4 		"/>
		<polygon class="st1" points="54,44.7 54.8,44.3 54.9,44.3 		"/>
		<polygon class="st0" points="51.4,46.6 47.9,44.1 49.5,45.1 50.9,45.4 52,45.3 		"/>
		<polygon class="st3" points="47.9,44.1 48.6,42.2 47.5,42.9 		"/>
		<polygon class="st1" points="47.9,44.1 44.7,41.7 47.5,42.9 		"/>
		<polygon class="st2" points="47.5,42.9 48.6,42.2 44.7,41.7 		"/>
		<polygon class="st3" points="48.6,42.2 47.9,40.4 44.7,41.7 		"/>
		<polygon class="st0" points="48.6,42.2 49.4,40.4 47.9,40.4 		"/>
		<polygon class="st2" points="49.4,40.4 50.9,40 48.6,42.2 		"/>
		<polygon class="st3" points="49.4,40.4 51.7,38.4 51.2,39.4 50.9,40 		"/>
		<polygon class="st2" points="47.9,40.4 49.1,39.1 51.7,38.4 49.4,40.4 		"/>
		<polygon class="st3" points="49.1,39.1 51.9,37.4 51.7,38.4 		"/>
		<polygon class="st1" points="49.1,39.1 50.5,37.4 51.9,37.4 		"/>
		<polygon class="st2" points="50.5,37.4 51.4,36.4 51.6,36.1 51.9,36.4 51.9,37.4 		"/>
		<polygon class="st0" points="50.5,37.4 46.6,40 47.9,40.4 		"/>
		<polygon class="st3" points="50.5,37.4 48.4,38.6 46.6,39.1 44.9,39.1 46.6,40.5 46.6,40 		"/>
		<polygon class="st2" points="47.9,40.4 49.1,39.1 50.5,37.4 49.1,39 48.4,39.8 		"/>
		<polygon class="st2" points="44.9,39.1 46.6,40.5 46.6,40 47.9,40.4 45.7,41.3 		"/>
		<polygon class="st0" points="44.9,39.1 44.7,41.7 45.7,41.3 		"/>
		<polygon class="st1" points="44.9,39.1 43.5,39.1 42.3,38.9 44.7,41.7 		"/>
		<polygon class="st0" points="44.7,41.7 39.5,38 42.3,38.9 		"/>
		<polygon class="st3" points="47.9,44.1 40,39.5 39.5,38 44.7,41.7 		"/>
		<polygon class="st1" points="40,39.5 39.5,38 36.5,35.5 34.6,33.2 37.8,39.1 		"/>
		<polygon class="st3" points="34.6,33.2 33.2,30.1 34.3,36.1 37.8,39.1 		"/>
		<polygon class="st0" points="34.3,36.1 31.4,35.7 33.2,30.1 		"/>
		<polygon class="st2" points="33.2,30.1 30.5,28.7 30.1,30.1 31.4,35.7 		"/>
		<polygon class="st1" points="30.1,30.1 28.9,28.7 30.5,28.7 		"/>
		<path class="st3" d="M28.9,28.7"/>
		<polygon class="st3" points="28.9,28.7 29.5,31.1 29.9,32.4 31.4,35.7 30.1,30.1 		"/>
		<polygon class="st3" points="30.5,28.7 31.7,26.2 32.3,27.8 33.2,30.1 		"/>
		<polygon class="st2" points="30.5,28.7 28.9,28.7 28.8,26.4 28.8,24.5 31.7,26.2 		"/>
		<polygon class="st1" points="28.8,24.5 30.5,23.6 31.7,26.2 		"/>
		<polygon class="st2" points="28.8,24.5 30.5,20.9 31.7,26.2 30.5,23.6 		"/>
		<polygon class="st3" points="28.8,25.8 28.8,24.5 30.5,20.9 28.7,22.7 		"/>
		<polygon class="st1" points="28.7,22.7 29,20.9 29.3,19.5 30.5,20.9 		"/>
		<polygon class="st0" points="29.3,19.5 30.3,19 30.5,20.9 		"/>
		<polygon class="st2" points="30.5,20.9 30.6,19.3 30.8,17.6 30.3,19 		"/>
		<polygon class="st3" points="30.3,19 30.8,17.6 30.8,17 30.5,16.9 29.7,18.5 29.3,19.5 		"/>
	</g>
</g>
</svg>
