<?xml version="1.0" encoding="utf-8"?>
<!-- Generator: Adobe Illustrator 21.0.0, SVG Export Plug-In . SVG Version: 6.00 Build 0)  -->
<svg version="1.1" id="Layer_1" xmlns="http://www.w3.org/2000/svg" xmlns:xlink="http://www.w3.org/1999/xlink" x="0px" y="0px"
	 viewBox="0 0 300 200" enable-background="new 0 0 300 200" xml:space="preserve">
<g id="winding">
	<path fill="none" stroke="#000000" stroke-miterlimit="10" d="M28.9,111.5c0,0,1.2-3.9,2.6-8.7C32.9,98,37.6,90.2,42,85.4
		s14.6-12.4,22.8-17S86.9,56.9,95.7,53s21.6-8.6,28.4-10.5s17.7-3.5,24.2-3.6c6.5-0.1,16.1,1.2,21.4,2.9c5.3,1.7,13.6,5.6,18.4,8.7
		c4.8,3.1,12.4,9.4,16.9,14.1s9.5,11.5,11.3,15.1c1.8,3.6,4.2,10.3,5.4,14.7c1.2,4.4,1.6,11.6,0.8,15.8c-0.8,4.3-3.4,10.3-5.8,13.3
		s-7.6,6.9-11.7,8.6s-10.8,4-15.1,5.2c-4.3,1.2-11.2,2-15.3,1.9c-4.1-0.1-9.8-1.8-12.7-3.6c-2.9-1.9-7.6-6.7-10.4-10.8
		c-2.8-4.1-6-10.6-7.1-14.6c-1.1-4-2.3-10.7-2.6-15s1-10.9,3-14.8s5.8-9.7,8.5-12.8c2.6-3.1,7.8-6.9,11.4-8.5
		c3.6-1.6,9.5-3.9,13.1-5.1s10.8-2.9,16.1-3.7s13.2-1.2,17.6-1c4.4,0.2,12,0.8,17,1.4c4.9,0.6,12,2.6,15.7,4.3
		c3.7,1.8,6.8,3.2,6.8,3.2"/>
</g>
</svg>
