<?xml version="1.0" encoding="utf-8"?>
<!-- Generator: Adobe Illustrator 21.0.0, SVG Export Plug-In . SVG Version: 6.00 Build 0)  -->
<svg version="1.1" id="Layer_1" xmlns="http://www.w3.org/2000/svg" xmlns:xlink="http://www.w3.org/1999/xlink" x="0px" y="0px"
	 viewBox="0 0 40 35" enable-background="new 0 0 40 35" xml:space="preserve">
<path fill="none" stroke="#004D40" stroke-width="0.25" stroke-linecap="round" stroke-miterlimit="10" d="M11.8,12.7
	c1.3-0.2,2.6,0.6,2.8,1.9c0.3,1.6-0.8,3.2-2.4,3.5c-2.1,0.4-4-1-4.4-3c-0.5-2.6,1.2-5.1,3.8-5.5c3.2-0.6,6.3,1.5,6.9,4.8
	c0.7,4-1.9,7.9-5.9,8.6c-5,0.9-9.9-2.4-10.8-7.4C0.6,9.2,4.7,1.8,11.1,2c8.9,0.4,9.5,8.5,16.9,11.6c8.1,3.4,10.8,1.1,10.8,1.1"/>
<path fill="none" stroke="#004D40" stroke-width="0.25" stroke-linecap="round" stroke-miterlimit="10" d="M23.5,27.9
	c0.6-0.1,1.2,0.3,1.3,0.9c0.1,0.7-0.4,1.5-1.1,1.6c-0.9,0.2-1.8-0.4-2-1.4c-0.2-1.2,0.6-2.3,1.7-2.5c1.5-0.3,2.8,0.7,3.1,2.1
	c0.3,1.8-0.9,3.6-2.7,3.9c-2.3,0.4-4.5-1.1-4.9-3.4c-0.5-2.8,1.3-6.2,4.2-6.1c4,0.2,4.3,3.8,7.6,5.2c3.6,1.5,4.9,0.5,4.9,0.5"/>
</svg>
